*
*
G04 PADS 9.2 Build Number: 406656 generated Gerber (RS-274-X) file*
G04 PC Version=2.1*
*
%IN "2.4GHzAmp.pcb"*%
*
%MOIN*%
*
%FSLAX35Y35*%
*
*
*
*
G04 PC Standard Apertures*
*
*
G04 Thermal Relief Aperture macro.*
%AMTER*
1,1,$1,0,0*
1,0,$1-$2,0,0*
21,0,$3,$4,0,0,45*
21,0,$3,$4,0,0,135*
%
*
*
G04 Annular Aperture macro.*
%AMANN*
1,1,$1,0,0*
1,0,$2,0,0*
%
*
*
G04 Odd Aperture macro.*
%AMODD*
1,1,$1,0,0*
1,0,$1-0.005,0,0*
%
*
*
G04 PC Custom Aperture Macros*
*
*
*
*
*
*
G04 PC Aperture Table*
*
%ADD010C,0.001*%
%ADD014C,0.06*%
%ADD015C,0.01*%
%ADD018C,0.095*%
%ADD019C,0.1*%
%ADD023C,0.04331*%
%ADD024C,0.05906*%
%ADD027C,0.15*%
%ADD032C,0.03*%
%ADD033C,0.02*%
*
*
*
*
G04 PC Circuitry*
G04 Layer Name 2.4GHzAmp.pcb - circuitry*
%LPD*%
*
*
G04 PC Custom Flashes*
G04 Layer Name 2.4GHzAmp.pcb - flashes*
%LPD*%
*
*
G04 PC Circuitry*
G04 Layer Name 2.4GHzAmp.pcb - circuitry*
%LPD*%
*
G54D10*
G54D14*
G01X306500Y261500D03*
G54D15*
X221000Y310000D02*
X235000D01*
Y296000*
X221000*
Y310000*
Y309499D02*
X235000D01*
X221000Y308599D02*
X235000D01*
X221000Y307699D02*
X235000D01*
X221000Y306799D02*
X235000D01*
X221000Y305899D02*
X235000D01*
X221000Y304999D02*
X235000D01*
X221000Y304099D02*
X235000D01*
X221000Y303199D02*
X235000D01*
X221000Y302299D02*
X235000D01*
X221000Y301399D02*
X235000D01*
X221000Y300499D02*
X235000D01*
X221000Y299599D02*
X235000D01*
X221000Y298699D02*
X235000D01*
X221000Y297799D02*
X235000D01*
X221000Y296899D02*
X235000D01*
X436100Y114500D02*
G75*
G03X436100I-8600J0D01*
G01Y544000D02*
G03X436100I-8600J0D01*
G01X416325Y242248D02*
G03X416325I-2825J0D01*
G01X417553Y250122D02*
G03X417553I-4053J0D01*
G01X361600Y248000D02*
G03X361600I-3100J0D01*
G01X350765Y483626D02*
G03X350765I-3265J0D01*
G01X349931Y491500D02*
G03X349931I-2431J0D01*
G01X339100Y252500D02*
G03X339100I-3100J0D01*
G01Y265500D02*
G03X339100I-3100J0D01*
G01X327600Y182500D02*
G03X327600I-3100J0D01*
G01X325350Y480300D02*
G03X325350I-5850J0D01*
G01X324300Y502000D02*
G03X324300I-4800J0D01*
G01X326500Y530700D02*
G03X326500I-7000J0D01*
G01X310600Y261500D02*
G03X310600I-4100J0D01*
G01X278600Y239500D02*
G03X278600I-3100J0D01*
G01X284139Y265000D02*
G03X284139I-3265J0D01*
G01X289600Y321000D02*
G03X289600I-3100J0D01*
G01X286053Y529500D02*
G03X286053I-4053J0D01*
G01X275431Y265000D02*
G03X275431I-2431J0D01*
G01X276951Y529500D02*
G03X276951I-2825J0D01*
G01X270305D02*
G03X270305I-4053J0D01*
G01X261203D02*
G03X261203I-2825J0D01*
G01X248600Y117000D02*
G03X248600I-6100J0D01*
G01X228600D02*
G03X228600I-6100J0D01*
G01X237000Y127000D02*
G03X237000I-4500J0D01*
G01X248600Y137000D02*
G03X248600I-6100J0D01*
G01X228600D02*
G03X228600I-6100J0D01*
G01X223600Y498000D02*
G03X223600I-6100J0D01*
G01X203600D02*
G03X203600I-6100J0D01*
G01X212000Y508000D02*
G03X212000I-4500J0D01*
G01X223600Y518000D02*
G03X223600I-6100J0D01*
G01X203600D02*
G03X203600I-6100J0D01*
G01X183100Y117000D02*
G03X183100I-6100J0D01*
G01X163100D02*
G03X163100I-6100J0D01*
G01X171500Y127000D02*
G03X171500I-4500J0D01*
G01X183100Y137000D02*
G03X183100I-6100J0D01*
G01X163100D02*
G03X163100I-6100J0D01*
G01X124600Y114500D02*
G03X124600I-8600J0D01*
G01Y543500D02*
G03X124600I-8600J0D01*
G01X438500Y104000D02*
Y554500D01*
X104000*
Y104000*
X438500*
X436100Y114500D02*
G03X436100I-8600J0D01*
G01Y544000D02*
G03X436100I-8600J0D01*
G01X414462Y230437D02*
G03X412538I-962J3937D01*
X414462I962J-3937*
G01X416325Y242248D02*
G03X416325I-2825J0D01*
G01X417553Y250122D02*
G03X417553I-4053J0D01*
G01X361600Y248000D02*
G03X361600I-3100J0D01*
G01X350765Y483626D02*
G03X350765I-3265J0D01*
G01X349931Y491500D02*
G03X349931I-2431J0D01*
G01X339100Y252500D02*
G03X339100I-3100J0D01*
G01Y265500D02*
G03X339100I-3100J0D01*
G01X327600Y182500D02*
G03X327600I-3100J0D01*
G01X325350Y480300D02*
G03X325350I-5850J0D01*
G01X324300Y502000D02*
G03X324300I-4800J0D01*
G01X326500Y530700D02*
G03X326500I-7000J0D01*
G01X310600Y261500D02*
G03X310600I-4100J0D01*
G01X278600Y239500D02*
G03X278600I-3100J0D01*
G01X284139Y265000D02*
G03X284139I-3265J0D01*
G01X289600Y321000D02*
G03X289600I-3100J0D01*
G01X286053Y529500D02*
G03X286053I-4053J0D01*
G01X275431Y265000D02*
G03X275431I-2431J0D01*
G01X276951Y529500D02*
G03X276951I-2825J0D01*
G01X270305D02*
G03X270305I-4053J0D01*
G01X261203D02*
G03X261203I-2825J0D01*
G01X248600Y117000D02*
G03X248600I-6100J0D01*
G01X228600D02*
G03X228600I-6100J0D01*
G01X237000Y127000D02*
G03X237000I-4500J0D01*
G01X248600Y137000D02*
G03X248600I-6100J0D01*
G01X228600D02*
G03X228600I-6100J0D01*
G01X236600Y310000D02*
Y296000D01*
X235000Y294400D02*
G03X236600Y296000I0J1600D01*
G01X235000Y294400D02*
X221000D01*
X219400Y296000D02*
G03X221000Y294400I1600J0D01*
G01X219400Y296000D02*
Y310000D01*
X221000Y311600D02*
G03X219400Y310000I0J-1600D01*
G01X221000Y311600D02*
X235000D01*
X236600Y310000D02*
G03X235000Y311600I-1600J0D01*
G01X223600Y498000D02*
G03X223600I-6100J0D01*
G01X203600D02*
G03X203600I-6100J0D01*
G01X212000Y508000D02*
G03X212000I-4500J0D01*
G01X223600Y518000D02*
G03X223600I-6100J0D01*
G01X203600D02*
G03X203600I-6100J0D01*
G01X183100Y117000D02*
G03X183100I-6100J0D01*
G01X163100D02*
G03X163100I-6100J0D01*
G01X171500Y127000D02*
G03X171500I-4500J0D01*
G01X183100Y137000D02*
G03X183100I-6100J0D01*
G01X163100D02*
G03X163100I-6100J0D01*
G01X124600Y114500D02*
G03X124600I-8600J0D01*
G01Y543500D02*
G03X124600I-8600J0D01*
G01X104000Y553999D02*
X438500D01*
X104000Y553099D02*
X438500D01*
X430097Y552199D02*
X438500D01*
X432049Y551299D02*
X438500D01*
X433246Y550399D02*
X438500D01*
X434112Y549499D02*
X438500D01*
X434767Y548599D02*
X438500D01*
X435264Y547699D02*
X438500D01*
X435632Y546799D02*
X438500D01*
X435888Y545899D02*
X438500D01*
X436042Y544999D02*
X438500D01*
X436099Y544099D02*
X438500D01*
X436063Y543199D02*
X438500D01*
X435930Y542299D02*
X438500D01*
X435697Y541399D02*
X438500D01*
X435355Y540499D02*
X438500D01*
X434888Y539599D02*
X438500D01*
X434272Y538699D02*
X438500D01*
X433459Y537799D02*
X438500D01*
X432351Y536899D02*
X438500D01*
X430653Y535999D02*
X438500D01*
X324945Y535099D02*
X438500D01*
X325563Y534199D02*
X438500D01*
X326000Y533299D02*
X438500D01*
X326291Y532399D02*
X438500D01*
X326454Y531499D02*
X438500D01*
X326499Y530599D02*
X438500D01*
X326428Y529699D02*
X438500D01*
X326237Y528799D02*
X438500D01*
X325915Y527899D02*
X438500D01*
X325441Y526999D02*
X438500D01*
X324775Y526099D02*
X438500D01*
X323828Y525199D02*
X438500D01*
X322333Y524299D02*
X438500D01*
X220340Y523399D02*
X438500D01*
X221620Y522499D02*
X438500D01*
X222425Y521599D02*
X438500D01*
X222971Y520699D02*
X438500D01*
X223329Y519799D02*
X438500D01*
X223533Y518899D02*
X438500D01*
X223600Y517999D02*
X438500D01*
X223533Y517099D02*
X438500D01*
X223328Y516199D02*
X438500D01*
X222969Y515299D02*
X438500D01*
X222423Y514399D02*
X438500D01*
X221617Y513499D02*
X438500D01*
X220335Y512599D02*
X438500D01*
X210063Y511699D02*
X438500D01*
X211024Y510799D02*
X438500D01*
X211580Y509899D02*
X438500D01*
X211888Y508999D02*
X438500D01*
X211999Y508099D02*
X438500D01*
X211928Y507199D02*
X438500D01*
X321636Y506299D02*
X438500D01*
X322890Y505399D02*
X438500D01*
X323598Y504499D02*
X438500D01*
X324026Y503599D02*
X438500D01*
X324249Y502699D02*
X438500D01*
X324296Y501799D02*
X438500D01*
X324172Y500899D02*
X438500D01*
X323863Y499999D02*
X438500D01*
X323324Y499099D02*
X438500D01*
X322431Y498199D02*
X438500D01*
X320468Y497299D02*
X438500D01*
X223386Y496399D02*
X438500D01*
X223064Y495499D02*
X438500D01*
X222564Y494599D02*
X438500D01*
X348537Y493699D02*
X438500D01*
X349555Y492799D02*
X438500D01*
X349898Y491899D02*
X438500D01*
X349879Y490999D02*
X438500D01*
X349487Y490099D02*
X438500D01*
X348284Y489199D02*
X438500D01*
X104000Y488299D02*
X438500D01*
X104000Y487399D02*
X438500D01*
X349052Y486499D02*
X438500D01*
X350102Y485599D02*
X438500D01*
X350584Y484699D02*
X438500D01*
X350761Y483799D02*
X438500D01*
X350683Y482899D02*
X438500D01*
X350331Y481999D02*
X438500D01*
X349568Y481099D02*
X438500D01*
X325349Y480199D02*
X438500D01*
X325264Y479299D02*
X438500D01*
X325032Y478399D02*
X438500D01*
X324636Y477499D02*
X438500D01*
X324030Y476599D02*
X438500D01*
X323113Y475699D02*
X438500D01*
X321490Y474799D02*
X438500D01*
X104000Y473899D02*
X438500D01*
X104000Y472999D02*
X438500D01*
X104000Y472099D02*
X438500D01*
X104000Y471199D02*
X438500D01*
X104000Y470299D02*
X438500D01*
X104000Y469399D02*
X438500D01*
X104000Y468499D02*
X438500D01*
X104000Y467599D02*
X438500D01*
X104000Y466699D02*
X438500D01*
X104000Y465799D02*
X438500D01*
X104000Y464899D02*
X438500D01*
X104000Y463999D02*
X438500D01*
X104000Y463099D02*
X438500D01*
X104000Y462199D02*
X438500D01*
X104000Y461299D02*
X438500D01*
X104000Y460399D02*
X438500D01*
X104000Y459499D02*
X438500D01*
X104000Y458599D02*
X438500D01*
X104000Y457699D02*
X438500D01*
X104000Y456799D02*
X438500D01*
X104000Y455899D02*
X438500D01*
X104000Y454999D02*
X438500D01*
X104000Y454099D02*
X438500D01*
X104000Y453199D02*
X438500D01*
X104000Y452299D02*
X438500D01*
X104000Y451399D02*
X438500D01*
X104000Y450499D02*
X438500D01*
X104000Y449599D02*
X438500D01*
X104000Y448699D02*
X438500D01*
X104000Y447799D02*
X438500D01*
X104000Y446899D02*
X438500D01*
X104000Y445999D02*
X438500D01*
X104000Y445099D02*
X438500D01*
X104000Y444199D02*
X438500D01*
X104000Y443299D02*
X438500D01*
X104000Y442399D02*
X438500D01*
X104000Y441499D02*
X438500D01*
X104000Y440599D02*
X438500D01*
X104000Y439699D02*
X438500D01*
X104000Y438799D02*
X438500D01*
X104000Y437899D02*
X438500D01*
X104000Y436999D02*
X438500D01*
X104000Y436099D02*
X438500D01*
X104000Y435199D02*
X438500D01*
X104000Y434299D02*
X438500D01*
X104000Y433399D02*
X438500D01*
X104000Y432499D02*
X438500D01*
X104000Y431599D02*
X438500D01*
X104000Y430699D02*
X438500D01*
X104000Y429799D02*
X438500D01*
X104000Y428899D02*
X438500D01*
X104000Y427999D02*
X438500D01*
X104000Y427099D02*
X438500D01*
X104000Y426199D02*
X438500D01*
X104000Y425299D02*
X438500D01*
X104000Y424399D02*
X438500D01*
X104000Y423499D02*
X438500D01*
X104000Y422599D02*
X438500D01*
X104000Y421699D02*
X438500D01*
X104000Y420799D02*
X438500D01*
X104000Y419899D02*
X438500D01*
X104000Y418999D02*
X438500D01*
X104000Y418099D02*
X438500D01*
X104000Y417199D02*
X438500D01*
X104000Y416299D02*
X438500D01*
X104000Y415399D02*
X438500D01*
X104000Y414499D02*
X438500D01*
X104000Y413599D02*
X438500D01*
X104000Y412699D02*
X438500D01*
X104000Y411799D02*
X438500D01*
X104000Y410899D02*
X438500D01*
X104000Y409999D02*
X438500D01*
X104000Y409099D02*
X438500D01*
X104000Y408199D02*
X438500D01*
X104000Y407299D02*
X438500D01*
X104000Y406399D02*
X438500D01*
X104000Y405499D02*
X438500D01*
X104000Y404599D02*
X438500D01*
X104000Y403699D02*
X438500D01*
X104000Y402799D02*
X438500D01*
X104000Y401899D02*
X438500D01*
X104000Y400999D02*
X438500D01*
X104000Y400099D02*
X438500D01*
X104000Y399199D02*
X438500D01*
X104000Y398299D02*
X438500D01*
X104000Y397399D02*
X438500D01*
X104000Y396499D02*
X438500D01*
X104000Y395599D02*
X438500D01*
X104000Y394699D02*
X438500D01*
X104000Y393799D02*
X438500D01*
X104000Y392899D02*
X438500D01*
X104000Y391999D02*
X438500D01*
X104000Y391099D02*
X438500D01*
X104000Y390199D02*
X438500D01*
X104000Y389299D02*
X438500D01*
X104000Y388399D02*
X438500D01*
X104000Y387499D02*
X438500D01*
X104000Y386599D02*
X438500D01*
X104000Y385699D02*
X438500D01*
X104000Y384799D02*
X438500D01*
X104000Y383899D02*
X438500D01*
X104000Y382999D02*
X438500D01*
X104000Y382099D02*
X438500D01*
X104000Y381199D02*
X438500D01*
X104000Y380299D02*
X438500D01*
X104000Y379399D02*
X438500D01*
X104000Y378499D02*
X438500D01*
X104000Y377599D02*
X438500D01*
X104000Y376699D02*
X438500D01*
X104000Y375799D02*
X438500D01*
X104000Y374899D02*
X438500D01*
X104000Y373999D02*
X438500D01*
X104000Y373099D02*
X438500D01*
X104000Y372199D02*
X438500D01*
X104000Y371299D02*
X438500D01*
X104000Y370399D02*
X438500D01*
X104000Y369499D02*
X438500D01*
X104000Y368599D02*
X438500D01*
X104000Y367699D02*
X438500D01*
X104000Y366799D02*
X438500D01*
X104000Y365899D02*
X438500D01*
X104000Y364999D02*
X438500D01*
X104000Y364099D02*
X438500D01*
X104000Y363199D02*
X438500D01*
X104000Y362299D02*
X438500D01*
X104000Y361399D02*
X438500D01*
X104000Y360499D02*
X438500D01*
X104000Y359599D02*
X438500D01*
X104000Y358699D02*
X438500D01*
X104000Y357799D02*
X438500D01*
X104000Y356899D02*
X438500D01*
X104000Y355999D02*
X438500D01*
X104000Y355099D02*
X438500D01*
X104000Y354199D02*
X438500D01*
X104000Y353299D02*
X438500D01*
X104000Y352399D02*
X438500D01*
X104000Y351499D02*
X438500D01*
X104000Y350599D02*
X438500D01*
X104000Y349699D02*
X438500D01*
X104000Y348799D02*
X438500D01*
X104000Y347899D02*
X438500D01*
X104000Y346999D02*
X438500D01*
X104000Y346099D02*
X438500D01*
X104000Y345199D02*
X438500D01*
X104000Y344299D02*
X438500D01*
X104000Y343399D02*
X438500D01*
X104000Y342499D02*
X438500D01*
X104000Y341599D02*
X438500D01*
X104000Y340699D02*
X438500D01*
X104000Y339799D02*
X438500D01*
X104000Y338899D02*
X438500D01*
X104000Y337999D02*
X438500D01*
X104000Y337099D02*
X438500D01*
X104000Y336199D02*
X438500D01*
X104000Y335299D02*
X438500D01*
X104000Y334399D02*
X438500D01*
X104000Y333499D02*
X438500D01*
X104000Y332599D02*
X438500D01*
X104000Y331699D02*
X438500D01*
X104000Y330799D02*
X438500D01*
X104000Y329899D02*
X438500D01*
X104000Y328999D02*
X438500D01*
X104000Y328099D02*
X438500D01*
X104000Y327199D02*
X438500D01*
X104000Y326299D02*
X438500D01*
X104000Y325399D02*
X438500D01*
X104000Y324499D02*
X438500D01*
X288190Y323599D02*
X438500D01*
X289093Y322699D02*
X438500D01*
X289495Y321799D02*
X438500D01*
X289598Y320899D02*
X438500D01*
X289434Y319999D02*
X438500D01*
X288948Y319099D02*
X438500D01*
X287828Y318199D02*
X438500D01*
X104000Y317299D02*
X438500D01*
X104000Y316399D02*
X438500D01*
X104000Y315499D02*
X438500D01*
X104000Y314599D02*
X438500D01*
X104000Y313699D02*
X438500D01*
X104000Y312799D02*
X438500D01*
X104000Y311899D02*
X438500D01*
X236250Y310999D02*
X438500D01*
X236597Y310099D02*
X438500D01*
X236600Y309199D02*
X438500D01*
X236600Y308299D02*
X438500D01*
X236600Y307399D02*
X438500D01*
X236600Y306499D02*
X438500D01*
X236600Y305599D02*
X438500D01*
X236600Y304699D02*
X438500D01*
X236600Y303799D02*
X438500D01*
X236600Y302899D02*
X438500D01*
X236600Y301999D02*
X438500D01*
X236600Y301099D02*
X438500D01*
X236600Y300199D02*
X438500D01*
X236600Y299299D02*
X438500D01*
X236600Y298399D02*
X438500D01*
X236600Y297499D02*
X438500D01*
X236600Y296599D02*
X438500D01*
X236571Y295699D02*
X438500D01*
X236057Y294799D02*
X438500D01*
X104000Y293899D02*
X438500D01*
X104000Y292999D02*
X438500D01*
X104000Y292099D02*
X438500D01*
X104000Y291199D02*
X438500D01*
X104000Y290299D02*
X438500D01*
X104000Y289399D02*
X438500D01*
X104000Y288499D02*
X438500D01*
X104000Y287599D02*
X438500D01*
X104000Y286699D02*
X438500D01*
X104000Y285799D02*
X438500D01*
X104000Y284899D02*
X438500D01*
X104000Y283999D02*
X438500D01*
X104000Y283099D02*
X438500D01*
X104000Y282199D02*
X438500D01*
X104000Y281299D02*
X438500D01*
X104000Y280399D02*
X438500D01*
X104000Y279499D02*
X438500D01*
X104000Y278599D02*
X438500D01*
X104000Y277699D02*
X438500D01*
X104000Y276799D02*
X438500D01*
X104000Y275899D02*
X438500D01*
X104000Y274999D02*
X438500D01*
X104000Y274099D02*
X438500D01*
X104000Y273199D02*
X438500D01*
X104000Y272299D02*
X438500D01*
X104000Y271399D02*
X438500D01*
X104000Y270499D02*
X438500D01*
X104000Y269599D02*
X438500D01*
X104000Y268699D02*
X438500D01*
X338080Y267799D02*
X438500D01*
X338767Y266899D02*
X438500D01*
X339060Y265999D02*
X438500D01*
X339074Y265099D02*
X438500D01*
X338814Y264199D02*
X438500D01*
X338183Y263299D02*
X438500D01*
X310500Y262399D02*
X438500D01*
X310600Y261499D02*
X438500D01*
X310500Y260599D02*
X438500D01*
X310183Y259699D02*
X438500D01*
X309584Y258799D02*
X438500D01*
X308460Y257899D02*
X438500D01*
X104000Y256999D02*
X438500D01*
X104000Y256099D02*
X438500D01*
X337526Y255199D02*
X438500D01*
X338525Y254299D02*
X438500D01*
X415885Y253399D02*
X438500D01*
X416783Y252499D02*
X438500D01*
X417274Y251599D02*
X438500D01*
X417512Y250699D02*
X438500D01*
X417540Y249799D02*
X438500D01*
X417364Y248899D02*
X438500D01*
X416952Y247999D02*
X438500D01*
X416199Y247099D02*
X438500D01*
X414516Y246199D02*
X438500D01*
X360021Y245299D02*
X438500D01*
X415331Y244399D02*
X438500D01*
X416033Y243499D02*
X438500D01*
X416303Y242599D02*
X438500D01*
X416271Y241699D02*
X438500D01*
X415925Y240799D02*
X438500D01*
X415069Y239899D02*
X438500D01*
X278559Y238999D02*
X438500D01*
X415097Y238099D02*
X438500D01*
X416406Y237199D02*
X438500D01*
X417067Y236299D02*
X438500D01*
X417421Y235399D02*
X438500D01*
X417551Y234499D02*
X438500D01*
X417478Y233599D02*
X438500D01*
X417190Y232699D02*
X438500D01*
X416629Y231799D02*
X438500D01*
X415585Y230899D02*
X438500D01*
X415546Y229999D02*
X438500D01*
X416610Y229099D02*
X438500D01*
X417180Y228199D02*
X438500D01*
X417473Y227299D02*
X438500D01*
X417552Y226399D02*
X438500D01*
X417427Y225499D02*
X438500D01*
X417079Y224599D02*
X438500D01*
X416429Y223699D02*
X438500D01*
X415151Y222799D02*
X438500D01*
X104000Y221899D02*
X438500D01*
X104000Y220999D02*
X438500D01*
X104000Y220099D02*
X438500D01*
X104000Y219199D02*
X438500D01*
X104000Y218299D02*
X438500D01*
X104000Y217399D02*
X438500D01*
X104000Y216499D02*
X438500D01*
X104000Y215599D02*
X438500D01*
X104000Y214699D02*
X438500D01*
X104000Y213799D02*
X438500D01*
X104000Y212899D02*
X438500D01*
X104000Y211999D02*
X438500D01*
X104000Y211099D02*
X438500D01*
X104000Y210199D02*
X438500D01*
X104000Y209299D02*
X438500D01*
X104000Y208399D02*
X438500D01*
X104000Y207499D02*
X438500D01*
X104000Y206599D02*
X438500D01*
X104000Y205699D02*
X438500D01*
X104000Y204799D02*
X438500D01*
X104000Y203899D02*
X438500D01*
X104000Y202999D02*
X438500D01*
X104000Y202099D02*
X438500D01*
X104000Y201199D02*
X438500D01*
X104000Y200299D02*
X438500D01*
X104000Y199399D02*
X438500D01*
X104000Y198499D02*
X438500D01*
X104000Y197599D02*
X438500D01*
X104000Y196699D02*
X438500D01*
X104000Y195799D02*
X438500D01*
X104000Y194899D02*
X438500D01*
X104000Y193999D02*
X438500D01*
X104000Y193099D02*
X438500D01*
X104000Y192199D02*
X438500D01*
X104000Y191299D02*
X438500D01*
X104000Y190399D02*
X438500D01*
X104000Y189499D02*
X438500D01*
X104000Y188599D02*
X438500D01*
X104000Y187699D02*
X438500D01*
X104000Y186799D02*
X438500D01*
X104000Y185899D02*
X438500D01*
X326335Y184999D02*
X438500D01*
X327156Y184099D02*
X438500D01*
X327520Y183199D02*
X438500D01*
X327593Y182299D02*
X438500D01*
X327398Y181399D02*
X438500D01*
X326867Y180499D02*
X438500D01*
X325592Y179599D02*
X438500D01*
X104000Y178699D02*
X438500D01*
X104000Y177799D02*
X438500D01*
X104000Y176899D02*
X438500D01*
X104000Y175999D02*
X438500D01*
X104000Y175099D02*
X438500D01*
X104000Y174199D02*
X438500D01*
X104000Y173299D02*
X438500D01*
X104000Y172399D02*
X438500D01*
X104000Y171499D02*
X438500D01*
X104000Y170599D02*
X438500D01*
X104000Y169699D02*
X438500D01*
X104000Y168799D02*
X438500D01*
X104000Y167899D02*
X438500D01*
X104000Y166999D02*
X438500D01*
X104000Y166099D02*
X438500D01*
X104000Y165199D02*
X438500D01*
X104000Y164299D02*
X438500D01*
X104000Y163399D02*
X438500D01*
X104000Y162499D02*
X438500D01*
X104000Y161599D02*
X438500D01*
X104000Y160699D02*
X438500D01*
X104000Y159799D02*
X438500D01*
X104000Y158899D02*
X438500D01*
X104000Y157999D02*
X438500D01*
X104000Y157099D02*
X438500D01*
X104000Y156199D02*
X438500D01*
X104000Y155299D02*
X438500D01*
X104000Y154399D02*
X438500D01*
X104000Y153499D02*
X438500D01*
X104000Y152599D02*
X438500D01*
X104000Y151699D02*
X438500D01*
X104000Y150799D02*
X438500D01*
X104000Y149899D02*
X438500D01*
X104000Y148999D02*
X438500D01*
X104000Y148099D02*
X438500D01*
X104000Y147199D02*
X438500D01*
X104000Y146299D02*
X438500D01*
X104000Y145399D02*
X438500D01*
X104000Y144499D02*
X438500D01*
X104000Y143599D02*
X438500D01*
X244676Y142699D02*
X438500D01*
X246266Y141799D02*
X438500D01*
X247192Y140899D02*
X438500D01*
X247812Y139999D02*
X438500D01*
X248228Y139099D02*
X438500D01*
X248481Y138199D02*
X438500D01*
X248593Y137299D02*
X438500D01*
X248570Y136399D02*
X438500D01*
X248412Y135499D02*
X438500D01*
X248107Y134599D02*
X438500D01*
X247629Y133699D02*
X438500D01*
X246923Y132799D02*
X438500D01*
X245845Y131899D02*
X438500D01*
X243593Y130999D02*
X438500D01*
X235763Y130099D02*
X438500D01*
X236426Y129199D02*
X438500D01*
X236809Y128299D02*
X438500D01*
X236982Y127399D02*
X438500D01*
X236972Y126499D02*
X438500D01*
X236776Y125599D02*
X438500D01*
X236367Y124699D02*
X438500D01*
X235663Y123799D02*
X438500D01*
X429350Y122899D02*
X438500D01*
X431711Y121999D02*
X438500D01*
X433015Y121099D02*
X438500D01*
X433941Y120199D02*
X438500D01*
X434637Y119299D02*
X438500D01*
X435166Y118399D02*
X438500D01*
X435560Y117499D02*
X438500D01*
X435840Y116599D02*
X438500D01*
X436016Y115699D02*
X438500D01*
X436095Y114799D02*
X438500D01*
X436079Y113899D02*
X438500D01*
X435968Y112999D02*
X438500D01*
X435758Y112099D02*
X438500D01*
X435441Y111199D02*
X438500D01*
X435004Y110299D02*
X438500D01*
X434424Y109399D02*
X438500D01*
X433660Y108499D02*
X438500D01*
X432631Y107599D02*
X438500D01*
X431119Y106699D02*
X438500D01*
X104000Y105799D02*
X438500D01*
X104000Y104899D02*
X438500D01*
X244054Y122899D02*
X425650D01*
X104000Y552199D02*
X424903D01*
X324074Y535999D02*
X424347D01*
X119619Y106699D02*
X423881D01*
X245996Y121999D02*
X423289D01*
X119625Y551299D02*
X422951D01*
X322752Y536899D02*
X422649D01*
X121131Y107599D02*
X422369D01*
X247018Y121099D02*
X421985D01*
X121135Y550399D02*
X421754D01*
X122439Y537799D02*
X421541D01*
X122160Y108499D02*
X421340D01*
X247694Y120199D02*
X421059D01*
X122162Y549499D02*
X420888D01*
X123135Y538699D02*
X420728D01*
X122924Y109399D02*
X420576D01*
X248150Y119299D02*
X420363D01*
X122926Y548599D02*
X420233D01*
X123664Y539599D02*
X420112D01*
X123504Y110299D02*
X419996D01*
X248438Y118399D02*
X419834D01*
X123505Y547699D02*
X419736D01*
X124059Y540499D02*
X419645D01*
X244385Y111199D02*
X419559D01*
X248580Y117499D02*
X419440D01*
X123942Y546799D02*
X419368D01*
X124339Y541399D02*
X419303D01*
X246131Y112099D02*
X419242D01*
X248587Y116599D02*
X419160D01*
X124259Y545899D02*
X419112D01*
X124516Y542299D02*
X419070D01*
X247104Y112999D02*
X419032D01*
X248460Y115699D02*
X418984D01*
X124468Y544999D02*
X418958D01*
X124595Y543199D02*
X418937D01*
X247753Y113899D02*
X418921D01*
X248189Y114799D02*
X418905D01*
X124579Y544099D02*
X418901D01*
X361023Y246199D02*
X412484D01*
X278574Y239899D02*
X411931D01*
X278265Y238099D02*
X411903D01*
X104000Y222799D02*
X411849D01*
X104000Y244399D02*
X411669D01*
X104000Y229999D02*
X411454D01*
X104000Y230899D02*
X411415D01*
X338967Y253399D02*
X411115D01*
X278315Y240799D02*
X411075D01*
X104000Y243499D02*
X410967D01*
X361466Y247099D02*
X410801D01*
X277685Y241699D02*
X410729D01*
X275591Y242599D02*
X410697D01*
X277577Y237199D02*
X410594D01*
X104000Y223699D02*
X410571D01*
X104000Y229099D02*
X410390D01*
X104000Y231799D02*
X410371D01*
X339100Y252499D02*
X410217D01*
X361600Y247999D02*
X410048D01*
X104000Y236299D02*
X409933D01*
X104000Y224599D02*
X409921D01*
X104000Y228199D02*
X409820D01*
X104000Y232699D02*
X409810D01*
X338966Y251599D02*
X409726D01*
X361467Y248899D02*
X409636D01*
X104000Y235399D02*
X409579D01*
X104000Y225499D02*
X409573D01*
X104000Y227299D02*
X409527D01*
X104000Y233599D02*
X409522D01*
X360026Y250699D02*
X409488D01*
X361025Y249799D02*
X409460D01*
X104000Y234499D02*
X409449D01*
X104000Y226399D02*
X409448D01*
X104000Y245299D02*
X356979D01*
X338523Y250699D02*
X356974D01*
X104000Y246199D02*
X355977D01*
X337521Y249799D02*
X355975D01*
X104000Y247099D02*
X355534D01*
X104000Y248899D02*
X355533D01*
X104000Y247999D02*
X355400D01*
X104000Y489199D02*
X346716D01*
X221825Y493699D02*
X346463D01*
X104000Y486499D02*
X345948D01*
X104000Y490099D02*
X345513D01*
X220687Y492799D02*
X345445D01*
X325295Y481099D02*
X345432D01*
X104000Y490999D02*
X345121D01*
X104000Y491899D02*
X345102D01*
X321979Y485599D02*
X344898D01*
X325098Y481999D02*
X344669D01*
X323357Y484699D02*
X344416D01*
X324741Y482899D02*
X344317D01*
X324188Y483799D02*
X344239D01*
X104000Y249799D02*
X334479D01*
X104000Y255199D02*
X334474D01*
X282556Y267799D02*
X333920D01*
X310184Y263299D02*
X333817D01*
X104000Y250699D02*
X333477D01*
X104000Y254299D02*
X333475D01*
X283531Y266899D02*
X333233D01*
X309587Y264199D02*
X333186D01*
X104000Y251599D02*
X333034D01*
X104000Y253399D02*
X333033D01*
X283983Y265999D02*
X332940D01*
X308465Y265099D02*
X332926D01*
X104000Y252499D02*
X332900D01*
X104000Y179599D02*
X323408D01*
X104000Y184999D02*
X322665D01*
X104000Y180499D02*
X322133D01*
X104000Y184099D02*
X321844D01*
X104000Y181399D02*
X321602D01*
X104000Y183199D02*
X321480D01*
X104000Y182299D02*
X321407D01*
X223560Y497299D02*
X318532D01*
X104000Y474799D02*
X317510D01*
X211666Y506299D02*
X317364D01*
X104000Y485599D02*
X317021D01*
X104000Y524299D02*
X316667D01*
X223597Y498199D02*
X316569D01*
X121512Y536899D02*
X316248D01*
X211172Y505399D02*
X316110D01*
X104000Y475699D02*
X315887D01*
X223500Y499099D02*
X315676D01*
X104000Y484699D02*
X315643D01*
X210327Y504499D02*
X315402D01*
X104000Y525199D02*
X315172D01*
X223263Y499999D02*
X315137D01*
X219922Y503599D02*
X314974D01*
X104000Y476599D02*
X314970D01*
X120206Y535999D02*
X314926D01*
X222867Y500899D02*
X314828D01*
X104000Y483799D02*
X314812D01*
X221390Y502699D02*
X314751D01*
X222273Y501799D02*
X314704D01*
X104000Y477499D02*
X314364D01*
X104000Y482899D02*
X314259D01*
X284204Y526099D02*
X314225D01*
X117838Y535099D02*
X314055D01*
X104000Y478399D02*
X313968D01*
X104000Y481999D02*
X313902D01*
X104000Y479299D02*
X313736D01*
X104000Y481099D02*
X313705D01*
X104000Y480199D02*
X313651D01*
X285189Y526999D02*
X313559D01*
X104000Y534199D02*
X313437D01*
X285723Y527899D02*
X313085D01*
X283412Y533299D02*
X313000D01*
X285992Y528799D02*
X312763D01*
X284832Y532399D02*
X312709D01*
X286048Y529699D02*
X312572D01*
X285526Y531499D02*
X312546D01*
X285901Y530599D02*
X312501D01*
X104000Y257899D02*
X304540D01*
X284138Y265099D02*
X304535D01*
X104000Y258799D02*
X303416D01*
X284040Y264199D02*
X303413D01*
X104000Y259699D02*
X302817D01*
X283661Y263299D02*
X302816D01*
X104000Y260599D02*
X302500D01*
X282848Y262399D02*
X302500D01*
X104000Y261499D02*
X302400D01*
X104000Y318199D02*
X285172D01*
X104000Y323599D02*
X284810D01*
X104000Y319099D02*
X284052D01*
X104000Y322699D02*
X283907D01*
X104000Y319999D02*
X283566D01*
X104000Y321799D02*
X283505D01*
X104000Y320899D02*
X283402D01*
X267664Y533299D02*
X280588D01*
X268456Y526099D02*
X279796D01*
X104000Y267799D02*
X279192D01*
X269084Y532399D02*
X279168D01*
X104000Y262399D02*
X278900D01*
X275439Y526999D02*
X278811D01*
X276122Y531499D02*
X278474D01*
X276453Y527899D02*
X278277D01*
X274518Y266899D02*
X278217D01*
X276728Y530599D02*
X278099D01*
X274737Y263299D02*
X278087D01*
X276862Y528799D02*
X278008D01*
X276944Y529699D02*
X277952D01*
X275217Y265999D02*
X277765D01*
X275295Y264199D02*
X277708D01*
X275429Y265099D02*
X277610D01*
X104000Y242599D02*
X275409D01*
X104000Y237199D02*
X273423D01*
X104000Y241699D02*
X273315D01*
X269441Y526999D02*
X272813D01*
X104000Y238099D02*
X272735D01*
X104000Y240799D02*
X272685D01*
X104000Y238999D02*
X272441D01*
X104000Y239899D02*
X272426D01*
X269778Y531499D02*
X272130D01*
X269975Y527899D02*
X271799D01*
X270153Y530599D02*
X271524D01*
X104000Y266899D02*
X271482D01*
X270244Y528799D02*
X271390D01*
X270300Y529699D02*
X271308D01*
X104000Y263299D02*
X271263D01*
X104000Y265999D02*
X270783D01*
X104000Y264199D02*
X270705D01*
X104000Y265099D02*
X270571D01*
X104000Y533299D02*
X264840D01*
X104000Y526099D02*
X264048D01*
X104000Y532399D02*
X263420D01*
X259691Y526999D02*
X263063D01*
X260374Y531499D02*
X262726D01*
X260705Y527899D02*
X262529D01*
X260980Y530599D02*
X262351D01*
X261114Y528799D02*
X262260D01*
X261196Y529699D02*
X262204D01*
X104000Y526999D02*
X257065D01*
X104000Y531499D02*
X256382D01*
X104000Y527899D02*
X256051D01*
X104000Y530599D02*
X255776D01*
X104000Y528799D02*
X255642D01*
X104000Y529699D02*
X255560D01*
X234564Y130999D02*
X241407D01*
X234352Y122899D02*
X240946D01*
X224385Y111199D02*
X240615D01*
X224676Y142699D02*
X240324D01*
X225845Y131899D02*
X239155D01*
X225996Y121999D02*
X239004D01*
X226131Y112099D02*
X238869D01*
X226266Y141799D02*
X238734D01*
X226923Y132799D02*
X238077D01*
X227018Y121099D02*
X237982D01*
X227104Y112999D02*
X237896D01*
X227192Y140899D02*
X237808D01*
X227629Y133699D02*
X237371D01*
X227694Y120199D02*
X237306D01*
X227753Y113899D02*
X237247D01*
X227812Y139999D02*
X237188D01*
X228107Y134599D02*
X236893D01*
X228150Y119299D02*
X236850D01*
X228189Y114799D02*
X236811D01*
X228228Y139099D02*
X236772D01*
X228412Y135499D02*
X236588D01*
X228438Y118399D02*
X236562D01*
X228460Y115699D02*
X236540D01*
X228481Y138199D02*
X236519D01*
X228570Y136399D02*
X236430D01*
X228580Y117499D02*
X236420D01*
X228587Y116599D02*
X236413D01*
X228593Y137299D02*
X236407D01*
X224054Y122899D02*
X230648D01*
X223593Y130999D02*
X230436D01*
X170163Y123799D02*
X229337D01*
X170263Y130099D02*
X229237D01*
X170867Y124699D02*
X228633D01*
X170926Y129199D02*
X228574D01*
X171276Y125599D02*
X228224D01*
X171309Y128299D02*
X228191D01*
X171472Y126499D02*
X228028D01*
X171482Y127399D02*
X228018D01*
X178093Y130999D02*
X221407D01*
X178554Y122899D02*
X220946D01*
X178885Y111199D02*
X220615D01*
X179176Y142699D02*
X220324D01*
X104000Y294799D02*
X219943D01*
X104000Y310999D02*
X219750D01*
X104000Y295699D02*
X219429D01*
X104000Y310099D02*
X219403D01*
X104000Y309199D02*
X219400D01*
X104000Y308299D02*
X219400D01*
X104000Y307399D02*
X219400D01*
X104000Y306499D02*
X219400D01*
X104000Y305599D02*
X219400D01*
X104000Y304699D02*
X219400D01*
X104000Y303799D02*
X219400D01*
X104000Y302899D02*
X219400D01*
X104000Y301999D02*
X219400D01*
X104000Y301099D02*
X219400D01*
X104000Y300199D02*
X219400D01*
X104000Y299299D02*
X219400D01*
X104000Y298399D02*
X219400D01*
X104000Y297499D02*
X219400D01*
X104000Y296599D02*
X219400D01*
X180345Y131899D02*
X219155D01*
X180496Y121999D02*
X219004D01*
X180631Y112099D02*
X218869D01*
X180766Y141799D02*
X218734D01*
X181423Y132799D02*
X218077D01*
X181518Y121099D02*
X217982D01*
X181604Y112999D02*
X217896D01*
X181692Y140899D02*
X217808D01*
X182129Y133699D02*
X217371D01*
X182194Y120199D02*
X217306D01*
X182253Y113899D02*
X217247D01*
X182312Y139999D02*
X217188D01*
X182607Y134599D02*
X216893D01*
X182650Y119299D02*
X216850D01*
X182689Y114799D02*
X216811D01*
X182728Y139099D02*
X216772D01*
X182912Y135499D02*
X216588D01*
X182938Y118399D02*
X216562D01*
X182960Y115699D02*
X216540D01*
X182981Y138199D02*
X216519D01*
X183070Y136399D02*
X216430D01*
X183080Y117499D02*
X216420D01*
X183087Y116599D02*
X216413D01*
X183093Y137299D02*
X216407D01*
X208437Y503599D02*
X215078D01*
X200335Y512599D02*
X214665D01*
X200340Y523399D02*
X214660D01*
X200687Y492799D02*
X214313D01*
X201390Y502699D02*
X213610D01*
X201617Y513499D02*
X213383D01*
X201620Y522499D02*
X213380D01*
X201825Y493699D02*
X213175D01*
X202273Y501799D02*
X212727D01*
X202423Y514399D02*
X212577D01*
X202425Y521599D02*
X212575D01*
X202564Y494599D02*
X212436D01*
X202867Y500899D02*
X212133D01*
X202969Y515299D02*
X212031D01*
X202971Y520699D02*
X212029D01*
X203064Y495499D02*
X211936D01*
X203263Y499999D02*
X211737D01*
X203328Y516199D02*
X211672D01*
X203329Y519799D02*
X211671D01*
X203386Y496399D02*
X211614D01*
X203500Y499099D02*
X211500D01*
X203533Y517099D02*
X211467D01*
X203533Y518899D02*
X211467D01*
X203560Y497299D02*
X211440D01*
X203597Y498199D02*
X211403D01*
X203600Y517999D02*
X211400D01*
X199922Y503599D02*
X206563D01*
X104000Y511699D02*
X204937D01*
X104000Y504499D02*
X204673D01*
X104000Y510799D02*
X203976D01*
X104000Y505399D02*
X203828D01*
X104000Y509899D02*
X203420D01*
X104000Y506299D02*
X203334D01*
X104000Y508999D02*
X203112D01*
X104000Y507199D02*
X203072D01*
X104000Y508099D02*
X203001D01*
X104000Y503599D02*
X195078D01*
X104000Y512599D02*
X194665D01*
X104000Y523399D02*
X194660D01*
X104000Y492799D02*
X194313D01*
X104000Y502699D02*
X193610D01*
X104000Y513499D02*
X193383D01*
X104000Y522499D02*
X193380D01*
X104000Y493699D02*
X193175D01*
X104000Y501799D02*
X192727D01*
X104000Y514399D02*
X192577D01*
X104000Y521599D02*
X192575D01*
X104000Y494599D02*
X192436D01*
X104000Y500899D02*
X192133D01*
X104000Y515299D02*
X192031D01*
X104000Y520699D02*
X192029D01*
X104000Y495499D02*
X191936D01*
X104000Y499999D02*
X191737D01*
X104000Y516199D02*
X191672D01*
X104000Y519799D02*
X191671D01*
X104000Y496399D02*
X191614D01*
X104000Y499099D02*
X191500D01*
X104000Y517099D02*
X191467D01*
X104000Y518899D02*
X191467D01*
X104000Y497299D02*
X191440D01*
X104000Y498199D02*
X191403D01*
X104000Y517999D02*
X191400D01*
X169064Y130999D02*
X175907D01*
X168852Y122899D02*
X175446D01*
X158885Y111199D02*
X175115D01*
X159176Y142699D02*
X174824D01*
X160345Y131899D02*
X173655D01*
X160496Y121999D02*
X173504D01*
X160631Y112099D02*
X173369D01*
X160766Y141799D02*
X173234D01*
X161423Y132799D02*
X172577D01*
X161518Y121099D02*
X172482D01*
X161604Y112999D02*
X172396D01*
X161692Y140899D02*
X172308D01*
X162129Y133699D02*
X171871D01*
X162194Y120199D02*
X171806D01*
X162253Y113899D02*
X171747D01*
X162312Y139999D02*
X171688D01*
X162607Y134599D02*
X171393D01*
X162650Y119299D02*
X171350D01*
X162689Y114799D02*
X171311D01*
X162728Y139099D02*
X171272D01*
X162912Y135499D02*
X171088D01*
X162938Y118399D02*
X171062D01*
X162960Y115699D02*
X171040D01*
X162981Y138199D02*
X171019D01*
X163070Y136399D02*
X170930D01*
X163080Y117499D02*
X170920D01*
X163087Y116599D02*
X170913D01*
X163093Y137299D02*
X170907D01*
X158554Y122899D02*
X165148D01*
X158093Y130999D02*
X164936D01*
X104000Y123799D02*
X163837D01*
X104000Y130099D02*
X163737D01*
X104000Y124699D02*
X163133D01*
X104000Y129199D02*
X163074D01*
X104000Y125599D02*
X162724D01*
X104000Y128299D02*
X162691D01*
X104000Y126499D02*
X162528D01*
X104000Y127399D02*
X162518D01*
X104000Y130999D02*
X155907D01*
X117850Y122899D02*
X155446D01*
X123941Y111199D02*
X155115D01*
X104000Y142699D02*
X154824D01*
X104000Y131899D02*
X153655D01*
X120211Y121999D02*
X153504D01*
X124258Y112099D02*
X153369D01*
X104000Y141799D02*
X153234D01*
X104000Y132799D02*
X152577D01*
X121515Y121099D02*
X152482D01*
X124468Y112999D02*
X152396D01*
X104000Y140899D02*
X152308D01*
X104000Y133699D02*
X151871D01*
X122441Y120199D02*
X151806D01*
X124579Y113899D02*
X151747D01*
X104000Y139999D02*
X151688D01*
X104000Y134599D02*
X151393D01*
X123137Y119299D02*
X151350D01*
X124595Y114799D02*
X151311D01*
X104000Y139099D02*
X151272D01*
X104000Y135499D02*
X151088D01*
X123666Y118399D02*
X151062D01*
X124516Y115699D02*
X151040D01*
X104000Y138199D02*
X151019D01*
X104000Y136399D02*
X150930D01*
X124060Y117499D02*
X150920D01*
X124340Y116599D02*
X150913D01*
X104000Y137299D02*
X150907D01*
X104000Y535099D02*
X114162D01*
X104000Y122899D02*
X114150D01*
X104000Y106699D02*
X112381D01*
X104000Y551299D02*
X112375D01*
X104000Y535999D02*
X111794D01*
X104000Y121999D02*
X111789D01*
X104000Y107599D02*
X110869D01*
X104000Y550399D02*
X110865D01*
X104000Y536899D02*
X110488D01*
X104000Y121099D02*
X110485D01*
X104000Y108499D02*
X109840D01*
X104000Y549499D02*
X109838D01*
X104000Y537799D02*
X109561D01*
X104000Y120199D02*
X109559D01*
X104000Y109399D02*
X109076D01*
X104000Y548599D02*
X109074D01*
X104000Y538699D02*
X108865D01*
X104000Y119299D02*
X108863D01*
X104000Y110299D02*
X108496D01*
X104000Y547699D02*
X108495D01*
X104000Y539599D02*
X108336D01*
X104000Y118399D02*
X108334D01*
X104000Y111199D02*
X108059D01*
X104000Y546799D02*
X108058D01*
X104000Y540499D02*
X107941D01*
X104000Y117499D02*
X107940D01*
X104000Y112099D02*
X107742D01*
X104000Y545899D02*
X107741D01*
X104000Y541399D02*
X107661D01*
X104000Y116599D02*
X107660D01*
X104000Y112999D02*
X107532D01*
X104000Y544999D02*
X107532D01*
X104000Y542299D02*
X107484D01*
X104000Y115699D02*
X107484D01*
X104000Y113899D02*
X107421D01*
X104000Y544099D02*
X107421D01*
X104000Y543199D02*
X107405D01*
X104000Y114799D02*
X107405D01*
G54D18*
X319500Y480300D03*
G54D19*
X177000Y117000D03*
X157000D03*
Y137000D03*
X177000D03*
X217500Y498000D03*
X197500D03*
Y518000D03*
X217500D03*
X222500Y137000D03*
X242500D03*
Y117000D03*
X222500D03*
G54D23*
X280874Y265000D03*
X347500Y483626D03*
G54D24*
X282000Y529500D03*
X266252D03*
X413500Y226500D03*
Y234374D03*
Y250122D03*
G54D27*
X116000Y114500D03*
Y543500D03*
X427500Y544000D03*
Y114500D03*
G54D32*
X132483Y115600D02*
X132483D01*
X132483*
X132483*
Y105600D02*
X132483D01*
X132483*
X132483*
X122483D02*
X122483D01*
X122483*
X122483*
X142483Y115600D02*
X142483D01*
X142483*
X142483*
Y105600D02*
X142483D01*
X142483*
X142483*
X182483D02*
X182483D01*
X182483*
X182483*
X162483D02*
X162483D01*
X162483*
X162483*
X172483D02*
X172483D01*
X172483*
X172483*
X152483D02*
X152483D01*
X152483*
X152483*
X192483Y115600D02*
X192483D01*
X192483*
X192483*
Y105600D02*
X192483D01*
X192483*
X192483*
X222483D02*
X222483D01*
X222483*
X222483*
X212483Y115600D02*
X212483D01*
X212483*
X212483*
Y105600D02*
X212483D01*
X212483*
X212483*
X202483Y115600D02*
X202483D01*
X202483*
X202483*
Y105600D02*
X202483D01*
X202483*
X202483*
X252483Y115600D02*
X252483D01*
X252483*
X252483*
Y105600D02*
X252483D01*
X252483*
X252483*
X262483Y115600D02*
X262483D01*
X262483*
X262483*
X232483Y105600D02*
X232483D01*
X232483*
X232483*
X262483D02*
X262483D01*
X262483*
X262483*
X242483D02*
X242483D01*
X242483*
X242483*
X292483Y115600D02*
X292483D01*
X292483*
X292483*
Y105600D02*
X292483D01*
X292483*
X292483*
X282483Y115600D02*
X282483D01*
X282483*
X282483*
Y105600D02*
X282483D01*
X282483*
X282483*
X302483Y115600D02*
X302483D01*
X302483*
X302483*
Y105600D02*
X302483D01*
X302483*
X302483*
X272483Y115600D02*
X272483D01*
X272483*
X272483*
Y105600D02*
X272483D01*
X272483*
X272483*
X312483Y115600D02*
X312483D01*
X312483*
X312483*
X322483D02*
X322483D01*
X322483*
X322483*
Y105600D02*
X322483D01*
X322483*
X322483*
X332483Y115600D02*
X332483D01*
X332483*
X332483*
X342483D02*
X342483D01*
X342483*
X342483*
Y105600D02*
X342483D01*
X342483*
X342483*
X312483D02*
X312483D01*
X312483*
X312483*
X332483D02*
X332483D01*
X332483*
X332483*
X382483Y115600D02*
X382483D01*
X382483*
X382483*
Y105600D02*
X382483D01*
X382483*
X382483*
X372483Y115600D02*
X372483D01*
X372483*
X372483*
Y105600D02*
X372483D01*
X372483*
X372483*
X362483Y115600D02*
X362483D01*
X362483*
X362483*
Y105600D02*
X362483D01*
X362483*
X362483*
X352483Y115600D02*
X352483D01*
X352483*
X352483*
Y105600D02*
X352483D01*
X352483*
X352483*
X422483D02*
X422483D01*
X422483*
X422483*
X412483Y115600D02*
X412483D01*
X412483*
X412483*
Y105600D02*
X412483D01*
X412483*
X412483*
X402483Y115600D02*
X402483D01*
X402483*
X402483*
Y105600D02*
X402483D01*
X402483*
X402483*
X392483Y115600D02*
X392483D01*
X392483*
X392483*
Y105600D02*
X392483D01*
X392483*
X392483*
X432483D02*
X432483D01*
X432483*
X432483*
X112483Y155600D02*
X112483D01*
X112483*
X112483*
Y145600D02*
X112483D01*
X112483*
X112483*
Y135600D02*
X112483D01*
X112483*
X112483*
Y125600D02*
X112483D01*
X112483*
X112483*
X132483Y155600D02*
X132483D01*
X132483*
X132483*
Y145600D02*
X132483D01*
X132483*
X132483*
Y135600D02*
X132483D01*
X132483*
X132483*
Y125600D02*
X132483D01*
X132483*
X132483*
X122483Y155600D02*
X122483D01*
X122483*
X122483*
X142483D02*
X142483D01*
X142483*
X142483*
Y145600D02*
X142483D01*
X142483*
X142483*
Y135600D02*
X142483D01*
X142483*
X142483*
Y125600D02*
X142483D01*
X142483*
X142483*
X122483Y145600D02*
X122483D01*
X122483*
X122483*
Y135600D02*
X122483D01*
X122483*
X122483*
Y125600D02*
X122483D01*
X122483*
X122483*
X182483D02*
X182483D01*
X182483*
X182483*
X172483Y155600D02*
X172483D01*
X172483*
X172483*
Y145600D02*
X172483D01*
X172483*
X172483*
X162483Y155600D02*
X162483D01*
X162483*
X162483*
Y145600D02*
X162483D01*
X162483*
X162483*
X182483Y155600D02*
X182483D01*
X182483*
X182483*
Y145600D02*
X182483D01*
X182483*
X182483*
X152483Y155600D02*
X152483D01*
X152483*
X152483*
Y145600D02*
X152483D01*
X152483*
X152483*
Y125600D02*
X152483D01*
X152483*
X152483*
X212483Y145600D02*
X212483D01*
X212483*
X212483*
Y135600D02*
X212483D01*
X212483*
X212483*
X192483Y145600D02*
X192483D01*
X192483*
X192483*
Y135600D02*
X192483D01*
X192483*
X192483*
Y125600D02*
X192483D01*
X192483*
X192483*
X202483Y155600D02*
X202483D01*
X202483*
X202483*
Y145600D02*
X202483D01*
X202483*
X202483*
Y135600D02*
X202483D01*
X202483*
X202483*
X222483Y155600D02*
X222483D01*
X222483*
X222483*
Y145600D02*
X222483D01*
X222483*
X222483*
X212483Y125600D02*
X212483D01*
X212483*
X212483*
X192483Y155600D02*
X192483D01*
X192483*
X192483*
X202483Y125600D02*
X202483D01*
X202483*
X202483*
X212483Y155600D02*
X212483D01*
X212483*
X212483*
X262483D02*
X262483D01*
X262483*
X262483*
Y145600D02*
X262483D01*
X262483*
X262483*
Y135600D02*
X262483D01*
X262483*
X262483*
Y125600D02*
X262483D01*
X262483*
X262483*
X242483Y155600D02*
X242483D01*
X242483*
X242483*
Y145600D02*
X242483D01*
X242483*
X242483*
X252483D02*
X252483D01*
X252483*
X252483*
Y155600D02*
X252483D01*
X252483*
X252483*
Y135600D02*
X252483D01*
X252483*
X252483*
Y125600D02*
X252483D01*
X252483*
X252483*
X302483Y155600D02*
X302483D01*
X302483*
X302483*
X272483Y135600D02*
X272483D01*
X272483*
X272483*
X292483Y155600D02*
X292483D01*
X292483*
X292483*
Y145600D02*
X292483D01*
X292483*
X292483*
X282483Y125600D02*
X282483D01*
X282483*
X282483*
X272483D02*
X272483D01*
X272483*
X272483*
X282483Y155600D02*
X282483D01*
X282483*
X282483*
X272483D02*
X272483D01*
X272483*
X272483*
X302483Y145600D02*
X302483D01*
X302483*
X302483*
X282483D02*
X282483D01*
X282483*
X282483*
X292483Y135600D02*
X292483D01*
X292483*
X292483*
X302483D02*
X302483D01*
X302483*
X302483*
X292483Y125600D02*
X292483D01*
X292483*
X292483*
X302483D02*
X302483D01*
X302483*
X302483*
X272483Y145600D02*
X272483D01*
X272483*
X272483*
X282483Y135600D02*
X282483D01*
X282483*
X282483*
X312483Y125600D02*
X312483D01*
X312483*
X312483*
Y155600D02*
X312483D01*
X312483*
X312483*
X322483D02*
X322483D01*
X322483*
X322483*
Y145600D02*
X322483D01*
X322483*
X322483*
X332483Y155600D02*
X332483D01*
X332483*
X332483*
Y145600D02*
X332483D01*
X332483*
X332483*
Y135600D02*
X332483D01*
X332483*
X332483*
Y125600D02*
X332483D01*
X332483*
X332483*
X342483Y145600D02*
X342483D01*
X342483*
X342483*
Y135600D02*
X342483D01*
X342483*
X342483*
Y125600D02*
X342483D01*
X342483*
X342483*
X322483Y135600D02*
X322483D01*
X322483*
X322483*
X312483Y145600D02*
X312483D01*
X312483*
X312483*
Y135600D02*
X312483D01*
X312483*
X312483*
X322483Y125600D02*
X322483D01*
X322483*
X322483*
X342483Y155600D02*
X342483D01*
X342483*
X342483*
X382483D02*
X382483D01*
X382483*
X382483*
Y145600D02*
X382483D01*
X382483*
X382483*
Y135600D02*
X382483D01*
X382483*
X382483*
Y125600D02*
X382483D01*
X382483*
X382483*
X372483Y155600D02*
X372483D01*
X372483*
X372483*
Y145600D02*
X372483D01*
X372483*
X372483*
Y135600D02*
X372483D01*
X372483*
X372483*
Y125600D02*
X372483D01*
X372483*
X372483*
X362483Y155600D02*
X362483D01*
X362483*
X362483*
Y145600D02*
X362483D01*
X362483*
X362483*
Y135600D02*
X362483D01*
X362483*
X362483*
Y125600D02*
X362483D01*
X362483*
X362483*
X352483Y155600D02*
X352483D01*
X352483*
X352483*
Y145600D02*
X352483D01*
X352483*
X352483*
Y135600D02*
X352483D01*
X352483*
X352483*
Y125600D02*
X352483D01*
X352483*
X352483*
X422483Y155600D02*
X422483D01*
X422483*
X422483*
Y145600D02*
X422483D01*
X422483*
X422483*
Y135600D02*
X422483D01*
X422483*
X422483*
Y125600D02*
X422483D01*
X422483*
X422483*
X412483Y155600D02*
X412483D01*
X412483*
X412483*
Y145600D02*
X412483D01*
X412483*
X412483*
Y135600D02*
X412483D01*
X412483*
X412483*
Y125600D02*
X412483D01*
X412483*
X412483*
X402483Y155600D02*
X402483D01*
X402483*
X402483*
Y145600D02*
X402483D01*
X402483*
X402483*
Y135600D02*
X402483D01*
X402483*
X402483*
Y125600D02*
X402483D01*
X402483*
X402483*
X392483Y155600D02*
X392483D01*
X392483*
X392483*
Y145600D02*
X392483D01*
X392483*
X392483*
Y135600D02*
X392483D01*
X392483*
X392483*
Y125600D02*
X392483D01*
X392483*
X392483*
X432483Y155600D02*
X432483D01*
X432483*
X432483*
Y145600D02*
X432483D01*
X432483*
X432483*
Y135600D02*
X432483D01*
X432483*
X432483*
Y125600D02*
X432483D01*
X432483*
X432483*
X112483Y195600D02*
X112483D01*
X112483*
X112483*
Y185600D02*
X112483D01*
X112483*
X112483*
Y175600D02*
X112483D01*
X112483*
X112483*
Y165600D02*
X112483D01*
X112483*
X112483*
X132483D02*
X132483D01*
X132483*
X132483*
X122483Y195600D02*
X122483D01*
X122483*
X122483*
Y185600D02*
X122483D01*
X122483*
X122483*
Y175600D02*
X122483D01*
X122483*
X122483*
Y165600D02*
X122483D01*
X122483*
X122483*
X142483Y195600D02*
X142483D01*
X142483*
X142483*
Y185600D02*
X142483D01*
X142483*
X142483*
Y175600D02*
X142483D01*
X142483*
X142483*
Y165600D02*
X142483D01*
X142483*
X142483*
X132483Y195600D02*
X132483D01*
X132483*
X132483*
Y185600D02*
X132483D01*
X132483*
X132483*
Y175600D02*
X132483D01*
X132483*
X132483*
X182483Y185600D02*
X182483D01*
X182483*
X182483*
Y175600D02*
X182483D01*
X182483*
X182483*
Y165600D02*
X182483D01*
X182483*
X182483*
X152483Y195600D02*
X152483D01*
X152483*
X152483*
X172483Y185600D02*
X172483D01*
X172483*
X172483*
X152483D02*
X152483D01*
X152483*
X152483*
X172483Y175600D02*
X172483D01*
X172483*
X172483*
X162483Y185600D02*
X162483D01*
X162483*
X162483*
X152483Y165600D02*
X152483D01*
X152483*
X152483*
X182483Y195600D02*
X182483D01*
X182483*
X182483*
X152483Y175600D02*
X152483D01*
X152483*
X152483*
X162483D02*
X162483D01*
X162483*
X162483*
X172483Y165600D02*
X172483D01*
X172483*
X172483*
X162483D02*
X162483D01*
X162483*
X162483*
X212483Y175600D02*
X212483D01*
X212483*
X212483*
X192483Y195600D02*
X192483D01*
X192483*
X192483*
Y185600D02*
X192483D01*
X192483*
X192483*
Y175600D02*
X192483D01*
X192483*
X192483*
Y165600D02*
X192483D01*
X192483*
X192483*
X222483Y195600D02*
X222483D01*
X222483*
X222483*
X202483D02*
X202483D01*
X202483*
X202483*
Y185600D02*
X202483D01*
X202483*
X202483*
Y175600D02*
X202483D01*
X202483*
X202483*
Y165600D02*
X202483D01*
X202483*
X202483*
X222483D02*
X222483D01*
X222483*
X222483*
Y185600D02*
X222483D01*
X222483*
X222483*
Y175600D02*
X222483D01*
X222483*
X222483*
X212483Y195600D02*
X212483D01*
X212483*
X212483*
Y165600D02*
X212483D01*
X212483*
X212483*
Y185600D02*
X212483D01*
X212483*
X212483*
X252483Y195600D02*
X252483D01*
X252483*
X252483*
X262483D02*
X262483D01*
X262483*
X262483*
Y185600D02*
X262483D01*
X262483*
X262483*
Y175600D02*
X262483D01*
X262483*
X262483*
Y165600D02*
X262483D01*
X262483*
X262483*
X242483Y195600D02*
X242483D01*
X242483*
X242483*
Y185600D02*
X242483D01*
X242483*
X242483*
Y175600D02*
X242483D01*
X242483*
X242483*
Y165600D02*
X242483D01*
X242483*
X242483*
X252483Y185600D02*
X252483D01*
X252483*
X252483*
Y175600D02*
X252483D01*
X252483*
X252483*
Y165600D02*
X252483D01*
X252483*
X252483*
X302483D02*
X302483D01*
X302483*
X302483*
X282483Y195600D02*
X282483D01*
X282483*
X282483*
X292483Y175600D02*
X292483D01*
X292483*
X292483*
Y165600D02*
X292483D01*
X292483*
X292483*
X272483Y195600D02*
X272483D01*
X272483*
X272483*
Y185600D02*
X272483D01*
X272483*
X272483*
Y175600D02*
X272483D01*
X272483*
X272483*
Y165600D02*
X272483D01*
X272483*
X272483*
X282483Y175600D02*
X282483D01*
X282483*
X282483*
Y165600D02*
X282483D01*
X282483*
X282483*
X292483Y195600D02*
X292483D01*
X292483*
X292483*
X302483Y175600D02*
X302483D01*
X302483*
X302483*
X292483Y185600D02*
X292483D01*
X292483*
X292483*
X322483Y195600D02*
X322483D01*
X322483*
X322483*
Y175600D02*
X322483D01*
X322483*
X322483*
Y165600D02*
X322483D01*
X322483*
X322483*
X332483Y185600D02*
X332483D01*
X332483*
X332483*
Y175600D02*
X332483D01*
X332483*
X332483*
Y165600D02*
X332483D01*
X332483*
X332483*
X342483Y195600D02*
X342483D01*
X342483*
X342483*
Y185600D02*
X342483D01*
X342483*
X342483*
Y175600D02*
X342483D01*
X342483*
X342483*
Y165600D02*
X342483D01*
X342483*
X342483*
X312483Y175600D02*
X312483D01*
X312483*
X312483*
Y165600D02*
X312483D01*
X312483*
X312483*
X332483Y195600D02*
X332483D01*
X332483*
X332483*
X382483D02*
X382483D01*
X382483*
X382483*
Y185600D02*
X382483D01*
X382483*
X382483*
Y175600D02*
X382483D01*
X382483*
X382483*
Y165600D02*
X382483D01*
X382483*
X382483*
X372483Y195600D02*
X372483D01*
X372483*
X372483*
Y185600D02*
X372483D01*
X372483*
X372483*
Y175600D02*
X372483D01*
X372483*
X372483*
Y165600D02*
X372483D01*
X372483*
X372483*
X362483Y195600D02*
X362483D01*
X362483*
X362483*
Y185600D02*
X362483D01*
X362483*
X362483*
Y175600D02*
X362483D01*
X362483*
X362483*
Y165600D02*
X362483D01*
X362483*
X362483*
X352483Y195600D02*
X352483D01*
X352483*
X352483*
Y185600D02*
X352483D01*
X352483*
X352483*
Y175600D02*
X352483D01*
X352483*
X352483*
Y165600D02*
X352483D01*
X352483*
X352483*
X422483Y195600D02*
X422483D01*
X422483*
X422483*
Y175600D02*
X422483D01*
X422483*
X422483*
Y165600D02*
X422483D01*
X422483*
X422483*
X412483Y195600D02*
X412483D01*
X412483*
X412483*
Y175600D02*
X412483D01*
X412483*
X412483*
Y165600D02*
X412483D01*
X412483*
X412483*
X402483Y195600D02*
X402483D01*
X402483*
X402483*
Y185600D02*
X402483D01*
X402483*
X402483*
Y175600D02*
X402483D01*
X402483*
X402483*
Y165600D02*
X402483D01*
X402483*
X402483*
X392483Y195600D02*
X392483D01*
X392483*
X392483*
Y185600D02*
X392483D01*
X392483*
X392483*
Y175600D02*
X392483D01*
X392483*
X392483*
Y165600D02*
X392483D01*
X392483*
X392483*
X432483Y195600D02*
X432483D01*
X432483*
X432483*
Y175600D02*
X432483D01*
X432483*
X432483*
Y165600D02*
X432483D01*
X432483*
X432483*
X112483Y205600D02*
X112483D01*
X112483*
X112483*
X142483Y235600D02*
X142483D01*
X142483*
X142483*
Y215600D02*
X142483D01*
X142483*
X142483*
X132483Y235600D02*
X132483D01*
X132483*
X132483*
Y225600D02*
X132483D01*
X132483*
X132483*
Y215600D02*
X132483D01*
X132483*
X132483*
Y205600D02*
X132483D01*
X132483*
X132483*
X122483Y235600D02*
X122483D01*
X122483*
X122483*
Y225600D02*
X122483D01*
X122483*
X122483*
Y215600D02*
X122483D01*
X122483*
X122483*
Y205600D02*
X122483D01*
X122483*
X122483*
X142483D02*
X142483D01*
X142483*
X142483*
X112483Y235600D02*
X112483D01*
X112483*
X112483*
Y225600D02*
X112483D01*
X112483*
X112483*
Y215600D02*
X112483D01*
X112483*
X112483*
X182483Y235600D02*
X182483D01*
X182483*
X182483*
X152483Y215600D02*
X152483D01*
X152483*
X152483*
X182483D02*
X182483D01*
X182483*
X182483*
X152483Y205600D02*
X152483D01*
X152483*
X152483*
X182483D02*
X182483D01*
X182483*
X182483*
X159500Y225500D02*
X159500D01*
X159500*
X159500*
X152483Y235600D02*
X152483D01*
X152483*
X152483*
X192483D02*
X192483D01*
X192483*
X192483*
Y215600D02*
X192483D01*
X192483*
X192483*
Y205600D02*
X192483D01*
X192483*
X192483*
X222483Y235600D02*
X222483D01*
X222483*
X222483*
Y225600D02*
X222483D01*
X222483*
X222483*
Y215600D02*
X222483D01*
X222483*
X222483*
Y205600D02*
X222483D01*
X222483*
X222483*
X202483Y235600D02*
X202483D01*
X202483*
X202483*
Y225600D02*
X202483D01*
X202483*
X202483*
Y215600D02*
X202483D01*
X202483*
X202483*
Y205600D02*
X202483D01*
X202483*
X202483*
X212483Y215600D02*
X212483D01*
X212483*
X212483*
Y205600D02*
X212483D01*
X212483*
X212483*
Y235600D02*
X212483D01*
X212483*
X212483*
Y225600D02*
X212483D01*
X212483*
X212483*
X262483Y235600D02*
X262483D01*
X262483*
X262483*
X242483D02*
X242483D01*
X242483*
X242483*
Y225600D02*
X242483D01*
X242483*
X242483*
Y215600D02*
X242483D01*
X242483*
X242483*
Y205600D02*
X242483D01*
X242483*
X242483*
X252483Y215600D02*
X252483D01*
X252483*
X252483*
X262483Y225600D02*
X262483D01*
X262483*
X262483*
X252483Y235600D02*
X252483D01*
X252483*
X252483*
X262483Y215600D02*
X262483D01*
X262483*
X262483*
X252483Y205600D02*
X252483D01*
X252483*
X252483*
X262483D02*
X262483D01*
X262483*
X262483*
X252483Y225600D02*
X252483D01*
X252483*
X252483*
X282483Y235600D02*
X282483D01*
X282483*
X282483*
Y225600D02*
X282483D01*
X282483*
X282483*
Y215600D02*
X282483D01*
X282483*
X282483*
Y205600D02*
X282483D01*
X282483*
X282483*
X322483D02*
X322483D01*
X322483*
X322483*
X342483Y215600D02*
X342483D01*
X342483*
X342483*
Y205600D02*
X342483D01*
X342483*
X342483*
X312483Y225600D02*
X312483D01*
X312483*
X312483*
Y215600D02*
X312483D01*
X312483*
X312483*
X332483Y205600D02*
X332483D01*
X332483*
X332483*
X382483Y235600D02*
X382483D01*
X382483*
X382483*
Y225600D02*
X382483D01*
X382483*
X382483*
Y215600D02*
X382483D01*
X382483*
X382483*
Y205600D02*
X382483D01*
X382483*
X382483*
X372483Y235600D02*
X372483D01*
X372483*
X372483*
Y225600D02*
X372483D01*
X372483*
X372483*
Y215600D02*
X372483D01*
X372483*
X372483*
Y205600D02*
X372483D01*
X372483*
X372483*
X362483Y215600D02*
X362483D01*
X362483*
X362483*
Y205600D02*
X362483D01*
X362483*
X362483*
X352483Y215600D02*
X352483D01*
X352483*
X352483*
Y205600D02*
X352483D01*
X352483*
X352483*
X422483Y235600D02*
X422483D01*
X422483*
X422483*
Y225600D02*
X422483D01*
X422483*
X422483*
Y215600D02*
X422483D01*
X422483*
X422483*
X412483D02*
X412483D01*
X412483*
X412483*
X402483Y235600D02*
X402483D01*
X402483*
X402483*
Y225600D02*
X402483D01*
X402483*
X402483*
Y215600D02*
X402483D01*
X402483*
X402483*
Y205600D02*
X402483D01*
X402483*
X402483*
X392483Y235600D02*
X392483D01*
X392483*
X392483*
Y225600D02*
X392483D01*
X392483*
X392483*
Y215600D02*
X392483D01*
X392483*
X392483*
Y205600D02*
X392483D01*
X392483*
X392483*
X432483Y235600D02*
X432483D01*
X432483*
X432483*
Y225600D02*
X432483D01*
X432483*
X432483*
Y215600D02*
X432483D01*
X432483*
X432483*
X142483Y275600D02*
X142483D01*
X142483*
X142483*
Y265600D02*
X142483D01*
X142483*
X142483*
Y255600D02*
X142483D01*
X142483*
X142483*
Y245600D02*
X142483D01*
X142483*
X142483*
X132483Y275600D02*
X132483D01*
X132483*
X132483*
Y265600D02*
X132483D01*
X132483*
X132483*
Y255600D02*
X132483D01*
X132483*
X132483*
Y245600D02*
X132483D01*
X132483*
X132483*
X122483Y275600D02*
X122483D01*
X122483*
X122483*
Y265600D02*
X122483D01*
X122483*
X122483*
Y255600D02*
X122483D01*
X122483*
X122483*
Y245600D02*
X122483D01*
X122483*
X122483*
X112483Y275600D02*
X112483D01*
X112483*
X112483*
Y265600D02*
X112483D01*
X112483*
X112483*
Y255600D02*
X112483D01*
X112483*
X112483*
Y245600D02*
X112483D01*
X112483*
X112483*
X182483Y275600D02*
X182483D01*
X182483*
X182483*
Y265600D02*
X182483D01*
X182483*
X182483*
X172483Y275600D02*
X172483D01*
X172483*
X172483*
Y265600D02*
X172483D01*
X172483*
X172483*
Y255600D02*
X172483D01*
X172483*
X172483*
X177000Y253500D02*
X177000D01*
X177000*
X177000*
X152483Y275600D02*
X152483D01*
X152483*
X152483*
X172500Y280500D02*
X172500D01*
X172500*
X172500*
Y270500D02*
X172500D01*
X172500*
X172500*
X182500Y253500D02*
X182500D01*
X182500*
X182500*
X152483Y265600D02*
X152483D01*
X152483*
X152483*
X172500Y260500D02*
X172500D01*
X172500*
X172500*
X152483Y255600D02*
X152483D01*
X152483*
X152483*
Y245600D02*
X152483D01*
X152483*
X152483*
X187500Y253500D02*
X187500D01*
X187500*
X187500*
X217000Y266500D02*
X217000D01*
X217000*
X217000*
X192483Y265600D02*
X192483D01*
X192483*
X192483*
X192500Y253500D02*
X192500D01*
X192500*
X192500*
X197500D02*
X197500D01*
X197500*
X197500*
X208500Y264000D02*
X208500D01*
X208500*
X208500*
X220000Y253500D02*
X220000D01*
X220000*
X220000*
X214500Y259000D02*
X214500D01*
X214500*
X214500*
X221500Y271000D02*
X221500D01*
X221500*
X221500*
X203000Y253500D02*
X203000D01*
X203000*
X203000*
X221500Y266500D02*
X221500D01*
X221500*
X221500*
Y280500D02*
X221500D01*
X221500*
X221500*
X214500Y253500D02*
X214500D01*
X214500*
X214500*
X208500D02*
X208500D01*
X208500*
X208500*
X221500Y275500D02*
X221500D01*
X221500*
X221500*
Y262000D02*
X221500D01*
X221500*
X221500*
X262483Y265600D02*
X262483D01*
X262483*
X262483*
X252483D02*
X252483D01*
X252483*
X252483*
X242483D02*
X242483D01*
X242483*
X242483*
Y255600D02*
X242483D01*
X242483*
X242483*
Y245600D02*
X242483D01*
X242483*
X242483*
X238500Y280500D02*
X238500D01*
X238500*
X238500*
Y275500D02*
X238500D01*
X238500*
X238500*
Y271000D02*
X238500D01*
X238500*
X238500*
Y266500D02*
X238500D01*
X238500*
X238500*
Y262000D02*
X238500D01*
X238500*
X238500*
Y257500D02*
X238500D01*
X238500*
X238500*
X252483Y255600D02*
X252483D01*
X252483*
X252483*
X262483D02*
X262483D01*
X262483*
X262483*
X252483Y245600D02*
X252483D01*
X252483*
X252483*
Y275600D02*
X252483D01*
X252483*
X252483*
X262483Y245600D02*
X262483D01*
X262483*
X262483*
X282483Y275600D02*
X282483D01*
X282483*
X282483*
Y255600D02*
X282483D01*
X282483*
X282483*
Y245600D02*
X282483D01*
X282483*
X282483*
X272483Y275600D02*
X272483D01*
X272483*
X272483*
Y255600D02*
X272483D01*
X272483*
X272483*
Y245600D02*
X272483D01*
X272483*
X272483*
X292483Y265600D02*
X292483D01*
X292483*
X292483*
X302483D02*
X302483D01*
X302483*
X302483*
X292483Y255600D02*
X292483D01*
X292483*
X292483*
X322483Y275600D02*
X322483D01*
X322483*
X322483*
Y265600D02*
X322483D01*
X322483*
X322483*
X342483Y275600D02*
X342483D01*
X342483*
X342483*
Y265600D02*
X342483D01*
X342483*
X342483*
Y255600D02*
X342483D01*
X342483*
X342483*
X312483Y265600D02*
X312483D01*
X312483*
X312483*
X332483Y275600D02*
X332483D01*
X332483*
X332483*
X382483D02*
X382483D01*
X382483*
X382483*
Y265600D02*
X382483D01*
X382483*
X382483*
Y255600D02*
X382483D01*
X382483*
X382483*
Y245600D02*
X382483D01*
X382483*
X382483*
X372483Y275600D02*
X372483D01*
X372483*
X372483*
Y265600D02*
X372483D01*
X372483*
X372483*
Y255600D02*
X372483D01*
X372483*
X372483*
Y245600D02*
X372483D01*
X372483*
X372483*
X362483Y275600D02*
X362483D01*
X362483*
X362483*
Y265600D02*
X362483D01*
X362483*
X362483*
Y255600D02*
X362483D01*
X362483*
X362483*
X352483Y275600D02*
X352483D01*
X352483*
X352483*
Y265600D02*
X352483D01*
X352483*
X352483*
Y255600D02*
X352483D01*
X352483*
X352483*
Y245600D02*
X352483D01*
X352483*
X352483*
X422483Y275600D02*
X422483D01*
X422483*
X422483*
Y265600D02*
X422483D01*
X422483*
X422483*
Y255600D02*
X422483D01*
X422483*
X422483*
Y245600D02*
X422483D01*
X422483*
X422483*
X412483Y275600D02*
X412483D01*
X412483*
X412483*
Y265600D02*
X412483D01*
X412483*
X412483*
X402483Y275600D02*
X402483D01*
X402483*
X402483*
Y265600D02*
X402483D01*
X402483*
X402483*
Y255600D02*
X402483D01*
X402483*
X402483*
Y245600D02*
X402483D01*
X402483*
X402483*
X392483Y275600D02*
X392483D01*
X392483*
X392483*
Y265600D02*
X392483D01*
X392483*
X392483*
Y255600D02*
X392483D01*
X392483*
X392483*
Y245600D02*
X392483D01*
X392483*
X392483*
X432483Y275600D02*
X432483D01*
X432483*
X432483*
Y265600D02*
X432483D01*
X432483*
X432483*
Y255600D02*
X432483D01*
X432483*
X432483*
Y245600D02*
X432483D01*
X432483*
X432483*
X142483Y315600D02*
X142483D01*
X142483*
X142483*
Y285600D02*
X142483D01*
X142483*
X142483*
X132483Y315600D02*
X132483D01*
X132483*
X132483*
Y305600D02*
X132483D01*
X132483*
X132483*
Y295600D02*
X132483D01*
X132483*
X132483*
Y285600D02*
X132483D01*
X132483*
X132483*
X122483Y315600D02*
X122483D01*
X122483*
X122483*
Y305600D02*
X122483D01*
X122483*
X122483*
X112483Y315600D02*
X112483D01*
X112483*
X112483*
Y305600D02*
X112483D01*
X112483*
X112483*
Y295600D02*
X112483D01*
X112483*
X112483*
Y285600D02*
X112483D01*
X112483*
X112483*
X142483Y305600D02*
X142483D01*
X142483*
X142483*
Y295600D02*
X142483D01*
X142483*
X142483*
X122483D02*
X122483D01*
X122483*
X122483*
Y285600D02*
X122483D01*
X122483*
X122483*
X172500Y310500D02*
X172500D01*
X172500*
X172500*
Y300500D02*
X172500D01*
X172500*
X172500*
Y290500D02*
X172500D01*
X172500*
X172500*
X182483Y315600D02*
X182483D01*
X182483*
X182483*
X152483Y285600D02*
X152483D01*
X152483*
X152483*
X172483Y315600D02*
X172483D01*
X172483*
X172483*
Y305600D02*
X172483D01*
X172483*
X172483*
Y295600D02*
X172483D01*
X172483*
X172483*
Y285600D02*
X172483D01*
X172483*
X172483*
X152483Y315600D02*
X152483D01*
X152483*
X152483*
Y305600D02*
X152483D01*
X152483*
X152483*
Y295600D02*
X152483D01*
X152483*
X152483*
X172500Y320500D02*
X172500D01*
X172500*
X172500*
X207500D02*
X207500D01*
X207500*
X207500*
X192483Y315600D02*
X192483D01*
X192483*
X192483*
X202483D02*
X202483D01*
X202483*
X202483*
X212500Y315500D02*
X212500D01*
X212500*
X212500*
X221500Y320500D02*
X221500D01*
X221500*
X221500*
X217000D02*
X217000D01*
X217000*
X217000*
X212500Y305500D02*
X212500D01*
X212500*
X212500*
X192483Y305600D02*
X192483D01*
X192483*
X192483*
X221500Y285500D02*
X221500D01*
X221500*
X221500*
X212483Y295600D02*
X212483D01*
X212483*
X212483*
Y285600D02*
X212483D01*
X212483*
X212483*
X192483Y295600D02*
X192483D01*
X192483*
X192483*
Y285600D02*
X192483D01*
X192483*
X192483*
X262483Y315600D02*
X262483D01*
X262483*
X262483*
Y285600D02*
X262483D01*
X262483*
X262483*
X242483Y315600D02*
X242483D01*
X242483*
X242483*
X238500Y285500D02*
X238500D01*
X238500*
X238500*
Y320500D02*
X238500D01*
X238500*
X238500*
X242483Y295600D02*
X242483D01*
X242483*
X242483*
X252483Y305600D02*
X252483D01*
X252483*
X252483*
X282483Y285600D02*
X282483D01*
X282483*
X282483*
X302483Y315600D02*
X302483D01*
X302483*
X302483*
X272483Y295600D02*
X272483D01*
X272483*
X272483*
Y285600D02*
X272483D01*
X272483*
X272483*
X292483Y315600D02*
X292483D01*
X292483*
X292483*
X302483Y305600D02*
X302483D01*
X302483*
X302483*
X282483Y315600D02*
X282483D01*
X282483*
X282483*
Y305600D02*
X282483D01*
X282483*
X282483*
X322483Y315600D02*
X322483D01*
X322483*
X322483*
Y305600D02*
X322483D01*
X322483*
X322483*
X332483Y315600D02*
X332483D01*
X332483*
X332483*
Y305600D02*
X332483D01*
X332483*
X332483*
Y295600D02*
X332483D01*
X332483*
X332483*
Y285600D02*
X332483D01*
X332483*
X332483*
X342483Y295600D02*
X342483D01*
X342483*
X342483*
Y285600D02*
X342483D01*
X342483*
X342483*
Y315600D02*
X342483D01*
X342483*
X342483*
X312483D02*
X312483D01*
X312483*
X312483*
Y295600D02*
X312483D01*
X312483*
X312483*
Y285600D02*
X312483D01*
X312483*
X312483*
X342483Y305600D02*
X342483D01*
X342483*
X342483*
X382483Y315600D02*
X382483D01*
X382483*
X382483*
Y305600D02*
X382483D01*
X382483*
X382483*
Y295600D02*
X382483D01*
X382483*
X382483*
Y285600D02*
X382483D01*
X382483*
X382483*
X372483Y315600D02*
X372483D01*
X372483*
X372483*
Y305600D02*
X372483D01*
X372483*
X372483*
Y295600D02*
X372483D01*
X372483*
X372483*
Y285600D02*
X372483D01*
X372483*
X372483*
X362483Y315600D02*
X362483D01*
X362483*
X362483*
Y305600D02*
X362483D01*
X362483*
X362483*
Y295600D02*
X362483D01*
X362483*
X362483*
Y285600D02*
X362483D01*
X362483*
X362483*
X352483Y315600D02*
X352483D01*
X352483*
X352483*
Y305600D02*
X352483D01*
X352483*
X352483*
Y295600D02*
X352483D01*
X352483*
X352483*
Y285600D02*
X352483D01*
X352483*
X352483*
X422483Y315600D02*
X422483D01*
X422483*
X422483*
Y305600D02*
X422483D01*
X422483*
X422483*
Y295600D02*
X422483D01*
X422483*
X422483*
Y285600D02*
X422483D01*
X422483*
X422483*
X412483Y315600D02*
X412483D01*
X412483*
X412483*
Y305600D02*
X412483D01*
X412483*
X412483*
Y295600D02*
X412483D01*
X412483*
X412483*
Y285600D02*
X412483D01*
X412483*
X412483*
X402483Y315600D02*
X402483D01*
X402483*
X402483*
Y305600D02*
X402483D01*
X402483*
X402483*
Y295600D02*
X402483D01*
X402483*
X402483*
Y285600D02*
X402483D01*
X402483*
X402483*
X392483Y315600D02*
X392483D01*
X392483*
X392483*
Y305600D02*
X392483D01*
X392483*
X392483*
Y295600D02*
X392483D01*
X392483*
X392483*
Y285600D02*
X392483D01*
X392483*
X392483*
X432483Y315600D02*
X432483D01*
X432483*
X432483*
Y305600D02*
X432483D01*
X432483*
X432483*
Y295600D02*
X432483D01*
X432483*
X432483*
Y285600D02*
X432483D01*
X432483*
X432483*
X132483Y335600D02*
X132483D01*
X132483*
X132483*
X142483Y355600D02*
X142483D01*
X142483*
X142483*
Y345600D02*
X142483D01*
X142483*
X142483*
Y335600D02*
X142483D01*
X142483*
X142483*
Y325600D02*
X142483D01*
X142483*
X142483*
X132483D02*
X132483D01*
X132483*
X132483*
X122483Y355600D02*
X122483D01*
X122483*
X122483*
Y345600D02*
X122483D01*
X122483*
X122483*
Y335600D02*
X122483D01*
X122483*
X122483*
Y325600D02*
X122483D01*
X122483*
X122483*
X112483Y355600D02*
X112483D01*
X112483*
X112483*
Y345600D02*
X112483D01*
X112483*
X112483*
Y335600D02*
X112483D01*
X112483*
X112483*
Y325600D02*
X112483D01*
X112483*
X112483*
X132483Y355600D02*
X132483D01*
X132483*
X132483*
Y345600D02*
X132483D01*
X132483*
X132483*
X172483Y355600D02*
X172483D01*
X172483*
X172483*
Y325600D02*
X172483D01*
X172483*
X172483*
X152483Y355600D02*
X152483D01*
X152483*
X152483*
Y345600D02*
X152483D01*
X152483*
X152483*
Y335600D02*
X152483D01*
X152483*
X152483*
Y325600D02*
X152483D01*
X152483*
X152483*
X172483Y345600D02*
X172483D01*
X172483*
X172483*
Y335600D02*
X172483D01*
X172483*
X172483*
X173000Y361000D02*
X173000D01*
X173000*
X173000*
X172500Y350500D02*
X172500D01*
X172500*
X172500*
X182483Y355600D02*
X182483D01*
X182483*
X182483*
X172500Y340500D02*
X172500D01*
X172500*
X172500*
X182483Y345600D02*
X182483D01*
X182483*
X182483*
X172500Y330500D02*
X172500D01*
X172500*
X172500*
X182483Y335600D02*
X182483D01*
X182483*
X182483*
Y325600D02*
X182483D01*
X182483*
X182483*
X221500Y350500D02*
X221500D01*
X221500*
X221500*
Y345500D02*
X221500D01*
X221500*
X221500*
X192483Y355600D02*
X192483D01*
X192483*
X192483*
Y345600D02*
X192483D01*
X192483*
X192483*
X212483D02*
X212483D01*
X212483*
X212483*
X202483Y325600D02*
X202483D01*
X202483*
X202483*
Y355600D02*
X202483D01*
X202483*
X202483*
Y345600D02*
X202483D01*
X202483*
X202483*
X221500Y340500D02*
X221500D01*
X221500*
X221500*
X207500Y330500D02*
X207500D01*
X207500*
X207500*
X221500D02*
X221500D01*
X221500*
X221500*
X217000D02*
X217000D01*
X217000*
X217000*
X212483Y335600D02*
X212483D01*
X212483*
X212483*
X192483D02*
X192483D01*
X192483*
X192483*
X212483Y325600D02*
X212483D01*
X212483*
X212483*
X221500Y335500D02*
X221500D01*
X221500*
X221500*
X202483Y335600D02*
X202483D01*
X202483*
X202483*
X221500Y325500D02*
X221500D01*
X221500*
X221500*
X192483Y325600D02*
X192483D01*
X192483*
X192483*
X221500Y360500D02*
X221500D01*
X221500*
X221500*
Y355500D02*
X221500D01*
X221500*
X221500*
X212483Y355600D02*
X212483D01*
X212483*
X212483*
X262483D02*
X262483D01*
X262483*
X262483*
X238500Y360500D02*
X238500D01*
X238500*
X238500*
Y350500D02*
X238500D01*
X238500*
X238500*
Y340500D02*
X238500D01*
X238500*
X238500*
Y330500D02*
X238500D01*
X238500*
X238500*
X242483Y355600D02*
X242483D01*
X242483*
X242483*
Y345600D02*
X242483D01*
X242483*
X242483*
Y335600D02*
X242483D01*
X242483*
X242483*
X238500Y355500D02*
X238500D01*
X238500*
X238500*
X252483Y325600D02*
X252483D01*
X252483*
X252483*
X238500Y345500D02*
X238500D01*
X238500*
X238500*
X252483Y355600D02*
X252483D01*
X252483*
X252483*
X238500Y325500D02*
X238500D01*
X238500*
X238500*
Y335500D02*
X238500D01*
X238500*
X238500*
X252483Y345600D02*
X252483D01*
X252483*
X252483*
Y335600D02*
X252483D01*
X252483*
X252483*
X262483Y345600D02*
X262483D01*
X262483*
X262483*
Y335600D02*
X262483D01*
X262483*
X262483*
X302483Y355600D02*
X302483D01*
X302483*
X302483*
X282483D02*
X282483D01*
X282483*
X282483*
Y345600D02*
X282483D01*
X282483*
X282483*
Y335600D02*
X282483D01*
X282483*
X282483*
X272483Y355600D02*
X272483D01*
X272483*
X272483*
Y345600D02*
X272483D01*
X272483*
X272483*
Y335600D02*
X272483D01*
X272483*
X272483*
Y325600D02*
X272483D01*
X272483*
X272483*
X292483Y355600D02*
X292483D01*
X292483*
X292483*
Y345600D02*
X292483D01*
X292483*
X292483*
Y325600D02*
X292483D01*
X292483*
X292483*
X282483D02*
X282483D01*
X282483*
X282483*
X322483D02*
X322483D01*
X322483*
X322483*
X332483Y355600D02*
X332483D01*
X332483*
X332483*
X342483D02*
X342483D01*
X342483*
X342483*
X312483D02*
X312483D01*
X312483*
X312483*
X322483D02*
X322483D01*
X322483*
X322483*
Y345600D02*
X322483D01*
X322483*
X322483*
Y335600D02*
X322483D01*
X322483*
X322483*
X382483Y355600D02*
X382483D01*
X382483*
X382483*
Y345600D02*
X382483D01*
X382483*
X382483*
Y335600D02*
X382483D01*
X382483*
X382483*
Y325600D02*
X382483D01*
X382483*
X382483*
X372483Y355600D02*
X372483D01*
X372483*
X372483*
Y345600D02*
X372483D01*
X372483*
X372483*
Y335600D02*
X372483D01*
X372483*
X372483*
Y325600D02*
X372483D01*
X372483*
X372483*
X362483Y355600D02*
X362483D01*
X362483*
X362483*
X352483D02*
X352483D01*
X352483*
X352483*
X422483Y345600D02*
X422483D01*
X422483*
X422483*
Y335600D02*
X422483D01*
X422483*
X422483*
Y325600D02*
X422483D01*
X422483*
X422483*
X412483Y355600D02*
X412483D01*
X412483*
X412483*
Y335600D02*
X412483D01*
X412483*
X412483*
Y325600D02*
X412483D01*
X412483*
X412483*
X402483Y355600D02*
X402483D01*
X402483*
X402483*
Y345600D02*
X402483D01*
X402483*
X402483*
Y335600D02*
X402483D01*
X402483*
X402483*
Y325600D02*
X402483D01*
X402483*
X402483*
X392483Y355600D02*
X392483D01*
X392483*
X392483*
Y345600D02*
X392483D01*
X392483*
X392483*
Y335600D02*
X392483D01*
X392483*
X392483*
Y325600D02*
X392483D01*
X392483*
X392483*
X432483Y355600D02*
X432483D01*
X432483*
X432483*
Y345600D02*
X432483D01*
X432483*
X432483*
Y335600D02*
X432483D01*
X432483*
X432483*
Y325600D02*
X432483D01*
X432483*
X432483*
X142483Y395600D02*
X142483D01*
X142483*
X142483*
Y385600D02*
X142483D01*
X142483*
X142483*
Y375600D02*
X142483D01*
X142483*
X142483*
Y365600D02*
X142483D01*
X142483*
X142483*
X132483Y395600D02*
X132483D01*
X132483*
X132483*
Y385600D02*
X132483D01*
X132483*
X132483*
Y375600D02*
X132483D01*
X132483*
X132483*
X122483Y395600D02*
X122483D01*
X122483*
X122483*
Y385600D02*
X122483D01*
X122483*
X122483*
Y375600D02*
X122483D01*
X122483*
X122483*
Y365600D02*
X122483D01*
X122483*
X122483*
X112483Y375600D02*
X112483D01*
X112483*
X112483*
Y365600D02*
X112483D01*
X112483*
X112483*
Y395600D02*
X112483D01*
X112483*
X112483*
X132483Y365600D02*
X132483D01*
X132483*
X132483*
X112483Y385600D02*
X112483D01*
X112483*
X112483*
X173500Y366000D02*
X173500D01*
X173500*
X173500*
X165500Y390500D02*
X165500D01*
X165500*
X165500*
X161500Y383500D02*
X161500D01*
X161500*
X161500*
X158500Y376000D02*
X158500D01*
X158500*
X158500*
X170500Y396500D02*
X170500D01*
X170500*
X170500*
X176000Y401000D02*
X176000D01*
X176000*
X176000*
X176500Y376000D02*
X176500D01*
X176500*
X176500*
X183000Y385500D02*
X183000D01*
X183000*
X183000*
X182483Y375600D02*
X182483D01*
X182483*
X182483*
Y365600D02*
X182483D01*
X182483*
X182483*
X179000Y381000D02*
X179000D01*
X179000*
X179000*
X174500Y371000D02*
X174500D01*
X174500*
X174500*
X152483Y395600D02*
X152483D01*
X152483*
X152483*
Y385600D02*
X152483D01*
X152483*
X152483*
Y375600D02*
X152483D01*
X152483*
X152483*
Y365600D02*
X152483D01*
X152483*
X152483*
X162483Y395600D02*
X162483D01*
X162483*
X162483*
X207500Y395100D02*
X207500D01*
X207500*
X207500*
X189000Y389500D02*
X189000D01*
X189000*
X189000*
X203000Y394000D02*
X203000D01*
X203000*
X203000*
X202483Y385600D02*
X202483D01*
X202483*
X202483*
Y375600D02*
X202483D01*
X202483*
X202483*
Y365600D02*
X202483D01*
X202483*
X202483*
X221500Y370500D02*
X221500D01*
X221500*
X221500*
X212483Y375600D02*
X212483D01*
X212483*
X212483*
X195500Y392500D02*
X195500D01*
X195500*
X195500*
X217000Y388500D02*
X217000D01*
X217000*
X217000*
X220500Y382500D02*
X220500D01*
X220500*
X220500*
X192483Y365600D02*
X192483D01*
X192483*
X192483*
Y385600D02*
X192483D01*
X192483*
X192483*
X212483Y365600D02*
X212483D01*
X212483*
X212483*
X221500Y376000D02*
X221500D01*
X221500*
X221500*
Y365500D02*
X221500D01*
X221500*
X221500*
X211500Y392000D02*
X211500D01*
X211500*
X211500*
X192483Y375600D02*
X192483D01*
X192483*
X192483*
X212483Y385600D02*
X212483D01*
X212483*
X212483*
X262483Y365600D02*
X262483D01*
X262483*
X262483*
X238500Y370500D02*
X238500D01*
X238500*
X238500*
X242483Y395600D02*
X242483D01*
X242483*
X242483*
Y385600D02*
X242483D01*
X242483*
X242483*
Y375600D02*
X242483D01*
X242483*
X242483*
Y365600D02*
X242483D01*
X242483*
X242483*
X235500Y390000D02*
X235500D01*
X235500*
X235500*
X238500Y376000D02*
X238500D01*
X238500*
X238500*
Y365500D02*
X238500D01*
X238500*
X238500*
X252483Y395600D02*
X252483D01*
X252483*
X252483*
Y385600D02*
X252483D01*
X252483*
X252483*
X232483Y395600D02*
X232483D01*
X232483*
X232483*
X252483Y375600D02*
X252483D01*
X252483*
X252483*
Y365600D02*
X252483D01*
X252483*
X252483*
X262483Y395600D02*
X262483D01*
X262483*
X262483*
Y385600D02*
X262483D01*
X262483*
X262483*
Y375600D02*
X262483D01*
X262483*
X262483*
X228000Y401000D02*
X228000D01*
X228000*
X228000*
X238000Y383000D02*
X238000D01*
X238000*
X238000*
X292483Y395600D02*
X292483D01*
X292483*
X292483*
Y385600D02*
X292483D01*
X292483*
X292483*
Y375600D02*
X292483D01*
X292483*
X292483*
Y365600D02*
X292483D01*
X292483*
X292483*
X322483Y395600D02*
X322483D01*
X322483*
X322483*
Y385600D02*
X322483D01*
X322483*
X322483*
Y375600D02*
X322483D01*
X322483*
X322483*
Y365600D02*
X322483D01*
X322483*
X322483*
X382483Y395600D02*
X382483D01*
X382483*
X382483*
Y385600D02*
X382483D01*
X382483*
X382483*
Y375600D02*
X382483D01*
X382483*
X382483*
Y365600D02*
X382483D01*
X382483*
X382483*
X372483Y395600D02*
X372483D01*
X372483*
X372483*
Y385600D02*
X372483D01*
X372483*
X372483*
Y375600D02*
X372483D01*
X372483*
X372483*
Y365600D02*
X372483D01*
X372483*
X372483*
X422483Y385600D02*
X422483D01*
X422483*
X422483*
Y365600D02*
X422483D01*
X422483*
X422483*
X412483Y395600D02*
X412483D01*
X412483*
X412483*
Y375600D02*
X412483D01*
X412483*
X412483*
X402483Y395600D02*
X402483D01*
X402483*
X402483*
Y385600D02*
X402483D01*
X402483*
X402483*
Y375600D02*
X402483D01*
X402483*
X402483*
Y365600D02*
X402483D01*
X402483*
X402483*
X392483Y395600D02*
X392483D01*
X392483*
X392483*
Y385600D02*
X392483D01*
X392483*
X392483*
Y375600D02*
X392483D01*
X392483*
X392483*
Y365600D02*
X392483D01*
X392483*
X392483*
X432483Y385600D02*
X432483D01*
X432483*
X432483*
Y365600D02*
X432483D01*
X432483*
X432483*
X132483Y435600D02*
X132483D01*
X132483*
X132483*
Y425600D02*
X132483D01*
X132483*
X132483*
Y415600D02*
X132483D01*
X132483*
X132483*
Y405600D02*
X132483D01*
X132483*
X132483*
X122483Y435600D02*
X122483D01*
X122483*
X122483*
Y425600D02*
X122483D01*
X122483*
X122483*
Y415600D02*
X122483D01*
X122483*
X122483*
Y405600D02*
X122483D01*
X122483*
X122483*
X112483Y435600D02*
X112483D01*
X112483*
X112483*
Y425600D02*
X112483D01*
X112483*
X112483*
Y415600D02*
X112483D01*
X112483*
X112483*
Y405600D02*
X112483D01*
X112483*
X112483*
X142483Y435600D02*
X142483D01*
X142483*
X142483*
Y425600D02*
X142483D01*
X142483*
X142483*
Y415600D02*
X142483D01*
X142483*
X142483*
Y405600D02*
X142483D01*
X142483*
X142483*
X182500Y405000D02*
X182500D01*
X182500*
X182500*
X162483Y415600D02*
X162483D01*
X162483*
X162483*
X172483Y435600D02*
X172483D01*
X172483*
X172483*
Y425600D02*
X172483D01*
X172483*
X172483*
Y415600D02*
X172483D01*
X172483*
X172483*
Y405600D02*
X172483D01*
X172483*
X172483*
X152483Y435600D02*
X152483D01*
X152483*
X152483*
Y425600D02*
X152483D01*
X152483*
X152483*
Y415600D02*
X152483D01*
X152483*
X152483*
Y405600D02*
X152483D01*
X152483*
X152483*
X162483D02*
X162483D01*
X162483*
X162483*
Y435600D02*
X162483D01*
X162483*
X162483*
X182483D02*
X182483D01*
X182483*
X182483*
Y415600D02*
X182483D01*
X182483*
X182483*
X162483Y425600D02*
X162483D01*
X162483*
X162483*
X190500Y408000D02*
X190500D01*
X190500*
X190500*
X198500Y409500D02*
X198500D01*
X198500*
X198500*
X222483Y415600D02*
X222483D01*
X222483*
X222483*
Y405600D02*
X222483D01*
X222483*
X222483*
X192483Y415600D02*
X192483D01*
X192483*
X192483*
X216000Y408500D02*
X216000D01*
X216000*
X216000*
X192483Y435600D02*
X192483D01*
X192483*
X192483*
X222483D02*
X222483D01*
X222483*
X222483*
Y425600D02*
X222483D01*
X222483*
X222483*
X192483D02*
X192483D01*
X192483*
X192483*
X262483D02*
X262483D01*
X262483*
X262483*
X232483Y435600D02*
X232483D01*
X232483*
X232483*
Y415600D02*
X232483D01*
X232483*
X232483*
X242483Y435600D02*
X242483D01*
X242483*
X242483*
Y415600D02*
X242483D01*
X242483*
X242483*
Y405600D02*
X242483D01*
X242483*
X242483*
X252483Y425600D02*
X252483D01*
X252483*
X252483*
X232483Y405600D02*
X232483D01*
X232483*
X232483*
X282483D02*
X282483D01*
X282483*
X282483*
X272483Y435600D02*
X272483D01*
X272483*
X272483*
Y425600D02*
X272483D01*
X272483*
X272483*
Y405600D02*
X272483D01*
X272483*
X272483*
X292483Y435600D02*
X292483D01*
X292483*
X292483*
Y415600D02*
X292483D01*
X292483*
X292483*
Y405600D02*
X292483D01*
X292483*
X292483*
X282483Y435600D02*
X282483D01*
X282483*
X282483*
Y425600D02*
X282483D01*
X282483*
X282483*
X302483Y405600D02*
X302483D01*
X302483*
X302483*
X322483Y435600D02*
X322483D01*
X322483*
X322483*
Y425600D02*
X322483D01*
X322483*
X322483*
Y415600D02*
X322483D01*
X322483*
X322483*
Y405600D02*
X322483D01*
X322483*
X322483*
X332483D02*
X332483D01*
X332483*
X332483*
X342483D02*
X342483D01*
X342483*
X342483*
X312483D02*
X312483D01*
X312483*
X312483*
X382483Y435600D02*
X382483D01*
X382483*
X382483*
Y425600D02*
X382483D01*
X382483*
X382483*
Y415600D02*
X382483D01*
X382483*
X382483*
Y405600D02*
X382483D01*
X382483*
X382483*
X372483Y435600D02*
X372483D01*
X372483*
X372483*
Y425600D02*
X372483D01*
X372483*
X372483*
Y415600D02*
X372483D01*
X372483*
X372483*
Y405600D02*
X372483D01*
X372483*
X372483*
X362483D02*
X362483D01*
X362483*
X362483*
X352483D02*
X352483D01*
X352483*
X352483*
X422483Y435600D02*
X422483D01*
X422483*
X422483*
Y425600D02*
X422483D01*
X422483*
X422483*
Y415600D02*
X422483D01*
X422483*
X422483*
Y405600D02*
X422483D01*
X422483*
X422483*
X412483Y435600D02*
X412483D01*
X412483*
X412483*
Y425600D02*
X412483D01*
X412483*
X412483*
Y415600D02*
X412483D01*
X412483*
X412483*
X402483Y435600D02*
X402483D01*
X402483*
X402483*
Y425600D02*
X402483D01*
X402483*
X402483*
Y415600D02*
X402483D01*
X402483*
X402483*
Y405600D02*
X402483D01*
X402483*
X402483*
X392483Y435600D02*
X392483D01*
X392483*
X392483*
Y425600D02*
X392483D01*
X392483*
X392483*
Y415600D02*
X392483D01*
X392483*
X392483*
Y405600D02*
X392483D01*
X392483*
X392483*
X432483Y435600D02*
X432483D01*
X432483*
X432483*
Y425600D02*
X432483D01*
X432483*
X432483*
Y415600D02*
X432483D01*
X432483*
X432483*
Y405600D02*
X432483D01*
X432483*
X432483*
X142483Y445600D02*
X142483D01*
X142483*
X142483*
X122483Y455600D02*
X122483D01*
X122483*
X122483*
Y445600D02*
X122483D01*
X122483*
X122483*
X132483Y475600D02*
X132483D01*
X132483*
X132483*
Y465600D02*
X132483D01*
X132483*
X132483*
Y455600D02*
X132483D01*
X132483*
X132483*
Y445600D02*
X132483D01*
X132483*
X132483*
X112483Y475600D02*
X112483D01*
X112483*
X112483*
Y465600D02*
X112483D01*
X112483*
X112483*
Y455600D02*
X112483D01*
X112483*
X112483*
Y445600D02*
X112483D01*
X112483*
X112483*
X142483Y475600D02*
X142483D01*
X142483*
X142483*
Y465600D02*
X142483D01*
X142483*
X142483*
X122483Y475600D02*
X122483D01*
X122483*
X122483*
Y465600D02*
X122483D01*
X122483*
X122483*
X142483Y455600D02*
X142483D01*
X142483*
X142483*
X172483Y475600D02*
X172483D01*
X172483*
X172483*
X162483Y465600D02*
X162483D01*
X162483*
X162483*
Y455600D02*
X162483D01*
X162483*
X162483*
X152483Y475600D02*
X152483D01*
X152483*
X152483*
Y455600D02*
X152483D01*
X152483*
X152483*
Y445600D02*
X152483D01*
X152483*
X152483*
X182483Y475600D02*
X182483D01*
X182483*
X182483*
Y465600D02*
X182483D01*
X182483*
X182483*
Y455600D02*
X182483D01*
X182483*
X182483*
X152483Y465600D02*
X152483D01*
X152483*
X152483*
X172483D02*
X172483D01*
X172483*
X172483*
X162483Y445600D02*
X162483D01*
X162483*
X162483*
X182483D02*
X182483D01*
X182483*
X182483*
X172483Y455600D02*
X172483D01*
X172483*
X172483*
Y445600D02*
X172483D01*
X172483*
X172483*
X162483Y475600D02*
X162483D01*
X162483*
X162483*
X222483Y455600D02*
X222483D01*
X222483*
X222483*
X192483Y465600D02*
X192483D01*
X192483*
X192483*
Y475600D02*
X192483D01*
X192483*
X192483*
Y445600D02*
X192483D01*
X192483*
X192483*
X222483D02*
X222483D01*
X222483*
X222483*
Y475600D02*
X222483D01*
X222483*
X222483*
Y465600D02*
X222483D01*
X222483*
X222483*
X262483Y445600D02*
X262483D01*
X262483*
X262483*
X232483D02*
X232483D01*
X232483*
X232483*
X252483Y475600D02*
X252483D01*
X252483*
X252483*
Y465600D02*
X252483D01*
X252483*
X252483*
Y455600D02*
X252483D01*
X252483*
X252483*
Y445600D02*
X252483D01*
X252483*
X252483*
X232483Y475600D02*
X232483D01*
X232483*
X232483*
X262483D02*
X262483D01*
X262483*
X262483*
Y465600D02*
X262483D01*
X262483*
X262483*
Y455600D02*
X262483D01*
X262483*
X262483*
X242483Y475600D02*
X242483D01*
X242483*
X242483*
Y465600D02*
X242483D01*
X242483*
X242483*
X232483D02*
X232483D01*
X232483*
X232483*
X242483Y455600D02*
X242483D01*
X242483*
X242483*
X232483D02*
X232483D01*
X232483*
X232483*
X242483Y445600D02*
X242483D01*
X242483*
X242483*
X282483Y455600D02*
X282483D01*
X282483*
X282483*
X272483Y445600D02*
X272483D01*
X272483*
X272483*
Y475600D02*
X272483D01*
X272483*
X272483*
Y465600D02*
X272483D01*
X272483*
X272483*
X292483Y475600D02*
X292483D01*
X292483*
X292483*
Y455600D02*
X292483D01*
X292483*
X292483*
Y445600D02*
X292483D01*
X292483*
X292483*
Y465600D02*
X292483D01*
X292483*
X292483*
X302483D02*
X302483D01*
X302483*
X302483*
X272483Y455600D02*
X272483D01*
X272483*
X272483*
X282483Y445600D02*
X282483D01*
X282483*
X282483*
Y475600D02*
X282483D01*
X282483*
X282483*
X302483D02*
X302483D01*
X302483*
X302483*
Y455600D02*
X302483D01*
X302483*
X302483*
X282483Y465600D02*
X282483D01*
X282483*
X282483*
X322483D02*
X322483D01*
X322483*
X322483*
Y455600D02*
X322483D01*
X322483*
X322483*
Y445600D02*
X322483D01*
X322483*
X322483*
X332483Y475600D02*
X332483D01*
X332483*
X332483*
Y465600D02*
X332483D01*
X332483*
X332483*
Y455600D02*
X332483D01*
X332483*
X332483*
Y445600D02*
X332483D01*
X332483*
X332483*
X342483Y475600D02*
X342483D01*
X342483*
X342483*
Y465600D02*
X342483D01*
X342483*
X342483*
Y455600D02*
X342483D01*
X342483*
X342483*
Y445600D02*
X342483D01*
X342483*
X342483*
X312483Y475600D02*
X312483D01*
X312483*
X312483*
Y465600D02*
X312483D01*
X312483*
X312483*
Y455600D02*
X312483D01*
X312483*
X312483*
Y445600D02*
X312483D01*
X312483*
X312483*
X382483Y475600D02*
X382483D01*
X382483*
X382483*
Y465600D02*
X382483D01*
X382483*
X382483*
Y455600D02*
X382483D01*
X382483*
X382483*
Y445600D02*
X382483D01*
X382483*
X382483*
X372483Y475600D02*
X372483D01*
X372483*
X372483*
Y465600D02*
X372483D01*
X372483*
X372483*
Y455600D02*
X372483D01*
X372483*
X372483*
Y445600D02*
X372483D01*
X372483*
X372483*
X362483Y475600D02*
X362483D01*
X362483*
X362483*
Y465600D02*
X362483D01*
X362483*
X362483*
Y455600D02*
X362483D01*
X362483*
X362483*
Y445600D02*
X362483D01*
X362483*
X362483*
X352483Y475600D02*
X352483D01*
X352483*
X352483*
Y465600D02*
X352483D01*
X352483*
X352483*
Y455600D02*
X352483D01*
X352483*
X352483*
Y445600D02*
X352483D01*
X352483*
X352483*
X422483Y475600D02*
X422483D01*
X422483*
X422483*
Y465600D02*
X422483D01*
X422483*
X422483*
Y455600D02*
X422483D01*
X422483*
X422483*
Y445600D02*
X422483D01*
X422483*
X422483*
X412483Y475600D02*
X412483D01*
X412483*
X412483*
Y465600D02*
X412483D01*
X412483*
X412483*
Y455600D02*
X412483D01*
X412483*
X412483*
Y445600D02*
X412483D01*
X412483*
X412483*
X402483Y475600D02*
X402483D01*
X402483*
X402483*
Y465600D02*
X402483D01*
X402483*
X402483*
Y455600D02*
X402483D01*
X402483*
X402483*
Y445600D02*
X402483D01*
X402483*
X402483*
X392483Y475600D02*
X392483D01*
X392483*
X392483*
Y465600D02*
X392483D01*
X392483*
X392483*
Y455600D02*
X392483D01*
X392483*
X392483*
Y445600D02*
X392483D01*
X392483*
X392483*
X432483Y475600D02*
X432483D01*
X432483*
X432483*
Y465600D02*
X432483D01*
X432483*
X432483*
Y455600D02*
X432483D01*
X432483*
X432483*
Y445600D02*
X432483D01*
X432483*
X432483*
X142483Y505600D02*
X142483D01*
X142483*
X142483*
Y495600D02*
X142483D01*
X142483*
X142483*
X132483Y515600D02*
X132483D01*
X132483*
X132483*
Y505600D02*
X132483D01*
X132483*
X132483*
Y495600D02*
X132483D01*
X132483*
X132483*
Y485600D02*
X132483D01*
X132483*
X132483*
X122483Y515600D02*
X122483D01*
X122483*
X122483*
Y505600D02*
X122483D01*
X122483*
X122483*
Y495600D02*
X122483D01*
X122483*
X122483*
Y485600D02*
X122483D01*
X122483*
X122483*
X112483Y515600D02*
X112483D01*
X112483*
X112483*
Y505600D02*
X112483D01*
X112483*
X112483*
Y495600D02*
X112483D01*
X112483*
X112483*
Y485600D02*
X112483D01*
X112483*
X112483*
X142483D02*
X142483D01*
X142483*
X142483*
Y515600D02*
X142483D01*
X142483*
X142483*
X172483Y485600D02*
X172483D01*
X172483*
X172483*
X162483Y515600D02*
X162483D01*
X162483*
X162483*
X152483D02*
X152483D01*
X152483*
X152483*
Y505600D02*
X152483D01*
X152483*
X152483*
Y495600D02*
X152483D01*
X152483*
X152483*
Y485600D02*
X152483D01*
X152483*
X152483*
X182483Y515600D02*
X182483D01*
X182483*
X182483*
Y505600D02*
X182483D01*
X182483*
X182483*
Y495600D02*
X182483D01*
X182483*
X182483*
Y485600D02*
X182483D01*
X182483*
X182483*
X162483Y505600D02*
X162483D01*
X162483*
X162483*
X172483Y515600D02*
X172483D01*
X172483*
X172483*
X162483Y495600D02*
X162483D01*
X162483*
X162483*
X172483Y505600D02*
X172483D01*
X172483*
X172483*
Y495600D02*
X172483D01*
X172483*
X172483*
X162483Y485600D02*
X162483D01*
X162483*
X162483*
X222483Y505600D02*
X222483D01*
X222483*
X222483*
X192483D02*
X192483D01*
X192483*
X192483*
X222483Y485600D02*
X222483D01*
X222483*
X222483*
X192483D02*
X192483D01*
X192483*
X192483*
X242483Y495600D02*
X242483D01*
X242483*
X242483*
X262483Y515600D02*
X262483D01*
X262483*
X262483*
X252483D02*
X252483D01*
X252483*
X252483*
Y505600D02*
X252483D01*
X252483*
X252483*
Y495600D02*
X252483D01*
X252483*
X252483*
Y485600D02*
X252483D01*
X252483*
X252483*
X242483Y515600D02*
X242483D01*
X242483*
X242483*
Y485600D02*
X242483D01*
X242483*
X242483*
Y505600D02*
X242483D01*
X242483*
X242483*
X262483D02*
X262483D01*
X262483*
X262483*
X232483Y485600D02*
X232483D01*
X232483*
X232483*
Y515600D02*
X232483D01*
X232483*
X232483*
X262483Y495600D02*
X262483D01*
X262483*
X262483*
X232483Y505600D02*
X232483D01*
X232483*
X232483*
Y495600D02*
X232483D01*
X232483*
X232483*
X262483Y485600D02*
X262483D01*
X262483*
X262483*
X302483Y505600D02*
X302483D01*
X302483*
X302483*
X272483Y515600D02*
X272483D01*
X272483*
X272483*
Y505600D02*
X272483D01*
X272483*
X272483*
Y495600D02*
X272483D01*
X272483*
X272483*
Y485600D02*
X272483D01*
X272483*
X272483*
X292483Y515600D02*
X292483D01*
X292483*
X292483*
Y505600D02*
X292483D01*
X292483*
X292483*
Y495600D02*
X292483D01*
X292483*
X292483*
Y485600D02*
X292483D01*
X292483*
X292483*
X282483Y515600D02*
X282483D01*
X282483*
X282483*
X302483Y495600D02*
X302483D01*
X302483*
X302483*
Y485600D02*
X302483D01*
X302483*
X302483*
X282483D02*
X282483D01*
X282483*
X282483*
Y505600D02*
X282483D01*
X282483*
X282483*
Y495600D02*
X282483D01*
X282483*
X282483*
X302483Y515600D02*
X302483D01*
X302483*
X302483*
X312483Y505600D02*
X312483D01*
X312483*
X312483*
Y515600D02*
X312483D01*
X312483*
X312483*
X332483Y485600D02*
X332483D01*
X332483*
X332483*
Y515600D02*
X332483D01*
X332483*
X332483*
Y505600D02*
X332483D01*
X332483*
X332483*
X342483Y515600D02*
X342483D01*
X342483*
X342483*
Y505600D02*
X342483D01*
X342483*
X342483*
Y495600D02*
X342483D01*
X342483*
X342483*
Y485600D02*
X342483D01*
X342483*
X342483*
X312483Y495600D02*
X312483D01*
X312483*
X312483*
Y485600D02*
X312483D01*
X312483*
X312483*
X332483Y495600D02*
X332483D01*
X332483*
X332483*
X322483Y515600D02*
X322483D01*
X322483*
X322483*
X382483D02*
X382483D01*
X382483*
X382483*
Y505600D02*
X382483D01*
X382483*
X382483*
Y495600D02*
X382483D01*
X382483*
X382483*
Y485600D02*
X382483D01*
X382483*
X382483*
X372483Y515600D02*
X372483D01*
X372483*
X372483*
Y505600D02*
X372483D01*
X372483*
X372483*
Y495600D02*
X372483D01*
X372483*
X372483*
Y485600D02*
X372483D01*
X372483*
X372483*
X362483Y515600D02*
X362483D01*
X362483*
X362483*
Y505600D02*
X362483D01*
X362483*
X362483*
Y495600D02*
X362483D01*
X362483*
X362483*
Y485600D02*
X362483D01*
X362483*
X362483*
X352483Y515600D02*
X352483D01*
X352483*
X352483*
Y505600D02*
X352483D01*
X352483*
X352483*
Y495600D02*
X352483D01*
X352483*
X352483*
Y485600D02*
X352483D01*
X352483*
X352483*
X422483Y515600D02*
X422483D01*
X422483*
X422483*
Y505600D02*
X422483D01*
X422483*
X422483*
Y495600D02*
X422483D01*
X422483*
X422483*
Y485600D02*
X422483D01*
X422483*
X422483*
X412483Y515600D02*
X412483D01*
X412483*
X412483*
Y505600D02*
X412483D01*
X412483*
X412483*
Y495600D02*
X412483D01*
X412483*
X412483*
Y485600D02*
X412483D01*
X412483*
X412483*
X402483Y515600D02*
X402483D01*
X402483*
X402483*
Y505600D02*
X402483D01*
X402483*
X402483*
Y495600D02*
X402483D01*
X402483*
X402483*
Y485600D02*
X402483D01*
X402483*
X402483*
X392483Y515600D02*
X392483D01*
X392483*
X392483*
Y505600D02*
X392483D01*
X392483*
X392483*
Y495600D02*
X392483D01*
X392483*
X392483*
Y485600D02*
X392483D01*
X392483*
X392483*
X432483Y515600D02*
X432483D01*
X432483*
X432483*
Y505600D02*
X432483D01*
X432483*
X432483*
Y495600D02*
X432483D01*
X432483*
X432483*
Y485600D02*
X432483D01*
X432483*
X432483*
X122483Y535600D02*
X122483D01*
X122483*
X122483*
Y525600D02*
X122483D01*
X122483*
X122483*
X112483D02*
X112483D01*
X112483*
X112483*
X132483Y545600D02*
X132483D01*
X132483*
X132483*
X142483D02*
X142483D01*
X142483*
X142483*
X132483Y535600D02*
X132483D01*
X132483*
X132483*
X142483D02*
X142483D01*
X142483*
X142483*
Y525600D02*
X142483D01*
X142483*
X142483*
X132483D02*
X132483D01*
X132483*
X132483*
X172483Y535600D02*
X172483D01*
X172483*
X172483*
Y525600D02*
X172483D01*
X172483*
X172483*
X152483Y545600D02*
X152483D01*
X152483*
X152483*
Y535600D02*
X152483D01*
X152483*
X152483*
Y525600D02*
X152483D01*
X152483*
X152483*
X182483Y545600D02*
X182483D01*
X182483*
X182483*
Y535600D02*
X182483D01*
X182483*
X182483*
Y525600D02*
X182483D01*
X182483*
X182483*
X162483Y545600D02*
X162483D01*
X162483*
X162483*
Y535600D02*
X162483D01*
X162483*
X162483*
X172483Y545600D02*
X172483D01*
X172483*
X172483*
X162483Y525600D02*
X162483D01*
X162483*
X162483*
X202483Y545600D02*
X202483D01*
X202483*
X202483*
Y535600D02*
X202483D01*
X202483*
X202483*
Y525600D02*
X202483D01*
X202483*
X202483*
X222483D02*
X222483D01*
X222483*
X222483*
X192483Y545600D02*
X192483D01*
X192483*
X192483*
X212483D02*
X212483D01*
X212483*
X212483*
Y535600D02*
X212483D01*
X212483*
X212483*
Y525600D02*
X212483D01*
X212483*
X212483*
X222483Y545600D02*
X222483D01*
X222483*
X222483*
Y535600D02*
X222483D01*
X222483*
X222483*
X192483D02*
X192483D01*
X192483*
X192483*
Y525600D02*
X192483D01*
X192483*
X192483*
X242483Y545600D02*
X242483D01*
X242483*
X242483*
Y535600D02*
X242483D01*
X242483*
X242483*
X262483D02*
X262483D01*
X262483*
X262483*
X252483D02*
X252483D01*
X252483*
X252483*
Y525600D02*
X252483D01*
X252483*
X252483*
X242483D02*
X242483D01*
X242483*
X242483*
X252483Y545600D02*
X252483D01*
X252483*
X252483*
X232483Y525600D02*
X232483D01*
X232483*
X232483*
Y545600D02*
X232483D01*
X232483*
X232483*
Y535600D02*
X232483D01*
X232483*
X232483*
X262483Y545600D02*
X262483D01*
X262483*
X262483*
X302483Y535600D02*
X302483D01*
X302483*
X302483*
X272483Y545600D02*
X272483D01*
X272483*
X272483*
Y535600D02*
X272483D01*
X272483*
X272483*
X292483Y545600D02*
X292483D01*
X292483*
X292483*
Y535600D02*
X292483D01*
X292483*
X292483*
Y525600D02*
X292483D01*
X292483*
X292483*
X282483Y545600D02*
X282483D01*
X282483*
X282483*
X302483Y525600D02*
X302483D01*
X302483*
X302483*
X282483Y535600D02*
X282483D01*
X282483*
X282483*
X302483Y545600D02*
X302483D01*
X302483*
X302483*
X312483D02*
X312483D01*
X312483*
X312483*
Y525600D02*
X312483D01*
X312483*
X312483*
X332483Y545600D02*
X332483D01*
X332483*
X332483*
Y535600D02*
X332483D01*
X332483*
X332483*
Y525600D02*
X332483D01*
X332483*
X332483*
X342483Y545600D02*
X342483D01*
X342483*
X342483*
Y535600D02*
X342483D01*
X342483*
X342483*
X322483Y545600D02*
X322483D01*
X322483*
X322483*
X342483Y525600D02*
X342483D01*
X342483*
X342483*
X382483Y545600D02*
X382483D01*
X382483*
X382483*
Y535600D02*
X382483D01*
X382483*
X382483*
Y525600D02*
X382483D01*
X382483*
X382483*
X372483Y545600D02*
X372483D01*
X372483*
X372483*
Y535600D02*
X372483D01*
X372483*
X372483*
Y525600D02*
X372483D01*
X372483*
X372483*
X362483Y545600D02*
X362483D01*
X362483*
X362483*
Y535600D02*
X362483D01*
X362483*
X362483*
Y525600D02*
X362483D01*
X362483*
X362483*
X352483Y545600D02*
X352483D01*
X352483*
X352483*
Y535600D02*
X352483D01*
X352483*
X352483*
Y525600D02*
X352483D01*
X352483*
X352483*
X422483D02*
X422483D01*
X422483*
X422483*
X412483Y545600D02*
X412483D01*
X412483*
X412483*
Y535600D02*
X412483D01*
X412483*
X412483*
Y525600D02*
X412483D01*
X412483*
X412483*
X402483Y545600D02*
X402483D01*
X402483*
X402483*
Y535600D02*
X402483D01*
X402483*
X402483*
Y525600D02*
X402483D01*
X402483*
X402483*
X392483Y545600D02*
X392483D01*
X392483*
X392483*
Y535600D02*
X392483D01*
X392483*
X392483*
Y525600D02*
X392483D01*
X392483*
X392483*
X432483D02*
X432483D01*
X432483*
X432483*
G54D33*
X263386Y526634D02*
X264164Y527412D01*
X269118Y526634D02*
X268340Y527412D01*
X269118Y532366D02*
X268340Y531588D01*
X263386Y532366D02*
X264164Y531588D01*
X213187Y513687D02*
X213964Y514464D01*
X221813Y513687D02*
X221036Y514464D01*
X221813Y522313D02*
X221036Y521536D01*
X213187Y522313D02*
X213964Y521536D01*
X122081Y120581D02*
X121303Y119803D01*
X109919Y120581D02*
X110697Y119803D01*
X109919Y108419D02*
X110697Y109197D01*
X122081Y108419D02*
X121303Y109197D01*
X172687Y112687D02*
X173464Y113464D01*
X181313Y112687D02*
X180536Y113464D01*
X181313Y121313D02*
X180536Y120536D01*
X172687Y121313D02*
X173464Y120536D01*
X226813Y121313D02*
X226036Y120536D01*
X218187Y121313D02*
X218964Y120536D01*
X218187Y112687D02*
X218964Y113464D01*
X226813Y112687D02*
X226036Y113464D01*
X226813Y141313D02*
X226036Y140536D01*
X218187Y141313D02*
X218964Y140536D01*
X218187Y132687D02*
X218964Y133464D01*
X226813Y132687D02*
X226036Y133464D01*
X152687Y112687D02*
X153464Y113464D01*
X161313Y112687D02*
X160536Y113464D01*
X161313Y121313D02*
X160536Y120536D01*
X152687Y121313D02*
X153464Y120536D01*
X246813Y121313D02*
X246036Y120536D01*
X238187Y121313D02*
X238964Y120536D01*
X238187Y112687D02*
X238964Y113464D01*
X246813Y112687D02*
X246036Y113464D01*
X152687Y132687D02*
X153464Y133464D01*
X161313Y132687D02*
X160536Y133464D01*
X161313Y141313D02*
X160536Y140536D01*
X152687Y141313D02*
X153464Y140536D01*
X172687Y132687D02*
X173464Y133464D01*
X181313Y132687D02*
X180536Y133464D01*
X181313Y141313D02*
X180536Y140536D01*
X172687Y141313D02*
X173464Y140536D01*
X193187Y493687D02*
X193964Y494464D01*
X201813Y493687D02*
X201036Y494464D01*
X201813Y502313D02*
X201036Y501536D01*
X193187Y502313D02*
X193964Y501536D01*
X246813Y141313D02*
X246036Y140536D01*
X238187Y141313D02*
X238964Y140536D01*
X238187Y132687D02*
X238964Y133464D01*
X246813Y132687D02*
X246036Y133464D01*
X279134Y526634D02*
X279912Y527412D01*
X284866Y526634D02*
X284088Y527412D01*
X284866Y532366D02*
X284088Y531588D01*
X279134Y532366D02*
X279912Y531588D01*
X410634Y252988D02*
X411412Y252210D01*
X410634Y247256D02*
X411412Y248034D01*
X416366Y247256D02*
X415588Y248034D01*
X416366Y252988D02*
X415588Y252210D01*
X315363Y476163D02*
X316141Y476941D01*
X323637Y476163D02*
X322859Y476941D01*
X323637Y484437D02*
X322859Y483659D01*
X315363Y484437D02*
X316141Y483659D01*
X278565Y262691D02*
X279343Y263469D01*
X283183Y262691D02*
X282405Y263469D01*
X283183Y267309D02*
X282405Y266531D01*
X278565Y267309D02*
X279343Y266531D01*
X410634Y229366D02*
X411412Y228588D01*
X410634Y223634D02*
X411412Y224412D01*
X416366Y223634D02*
X415588Y224412D01*
X416366Y229366D02*
X415588Y228588D01*
X309399Y264399D02*
X308621Y263621D01*
X303601Y264399D02*
X304379Y263621D01*
X303601Y258601D02*
X304379Y259379D01*
X309399Y258601D02*
X308621Y259379D01*
X433581Y120581D02*
X432803Y119803D01*
X421419Y120581D02*
X422197Y119803D01*
X421419Y108419D02*
X422197Y109197D01*
X433581Y108419D02*
X432803Y109197D01*
X345191Y485935D02*
X345969Y485157D01*
X345191Y481317D02*
X345969Y482095D01*
X349809Y481317D02*
X349031Y482095D01*
X349809Y485935D02*
X349031Y485157D01*
X433581Y550081D02*
X432803Y549303D01*
X421419Y550081D02*
X422197Y549303D01*
X421419Y537919D02*
X422197Y538697D01*
X433581Y537919D02*
X432803Y538697D01*
X193187Y513687D02*
X193964Y514464D01*
X201813Y513687D02*
X201036Y514464D01*
X201813Y522313D02*
X201036Y521536D01*
X193187Y522313D02*
X193964Y521536D01*
X122081Y549581D02*
X121303Y548803D01*
X109919Y549581D02*
X110697Y548803D01*
X109919Y537419D02*
X110697Y538197D01*
X122081Y537419D02*
X121303Y538197D01*
X213187Y493687D02*
X213964Y494464D01*
X221813Y493687D02*
X221036Y494464D01*
X221813Y502313D02*
X221036Y501536D01*
X213187Y502313D02*
X213964Y501536D01*
X410634Y237240D02*
X411412Y236462D01*
X410634Y231508D02*
X411412Y232286D01*
X416366Y231508D02*
X415588Y232286D01*
X416366Y237240D02*
X415588Y236462D01*
G74*
X0Y0D02*
M02*
