%
T1C.018F095S3
X01275Y01906
X01462Y0209
X0124Y02265
X01279Y02377
X01554Y02458
X0151Y02544
X0146Y02562
X01268Y02765
X01545Y02824
X0127Y02842
X01479Y03047
X0147Y03135
X01597Y03135
X01471Y03185
X01587Y0326
X01482Y03355
X01305Y0367
X01732Y0377
X01748Y0367
X01673Y03486
X01835Y03481
X01735Y03015
X01641Y02916
X01725Y02712
X01697Y02464
X01679Y02418
X01804Y0223
X01687Y0222
X01756Y02179
X01628Y02172
X02368Y02233
X0224Y02494
X01988Y02495
X01885Y0258
X02187Y02605
X0189Y0284
X01887Y02894
X021Y02928
X02161Y0293
X02351Y02936
X02089Y03076
X01959Y03085
X02115Y03479
X02259Y03512
X01946Y03547
X02196Y0367
X02157Y03709
X02385Y03481
X02508Y03082
X02462Y03042
X02418Y03004
X02591Y02934
X0254Y02783
X02382Y02674
X0249Y024
X02526Y02371
X02563Y02342
X0245Y02319
X02598Y0231
X02408Y02271
X0294Y0213
X02634Y02278
X03039Y02387
X03102Y02485
X031Y0258
X02906Y02624
X02876Y02665
X02911Y02702
X03099Y02706
X02975Y02974
X02882Y03039
X03043Y03045
X02974Y03159
X02699Y03206
X0292Y0324
X02645Y0348
X02699Y03588
X02665Y0367
X03059Y03709
X0264Y0376
X0355Y0377
X0355Y0372
X03259Y03676
X036Y03675
X036Y03596
X03147Y03522
X0325Y03468
X03345Y03466
X03297Y03466
X03395Y03465
X0358Y0342
X03238Y03357
X035Y0317
X03453Y03115
X03492Y03069
X03177Y0294
X03366Y02936
X03415Y02911
X03472Y0291
X0312Y02879
X03602Y02863
X03546Y02829
X03564Y02748
X03542Y02442
X0346Y02438
X03209Y02437
X03599Y02301
X0386Y01845
X03747Y02028
X03668Y02045
X0375Y02352
X0365Y0237
X03627Y02413
X03753Y02419
X03812Y02653
X0373Y0337
X0383Y0337
X036277Y033702
X0368Y0342
X0378Y0342
X0382Y0349
X0375Y0349
X0382Y0368
X0375Y0368
X042641Y039358
X043348Y038651
X042641Y037944
X0387Y037
X0394Y037
X042641Y03653
X0387Y0342
X04202Y031191
X042727Y030484
X0399Y03
X0389Y0299
X043434Y029777
X04202Y029777
X04165Y02833
X03951Y02792
X04158Y0278
X03994Y02694
X0414Y0246
X0421Y0239
X0414Y0232
X04Y0232
X0421Y0232
X042274Y021594
X0413Y021
X04791Y01606
X0458Y0226
X048446Y022631
X047031Y022631
X047738Y023338
X046324Y023338
X047738Y024753
X04701Y02486
X047031Y02546
X04607Y0271
X0458Y0282
X048Y029
X0466Y029
X044848Y029777
X044141Y030484
X044848Y031191
X044056Y037944
X048298Y037944
X046177Y038651
X044056Y039358
X04547Y039358
X048298Y039358
X046884Y039358
X051127Y039358
X049712Y039358
X051127Y037944
X049712Y037944
X050419Y037237
X051127Y03653
X050419Y035823
X051127Y035116
X050419Y034409
X051127Y033702
X0487Y029
X050567Y028995
X049Y0277
X050567Y027581
X0501Y02731
X049153Y026167
X04931Y02544
X050567Y024753
X049153Y023338
X050567Y023338
X050567Y021924
X05107Y01557
X0521Y01335
X052688Y021217
X052688Y022631
X051981Y023338
X053395Y024753
X052Y02698
X0527Y0279
X051274Y028288
X051981Y028995
X05332Y0304
X051834Y032994
X053248Y032994
X052541Y033702
X053248Y034409
X051834Y034409
X052541Y035116
X053248Y035823
X051834Y035823
X052541Y03653
X051834Y037237
X0517Y0387
X0541Y0279
X054102Y024046
T2C.02362F197S55
X041806Y0346
X042594Y0346
X045906Y0339
X046694Y0339
T3C.024F197S55
X02088Y0212
X0228Y0212
X03308Y0212
X035Y0212
T4C.0315F197S55
X0112Y021425
X0112Y022213
X0112Y023
X0112Y025525
X0112Y026313
X0112Y0271
X0112Y029763
X0112Y03055
X0112Y031338
X0112Y032125
X0112Y032913
X0112Y0337
X015425Y0386
X017Y0386
X016213Y0386
X0186Y0162
X017813Y0162
X017025Y0162
X0162Y0137
X016987Y0137
X017775Y0137
X018562Y0137
X0162Y0112
X016987Y0112
X017775Y0112
X018562Y0112
X019825Y0386
X020613Y0386
X0214Y0386
X024425Y0386
X025213Y0386
X026Y0386
X0304Y0386
X029613Y0386
X028825Y0386
X0273Y025
X0273Y024213
X0273Y023425
X0273Y022638
X0273Y02185
X0273Y021063
X0409Y0196
X0393Y0225
X040087Y0225
X040875Y0225
X0393Y0252
X040087Y0252
X040875Y0252
X041662Y0252
X041662Y0225
X041687Y0196
X045725Y0168
X0473Y0168
X046513Y0168
X048587Y0115
X0478Y0115
X049375Y0115
X050162Y0115
X0536Y0258
X0536Y026587
X0536Y027375
T5C.035F197S55
X0118Y014792
X012784Y014792
X0118Y015816
X012784Y015816
X0118Y0168
X012784Y0168
X0123Y0354
X0113Y0354
X0166Y020959
X018372Y020959
X0166Y0184
X018372Y0184
X0285Y0276
X0386Y0282
X0285Y0286
X0386Y0292
X0412Y0169
X0412Y015128
X0401Y012784
X042108Y012784
X041084Y012784
X0401Y0118
X041084Y0118
X042108Y0118
X043759Y015128
X043759Y0169
T6C.037F197S55
X0378Y0322
X0366Y0322
X0491Y0386
X0491Y0364
X0475Y03
X0498Y03
X0498Y0289
T7C.05512F107S55
X0454Y0364
X0454Y038565
X047054Y038565
X047054Y0364
T8C.05906F107S55
X016198Y0162
X019427Y0162
X044898Y0168
X048127Y0168
T9C.07874F081S55
X036037Y011202
X02115Y01855
T10C.09843F066S55
X049391Y022
X051694Y022
X0538Y022
T11C.116F069S658
X0115Y0115
X0115Y0385
X0535Y0385
X0535Y0115
M30
