%
T1C.018F095S3
X013Y012
X01375Y01405
X012Y01575
X01475Y016
X0125Y01675
X0155Y01675
X0125Y018
X01075Y01925
X0155Y021
X01075Y023
X0125Y0295
X011Y0295
X014Y0295
X0155Y0315
X0145Y03825
X01575Y04125
X017Y0295
X0165Y028
X01675Y0275
X01795Y0246
X01725Y0215
X0159Y02025
X01725Y0195
X01725Y01825
X01625Y01825
X01775Y01825
X01675Y01825
X016Y016
X01775Y01575
X01575Y01525
X01825Y01575
X01825Y01625
X0185Y01875
X01875Y02825
X0195Y0285
X01825Y0285
X02025Y0305
X0195Y0305
X02025Y0315
X0195Y0315
X026Y03
X026Y02875
X02425Y02675
X0295Y02675
X0295Y024
X027Y0215
X03375Y0175
X03375Y018
X036Y02005
X0365Y02005
X03525Y02105
X03725Y0215
X0365Y0235
X037Y02675
X0375Y028
X03625Y02825
X03825Y02775
X03925Y022
X03835Y0208
X0395Y018
T2C.01969F095S3
X012807Y037028
X012807Y038012
T3C.02756F197S55
X0219Y0181
X023278Y0181
X025022Y0205
X0264Y0205
X0313Y0191
X0313Y017722
T4C.0315F197S55
X0145Y0134
X015287Y0134
X016075Y0134
X017Y0362
X017Y036987
X017Y037775
X017Y038562
X017Y03935
X030225Y0291
X029438Y0291
X02865Y0291
X0329Y0134
X033687Y0134
X034475Y0134
X0318Y0291
X031013Y0291
T5C.035F197S55
X0151Y0251
X016084Y0251
X017108Y0251
X016084Y026084
X0151Y026084
X017108Y026084
T6C.04567F139S55
X0385Y0127
T7C.06693F089S55
X037197Y011397
X037197Y014003
X039803Y014003
X039803Y011397
T8C.071F081S55
X020046Y0156
X0217Y0156
X023354Y0156
X02705Y01777
X0287Y01777
X0287Y0156
X02705Y0156
T9C.08661F074S55
X011575Y01748
X011575Y025748
X011206Y03362
X01908Y03362
X01908Y041494
X011206Y041494
X040315Y025748
X032441Y015748
T10C.118F069S658
X020046Y01273
X023354Y01273
X02787Y01273
M30
