%
T1C.015F095S3
X01095Y01056
X01095Y0127
X01309Y01056
X01309Y0127
X01523Y01056
X01737Y01056
X01737Y0127
X01844Y01163
X01951Y01056
X01951Y0127
X02165Y01056
X02379Y01056
X02379Y0127
X02486Y01163
X02593Y01056
X02807Y01056
X02914Y01163
X03021Y01056
X03235Y01056
X03235Y0127
X03342Y01163
X03449Y01056
X03449Y0127
X03663Y01056
X0396Y01056
X0396Y0127
X04174Y01056
X04174Y0127
X04388Y01056
X04602Y01056
X04602Y0127
X04709Y01163
X04816Y01056
X04816Y0127
X0503Y01056
X05244Y01056
X05244Y0127
X05351Y01163
X05458Y01056
X05672Y01056
X05779Y01163
X05886Y01056
X061Y01056
X061Y0127
X06207Y01163
X06314Y01056
X06314Y0127
X06528Y01056
X06421Y01377
X063Y0153
X06207Y01377
X05993Y01377
X0597Y0153
X05886Y01484
X05779Y01377
X0564Y01534
X05565Y01377
X05351Y01377
X05309Y01534
X05244Y01484
X051Y0149
X051Y0154
X051Y01445
X0495Y01545
X0495Y01495
X0495Y01445
X04816Y01484
X04709Y01377
X04602Y01484
X04445Y01495
X04445Y01545
X04445Y01445
X04295Y01445
X04295Y01495
X04295Y01545
X04174Y01484
X04067Y01377
X0396Y01484
X03556Y01377
X03435Y0153
X03342Y01377
X03128Y01377
X03105Y0153
X03021Y01484
X02914Y01377
X02775Y01534
X027Y01377
X02486Y01377
X02444Y01534
X02379Y01484
X02235Y0154
X02235Y0149
X02235Y01445
X02085Y01545
X02085Y01495
X02085Y01445
X01951Y01484
X01844Y01377
X01737Y01484
X0158Y01495
X0158Y01445
X0158Y01545
X0143Y01495
X0143Y01545
X0143Y01445
X01309Y01484
X01202Y01377
X01095Y01484
X01202Y01805
X01309Y01698
X0143Y01595
X0143Y01745
X0143Y01695
X0143Y01645
X0143Y01795
X0158Y01595
X0158Y01695
X0158Y01645
X0158Y01795
X0158Y01745
X0163Y01805
X0163Y01591
X01737Y01698
X01844Y01591
X01844Y01805
X01951Y01698
X02085Y01595
X02085Y01745
X02085Y01695
X02085Y01645
X02085Y01795
X02235Y0159
X02235Y0179
X02235Y0174
X02235Y0169
X02235Y0164
X02379Y01698
X0267Y0158
X02807Y01698
X03021Y01698
X03235Y01698
X03449Y01698
X03556Y01805
X0366Y0158
X04067Y01805
X04174Y01698
X04295Y01595
X04295Y01795
X04295Y01645
X04295Y01695
X04295Y01745
X04445Y01745
X04445Y01795
X04445Y01645
X04445Y01695
X04445Y01595
X04495Y01591
X04495Y01805
X04602Y01698
X04709Y01591
X04709Y01805
X04816Y01698
X0495Y01595
X0495Y01795
X0495Y01645
X0495Y01695
X0495Y01745
X051Y0169
X051Y0174
X051Y0179
X051Y0159
X051Y0164
X05244Y01698
X05535Y0158
X05672Y01698
X05886Y01698
X061Y01698
X06314Y01698
X06421Y01805
X06525Y0158
X0629Y01995
X0625Y01995
X06105Y02015
X06105Y01975
X06105Y02055
X06065Y02055
X0606Y0193
X0606Y0188
X0606Y0183
X05841Y0189
X05672Y01912
X0542Y02015
X0541Y0182
X05365Y0182
X05365Y0194
X05233Y01978
X051Y0194
X051Y0199
X051Y0184
X051Y0189
X051Y0204
X0495Y01845
X0495Y01895
X0495Y01945
X0495Y01995
X0495Y02045
X04816Y01912
X04709Y02019
X04602Y01912
X04495Y02019
X04445Y01845
X04445Y01895
X04445Y01945
X04445Y01995
X04445Y02045
X04295Y01845
X04295Y01895
X04295Y01945
X04295Y01995
X04295Y02045
X04174Y01912
X04067Y02019
X03425Y01995
X03385Y01995
X0324Y01975
X0324Y02015
X0324Y02055
X032Y02055
X03195Y0183
X03195Y0188
X03195Y0193
X02976Y0189
X02807Y01912
X02555Y02015
X02545Y0182
X025Y0182
X025Y0194
X02368Y01978
X02235Y0204
X02235Y0194
X02235Y0184
X02235Y0199
X02235Y0189
X02085Y01995
X02085Y02045
X02085Y01895
X02085Y01845
X02085Y01945
X01951Y01912
X01844Y02019
X01737Y01912
X0163Y02019
X0158Y02045
X0158Y01995
X0158Y01845
X0158Y01895
X0158Y01945
X0143Y01995
X0143Y01895
X0143Y02045
X0143Y01945
X0143Y01845
X01309Y01912
X01202Y02019
X012Y02225
X01255Y02275
X01255Y02175
X01309Y02126
X01315Y0217
X0143Y02095
X0143Y02145
X0143Y02245
X0143Y02195
X0158Y02195
X0158Y02145
X0158Y02095
X0158Y02245
X01695Y0218
X01755Y02175
X01755Y02275
X0181Y02225
X0193Y02302
X02085Y02295
X02085Y02245
X02085Y02195
X02085Y02095
X02235Y0219
X02235Y0209
X02235Y0224
X02235Y0229
X02373Y02138
X0242Y02137
X02486Y02233
X0257Y0206
X0267Y0224
X02705Y0211
X0287Y02244
X0294Y0206
X0294Y021
X0298Y0206
X0298Y021
X03046Y0217
X03185Y0217
X0335Y0219
X0336Y02255
X03385Y0217
X03395Y02225
X03449Y02126
X03475Y0221
X04065Y02225
X0412Y02175
X0412Y02275
X04174Y02126
X0418Y0217
X04295Y02145
X04295Y02245
X04295Y02195
X04295Y02095
X04445Y02195
X04445Y02095
X04445Y02245
X04445Y02145
X0456Y0218
X0462Y02175
X0462Y02275
X04675Y02225
X04795Y02302
X0495Y02295
X0495Y02095
X0495Y02195
X0495Y02245
X051Y0229
X051Y0209
X051Y0224
X051Y0219
X05238Y02138
X05285Y02137
X05351Y02233
X05435Y0206
X05535Y0224
X0557Y0211
X05735Y02244
X05805Y0206
X05805Y021
X05845Y021
X05845Y0206
X05911Y0217
X0605Y0217
X06215Y0219
X06225Y02255
X0625Y0217
X0626Y02225
X06314Y02126
X0634Y0221
X06314Y02554
X06205Y0241
X0613Y0245
X0607Y02485
X0603Y02485
X05945Y0235
X05886Y02554
X05845Y0235
X05737Y02514
X05535Y0246
X05351Y02447
X05244Y0234
X051Y0239
X051Y0244
X051Y0234
X05075Y02545
X0495Y02345
X0491Y02375
X0487Y02525
X0486Y02375
X0482Y02525
X0481Y02375
X0477Y02525
X0476Y02375
X0472Y02525
X0471Y02375
X0467Y02525
X0466Y02375
X0462Y02525
X0461Y02375
X0452Y02525
X0451Y02375
X0447Y02525
X0446Y02375
X0442Y02525
X0427Y02425
X0427Y02475
X0427Y02525
X0427Y02375
X04174Y02554
X04174Y0234
X04067Y02447
X03449Y02554
X0334Y0241
X03265Y0245
X03205Y02485
X03165Y02485
X0308Y0235
X03021Y02554
X0298Y0235
X02872Y02514
X0267Y0246
X02486Y02447
X02379Y0234
X02235Y0244
X02235Y0239
X02235Y0234
X0221Y02545
X02085Y02345
X02045Y02375
X02005Y02525
X01995Y02375
X01955Y02525
X01945Y02375
X01905Y02525
X01895Y02375
X01855Y02525
X01845Y02375
X01805Y02525
X01795Y02375
X01755Y02525
X01745Y02375
X01655Y02525
X01645Y02375
X01605Y02525
X01595Y02375
X01555Y02525
X01405Y02375
X01405Y02475
X01405Y02525
X01405Y02425
X01309Y02554
X01309Y0234
X01202Y02447
X01202Y02661
X01309Y02768
X01405Y02625
X01405Y02575
X01405Y02775
X01405Y02725
X01405Y02675
X01555Y0279
X01555Y0274
X01555Y0269
X01555Y0264
X01555Y0259
X0165Y02745
X0165Y0259
X0165Y02665
X0173Y0259
X0173Y02745
X0173Y02665
X0181Y02745
X0189Y02665
X0189Y0259
X01911Y02752
X0197Y0259
X02055Y02625
X02055Y02675
X02055Y02725
X02055Y02775
X0221Y02745
X0221Y02795
X0221Y02695
X0221Y02595
X0221Y02645
X02272Y02661
X02385Y02651
X02385Y0276
X02593Y02768
X027Y02661
X02807Y02768
X03021Y02768
X031Y02565
X03128Y02661
X03449Y02768
X04067Y02661
X04174Y02768
X0427Y02575
X0427Y02775
X0427Y02625
X0427Y02675
X0427Y02725
X0442Y0274
X0442Y0259
X0442Y0269
X0442Y0264
X0442Y0279
X04515Y02745
X04515Y02665
X04515Y0259
X04595Y02745
X04595Y0259
X04595Y02665
X04675Y02745
X04755Y02665
X04755Y0259
X04776Y02752
X04835Y0259
X0492Y02725
X0492Y02675
X0492Y02625
X0492Y02775
X05075Y02795
X05075Y02595
X05075Y02745
X05075Y02695
X05075Y02645
X05137Y02661
X0525Y0276
X0525Y02651
X05458Y02768
X05565Y02661
X05672Y02768
X05886Y02768
X05965Y02565
X05993Y02661
X06314Y02768
X05993Y02875
X05775Y0304
X05672Y02982
X05565Y02875
X05365Y02872
X05325Y02955
X0528Y0291
X05237Y03034
X0513Y02975
X05075Y02845
X05044Y03006
X050422Y030492
X050008Y030492
X050008Y030059
X049575Y030492
X049575Y030059
X0492Y02825
X0492Y02875
X049162Y030492
X049162Y030059
X04825Y03035
X04805Y0288
X04805Y02935
X04805Y0299
X04645Y02845
X0457Y02845
X04495Y0299
X04495Y02935
X0442Y0299
X0442Y0304
X0442Y0284
X0442Y0289
X0442Y0294
X0427Y02875
X0427Y02925
X0427Y02975
X0427Y03025
X0427Y02825
X04174Y02982
X04067Y02875
X03128Y02875
X0291Y0304
X02807Y02982
X027Y02875
X025Y02872
X0246Y02955
X02415Y0291
X02372Y03034
X02265Y02975
X0221Y02845
X02179Y03006
X021772Y030492
X021358Y030492
X021358Y030059
X020925Y030492
X020925Y030059
X02055Y02875
X02055Y02825
X020512Y030492
X020512Y030059
X0196Y03035
X0194Y0299
X0194Y0288
X0194Y02935
X0178Y02845
X01705Y02845
X0163Y02935
X0163Y0299
X01555Y0304
X01555Y0299
X01555Y0294
X01555Y0289
X01555Y0284
X01405Y02925
X01405Y03025
X01405Y02975
X01405Y02875
X01405Y02825
X01309Y02982
X01202Y02875
X01202Y03089
X01202Y03303
X01309Y03196
X01405Y03075
X01405Y03175
X01405Y03125
X01405Y03225
X01405Y03275
X01555Y0314
X01555Y0309
X01555Y0324
X01555Y0319
X01555Y0329
X01625Y0326
X0163Y031
X01705Y0326
X0178Y03105
X0178Y0315
X01785Y0326
X01865Y0326
X01945Y0326
X01965Y03085
X01965Y03125
X01965Y03165
X02005Y03205
X020512Y030925
X020512Y031339
X020925Y030925
X020925Y031339
X021358Y031339
X021358Y030925
X021772Y031339
X021772Y030925
X0221Y0327
X0227Y03076
X0227Y03116
X02272Y03303
X0243Y0328
X02593Y03196
X027Y03089
X027Y03303
X02807Y03196
X0287Y03245
X03342Y03303
X03556Y03303
X04067Y03089
X04067Y03303
X04174Y03196
X0427Y03125
X0427Y03175
X0427Y03275
X0427Y03225
X0427Y03075
X0442Y0309
X0442Y0314
X0442Y0319
X0442Y0329
X0442Y0324
X0449Y0326
X04495Y031
X0457Y0326
X04645Y0315
X04645Y03105
X0465Y0326
X0473Y0326
X0481Y0326
X0483Y03125
X0483Y03165
X0483Y03085
X0487Y03205
X049162Y031339
X049162Y030925
X049575Y031339
X049575Y030925
X050008Y030925
X050008Y031339
X050422Y030925
X050422Y031339
X05075Y0327
X05135Y03116
X05135Y03076
X05137Y03303
X05295Y0328
X05458Y03196
X05565Y03303
X05565Y03089
X05672Y03196
X05735Y03245
X06207Y03303
X06421Y03303
X05886Y0341
X05672Y0341
X05565Y03517
X05458Y0341
X05435Y03345
X0526Y03415
X0511Y03495
X0511Y03545
X05075Y0342
X05075Y0337
X05075Y0332
X05075Y0347
X04925Y0352
X04925Y0347
X04925Y0342
X04925Y0337
X04925Y0332
X0481Y0334
X0481Y0342
X0481Y035
X0473Y0334
X0473Y0342
X0465Y0334
X0457Y0334
X0457Y0342
X0449Y035
X0449Y0342
X0449Y0334
X0442Y0334
X0442Y0339
X0442Y0344
X0442Y0349
X0442Y0354
X0427Y03375
X0427Y03425
X0427Y03475
X0427Y03525
X0427Y03325
X04174Y0341
X04067Y03517
X03021Y0341
X02807Y0341
X027Y03517
X02593Y0341
X0257Y03345
X02395Y03415
X02245Y03545
X02245Y03495
X0221Y0347
X0221Y0332
X0221Y0337
X0221Y0342
X0206Y0347
X0206Y0352
X0206Y0342
X0206Y0337
X0206Y0332
X01945Y0342
X01945Y0334
X01945Y035
X01865Y0342
X01865Y0334
X01785Y0334
X01705Y0334
X01705Y0342
X01625Y035
X01625Y0334
X01625Y0342
X01555Y0349
X01555Y0339
X01555Y0334
X01555Y0344
X01555Y0354
X01405Y03525
X01405Y03475
X01405Y03325
X01405Y03425
X01405Y03375
X01309Y0341
X01202Y03517
X01202Y03731
X01309Y03624
X01405Y03575
X01405Y03625
X0141Y0369
X0142Y0374
X01435Y0379
X01555Y0359
X01555Y03655
X0156Y03705
X01577Y03754
X01605Y03795
X01625Y0358
X01625Y0366
X01705Y0358
X01705Y0374
X01705Y0366
X01785Y0374
X01785Y0366
X01865Y0358
X01865Y0374
X01865Y0366
X01945Y0358
X01945Y0374
X01945Y0366
X0206Y0357
X0206Y0362
X0206Y03735
X0206Y03685
X0206Y03785
X0221Y0357
X0221Y03665
X0221Y03805
X0221Y03755
X0221Y0362
X0221Y0371
X02272Y03731
X0234Y03625
X0234Y0373
X02593Y03624
X027Y03731
X02941Y03565
X04067Y03731
X04174Y03624
X0427Y03575
X0427Y03625
X04275Y0369
X04285Y0374
X043Y0379
X0442Y03655
X0442Y0359
X04425Y03705
X04442Y03754
X0447Y03795
X0449Y0358
X0449Y0366
X0457Y0366
X0457Y0374
X0457Y0358
X0465Y0366
X0465Y0374
X0473Y0358
X0473Y0366
X0473Y0374
X0481Y0366
X0481Y0374
X0481Y0358
X04925Y0357
X04925Y03785
X04925Y03685
X04925Y03735
X04925Y0362
X05075Y03755
X05075Y03805
X05075Y03665
X05075Y0357
X05075Y0371
X05075Y0362
X05137Y03731
X05205Y0373
X05205Y03625
X05458Y03624
X05565Y03731
X05806Y03565
X06314Y03838
X061Y03838
X05886Y03838
X05672Y03838
X05672Y04052
X05565Y03945
X05458Y03838
X05205Y03835
X05205Y0394
X05205Y04045
X05065Y03855
X05045Y03905
X05025Y0395
X04995Y03985
X04955Y04025
X04915Y03835
X0491Y04055
X0489Y0388
X0485Y0392
X0481Y0382
X04805Y03945
X0473Y03945
X0473Y0382
X0468Y0394
X0465Y0382
X0463Y03925
X0458Y03905
X0454Y03875
X04525Y0404
X045Y03835
X0448Y04015
X0444Y03985
X044Y03955
X04388Y04052
X0437Y0392
X04345Y03885
X0432Y03839
X04281Y03945
X04174Y04052
X04174Y03838
X04067Y03945
X03449Y03838
X03235Y03838
X03021Y03838
X02807Y03838
X02807Y04052
X027Y03945
X02593Y03838
X0234Y04045
X0234Y03835
X0234Y0394
X022Y03855
X0218Y03905
X0216Y0395
X0213Y03985
X0209Y04025
X0205Y03835
X02045Y04055
X02025Y0388
X01985Y0392
X01945Y0382
X0194Y03945
X01865Y0382
X01865Y03945
X01815Y0394
X01785Y0382
X01765Y03925
X01715Y03905
X01675Y03875
X0166Y0404
X01635Y03835
X01615Y04015
X01575Y03985
X01535Y03955
X01523Y04052
X01505Y0392
X0148Y03885
X01455Y03839
X01416Y03945
X01309Y04052
X01309Y03838
X01202Y03945
X01202Y04159
X01309Y04266
X01416Y04159
X0157Y04285
X01625Y04235
X0163Y04159
X01705Y04065
X01755Y0408
X0181Y0409
X01835Y0426
X01835Y0421
X01985Y0421
X01985Y0426
X01995Y0408
X021Y0414
X02195Y04235
X0225Y04285
X02379Y04266
X02486Y04159
X0267Y0422
X0291Y0408
X04067Y04159
X04174Y04266
X04281Y04159
X04435Y04285
X0449Y04235
X04495Y04159
X0457Y04065
X0462Y0408
X04675Y0409
X047Y0426
X047Y0421
X0485Y0426
X0485Y0421
X0486Y0408
X04965Y0414
X0506Y04235
X05115Y04285
X05244Y04266
X05351Y04159
X05535Y0422
X05775Y0408
X06528Y0448
X06314Y0448
X061Y0448
X05865Y0433
X05865Y0455
X05672Y0448
X05458Y0448
X05244Y0448
X0506Y04335
X0503Y0448
X04999Y04327
X0485Y0436
X0485Y0441
X0485Y0446
X0485Y0451
X0485Y0431
X047Y0431
X047Y0446
X047Y0451
X047Y0441
X047Y0436
X04602Y0448
X04551Y04327
X0449Y04335
X04388Y0448
X04174Y0448
X0396Y0448
X03663Y0448
X03449Y0448
X03235Y0448
X03Y0455
X03Y0433
X02807Y0448
X02593Y0448
X02379Y0448
X02195Y04335
X02165Y0448
X02134Y04327
X01985Y0451
X01985Y0441
X01985Y0436
X01985Y0431
X01985Y0446
X01835Y0431
X01835Y0436
X01835Y0441
X01835Y0451
X01835Y0446
X01737Y0448
X01686Y04327
X01625Y04335
X01523Y0448
X01309Y0448
X01095Y0448
X01095Y04694
X01202Y04801
X01202Y04587
X01309Y04694
X01416Y04801
X01416Y04587
X0163Y04587
X01835Y0461
X01835Y0456
X01985Y0456
X01985Y0461
X02058Y04801
X02058Y04587
X02165Y04694
X02272Y04801
X02272Y04587
X02379Y04694
X02486Y04587
X0256Y0477
X027Y04587
X0278Y0477
X0289Y0466
X03Y0477
X03342Y04801
X03342Y04587
X03449Y04694
X03556Y04801
X03556Y04587
X03663Y04694
X0396Y04694
X04067Y04587
X04067Y04801
X04174Y04694
X04281Y04587
X04281Y04801
X04495Y04587
X047Y0456
X047Y0461
X0485Y0456
X0485Y0461
X04923Y04587
X04923Y04801
X0503Y04694
X05137Y04587
X05137Y04801
X05244Y04694
X05351Y04587
X05425Y0477
X05565Y04587
X05645Y0477
X05755Y0466
X05865Y0477
X06207Y04801
X06207Y04587
X06314Y04694
X06421Y04801
X06421Y04587
X06528Y04694
X06314Y04908
X06085Y0499
X05865Y0499
X05755Y0488
X05645Y0499
X05535Y0488
X05425Y0499
X05244Y04908
X0503Y04908
X04765Y0499
X04602Y04908
X04435Y0488
X04325Y0499
X04174Y04908
X03449Y04908
X0322Y0499
X03Y0499
X0289Y0488
X0278Y0499
X0267Y0488
X0256Y0499
X02379Y04908
X02165Y04908
X019Y0499
X01737Y04908
X0157Y0488
X0146Y0499
X01309Y04908
T2C.018F095S3
X02385Y02815
X0316Y0293
X0525Y02815
X06025Y0293
X06025Y03455
X0572Y03065
X05679Y03726
X05328Y03127
X05225Y0308
X04855Y03245
X0316Y03455
X02855Y03065
X02814Y03726
X02463Y03127
X0236Y0308
X0199Y03245
X02812Y0424
X0316Y0397
X05677Y0424
X06025Y0397
T3C.0315F197S55
X02545Y0117
X026237Y0117
X027025Y0117
X027812Y0117
X0305Y0117
X031287Y0117
X0541Y0117
X054887Y0117
X055675Y0117
X056462Y0117
X05915Y0117
X059937Y0117
T4C.037F197S55
X02495Y02335
X03035Y0185
X035Y02445
X0536Y02335
X059Y0185
X06365Y02445
X06395Y0276
X06125Y0276
X0577Y0276
X05515Y0276
X0353Y0276
X0326Y0276
X02905Y0276
X0265Y0276
T5C.04331F139S55
X02635Y032967
X055Y032967
X055Y04281
X02635Y04281
T6C.065F089S55
X01505Y0127
X0216Y0127
X0437Y0127
X05025Y0127
X04775Y0478
X0191Y0478
T7C.07F081S55
X01405Y0117
X01405Y0137
X01605Y0117
X01605Y0137
X0206Y0137
X0206Y0117
X0226Y0137
X0226Y0117
X0427Y0117
X0427Y0137
X0447Y0117
X0447Y0137
X04925Y0117
X04925Y0137
X05125Y0117
X05125Y0137
X04875Y0468
X04675Y0468
X0201Y0468
X0181Y0468
X0181Y0488
X0201Y0488
X04675Y0488
X04875Y0488
T8C.071F081S55
X03165Y046735
X0603Y046735
X0603Y0489
X03165Y0489
T9C.116F069S658
X0115Y0115
X0362Y0115
X04015Y0115
X06485Y0115
X06485Y049
X0465Y035
X04015Y049
X0362Y049
X01785Y035
X0115Y049
M30
