*
*
G04 PADS 9.2 Build Number: 406656 generated Gerber (RS-274-X) file*
G04 PC Version=2.1*
*
%IN "2.4GHzAmp(PNL).pcb"*%
*
%MOIN*%
*
%FSLAX35Y35*%
*
*
*
*
G04 PC Standard Apertures*
*
*
G04 Thermal Relief Aperture macro.*
%AMTER*
1,1,$1,0,0*
1,0,$1-$2,0,0*
21,0,$3,$4,0,0,45*
21,0,$3,$4,0,0,135*
%
*
*
G04 Annular Aperture macro.*
%AMANN*
1,1,$1,0,0*
1,0,$2,0,0*
%
*
*
G04 Odd Aperture macro.*
%AMODD*
1,1,$1,0,0*
1,0,$1-0.005,0,0*
%
*
*
G04 PC Custom Aperture Macros*
*
*
*
*
*
*
G04 PC Aperture Table*
*
%ADD010C,0.001*%
%ADD014C,0.06*%
%ADD015C,0.01*%
%ADD018C,0.095*%
%ADD019C,0.1*%
%ADD024C,0.05906*%
%ADD027C,0.15*%
%ADD032C,0.03*%
%ADD033C,0.02*%
%ADD043C,0.07087*%
%ADD047R,0.02165X0.02165*%
*
*
*
*
G04 PC Circuitry*
G04 Layer Name 2.4GHzAmp(PNL).pcb - circuitry*
%LPD*%
*
*
G04 PC Custom Flashes*
G04 Layer Name 2.4GHzAmp(PNL).pcb - flashes*
%LPD*%
*
*
G04 PC Circuitry*
G04 Layer Name 2.4GHzAmp(PNL).pcb - circuitry*
%LPD*%
*
G54D10*
G54D14*
G01X249500Y233500D03*
X536000D03*
G54D15*
X310500Y153000D02*
Y184000D01*
X319500Y193000*
X597000Y153000D02*
Y184000D01*
X606000Y193000*
X255500Y201500D02*
X261000D01*
X270500Y211000*
X319500Y183000D02*
X327000Y190500D01*
Y216500*
X336000Y225500*
X297600Y189000D02*
Y124400D01*
X305000Y117000*
X542000Y201500D02*
X547500D01*
X557000Y211000*
X606000Y183000D02*
X613500Y190500D01*
Y216500*
X622500Y225500*
X584100Y189000D02*
Y124400D01*
X591500Y117000*
X169500Y218000D02*
Y251218D01*
X190882Y272600*
X191100*
Y275200*
X193000Y230200D02*
X206900Y216300D01*
X230300*
X230500Y216500*
X239200*
X242000Y213700*
X237300Y213800D02*
X244400Y206700D01*
Y153400*
X242000Y213700D02*
X249500Y206200D01*
Y201000*
X277500Y173000*
Y153400*
X298000Y235000D02*
Y241000D01*
X310000Y253000*
Y256500*
X479500Y230200D02*
X493400Y216300D01*
X516800*
X517000Y216500*
X525700*
X528500Y213700*
X456000Y218000D02*
Y251218D01*
X477382Y272600*
X477600*
Y275200*
X523800Y213800D02*
X530900Y206700D01*
Y153400*
X528500Y213700D02*
X536000Y206200D01*
Y201000*
X564000Y173000*
Y153400*
X584500Y235000D02*
Y241000D01*
X596500Y253000*
Y256500*
X238500Y281500D02*
X270500Y249500D01*
Y211000*
X525000Y281500D02*
X557000Y249500D01*
Y211000*
X163000Y310000D02*
X166500D01*
X186500Y330000*
X203391*
X209091Y324300*
X287000*
Y324500*
X227000Y307600D02*
X239731Y294869D01*
X242331*
X250000Y287200*
X226500Y297500D02*
Y288000D01*
X238500Y276000*
X227000Y311600D02*
X233400Y305200D01*
X233438Y305238*
X235362*
X237200Y303400*
X449500Y310000D02*
X453000D01*
X473000Y330000*
X489891*
X495591Y324300*
X573500*
Y324500*
X513000Y297500D02*
Y288000D01*
X525000Y276000*
X513500Y307600D02*
X526231Y294869D01*
X528831*
X536500Y287200*
X513500Y311600D02*
X519900Y305200D01*
X519938Y305238*
X521862*
X523700Y303400*
X239500Y341500D02*
X254500Y356500D01*
X294100*
X526000Y341500D02*
X541000Y356500D01*
X580600*
X632600Y153000D02*
G75*
G03X632600I-2600J0D01*
G01X636600Y221000D02*
G03X636600I-2600J0D01*
G01X640200Y244500D02*
G03X640200I-3700J0D01*
G01X643200Y276000D02*
G03X643200I-3700J0D01*
G01X623100Y241000D02*
G03X623100I-2600J0D01*
G01X615600Y245000D02*
G03X615600I-2600J0D01*
G01X616200Y276000D02*
G03X616200I-3700J0D01*
G01X607600Y217000D02*
G03X607600I-2600J0D01*
G01X605250Y293000D02*
G03X605250I-2750J0D01*
G01Y345500D02*
G03X605250I-2750J0D01*
G01Y397000D02*
G03X605250I-2750J0D01*
G01X593700Y185000D02*
G03X593700I-3700J0D01*
G01Y217000D02*
G03X593700I-2600J0D01*
G01X597100Y235000D02*
G03X597100I-2600J0D01*
G01X609450Y467346D02*
G03X609450I-6450J0D01*
G01X608400Y489000D02*
G03X608400I-5400J0D01*
G01X576100Y224400D02*
G03X576100I-2600J0D01*
G01X576300Y251400D02*
G03X576300I-2600J0D01*
G01X580700Y276000D02*
G03X580700I-3700J0D01*
G01X580100Y304000D02*
G03X580100I-2600J0D01*
G01X555200Y276000D02*
G03X555200I-3700J0D01*
G01X453700Y117000D02*
G03X453700I-6700J0D01*
G01X433700D02*
G03X433700I-6700J0D01*
G01X442100Y127000D02*
G03X442100I-5100J0D01*
G01X453700Y137000D02*
G03X453700I-6700J0D01*
G01X483100Y288000D02*
G03X483100I-2600J0D01*
G01Y293500D02*
G03X483100I-2600J0D01*
G01X580100Y408000D02*
G03X580100I-2600J0D01*
G01X570650Y372600D02*
G03X570650I-2750J0D01*
G01X570450Y424000D02*
G03X570450I-2750J0D01*
G01X554015Y428100D02*
G03X554015I-4015J0D01*
G01X499100Y414000D02*
G03X499100I-2600J0D01*
G01X502500Y432700D02*
G03X502500I-2600J0D01*
G01X494200Y468000D02*
G03X494200I-6700J0D01*
G01X474200D02*
G03X474200I-6700J0D01*
G01X482600Y478000D02*
G03X482600I-5100J0D01*
G01X494200Y488000D02*
G03X494200I-6700J0D01*
G01X474200D02*
G03X474200I-6700J0D01*
G01X457700Y432700D02*
G03X457700I-2600J0D01*
G01X433700Y137000D02*
G03X433700I-6700J0D01*
G01X420600Y217000D02*
G03X420600I-2600J0D01*
G01X519200Y117000D02*
G03X519200I-6700J0D01*
G01X499200D02*
G03X499200I-6700J0D01*
G01X507600Y127000D02*
G03X507600I-5100J0D01*
G01X519200Y137000D02*
G03X519200I-6700J0D01*
G01X499200D02*
G03X499200I-6700J0D01*
G01X540700Y233500D02*
G03X540700I-4700J0D01*
G01X527600Y265100D02*
G03X527600I-2600J0D01*
G01X346100Y153000D02*
G03X346100I-2600J0D01*
G01X350100Y221000D02*
G03X350100I-2600J0D01*
G01X353700Y244500D02*
G03X353700I-3700J0D01*
G01X356700Y276000D02*
G03X356700I-3700J0D01*
G01X336600Y241000D02*
G03X336600I-2600J0D01*
G01X329100Y245000D02*
G03X329100I-2600J0D01*
G01X329700Y276000D02*
G03X329700I-3700J0D01*
G01X321100Y217000D02*
G03X321100I-2600J0D01*
G01X318750Y293000D02*
G03X318750I-2750J0D01*
G01Y345500D02*
G03X318750I-2750J0D01*
G01Y397000D02*
G03X318750I-2750J0D01*
G01X307200Y185000D02*
G03X307200I-3700J0D01*
G01Y217000D02*
G03X307200I-2600J0D01*
G01X310600Y235000D02*
G03X310600I-2600J0D01*
G01X322950Y467346D02*
G03X322950I-6450J0D01*
G01X321900Y489000D02*
G03X321900I-5400J0D01*
G01X289600Y224400D02*
G03X289600I-2600J0D01*
G01X289800Y251400D02*
G03X289800I-2600J0D01*
G01X294200Y276000D02*
G03X294200I-3700J0D01*
G01X293600Y304000D02*
G03X293600I-2600J0D01*
G01X268700Y276000D02*
G03X268700I-3700J0D01*
G01X167200Y117000D02*
G03X167200I-6700J0D01*
G01X147200D02*
G03X147200I-6700J0D01*
G01X155600Y127000D02*
G03X155600I-5100J0D01*
G01X167200Y137000D02*
G03X167200I-6700J0D01*
G01X196600Y288000D02*
G03X196600I-2600J0D01*
G01Y293500D02*
G03X196600I-2600J0D01*
G01X293600Y408000D02*
G03X293600I-2600J0D01*
G01X284150Y372600D02*
G03X284150I-2750J0D01*
G01X283950Y424000D02*
G03X283950I-2750J0D01*
G01X267515Y428100D02*
G03X267515I-4015J0D01*
G01X212600Y414000D02*
G03X212600I-2600J0D01*
G01X216000Y432700D02*
G03X216000I-2600J0D01*
G01X207700Y468000D02*
G03X207700I-6700J0D01*
G01X187700D02*
G03X187700I-6700J0D01*
G01X196100Y478000D02*
G03X196100I-5100J0D01*
G01X207700Y488000D02*
G03X207700I-6700J0D01*
G01X187700D02*
G03X187700I-6700J0D01*
G01X171200Y432700D02*
G03X171200I-2600J0D01*
G01X147200Y137000D02*
G03X147200I-6700J0D01*
G01X134100Y217000D02*
G03X134100I-2600J0D01*
G01X232700Y117000D02*
G03X232700I-6700J0D01*
G01X212700D02*
G03X212700I-6700J0D01*
G01X221100Y127000D02*
G03X221100I-5100J0D01*
G01X232700Y137000D02*
G03X232700I-6700J0D01*
G01X212700D02*
G03X212700I-6700J0D01*
G01X254200Y233500D02*
G03X254200I-4700J0D01*
G01X241100Y265100D02*
G03X241100I-2600J0D01*
G01X659500Y104000D02*
Y501000D01*
X390500*
Y104000*
X659500*
X373000D02*
Y501000D01*
X104000*
Y104000*
X373000*
X632600Y153000D02*
G03X632600I-2600J0D01*
G01X636600Y221000D02*
G03X636600I-2600J0D01*
G01X640200Y244500D02*
G03X640200I-3700J0D01*
G01X643200Y276000D02*
G03X643200I-3700J0D01*
G01X622435Y216574D02*
G03X624065Y219426I2565J426D01*
G01X618960Y219556D02*
G03X622435Y216574I2540J-556D01*
G01X618960Y219556D02*
X615200Y215796D01*
Y190500*
X614702Y189298D02*
G03X615200Y190500I-1202J1202D01*
G01X614702Y189298D02*
X609119Y183715D01*
X604541Y185848D02*
G03X609119Y183715I1459J-2848D01*
G01X603400Y187996D02*
G03X604541Y185848I2600J4D01*
G01X603400Y187996D02*
X598700Y183296D01*
Y155711*
X595300D02*
G03X598700I1700J-2711D01*
G01X595300D02*
Y184000D01*
X595798Y185202D02*
G03X595300Y184000I1202J-1202D01*
G01X595798Y185202D02*
X602881Y192285D01*
X607459Y190152D02*
G03X602881Y192285I-1459J2848D01*
G01X608600Y188004D02*
G03X607459Y190152I-2600J-4D01*
G01X608600Y188004D02*
X611800Y191204D01*
Y216500*
X612298Y217702D02*
G03X611800Y216500I1202J-1202D01*
G01X612298Y217702D02*
X619381Y224785D01*
X621785Y222381D02*
G03X619381Y224785I715J3119D01*
G01X621785Y222381D02*
X620944Y221540D01*
X624065Y219426D02*
G03X620944Y221540I-2565J-426D01*
G01X623100Y241000D02*
G03X623100I-2600J0D01*
G01X615600Y245000D02*
G03X615600I-2600J0D01*
G01X616200Y276000D02*
G03X616200I-3700J0D01*
G01X607600Y217000D02*
G03X607600I-2600J0D01*
G01X605250Y293000D02*
G03X605250I-2750J0D01*
G01Y345500D02*
G03X605250I-2750J0D01*
G01Y397000D02*
G03X605250I-2750J0D01*
G01X593700Y185000D02*
G03X593700I-3700J0D01*
G01Y217000D02*
G03X593700I-2600J0D01*
G01X597100Y235000D02*
G03X597100I-2600J0D01*
G01X598200Y253789D02*
G03X594800I-1700J2711D01*
G01X598200D02*
Y253000D01*
X597702Y251798D02*
G03X598200Y253000I-1202J1202D01*
G01X597702Y251798D02*
X586200Y240296D01*
Y237711*
X582800D02*
G03X586200I1700J-2711D01*
G01X582800D02*
Y241000D01*
X583298Y242202D02*
G03X582800Y241000I1202J-1202D01*
G01X583298Y242202D02*
X594800Y253704D01*
Y253789*
X609450Y467346D02*
G03X609450I-6450J0D01*
G01X608400Y489000D02*
G03X608400I-5400J0D01*
G01X576100Y224400D02*
G03X576100I-2600J0D01*
G01X576300Y251400D02*
G03X576300I-2600J0D01*
G01X580700Y276000D02*
G03X580700I-3700J0D01*
G01X580100Y304000D02*
G03X580100I-2600J0D01*
G01X560055Y116110D02*
G03Y117890I4567J890D01*
G01X553441Y116110D02*
G03X560055I3307J890D01*
G01X544307D02*
G03X553441I4567J890D01*
G01X544307Y117890D02*
G03Y116110I-3307J-890D01*
G01X553441Y117890D02*
G03X544307I-4567J-890D01*
G01X560055D02*
G03X553441I-3307J-890D01*
G01X562300Y156111D02*
G03X565700I1700J-2711D01*
G01X562300D02*
Y172296D01*
X534798Y199798*
X534300Y201000D02*
G03X534798Y199798I1700J0D01*
G01X534300Y201000D02*
Y205496D01*
X532487Y207308*
X532600Y206700D02*
G03X532487Y207308I-1700J0D01*
G01X532600Y206700D02*
Y156111D01*
X529200D02*
G03X532600I1700J-2711D01*
G01X529200D02*
Y205996D01*
X524515Y210681*
X520760Y214800D02*
G03X524515Y210681I3040J-1000D01*
G01X520760Y214800D02*
X517600D01*
X516800Y214600D02*
G03X517600Y214800I0J1700D01*
G01X516800Y214600D02*
X493400D01*
X492198Y215098D02*
G03X493400Y214600I1202J1202D01*
G01X492198Y215098D02*
X480215Y227081D01*
X482619Y229485D02*
G03X480215Y227081I-3119J715D01*
G01X482619Y229485D02*
X494104Y218000D01*
X516200*
X517000Y218200D02*
G03X516200Y218000I0J-1700D01*
G01X517000Y218200D02*
X525700D01*
X526902Y217702D02*
G03X525700Y218200I-1202J-1202D01*
G01X526902Y217702D02*
X527785Y216819D01*
X531619Y212985D02*
G03X527785Y216819I-3119J715D01*
G01X531619Y212985D02*
X537202Y207402D01*
X537700Y206200D02*
G03X537202Y207402I-1700J0D01*
G01X537700Y206200D02*
Y201704D01*
X538990Y200414*
X541295Y204622D02*
G03X538990Y200414I705J-3122D01*
G01X544437Y203575D02*
G03X541295Y204622I-937J2425D01*
G01X544711Y203200D02*
G03X544437Y203574I-2711J-1700D01*
G01X544711Y203200D02*
X546796D01*
X553881Y210285*
X555300Y213711D02*
G03X553881Y210285I1700J-2711D01*
G01X555300Y213711D02*
Y248796D01*
X528198Y275897*
X521881Y276715D02*
G03X528198Y275897I3119J-715D01*
G01X521881Y276715D02*
X511798Y286798D01*
X511300Y288000D02*
G03X511798Y286798I1700J0D01*
G01X511300Y288000D02*
Y294789D01*
X514700D02*
G03X511300I-1700J2711D01*
G01X514700D02*
Y288704D01*
X521802Y281603*
X528119Y280785D02*
G03X521802Y281603I-3119J715D01*
G01X528119Y280785D02*
X558202Y250702D01*
X558700Y249500D02*
G03X558202Y250702I-1700J0D01*
G01X558700Y249500D02*
Y213711D01*
X556285Y207881D02*
G03X558700Y213711I715J3119D01*
G01X556285Y207881D02*
X548702Y200298D01*
X547500Y199800D02*
G03X548702Y200298I0J1700D01*
G01X547500Y199800D02*
X544711D01*
X540914Y198490D02*
G03X544711Y199800I1086J3010D01*
G01X540914Y198490D02*
X565202Y174202D01*
X565700Y173000D02*
G03X565202Y174202I-1700J0D01*
G01X565700Y173000D02*
Y156111D01*
X555200Y276000D02*
G03X555200I-3700J0D01*
G01X533381Y287915D02*
G03X535785Y290319I3119J-715D01*
G01X533381Y287915D02*
X528127Y293169D01*
X526231*
X525029Y293667D02*
G03X526231Y293169I1202J1202D01*
G01X525029Y293667D02*
X514215Y304481D01*
X511002Y309600D02*
G03X514215Y304481I2498J-2000D01*
G01X516619Y310885D02*
G03X511002Y309600I-3119J715D01*
G01X516619Y310885D02*
X519762Y307742D01*
X524752Y306422D02*
G03X519762Y307742I-2252J1578D01*
G01X523276Y300228D02*
G03X524752Y306422I424J3172D01*
G01X523276Y300228D02*
X526935Y296569D01*
X528831*
X530033Y296071D02*
G03X528831Y296569I-1202J-1202D01*
G01X530033Y296071D02*
X535785Y290319D01*
X453700Y117000D02*
G03X453700I-6700J0D01*
G01X433700D02*
G03X433700I-6700J0D01*
G01X442100Y127000D02*
G03X442100I-5100J0D01*
G01X453700Y137000D02*
G03X453700I-6700J0D01*
G01X479296Y272487D02*
G03X475326Y272949I-1696J2713D01*
G01X478192Y271007D02*
G03X479296Y272487I-592J1593D01*
G01X478192Y271007D02*
X457700Y250514D01*
Y220711*
X454300D02*
G03X457700I1700J-2711D01*
G01X454300D02*
Y251218D01*
X454798Y252420D02*
G03X454300Y251218I1202J-1202D01*
G01X454798Y252420D02*
X475326Y272949D01*
X483100Y288000D02*
G03X483100I-2600J0D01*
G01Y293500D02*
G03X483100I-2600J0D01*
G01X482263Y300911D02*
G03X480737Y301589I237J2589D01*
X482263Y300911I-237J-2589*
G01X531046Y310023D02*
G03X532097Y315822I1754J2677D01*
G01X529491Y310791D02*
G03X531046Y310023I1909J1909D01*
G01X529491Y310791D02*
X523482Y316800D01*
X494000*
X492091Y317591D02*
G03X494000Y316800I1909J1909D01*
G01X492091Y317591D02*
X487882Y321800D01*
X487218*
Y327200D02*
G03Y321800I-1718J-2700D01*
G01Y327200D02*
X489000D01*
X490909Y326409D02*
G03X489000Y327200I-1909J-1909D01*
G01X490909Y326409D02*
X495118Y322200D01*
X524600*
X526509Y321409D02*
G03X524600Y322200I-1909J-1909D01*
G01X526509Y321409D02*
X532097Y315822D01*
X570925Y322600D02*
G03X570673Y326000I2575J1900D01*
G01X570925Y322600D02*
X495591D01*
X494389Y323098D02*
G03X495591Y322600I1202J1202D01*
G01X494389Y323098D02*
X489187Y328300D01*
X473704*
X454202Y308798*
X453000Y308300D02*
G03X454202Y308798I0J1700D01*
G01X453000Y308300D02*
X452211D01*
Y311700D02*
G03Y308300I-2711J-1700D01*
G01Y311700D02*
X452296D01*
X471798Y331202*
X473000Y331700D02*
G03X471798Y331202I0J-1700D01*
G01X473000Y331700D02*
X489891D01*
X491093Y331202D02*
G03X489891Y331700I-1202J-1202D01*
G01X491093Y331202D02*
X496295Y326000D01*
X546260*
X553740D02*
G03X546260I-3740J3675D01*
G01X553740D02*
X570673D01*
X577889Y354800D02*
G03Y358200I2711J1700D01*
G01Y354800D02*
X541704D01*
X529119Y342215*
X526715Y344619D02*
G03X529119Y342215I-715J-3119D01*
G01X526715Y344619D02*
X539798Y357702D01*
X541000Y358200D02*
G03X539798Y357702I0J-1700D01*
G01X541000Y358200D02*
X577889D01*
X580100Y408000D02*
G03X580100I-2600J0D01*
G01X570650Y372600D02*
G03X570650I-2750J0D01*
G01X570450Y424000D02*
G03X570450I-2750J0D01*
G01X554015Y428100D02*
G03X554015I-4015J0D01*
G01X499100Y414000D02*
G03X499100I-2600J0D01*
G01X502500Y432700D02*
G03X502500I-2600J0D01*
G01X494200Y468000D02*
G03X494200I-6700J0D01*
G01X474200D02*
G03X474200I-6700J0D01*
G01X482600Y478000D02*
G03X482600I-5100J0D01*
G01X494200Y488000D02*
G03X494200I-6700J0D01*
G01X474200D02*
G03X474200I-6700J0D01*
G01X457700Y432700D02*
G03X457700I-2600J0D01*
G01X433700Y137000D02*
G03X433700I-6700J0D01*
G01X420600Y217000D02*
G03X420600I-2600J0D01*
G01X519200Y117000D02*
G03X519200I-6700J0D01*
G01X499200D02*
G03X499200I-6700J0D01*
G01X507600Y127000D02*
G03X507600I-5100J0D01*
G01X519200Y137000D02*
G03X519200I-6700J0D01*
G01X499200D02*
G03X499200I-6700J0D01*
G01X540700Y233500D02*
G03X540700I-4700J0D01*
G01X527600Y265100D02*
G03X527600I-2600J0D01*
G01X595437Y114520D02*
G03Y119480I3937J2480D01*
G01X587235Y118860D02*
G03X595437Y114520I4265J-1860D01*
G01X587235Y118860D02*
X582898Y123198D01*
X582400Y124400D02*
G03X582898Y123198I1700J0D01*
G01X582400Y124400D02*
Y186289D01*
X585800D02*
G03X582400I-1700J2711D01*
G01X585800D02*
Y125104D01*
X589640Y121265*
X595437Y119480D02*
G03X589640Y121265I-3937J-2480D01*
G01X346100Y153000D02*
G03X346100I-2600J0D01*
G01X350100Y221000D02*
G03X350100I-2600J0D01*
G01X353700Y244500D02*
G03X353700I-3700J0D01*
G01X356700Y276000D02*
G03X356700I-3700J0D01*
G01X335935Y216574D02*
G03X337565Y219426I2565J426D01*
G01X332460Y219556D02*
G03X335935Y216574I2540J-556D01*
G01X332460Y219556D02*
X328700Y215796D01*
Y190500*
X328202Y189298D02*
G03X328700Y190500I-1202J1202D01*
G01X328202Y189298D02*
X322619Y183715D01*
X318041Y185848D02*
G03X322619Y183715I1459J-2848D01*
G01X316900Y187996D02*
G03X318041Y185848I2600J4D01*
G01X316900Y187996D02*
X312200Y183296D01*
Y155711*
X308800D02*
G03X312200I1700J-2711D01*
G01X308800D02*
Y184000D01*
X309298Y185202D02*
G03X308800Y184000I1202J-1202D01*
G01X309298Y185202D02*
X316381Y192285D01*
X320959Y190152D02*
G03X316381Y192285I-1459J2848D01*
G01X322100Y188004D02*
G03X320959Y190152I-2600J-4D01*
G01X322100Y188004D02*
X325300Y191204D01*
Y216500*
X325798Y217702D02*
G03X325300Y216500I1202J-1202D01*
G01X325798Y217702D02*
X332881Y224785D01*
X335285Y222381D02*
G03X332881Y224785I715J3119D01*
G01X335285Y222381D02*
X334444Y221540D01*
X337565Y219426D02*
G03X334444Y221540I-2565J-426D01*
G01X336600Y241000D02*
G03X336600I-2600J0D01*
G01X329100Y245000D02*
G03X329100I-2600J0D01*
G01X329700Y276000D02*
G03X329700I-3700J0D01*
G01X321100Y217000D02*
G03X321100I-2600J0D01*
G01X318750Y293000D02*
G03X318750I-2750J0D01*
G01Y345500D02*
G03X318750I-2750J0D01*
G01Y397000D02*
G03X318750I-2750J0D01*
G01X307200Y185000D02*
G03X307200I-3700J0D01*
G01Y217000D02*
G03X307200I-2600J0D01*
G01X310600Y235000D02*
G03X310600I-2600J0D01*
G01X311700Y253789D02*
G03X308300I-1700J2711D01*
G01X311700D02*
Y253000D01*
X311202Y251798D02*
G03X311700Y253000I-1202J1202D01*
G01X311202Y251798D02*
X299700Y240296D01*
Y237711*
X296300D02*
G03X299700I1700J-2711D01*
G01X296300D02*
Y241000D01*
X296798Y242202D02*
G03X296300Y241000I1202J-1202D01*
G01X296798Y242202D02*
X308300Y253704D01*
Y253789*
X322950Y467346D02*
G03X322950I-6450J0D01*
G01X321900Y489000D02*
G03X321900I-5400J0D01*
G01X289600Y224400D02*
G03X289600I-2600J0D01*
G01X289800Y251400D02*
G03X289800I-2600J0D01*
G01X294200Y276000D02*
G03X294200I-3700J0D01*
G01X293600Y304000D02*
G03X293600I-2600J0D01*
G01X273555Y116110D02*
G03Y117890I4567J890D01*
G01X266941Y116110D02*
G03X273555I3307J890D01*
G01X257807D02*
G03X266941I4567J890D01*
G01X257807Y117890D02*
G03Y116110I-3307J-890D01*
G01X266941Y117890D02*
G03X257807I-4567J-890D01*
G01X273555D02*
G03X266941I-3307J-890D01*
G01X275800Y156111D02*
G03X279200I1700J-2711D01*
G01X275800D02*
Y172296D01*
X248298Y199798*
X247800Y201000D02*
G03X248298Y199798I1700J0D01*
G01X247800Y201000D02*
Y205496D01*
X245987Y207308*
X246100Y206700D02*
G03X245987Y207308I-1700J0D01*
G01X246100Y206700D02*
Y156111D01*
X242700D02*
G03X246100I1700J-2711D01*
G01X242700D02*
Y205996D01*
X238015Y210681*
X234260Y214800D02*
G03X238015Y210681I3040J-1000D01*
G01X234260Y214800D02*
X231100D01*
X230300Y214600D02*
G03X231100Y214800I0J1700D01*
G01X230300Y214600D02*
X206900D01*
X205698Y215098D02*
G03X206900Y214600I1202J1202D01*
G01X205698Y215098D02*
X193715Y227081D01*
X196119Y229485D02*
G03X193715Y227081I-3119J715D01*
G01X196119Y229485D02*
X207604Y218000D01*
X229700*
X230500Y218200D02*
G03X229700Y218000I0J-1700D01*
G01X230500Y218200D02*
X239200D01*
X240402Y217702D02*
G03X239200Y218200I-1202J-1202D01*
G01X240402Y217702D02*
X241285Y216819D01*
X245119Y212985D02*
G03X241285Y216819I-3119J715D01*
G01X245119Y212985D02*
X250702Y207402D01*
X251200Y206200D02*
G03X250702Y207402I-1700J0D01*
G01X251200Y206200D02*
Y201704D01*
X252490Y200414*
X254795Y204622D02*
G03X252490Y200414I705J-3122D01*
G01X257937Y203575D02*
G03X254795Y204622I-937J2425D01*
G01X258211Y203200D02*
G03X257937Y203574I-2711J-1700D01*
G01X258211Y203200D02*
X260296D01*
X267381Y210285*
X268800Y213711D02*
G03X267381Y210285I1700J-2711D01*
G01X268800Y213711D02*
Y248796D01*
X241698Y275897*
X235381Y276715D02*
G03X241698Y275897I3119J-715D01*
G01X235381Y276715D02*
X225298Y286798D01*
X224800Y288000D02*
G03X225298Y286798I1700J0D01*
G01X224800Y288000D02*
Y294789D01*
X228200D02*
G03X224800I-1700J2711D01*
G01X228200D02*
Y288704D01*
X235302Y281603*
X241619Y280785D02*
G03X235302Y281603I-3119J715D01*
G01X241619Y280785D02*
X271702Y250702D01*
X272200Y249500D02*
G03X271702Y250702I-1700J0D01*
G01X272200Y249500D02*
Y213711D01*
X269785Y207881D02*
G03X272200Y213711I715J3119D01*
G01X269785Y207881D02*
X262202Y200298D01*
X261000Y199800D02*
G03X262202Y200298I0J1700D01*
G01X261000Y199800D02*
X258211D01*
X254414Y198490D02*
G03X258211Y199800I1086J3010D01*
G01X254414Y198490D02*
X278702Y174202D01*
X279200Y173000D02*
G03X278702Y174202I-1700J0D01*
G01X279200Y173000D02*
Y156111D01*
X268700Y276000D02*
G03X268700I-3700J0D01*
G01X246881Y287915D02*
G03X249285Y290319I3119J-715D01*
G01X246881Y287915D02*
X241627Y293169D01*
X239731*
X238529Y293667D02*
G03X239731Y293169I1202J1202D01*
G01X238529Y293667D02*
X227715Y304481D01*
X224502Y309600D02*
G03X227715Y304481I2498J-2000D01*
G01X230119Y310885D02*
G03X224502Y309600I-3119J715D01*
G01X230119Y310885D02*
X233262Y307742D01*
X238252Y306422D02*
G03X233262Y307742I-2252J1578D01*
G01X236776Y300228D02*
G03X238252Y306422I424J3172D01*
G01X236776Y300228D02*
X240435Y296569D01*
X242331*
X243533Y296071D02*
G03X242331Y296569I-1202J-1202D01*
G01X243533Y296071D02*
X249285Y290319D01*
X167200Y117000D02*
G03X167200I-6700J0D01*
G01X147200D02*
G03X147200I-6700J0D01*
G01X155600Y127000D02*
G03X155600I-5100J0D01*
G01X167200Y137000D02*
G03X167200I-6700J0D01*
G01X192796Y272487D02*
G03X188826Y272949I-1696J2713D01*
G01X191692Y271007D02*
G03X192796Y272487I-592J1593D01*
G01X191692Y271007D02*
X171200Y250514D01*
Y220711*
X167800D02*
G03X171200I1700J-2711D01*
G01X167800D02*
Y251218D01*
X168298Y252420D02*
G03X167800Y251218I1202J-1202D01*
G01X168298Y252420D02*
X188826Y272949D01*
X196600Y288000D02*
G03X196600I-2600J0D01*
G01Y293500D02*
G03X196600I-2600J0D01*
G01X195763Y300911D02*
G03X194237Y301589I237J2589D01*
X195763Y300911I-237J-2589*
G01X244546Y310023D02*
G03X245597Y315822I1754J2677D01*
G01X242991Y310791D02*
G03X244546Y310023I1909J1909D01*
G01X242991Y310791D02*
X236982Y316800D01*
X207500*
X205591Y317591D02*
G03X207500Y316800I1909J1909D01*
G01X205591Y317591D02*
X201382Y321800D01*
X200718*
Y327200D02*
G03Y321800I-1718J-2700D01*
G01Y327200D02*
X202500D01*
X204409Y326409D02*
G03X202500Y327200I-1909J-1909D01*
G01X204409Y326409D02*
X208618Y322200D01*
X238100*
X240009Y321409D02*
G03X238100Y322200I-1909J-1909D01*
G01X240009Y321409D02*
X245597Y315822D01*
X284425Y322600D02*
G03X284173Y326000I2575J1900D01*
G01X284425Y322600D02*
X209091D01*
X207889Y323098D02*
G03X209091Y322600I1202J1202D01*
G01X207889Y323098D02*
X202687Y328300D01*
X187204*
X167702Y308798*
X166500Y308300D02*
G03X167702Y308798I0J1700D01*
G01X166500Y308300D02*
X165711D01*
Y311700D02*
G03Y308300I-2711J-1700D01*
G01Y311700D02*
X165796D01*
X185298Y331202*
X186500Y331700D02*
G03X185298Y331202I0J-1700D01*
G01X186500Y331700D02*
X203391D01*
X204593Y331202D02*
G03X203391Y331700I-1202J-1202D01*
G01X204593Y331202D02*
X209795Y326000D01*
X259760*
X267240D02*
G03X259760I-3740J3675D01*
G01X267240D02*
X284173D01*
X291389Y354800D02*
G03Y358200I2711J1700D01*
G01Y354800D02*
X255204D01*
X242619Y342215*
X240215Y344619D02*
G03X242619Y342215I-715J-3119D01*
G01X240215Y344619D02*
X253298Y357702D01*
X254500Y358200D02*
G03X253298Y357702I0J-1700D01*
G01X254500Y358200D02*
X291389D01*
X293600Y408000D02*
G03X293600I-2600J0D01*
G01X284150Y372600D02*
G03X284150I-2750J0D01*
G01X283950Y424000D02*
G03X283950I-2750J0D01*
G01X267515Y428100D02*
G03X267515I-4015J0D01*
G01X212600Y414000D02*
G03X212600I-2600J0D01*
G01X216000Y432700D02*
G03X216000I-2600J0D01*
G01X207700Y468000D02*
G03X207700I-6700J0D01*
G01X187700D02*
G03X187700I-6700J0D01*
G01X196100Y478000D02*
G03X196100I-5100J0D01*
G01X207700Y488000D02*
G03X207700I-6700J0D01*
G01X187700D02*
G03X187700I-6700J0D01*
G01X171200Y432700D02*
G03X171200I-2600J0D01*
G01X147200Y137000D02*
G03X147200I-6700J0D01*
G01X134100Y217000D02*
G03X134100I-2600J0D01*
G01X232700Y117000D02*
G03X232700I-6700J0D01*
G01X212700D02*
G03X212700I-6700J0D01*
G01X221100Y127000D02*
G03X221100I-5100J0D01*
G01X232700Y137000D02*
G03X232700I-6700J0D01*
G01X212700D02*
G03X212700I-6700J0D01*
G01X254200Y233500D02*
G03X254200I-4700J0D01*
G01X241100Y265100D02*
G03X241100I-2600J0D01*
G01X308937Y114520D02*
G03Y119480I3937J2480D01*
G01X300735Y118860D02*
G03X308937Y114520I4265J-1860D01*
G01X300735Y118860D02*
X296398Y123198D01*
X295900Y124400D02*
G03X296398Y123198I1700J0D01*
G01X295900Y124400D02*
Y186289D01*
X299300D02*
G03X295900I-1700J2711D01*
G01X299300D02*
Y125104D01*
X303140Y121265*
X308937Y119480D02*
G03X303140Y121265I-3937J-2480D01*
G01X390500Y500899D02*
X659500D01*
X390500Y499999D02*
X659500D01*
X390500Y499099D02*
X659500D01*
X390500Y498199D02*
X659500D01*
X390500Y497299D02*
X659500D01*
X390500Y496399D02*
X659500D01*
X390500Y495499D02*
X659500D01*
X488661Y494599D02*
X659500D01*
X605661Y493699D02*
X659500D01*
X606838Y492799D02*
X659500D01*
X607556Y491899D02*
X659500D01*
X608017Y490999D02*
X659500D01*
X608287Y490099D02*
X659500D01*
X608396Y489199D02*
X659500D01*
X608354Y488299D02*
X659500D01*
X608157Y487399D02*
X659500D01*
X607786Y486499D02*
X659500D01*
X607194Y485599D02*
X659500D01*
X606265Y484699D02*
X659500D01*
X604451Y483799D02*
X659500D01*
X491844Y482899D02*
X659500D01*
X490479Y481999D02*
X659500D01*
X481551Y481099D02*
X659500D01*
X482102Y480199D02*
X659500D01*
X482432Y479299D02*
X659500D01*
X482584Y478399D02*
X659500D01*
X482575Y477499D02*
X659500D01*
X482404Y476599D02*
X659500D01*
X482051Y475699D02*
X659500D01*
X481470Y474799D02*
X659500D01*
X490677Y473899D02*
X659500D01*
X606107Y472999D02*
X659500D01*
X607361Y472099D02*
X659500D01*
X608173Y471199D02*
X659500D01*
X608735Y470299D02*
X659500D01*
X609115Y469399D02*
X659500D01*
X609346Y468499D02*
X659500D01*
X609445Y467599D02*
X659500D01*
X609417Y466699D02*
X659500D01*
X609262Y465799D02*
X659500D01*
X608968Y464899D02*
X659500D01*
X608513Y463999D02*
X659500D01*
X607854Y463099D02*
X659500D01*
X606886Y462199D02*
X659500D01*
X605242Y461299D02*
X659500D01*
X390500Y460399D02*
X659500D01*
X390500Y459499D02*
X659500D01*
X390500Y458599D02*
X659500D01*
X390500Y457699D02*
X659500D01*
X390500Y456799D02*
X659500D01*
X390500Y455899D02*
X659500D01*
X390500Y454999D02*
X659500D01*
X390500Y454099D02*
X659500D01*
X390500Y453199D02*
X659500D01*
X390500Y452299D02*
X659500D01*
X390500Y451399D02*
X659500D01*
X390500Y450499D02*
X659500D01*
X390500Y449599D02*
X659500D01*
X390500Y448699D02*
X659500D01*
X390500Y447799D02*
X659500D01*
X390500Y446899D02*
X659500D01*
X390500Y445999D02*
X659500D01*
X390500Y445099D02*
X659500D01*
X390500Y444199D02*
X659500D01*
X390500Y443299D02*
X659500D01*
X390500Y442399D02*
X659500D01*
X390500Y441499D02*
X659500D01*
X390500Y440599D02*
X659500D01*
X390500Y439699D02*
X659500D01*
X390500Y438799D02*
X659500D01*
X390500Y437899D02*
X659500D01*
X390500Y436999D02*
X659500D01*
X390500Y436099D02*
X659500D01*
X500619Y435199D02*
X659500D01*
X501950Y434299D02*
X659500D01*
X502404Y433399D02*
X659500D01*
X502492Y432499D02*
X659500D01*
X551970Y431599D02*
X659500D01*
X553061Y430699D02*
X659500D01*
X553638Y429799D02*
X659500D01*
X553935Y428899D02*
X659500D01*
X554014Y427999D02*
X659500D01*
X553889Y427099D02*
X659500D01*
X569352Y426199D02*
X659500D01*
X570124Y425299D02*
X659500D01*
X570421Y424399D02*
X659500D01*
X570404Y423499D02*
X659500D01*
X570066Y422599D02*
X659500D01*
X569206Y421699D02*
X659500D01*
X390500Y420799D02*
X659500D01*
X390500Y419899D02*
X659500D01*
X390500Y418999D02*
X659500D01*
X390500Y418099D02*
X659500D01*
X390500Y417199D02*
X659500D01*
X497715Y416299D02*
X659500D01*
X498692Y415399D02*
X659500D01*
X499052Y414499D02*
X659500D01*
X499069Y413599D02*
X659500D01*
X498751Y412699D02*
X659500D01*
X497884Y411799D02*
X659500D01*
X390500Y410899D02*
X659500D01*
X579163Y409999D02*
X659500D01*
X579856Y409099D02*
X659500D01*
X580092Y408199D02*
X659500D01*
X580004Y407299D02*
X659500D01*
X579548Y406399D02*
X659500D01*
X578210Y405499D02*
X659500D01*
X390500Y404599D02*
X659500D01*
X390500Y403699D02*
X659500D01*
X390500Y402799D02*
X659500D01*
X390500Y401899D02*
X659500D01*
X390500Y400999D02*
X659500D01*
X390500Y400099D02*
X659500D01*
X604152Y399199D02*
X659500D01*
X604924Y398299D02*
X659500D01*
X605221Y397399D02*
X659500D01*
X605204Y396499D02*
X659500D01*
X604866Y395599D02*
X659500D01*
X604006Y394699D02*
X659500D01*
X390500Y393799D02*
X659500D01*
X390500Y392899D02*
X659500D01*
X390500Y391999D02*
X659500D01*
X390500Y391099D02*
X659500D01*
X390500Y390199D02*
X659500D01*
X390500Y389299D02*
X659500D01*
X390500Y388399D02*
X659500D01*
X390500Y387499D02*
X659500D01*
X390500Y386599D02*
X659500D01*
X390500Y385699D02*
X659500D01*
X390500Y384799D02*
X659500D01*
X390500Y383899D02*
X659500D01*
X390500Y382999D02*
X659500D01*
X390500Y382099D02*
X659500D01*
X390500Y381199D02*
X659500D01*
X390500Y380299D02*
X659500D01*
X390500Y379399D02*
X659500D01*
X390500Y378499D02*
X659500D01*
X390500Y377599D02*
X659500D01*
X390500Y376699D02*
X659500D01*
X390500Y375799D02*
X659500D01*
X569410Y374899D02*
X659500D01*
X570268Y373999D02*
X659500D01*
X570604Y373099D02*
X659500D01*
X570621Y372199D02*
X659500D01*
X570323Y371299D02*
X659500D01*
X569548Y370399D02*
X659500D01*
X390500Y369499D02*
X659500D01*
X390500Y368599D02*
X659500D01*
X390500Y367699D02*
X659500D01*
X390500Y366799D02*
X659500D01*
X390500Y365899D02*
X659500D01*
X390500Y364999D02*
X659500D01*
X390500Y364099D02*
X659500D01*
X390500Y363199D02*
X659500D01*
X390500Y362299D02*
X659500D01*
X390500Y361399D02*
X659500D01*
X390500Y360499D02*
X659500D01*
X581399Y359599D02*
X659500D01*
X582925Y358699D02*
X659500D01*
X583525Y357799D02*
X659500D01*
X583775Y356899D02*
X659500D01*
X583761Y355999D02*
X659500D01*
X583477Y355099D02*
X659500D01*
X582824Y354199D02*
X659500D01*
X540203Y353299D02*
X659500D01*
X539303Y352399D02*
X659500D01*
X538403Y351499D02*
X659500D01*
X537503Y350599D02*
X659500D01*
X536603Y349699D02*
X659500D01*
X535703Y348799D02*
X659500D01*
X603845Y347899D02*
X659500D01*
X604806Y346999D02*
X659500D01*
X605184Y346099D02*
X659500D01*
X605233Y345199D02*
X659500D01*
X604974Y344299D02*
X659500D01*
X604274Y343399D02*
X659500D01*
X529403Y342499D02*
X659500D01*
X529198Y341599D02*
X659500D01*
X529098Y340699D02*
X659500D01*
X528710Y339799D02*
X659500D01*
X527864Y338899D02*
X659500D01*
X390500Y337999D02*
X659500D01*
X390500Y337099D02*
X659500D01*
X390500Y336199D02*
X659500D01*
X390500Y335299D02*
X659500D01*
X552275Y334399D02*
X659500D01*
X553588Y333499D02*
X659500D01*
X554352Y332599D02*
X659500D01*
X554837Y331699D02*
X659500D01*
X555121Y330799D02*
X659500D01*
X555239Y329899D02*
X659500D01*
X555200Y328999D02*
X659500D01*
X555001Y328099D02*
X659500D01*
X575220Y327199D02*
X659500D01*
X576147Y326299D02*
X659500D01*
X576571Y325399D02*
X659500D01*
X576700Y324499D02*
X659500D01*
X576570Y323599D02*
X659500D01*
X576145Y322699D02*
X659500D01*
X575216Y321799D02*
X659500D01*
X527020Y320899D02*
X659500D01*
X527920Y319999D02*
X659500D01*
X528820Y319099D02*
X659500D01*
X529720Y318199D02*
X659500D01*
X530620Y317299D02*
X659500D01*
X531520Y316399D02*
X659500D01*
X534352Y315499D02*
X659500D01*
X535376Y314599D02*
X659500D01*
X535840Y313699D02*
X659500D01*
X535998Y312799D02*
X659500D01*
X535898Y311899D02*
X659500D01*
X535510Y310999D02*
X659500D01*
X534664Y310099D02*
X659500D01*
X524975Y309199D02*
X659500D01*
X525234Y308299D02*
X659500D01*
X525183Y307399D02*
X659500D01*
X578219Y306499D02*
X659500D01*
X579550Y305599D02*
X659500D01*
X580004Y304699D02*
X659500D01*
X580092Y303799D02*
X659500D01*
X579855Y302899D02*
X659500D01*
X579160Y301999D02*
X659500D01*
X525924Y301099D02*
X659500D01*
X523306Y300199D02*
X659500D01*
X524206Y299299D02*
X659500D01*
X525106Y298399D02*
X659500D01*
X526006Y297499D02*
X659500D01*
X526906Y296599D02*
X659500D01*
X603029Y295699D02*
X659500D01*
X604580Y294799D02*
X659500D01*
X605099Y293899D02*
X659500D01*
X605250Y292999D02*
X659500D01*
X605098Y292099D02*
X659500D01*
X604578Y291199D02*
X659500D01*
X603015Y290299D02*
X659500D01*
X538825Y289399D02*
X659500D01*
X539425Y288499D02*
X659500D01*
X539675Y287599D02*
X659500D01*
X539661Y286699D02*
X659500D01*
X539377Y285799D02*
X659500D01*
X538724Y284899D02*
X659500D01*
X526999Y283999D02*
X659500D01*
X527772Y283099D02*
X659500D01*
X528123Y282199D02*
X659500D01*
X528194Y281299D02*
X659500D01*
X528506Y280399D02*
X659500D01*
X640704Y279499D02*
X659500D01*
X642134Y278599D02*
X659500D01*
X642787Y277699D02*
X659500D01*
X643113Y276799D02*
X659500D01*
X643199Y275899D02*
X659500D01*
X643062Y274999D02*
X659500D01*
X642674Y274099D02*
X659500D01*
X641917Y273199D02*
X659500D01*
X536606Y272299D02*
X659500D01*
X537506Y271399D02*
X659500D01*
X538406Y270499D02*
X659500D01*
X539306Y269599D02*
X659500D01*
X540206Y268699D02*
X659500D01*
X541106Y267799D02*
X659500D01*
X542006Y266899D02*
X659500D01*
X542906Y265999D02*
X659500D01*
X543806Y265099D02*
X659500D01*
X544706Y264199D02*
X659500D01*
X545606Y263299D02*
X659500D01*
X546506Y262399D02*
X659500D01*
X547406Y261499D02*
X659500D01*
X548306Y260599D02*
X659500D01*
X596592Y259699D02*
X659500D01*
X598726Y258799D02*
X659500D01*
X599378Y257899D02*
X659500D01*
X599661Y256999D02*
X659500D01*
X599675Y256099D02*
X659500D01*
X599423Y255199D02*
X659500D01*
X598823Y254299D02*
X659500D01*
X598200Y253399D02*
X659500D01*
X598124Y252499D02*
X659500D01*
X597503Y251599D02*
X659500D01*
X596603Y250699D02*
X659500D01*
X595703Y249799D02*
X659500D01*
X594803Y248899D02*
X659500D01*
X637704Y247999D02*
X659500D01*
X639134Y247099D02*
X659500D01*
X639787Y246199D02*
X659500D01*
X640113Y245299D02*
X659500D01*
X640199Y244399D02*
X659500D01*
X640062Y243499D02*
X659500D01*
X639674Y242599D02*
X659500D01*
X638917Y241699D02*
X659500D01*
X623092Y240799D02*
X659500D01*
X622855Y239899D02*
X659500D01*
X622160Y238999D02*
X659500D01*
X586200Y238099D02*
X659500D01*
X595888Y237199D02*
X659500D01*
X596752Y236299D02*
X659500D01*
X597069Y235399D02*
X659500D01*
X597051Y234499D02*
X659500D01*
X596690Y233599D02*
X659500D01*
X595710Y232699D02*
X659500D01*
X558700Y231799D02*
X659500D01*
X558700Y230899D02*
X659500D01*
X558700Y229999D02*
X659500D01*
X558700Y229099D02*
X659500D01*
X624220Y228199D02*
X659500D01*
X625147Y227299D02*
X659500D01*
X625571Y226399D02*
X659500D01*
X625700Y225499D02*
X659500D01*
X625570Y224599D02*
X659500D01*
X625145Y223699D02*
X659500D01*
X635877Y222799D02*
X659500D01*
X636440Y221899D02*
X659500D01*
X636600Y220999D02*
X659500D01*
X636439Y220099D02*
X659500D01*
X635875Y219199D02*
X659500D01*
X627252Y218299D02*
X659500D01*
X627569Y217399D02*
X659500D01*
X627551Y216499D02*
X659500D01*
X627190Y215599D02*
X659500D01*
X626210Y214699D02*
X659500D01*
X615200Y213799D02*
X659500D01*
X615200Y212899D02*
X659500D01*
X615200Y211999D02*
X659500D01*
X615200Y211099D02*
X659500D01*
X615200Y210199D02*
X659500D01*
X615200Y209299D02*
X659500D01*
X615200Y208399D02*
X659500D01*
X615200Y207499D02*
X659500D01*
X615200Y206599D02*
X659500D01*
X615200Y205699D02*
X659500D01*
X615200Y204799D02*
X659500D01*
X615200Y203899D02*
X659500D01*
X615200Y202999D02*
X659500D01*
X615200Y202099D02*
X659500D01*
X615200Y201199D02*
X659500D01*
X615200Y200299D02*
X659500D01*
X615200Y199399D02*
X659500D01*
X615200Y198499D02*
X659500D01*
X615200Y197599D02*
X659500D01*
X615200Y196699D02*
X659500D01*
X615200Y195799D02*
X659500D01*
X615200Y194899D02*
X659500D01*
X615200Y193999D02*
X659500D01*
X615200Y193099D02*
X659500D01*
X615200Y192199D02*
X659500D01*
X615200Y191299D02*
X659500D01*
X615197Y190399D02*
X659500D01*
X614874Y189499D02*
X659500D01*
X614003Y188599D02*
X659500D01*
X613103Y187699D02*
X659500D01*
X612203Y186799D02*
X659500D01*
X611303Y185899D02*
X659500D01*
X610403Y184999D02*
X659500D01*
X609503Y184099D02*
X659500D01*
X609194Y183199D02*
X659500D01*
X609122Y182299D02*
X659500D01*
X608771Y181399D02*
X659500D01*
X607996Y180499D02*
X659500D01*
X598700Y179599D02*
X659500D01*
X598700Y178699D02*
X659500D01*
X598700Y177799D02*
X659500D01*
X598700Y176899D02*
X659500D01*
X598700Y175999D02*
X659500D01*
X598700Y175099D02*
X659500D01*
X598700Y174199D02*
X659500D01*
X598700Y173299D02*
X659500D01*
X598700Y172399D02*
X659500D01*
X598700Y171499D02*
X659500D01*
X598700Y170599D02*
X659500D01*
X598700Y169699D02*
X659500D01*
X598700Y168799D02*
X659500D01*
X598700Y167899D02*
X659500D01*
X598700Y166999D02*
X659500D01*
X598700Y166099D02*
X659500D01*
X598700Y165199D02*
X659500D01*
X598700Y164299D02*
X659500D01*
X598700Y163399D02*
X659500D01*
X598700Y162499D02*
X659500D01*
X598700Y161599D02*
X659500D01*
X598700Y160699D02*
X659500D01*
X598700Y159799D02*
X659500D01*
X598700Y158899D02*
X659500D01*
X598700Y157999D02*
X659500D01*
X598700Y157099D02*
X659500D01*
X598700Y156199D02*
X659500D01*
X631215Y155299D02*
X659500D01*
X632192Y154399D02*
X659500D01*
X632552Y153499D02*
X659500D01*
X632569Y152599D02*
X659500D01*
X632251Y151699D02*
X659500D01*
X631384Y150799D02*
X659500D01*
X597789Y149899D02*
X659500D01*
X585800Y148999D02*
X659500D01*
X585800Y148099D02*
X659500D01*
X585800Y147199D02*
X659500D01*
X585800Y146299D02*
X659500D01*
X585800Y145399D02*
X659500D01*
X585800Y144499D02*
X659500D01*
X585800Y143599D02*
X659500D01*
X585800Y142699D02*
X659500D01*
X585800Y141799D02*
X659500D01*
X585800Y140899D02*
X659500D01*
X585800Y139999D02*
X659500D01*
X585800Y139099D02*
X659500D01*
X585800Y138199D02*
X659500D01*
X585800Y137299D02*
X659500D01*
X585800Y136399D02*
X659500D01*
X585800Y135499D02*
X659500D01*
X585800Y134599D02*
X659500D01*
X585800Y133699D02*
X659500D01*
X585800Y132799D02*
X659500D01*
X585800Y131899D02*
X659500D01*
X585800Y130999D02*
X659500D01*
X585800Y130099D02*
X659500D01*
X585800Y129199D02*
X659500D01*
X585800Y128299D02*
X659500D01*
X585800Y127399D02*
X659500D01*
X585800Y126499D02*
X659500D01*
X585800Y125599D02*
X659500D01*
X586206Y124699D02*
X659500D01*
X587106Y123799D02*
X659500D01*
X588006Y122899D02*
X659500D01*
X588906Y121999D02*
X659500D01*
X601576Y121099D02*
X659500D01*
X602753Y120199D02*
X659500D01*
X603419Y119299D02*
X659500D01*
X603812Y118399D02*
X659500D01*
X604000Y117499D02*
X659500D01*
X604009Y116599D02*
X659500D01*
X603841Y115699D02*
X659500D01*
X603473Y114799D02*
X659500D01*
X602842Y113899D02*
X659500D01*
X601748Y112999D02*
X659500D01*
X517068Y112099D02*
X659500D01*
X515852Y111199D02*
X659500D01*
X390500Y110299D02*
X659500D01*
X390500Y109399D02*
X659500D01*
X390500Y108499D02*
X659500D01*
X390500Y107599D02*
X659500D01*
X390500Y106699D02*
X659500D01*
X390500Y105799D02*
X659500D01*
X390500Y104899D02*
X659500D01*
X613704Y279499D02*
X638296D01*
X614917Y273199D02*
X637083D01*
X615134Y278599D02*
X636866D01*
X615674Y274099D02*
X636326D01*
X615787Y277699D02*
X636213D01*
X616062Y274999D02*
X635938D01*
X616113Y276799D02*
X635887D01*
X616199Y275899D02*
X635801D01*
X593903Y247999D02*
X635296D01*
X623004Y241699D02*
X634083D01*
X614535Y247099D02*
X633866D01*
X622550Y242599D02*
X633326D01*
X615307Y246199D02*
X633213D01*
X621219Y243499D02*
X632938D01*
X615583Y245299D02*
X632887D01*
X615530Y244399D02*
X632801D01*
X626388Y219199D02*
X632125D01*
X624216Y222799D02*
X632123D01*
X623856Y220099D02*
X631561D01*
X621303Y221899D02*
X631560D01*
X623163Y220999D02*
X631400D01*
X599226Y155299D02*
X628785D01*
X599323Y150799D02*
X628616D01*
X599878Y154399D02*
X627808D01*
X599923Y151699D02*
X627749D01*
X600161Y153499D02*
X627448D01*
X600175Y152599D02*
X627431D01*
X615200Y214699D02*
X623790D01*
X615200Y215599D02*
X622810D01*
X622210Y216499D02*
X622449D01*
X615903D02*
X620790D01*
X558700Y228199D02*
X620780D01*
X558700Y227299D02*
X619853D01*
X615123Y243499D02*
X619781D01*
X616803Y217399D02*
X619452D01*
X575163Y226399D02*
X619429D01*
X575856Y225499D02*
X619300D01*
X576092Y224599D02*
X619194D01*
X617703Y218299D02*
X618996D01*
X618603Y219199D02*
X618908D01*
X586200Y238999D02*
X618840D01*
X613997Y242599D02*
X618450D01*
X576004Y223699D02*
X618294D01*
X586200Y239899D02*
X618145D01*
X587603Y241699D02*
X617996D01*
X586703Y240799D02*
X617908D01*
X575548Y222799D02*
X617394D01*
X574210Y221899D02*
X616494D01*
X558700Y220999D02*
X615594D01*
X558700Y220099D02*
X614694D01*
X606388Y219199D02*
X613794D01*
X607252Y218299D02*
X612894D01*
X607569Y217399D02*
X612057D01*
X588503Y242599D02*
X612003D01*
X607551Y216499D02*
X611800D01*
X607190Y215599D02*
X611800D01*
X606210Y214699D02*
X611800D01*
X558700Y213799D02*
X611800D01*
X559576Y212899D02*
X611800D01*
X560040Y211999D02*
X611800D01*
X560198Y211099D02*
X611800D01*
X560098Y210199D02*
X611800D01*
X559710Y209299D02*
X611800D01*
X558864Y208399D02*
X611800D01*
X555903Y207499D02*
X611800D01*
X555003Y206599D02*
X611800D01*
X554103Y205699D02*
X611800D01*
X553203Y204799D02*
X611800D01*
X552303Y203899D02*
X611800D01*
X551403Y202999D02*
X611800D01*
X550503Y202099D02*
X611800D01*
X549603Y201199D02*
X611800D01*
X548703Y200299D02*
X611800D01*
X544413Y199399D02*
X611800D01*
X543110Y198499D02*
X611800D01*
X541806Y197599D02*
X611800D01*
X542706Y196699D02*
X611800D01*
X607552Y195799D02*
X611800D01*
X608576Y194899D02*
X611800D01*
X609040Y193999D02*
X611800D01*
X609198Y193099D02*
X611800D01*
X609098Y192199D02*
X611800D01*
X608710Y191299D02*
X611800D01*
X593003Y247099D02*
X611465D01*
X578204Y279499D02*
X611296D01*
X607864Y190399D02*
X610994D01*
X589403Y243499D02*
X610877D01*
X592103Y246199D02*
X610693D01*
X590303Y244399D02*
X610470D01*
X591203Y245299D02*
X610417D01*
X608125Y189499D02*
X610094D01*
X579417Y273199D02*
X610083D01*
X579634Y278599D02*
X609866D01*
X580174Y274099D02*
X609326D01*
X580287Y277699D02*
X609213D01*
X608530Y188599D02*
X609194D01*
X580562Y274999D02*
X608938D01*
X580613Y276799D02*
X608887D01*
X580699Y275899D02*
X608801D01*
X601303Y185899D02*
X604469D01*
X543606Y195799D02*
X604448D01*
X598700Y180499D02*
X604004D01*
X592310Y214699D02*
X603790D01*
X602203Y186799D02*
X603694D01*
X592488Y219199D02*
X603612D01*
X600403Y184999D02*
X603501D01*
X544506Y194899D02*
X603424D01*
X603103Y187699D02*
X603417D01*
X598700Y181399D02*
X603229D01*
X599503Y184099D02*
X602995D01*
X545406Y193999D02*
X602960D01*
X598700Y182299D02*
X602878D01*
X593290Y215599D02*
X602810D01*
X598700Y183199D02*
X602806D01*
X546306Y193099D02*
X602802D01*
X584192Y192199D02*
X602794D01*
X593352Y218299D02*
X602748D01*
X593651Y216499D02*
X602449D01*
X593669Y217399D02*
X602431D01*
X537299Y290299D02*
X601985D01*
X530406Y295699D02*
X601971D01*
X586326Y191299D02*
X601894D01*
X492719Y483799D02*
X601549D01*
X534803Y347899D02*
X601155D01*
X586978Y190399D02*
X600994D01*
X390500Y394699D02*
X600994D01*
X390500Y399199D02*
X600848D01*
X390500Y461299D02*
X600758D01*
X530303Y343399D02*
X600726D01*
X534906Y291199D02*
X600422D01*
X531306Y294799D02*
X600420D01*
X491024Y493699D02*
X600339D01*
X533903Y346999D02*
X600194D01*
X390500Y395599D02*
X600134D01*
X587261Y189499D02*
X600094D01*
X390500Y398299D02*
X600076D01*
X531203Y344299D02*
X600026D01*
X534006Y292099D02*
X599902D01*
X532206Y293899D02*
X599901D01*
X491961Y472999D02*
X599893D01*
X533003Y346099D02*
X599816D01*
X390500Y396499D02*
X599796D01*
X390500Y397399D02*
X599779D01*
X532103Y345199D02*
X599767D01*
X533106Y292999D02*
X599750D01*
X493330Y484699D02*
X599735D01*
X590860Y188599D02*
X599194D01*
X492176Y492799D02*
X599162D01*
X490852Y462199D02*
X599114D01*
X493755Y485599D02*
X598806D01*
X492800Y472099D02*
X598639D01*
X492949Y491899D02*
X598444D01*
X592531Y187699D02*
X598294D01*
X494030Y486499D02*
X598214D01*
X492068Y463099D02*
X598146D01*
X493492Y490999D02*
X597983D01*
X494173Y487399D02*
X597843D01*
X493387Y471199D02*
X597827D01*
X493863Y490099D02*
X597713D01*
X494193Y488299D02*
X597646D01*
X494092Y489199D02*
X597604D01*
X492874Y463999D02*
X597487D01*
X593233Y186799D02*
X597394D01*
X493793Y470299D02*
X597265D01*
X593702Y121099D02*
X597172D01*
X493439Y464899D02*
X597032D01*
X593874Y112999D02*
X597000D01*
X494052Y469399D02*
X596885D01*
X493828Y465799D02*
X596738D01*
X494181Y468499D02*
X596654D01*
X494072Y466699D02*
X596583D01*
X494188Y467599D02*
X596555D01*
X593589Y185899D02*
X596494D01*
X549206Y259699D02*
X596408D01*
X585800Y149899D02*
X596211D01*
X594879Y120199D02*
X595995D01*
X594968Y113899D02*
X595906D01*
X593700Y184999D02*
X595624D01*
X593589Y184099D02*
X595303D01*
X593232Y183199D02*
X595300D01*
X592528Y182299D02*
X595300D01*
X590849Y181399D02*
X595300D01*
X585800Y180499D02*
X595300D01*
X585800Y179599D02*
X595300D01*
X585800Y178699D02*
X595300D01*
X585800Y177799D02*
X595300D01*
X585800Y176899D02*
X595300D01*
X585800Y175999D02*
X595300D01*
X585800Y175099D02*
X595300D01*
X585800Y174199D02*
X595300D01*
X585800Y173299D02*
X595300D01*
X585800Y172399D02*
X595300D01*
X585800Y171499D02*
X595300D01*
X585800Y170599D02*
X595300D01*
X585800Y169699D02*
X595300D01*
X585800Y168799D02*
X595300D01*
X585800Y167899D02*
X595300D01*
X585800Y166999D02*
X595300D01*
X585800Y166099D02*
X595300D01*
X585800Y165199D02*
X595300D01*
X585800Y164299D02*
X595300D01*
X585800Y163399D02*
X595300D01*
X585800Y162499D02*
X595300D01*
X585800Y161599D02*
X595300D01*
X585800Y160699D02*
X595300D01*
X585800Y159799D02*
X595300D01*
X585800Y158899D02*
X595300D01*
X585800Y157999D02*
X595300D01*
X585800Y157099D02*
X595300D01*
X585800Y156199D02*
X595300D01*
X585800Y155299D02*
X594774D01*
X585800Y150799D02*
X594677D01*
X575363Y253399D02*
X594494D01*
X550106Y258799D02*
X594274D01*
X554606Y254299D02*
X594177D01*
X585800Y154399D02*
X594122D01*
X585800Y151699D02*
X594077D01*
X585800Y153499D02*
X593839D01*
X585800Y152599D02*
X593825D01*
X551006Y257899D02*
X593622D01*
X576056Y252499D02*
X593594D01*
X553706Y255199D02*
X593577D01*
X551906Y256999D02*
X593339D01*
X552806Y256099D02*
X593325D01*
X586724Y232699D02*
X593290D01*
X586825Y237199D02*
X593112D01*
X576292Y251599D02*
X592694D01*
X587377Y233599D02*
X592310D01*
X587425Y236299D02*
X592248D01*
X587661Y234499D02*
X591949D01*
X587675Y235399D02*
X591931D01*
X576204Y250699D02*
X591794D01*
X575748Y249799D02*
X590894D01*
X574410Y248899D02*
X589994D01*
X558700Y214699D02*
X589890D01*
X558700Y219199D02*
X589712D01*
X585800Y181399D02*
X589151D01*
X587275Y188599D02*
X589140D01*
X566996Y112999D02*
X589126D01*
X558700Y247999D02*
X589094D01*
X558700Y215599D02*
X588910D01*
X558700Y218299D02*
X588848D01*
X558700Y216499D02*
X588549D01*
X558700Y217399D02*
X588531D01*
X558700Y247099D02*
X588194D01*
X568091Y113899D02*
X588032D01*
X585800Y182299D02*
X587472D01*
X587023Y187699D02*
X587469D01*
X568721Y114799D02*
X587401D01*
X558700Y246199D02*
X587294D01*
X569060Y118399D02*
X587062D01*
X569089Y115699D02*
X587033D01*
X569248Y117499D02*
X586874D01*
X569257Y116599D02*
X586865D01*
X568667Y119299D02*
X586797D01*
X585800Y183199D02*
X586768D01*
X586423Y186799D02*
X586767D01*
X585800Y184099D02*
X586411D01*
X585800Y185899D02*
X586411D01*
X558700Y245299D02*
X586394D01*
X585800Y184999D02*
X586300D01*
X568001Y120199D02*
X585897D01*
X558700Y244399D02*
X585494D01*
X566824Y121099D02*
X584997D01*
X558700Y243499D02*
X584594D01*
X516961Y121999D02*
X584097D01*
X547206Y192199D02*
X584008D01*
X558700Y242599D02*
X583694D01*
X515677Y122899D02*
X583197D01*
X558700Y241699D02*
X582950D01*
X558700Y240799D02*
X582800D01*
X558700Y239899D02*
X582800D01*
X558700Y238999D02*
X582800D01*
X558700Y238099D02*
X582800D01*
X506470Y123799D02*
X582510D01*
X553506Y185899D02*
X582400D01*
X554406Y184999D02*
X582400D01*
X555306Y184099D02*
X582400D01*
X556206Y183199D02*
X582400D01*
X557106Y182299D02*
X582400D01*
X558006Y181399D02*
X582400D01*
X558906Y180499D02*
X582400D01*
X559806Y179599D02*
X582400D01*
X560706Y178699D02*
X582400D01*
X561606Y177799D02*
X582400D01*
X562506Y176899D02*
X582400D01*
X563406Y175999D02*
X582400D01*
X564306Y175099D02*
X582400D01*
X565205Y174199D02*
X582400D01*
X565674Y173299D02*
X582400D01*
X565700Y172399D02*
X582400D01*
X565700Y171499D02*
X582400D01*
X565700Y170599D02*
X582400D01*
X565700Y169699D02*
X582400D01*
X565700Y168799D02*
X582400D01*
X565700Y167899D02*
X582400D01*
X565700Y166999D02*
X582400D01*
X565700Y166099D02*
X582400D01*
X565700Y165199D02*
X582400D01*
X565700Y164299D02*
X582400D01*
X565700Y163399D02*
X582400D01*
X565700Y162499D02*
X582400D01*
X565700Y161599D02*
X582400D01*
X565700Y160699D02*
X582400D01*
X565700Y159799D02*
X582400D01*
X565700Y158899D02*
X582400D01*
X565700Y157999D02*
X582400D01*
X565700Y157099D02*
X582400D01*
X565700Y156199D02*
X582400D01*
X566576Y155299D02*
X582400D01*
X567040Y154399D02*
X582400D01*
X567198Y153499D02*
X582400D01*
X567098Y152599D02*
X582400D01*
X566710Y151699D02*
X582400D01*
X565864Y150799D02*
X582400D01*
X390500Y149899D02*
X582400D01*
X390500Y148999D02*
X582400D01*
X390500Y148099D02*
X582400D01*
X390500Y147199D02*
X582400D01*
X390500Y146299D02*
X582400D01*
X390500Y145399D02*
X582400D01*
X390500Y144499D02*
X582400D01*
X513661Y143599D02*
X582400D01*
X516024Y142699D02*
X582400D01*
X517176Y141799D02*
X582400D01*
X517949Y140899D02*
X582400D01*
X518492Y139999D02*
X582400D01*
X518863Y139099D02*
X582400D01*
X519092Y138199D02*
X582400D01*
X519193Y137299D02*
X582400D01*
X519173Y136399D02*
X582400D01*
X519030Y135499D02*
X582400D01*
X518755Y134599D02*
X582400D01*
X518330Y133699D02*
X582400D01*
X517719Y132799D02*
X582400D01*
X516844Y131899D02*
X582400D01*
X515479Y130999D02*
X582400D01*
X506551Y130099D02*
X582400D01*
X507102Y129199D02*
X582400D01*
X507432Y128299D02*
X582400D01*
X507584Y127399D02*
X582400D01*
X507575Y126499D02*
X582400D01*
X507404Y125599D02*
X582400D01*
X507051Y124699D02*
X582400D01*
X558700Y232699D02*
X582276D01*
X558700Y237199D02*
X582175D01*
X548106Y191299D02*
X581874D01*
X552606Y186799D02*
X581777D01*
X558700Y233599D02*
X581623D01*
X558700Y236299D02*
X581575D01*
X558700Y234499D02*
X581339D01*
X558700Y235399D02*
X581325D01*
X549006Y190399D02*
X581222D01*
X551706Y187699D02*
X581177D01*
X549906Y189499D02*
X580939D01*
X550806Y188599D02*
X580925D01*
X390500Y359599D02*
X579801D01*
X541103Y354199D02*
X578376D01*
X390500Y358699D02*
X578275D01*
X390500Y405499D02*
X576790D01*
X524804Y306499D02*
X576781D01*
X526577Y301999D02*
X575840D01*
X390500Y409999D02*
X575837D01*
X552704Y279499D02*
X575796D01*
X390500Y406399D02*
X575452D01*
X526025Y305599D02*
X575450D01*
X526861Y302899D02*
X575145D01*
X390500Y409099D02*
X575144D01*
X390500Y407299D02*
X574996D01*
X526625Y304699D02*
X574996D01*
X526875Y303799D02*
X574908D01*
X390500Y408199D02*
X574908D01*
X553917Y273199D02*
X574583D01*
X554134Y278599D02*
X574366D01*
X554674Y274099D02*
X573826D01*
X554787Y277699D02*
X573713D01*
X555062Y274999D02*
X573438D01*
X555113Y276799D02*
X573387D01*
X555199Y275899D02*
X573301D01*
X558700Y248899D02*
X572990D01*
X558700Y221899D02*
X572790D01*
X555506Y253399D02*
X572037D01*
X558700Y226399D02*
X571837D01*
X526016Y321799D02*
X571784D01*
X554622Y327199D02*
X571780D01*
X558674Y249799D02*
X571652D01*
X558700Y222799D02*
X571452D01*
X556406Y252499D02*
X571344D01*
X558205Y250699D02*
X571196D01*
X558700Y225499D02*
X571144D01*
X557306Y251599D02*
X571108D01*
X558700Y223699D02*
X570996D01*
X558700Y224599D02*
X570908D01*
X554012Y326299D02*
X570853D01*
X390500Y374899D02*
X566390D01*
X390500Y370399D02*
X566252D01*
X390500Y421699D02*
X566194D01*
X553537Y426199D02*
X566048D01*
X390500Y373999D02*
X565532D01*
X390500Y371299D02*
X565477D01*
X390500Y422599D02*
X565334D01*
X552877Y425299D02*
X565276D01*
X390500Y373099D02*
X565196D01*
X390500Y372199D02*
X565179D01*
X390500Y423499D02*
X564996D01*
X551557Y424399D02*
X564979D01*
X551076Y121099D02*
X562420D01*
X532600Y171499D02*
X562300D01*
X532600Y170599D02*
X562300D01*
X532600Y169699D02*
X562300D01*
X532600Y168799D02*
X562300D01*
X532600Y167899D02*
X562300D01*
X532600Y166999D02*
X562300D01*
X532600Y166099D02*
X562300D01*
X532600Y165199D02*
X562300D01*
X532600Y164299D02*
X562300D01*
X532600Y163399D02*
X562300D01*
X532600Y162499D02*
X562300D01*
X532600Y161599D02*
X562300D01*
X532600Y160699D02*
X562300D01*
X532600Y159799D02*
X562300D01*
X532600Y158899D02*
X562300D01*
X532600Y157999D02*
X562300D01*
X532600Y157099D02*
X562300D01*
X532600Y156199D02*
X562300D01*
X551248Y112999D02*
X562248D01*
X532600Y172399D02*
X562197D01*
X532764Y150799D02*
X562136D01*
X533476Y155299D02*
X561424D01*
X532600Y173299D02*
X561297D01*
X533610Y151699D02*
X561290D01*
X557972Y120199D02*
X561243D01*
X558201Y113899D02*
X561154D01*
X533940Y154399D02*
X560960D01*
X533998Y152599D02*
X560902D01*
X534098Y153499D02*
X560802D01*
X559287Y119299D02*
X560577D01*
X559372Y114799D02*
X560523D01*
X532600Y174199D02*
X560397D01*
X559874Y118399D02*
X560184D01*
X559916Y115699D02*
X560155D01*
X532600Y175099D02*
X559497D01*
X532600Y175999D02*
X558597D01*
X532600Y176899D02*
X557697D01*
X532600Y177799D02*
X556797D01*
X532600Y178699D02*
X555897D01*
X552253Y120199D02*
X555524D01*
X457700Y247999D02*
X555300D01*
X457700Y247099D02*
X555300D01*
X457700Y246199D02*
X555300D01*
X457700Y245299D02*
X555300D01*
X457700Y244399D02*
X555300D01*
X457700Y243499D02*
X555300D01*
X457700Y242599D02*
X555300D01*
X457700Y241699D02*
X555300D01*
X457700Y240799D02*
X555300D01*
X457700Y239899D02*
X555300D01*
X457700Y238999D02*
X555300D01*
X536971Y238099D02*
X555300D01*
X538900Y237199D02*
X555300D01*
X539776Y236299D02*
X555300D01*
X540299Y235399D02*
X555300D01*
X540593Y234499D02*
X555300D01*
X540699Y233599D02*
X555300D01*
X540631Y232699D02*
X555300D01*
X540381Y231799D02*
X555300D01*
X539915Y230899D02*
X555300D01*
X539135Y229999D02*
X555300D01*
X537649Y229099D02*
X555300D01*
X483906Y228199D02*
X555300D01*
X484806Y227299D02*
X555300D01*
X485706Y226399D02*
X555300D01*
X486606Y225499D02*
X555300D01*
X487506Y224599D02*
X555300D01*
X488406Y223699D02*
X555300D01*
X489306Y222799D02*
X555300D01*
X490206Y221899D02*
X555300D01*
X491106Y220999D02*
X555300D01*
X492006Y220099D02*
X555300D01*
X492906Y219199D02*
X555300D01*
X493806Y218299D02*
X555300D01*
X527206Y217399D02*
X555300D01*
X530052Y216499D02*
X555300D01*
X531076Y215599D02*
X555300D01*
X531540Y214699D02*
X555300D01*
X531698Y213799D02*
X555300D01*
X552342Y113899D02*
X555295D01*
X457700Y248899D02*
X555197D01*
X532600Y179599D02*
X554997D01*
X531706Y212899D02*
X554424D01*
X457700Y249799D02*
X554297D01*
X552919Y119299D02*
X554209D01*
X552973Y114799D02*
X554124D01*
X532600Y180499D02*
X554097D01*
X532606Y211999D02*
X553960D01*
X533506Y211099D02*
X553802D01*
X534406Y210199D02*
X553794D01*
X553312Y118399D02*
X553622D01*
X553341Y115699D02*
X553580D01*
X457885Y250699D02*
X553397D01*
X532600Y181399D02*
X553197D01*
X535306Y209299D02*
X552894D01*
X458785Y251599D02*
X552497D01*
X532600Y182299D02*
X552297D01*
X544503Y208399D02*
X551994D01*
X459685Y252499D02*
X551597D01*
X532600Y183199D02*
X551397D01*
X545625Y207499D02*
X551094D01*
X460585Y253399D02*
X550697D01*
X532600Y184099D02*
X550497D01*
X529406Y279499D02*
X550296D01*
X546030Y206599D02*
X550194D01*
X461485Y254299D02*
X549797D01*
X532600Y184999D02*
X549597D01*
X546083Y205699D02*
X549294D01*
X535706Y273199D02*
X549083D01*
X462385Y255199D02*
X548897D01*
X530306Y278599D02*
X548866D01*
X532600Y185899D02*
X548697D01*
X390500Y424399D02*
X548443D01*
X545806Y204799D02*
X548394D01*
X534806Y274099D02*
X548326D01*
X531206Y277699D02*
X548213D01*
X502255Y431599D02*
X548030D01*
X463285Y256099D02*
X547997D01*
X533906Y274999D02*
X547938D01*
X532106Y276799D02*
X547887D01*
X533006Y275899D02*
X547801D01*
X532600Y186799D02*
X547797D01*
X390500Y334399D02*
X547725D01*
X545031Y203899D02*
X547494D01*
X390500Y425299D02*
X547123D01*
X464185Y256999D02*
X547097D01*
X501560Y430699D02*
X546939D01*
X532600Y187699D02*
X546897D01*
X517800Y121099D02*
X546672D01*
X517874Y112999D02*
X546500D01*
X390500Y426199D02*
X546463D01*
X390500Y333499D02*
X546412D01*
X390500Y429799D02*
X546362D01*
X465085Y257899D02*
X546197D01*
X390500Y427099D02*
X546111D01*
X390500Y428899D02*
X546065D01*
X532600Y188599D02*
X545997D01*
X495996Y326299D02*
X545988D01*
X390500Y427999D02*
X545986D01*
X390500Y332599D02*
X545648D01*
X542224Y120199D02*
X545495D01*
X542453Y113899D02*
X545406D01*
X495096Y327199D02*
X545378D01*
X465985Y258799D02*
X545297D01*
X489958Y331699D02*
X545163D01*
X532600Y189499D02*
X545097D01*
X494196Y328099D02*
X544999D01*
X491496Y330799D02*
X544879D01*
X543539Y119299D02*
X544829D01*
X493296Y328999D02*
X544800D01*
X543624Y114799D02*
X544775D01*
X492396Y329899D02*
X544761D01*
X544126Y118399D02*
X544436D01*
X544168Y115699D02*
X544407D01*
X466885Y259699D02*
X544397D01*
X532600Y190399D02*
X544197D01*
X467785Y260599D02*
X543497D01*
X532600Y191299D02*
X543297D01*
X468685Y261499D02*
X542597D01*
X536206Y208399D02*
X542497D01*
X532600Y192199D02*
X542397D01*
X469585Y262399D02*
X541697D01*
X532600Y193099D02*
X541497D01*
X537106Y207499D02*
X541375D01*
X537700Y204799D02*
X541194D01*
X537653Y206599D02*
X540970D01*
X537700Y205699D02*
X540917D01*
X526875Y263299D02*
X540797D01*
X532600Y193999D02*
X540597D01*
X390500Y357799D02*
X539903D01*
X527439Y264199D02*
X539897D01*
X537700Y203899D02*
X539882D01*
X518387Y120199D02*
X539776D01*
X532600Y194899D02*
X539697D01*
X518439Y113899D02*
X539547D01*
X537700Y202999D02*
X539173D01*
X527600Y265099D02*
X538997D01*
X390500Y356899D02*
X538994D01*
X537700Y202099D02*
X538856D01*
X538206Y201199D02*
X538814D01*
X532600Y195799D02*
X538797D01*
X518793Y119299D02*
X538461D01*
X518828Y114799D02*
X538376D01*
X527440Y265999D02*
X538097D01*
X390500Y355999D02*
X538094D01*
X532600Y196699D02*
X537897D01*
X519052Y118399D02*
X537874D01*
X519072Y115699D02*
X537832D01*
X519181Y117499D02*
X537612D01*
X519188Y116599D02*
X537599D01*
X526877Y266899D02*
X537197D01*
X390500Y355099D02*
X537194D01*
X532600Y197599D02*
X536997D01*
X474985Y267799D02*
X536297D01*
X390500Y354199D02*
X536294D01*
X532600Y198499D02*
X536097D01*
X475885Y268699D02*
X535397D01*
X390500Y353299D02*
X535394D01*
X532600Y199399D02*
X535197D01*
X457700Y238099D02*
X535029D01*
X476785Y269599D02*
X534497D01*
X390500Y352399D02*
X534494D01*
X532600Y200299D02*
X534451D01*
X483006Y229099D02*
X534351D01*
X532600Y204799D02*
X534300D01*
X532600Y203899D02*
X534300D01*
X532600Y202999D02*
X534300D01*
X532600Y202099D02*
X534300D01*
X532600Y201199D02*
X534300D01*
X518506Y284899D02*
X534276D01*
X532600Y205699D02*
X534097D01*
X517606Y285799D02*
X533623D01*
X477685Y270499D02*
X533597D01*
X390500Y351499D02*
X533594D01*
X516706Y286699D02*
X533339D01*
X515806Y287599D02*
X533325D01*
X532600Y206599D02*
X533197D01*
X457700Y237199D02*
X533100D01*
X482694Y229999D02*
X532865D01*
X514906Y288499D02*
X532797D01*
X478803Y271399D02*
X532697D01*
X390500Y350599D02*
X532694D01*
X457700Y236299D02*
X532224D01*
X482623Y230899D02*
X532085D01*
X514700Y289399D02*
X531897D01*
X479273Y272299D02*
X531797D01*
X390500Y349699D02*
X531794D01*
X457700Y235399D02*
X531701D01*
X482272Y231799D02*
X531619D01*
X457700Y234499D02*
X531407D01*
X481499Y232699D02*
X531369D01*
X457700Y233599D02*
X531301D01*
X514700Y290299D02*
X530997D01*
X526547Y273199D02*
X530897D01*
X390500Y348799D02*
X530894D01*
X524277Y310099D02*
X530677D01*
X514700Y291199D02*
X530097D01*
X527574Y274099D02*
X529997D01*
X390500Y347899D02*
X529994D01*
X516643Y310999D02*
X529283D01*
X390500Y205699D02*
X529200D01*
X390500Y204799D02*
X529200D01*
X390500Y203899D02*
X529200D01*
X390500Y202999D02*
X529200D01*
X390500Y202099D02*
X529200D01*
X390500Y201199D02*
X529200D01*
X390500Y200299D02*
X529200D01*
X390500Y199399D02*
X529200D01*
X390500Y198499D02*
X529200D01*
X390500Y197599D02*
X529200D01*
X390500Y196699D02*
X529200D01*
X390500Y195799D02*
X529200D01*
X390500Y194899D02*
X529200D01*
X390500Y193999D02*
X529200D01*
X390500Y193099D02*
X529200D01*
X390500Y192199D02*
X529200D01*
X390500Y191299D02*
X529200D01*
X390500Y190399D02*
X529200D01*
X390500Y189499D02*
X529200D01*
X390500Y188599D02*
X529200D01*
X390500Y187699D02*
X529200D01*
X390500Y186799D02*
X529200D01*
X390500Y185899D02*
X529200D01*
X390500Y184999D02*
X529200D01*
X390500Y184099D02*
X529200D01*
X390500Y183199D02*
X529200D01*
X390500Y182299D02*
X529200D01*
X390500Y181399D02*
X529200D01*
X390500Y180499D02*
X529200D01*
X390500Y179599D02*
X529200D01*
X390500Y178699D02*
X529200D01*
X390500Y177799D02*
X529200D01*
X390500Y176899D02*
X529200D01*
X390500Y175999D02*
X529200D01*
X390500Y175099D02*
X529200D01*
X390500Y174199D02*
X529200D01*
X390500Y173299D02*
X529200D01*
X390500Y172399D02*
X529200D01*
X390500Y171499D02*
X529200D01*
X390500Y170599D02*
X529200D01*
X390500Y169699D02*
X529200D01*
X390500Y168799D02*
X529200D01*
X390500Y167899D02*
X529200D01*
X390500Y166999D02*
X529200D01*
X390500Y166099D02*
X529200D01*
X390500Y165199D02*
X529200D01*
X390500Y164299D02*
X529200D01*
X390500Y163399D02*
X529200D01*
X390500Y162499D02*
X529200D01*
X390500Y161599D02*
X529200D01*
X390500Y160699D02*
X529200D01*
X390500Y159799D02*
X529200D01*
X390500Y158899D02*
X529200D01*
X390500Y157999D02*
X529200D01*
X390500Y157099D02*
X529200D01*
X390500Y156199D02*
X529200D01*
X514700Y292099D02*
X529197D01*
X528039Y274999D02*
X529097D01*
X390500Y346999D02*
X529094D01*
X390500Y150799D02*
X529036D01*
X390500Y206599D02*
X528597D01*
X516686Y311899D02*
X528383D01*
X390500Y155299D02*
X528324D01*
X514700Y292999D02*
X528297D01*
X390500Y346099D02*
X528194D01*
X390500Y151699D02*
X528190D01*
X390500Y154399D02*
X527860D01*
X390500Y152599D02*
X527802D01*
X390500Y153499D02*
X527702D01*
X390500Y207499D02*
X527697D01*
X516467Y312799D02*
X527483D01*
X390500Y345199D02*
X527294D01*
X390500Y208399D02*
X526797D01*
X515916Y313699D02*
X526583D01*
X390500Y209299D02*
X525897D01*
X514617Y314599D02*
X525683D01*
X390500Y210199D02*
X524997D01*
X514700Y293899D02*
X524797D01*
X460903Y315499D02*
X524783D01*
X390500Y344299D02*
X524448D01*
X390500Y338899D02*
X524136D01*
X514716Y294799D02*
X523897D01*
X461803Y316399D02*
X523883D01*
X480097Y273199D02*
X523453D01*
X390500Y343399D02*
X523424D01*
X390500Y339799D02*
X523290D01*
X470485Y263299D02*
X523125D01*
X474085Y266899D02*
X523123D01*
X519406Y283999D02*
X523001D01*
X515645Y295699D02*
X522997D01*
X390500Y342499D02*
X522960D01*
X390500Y340699D02*
X522902D01*
X390500Y341599D02*
X522802D01*
X471385Y264199D02*
X522561D01*
X473185Y265999D02*
X522560D01*
X480605Y274099D02*
X522426D01*
X472285Y265099D02*
X522400D01*
X520306Y283099D02*
X522228D01*
X516070Y296599D02*
X522097D01*
X390500Y211099D02*
X522084D01*
X480794Y274999D02*
X521961D01*
X521206Y282199D02*
X521877D01*
X480723Y275899D02*
X521802D01*
X480372Y276799D02*
X521797D01*
X516200Y297499D02*
X521197D01*
X390500Y211999D02*
X521155D01*
X479599Y277699D02*
X520897D01*
X390500Y212899D02*
X520730D01*
X517371Y214699D02*
X520729D01*
X517406Y310099D02*
X520723D01*
X390500Y213799D02*
X520600D01*
X516071Y298399D02*
X520297D01*
X518306Y309199D02*
X520025D01*
X390500Y278599D02*
X519997D01*
X519206Y308299D02*
X519766D01*
X515647Y299299D02*
X519397D01*
X390500Y279499D02*
X519097D01*
X514720Y300199D02*
X518497D01*
X390500Y280399D02*
X518197D01*
X483497Y301099D02*
X517597D01*
X390500Y281299D02*
X517297D01*
X484623Y301999D02*
X516697D01*
X390500Y282199D02*
X516397D01*
X485030Y302899D02*
X515797D01*
X390500Y283099D02*
X515497D01*
X485083Y303799D02*
X514897D01*
X390500Y283999D02*
X514597D01*
X390500Y284899D02*
X513697D01*
X481884Y285799D02*
X512797D01*
X460003Y314599D02*
X512383D01*
X484807Y304699D02*
X512150D01*
X482751Y286699D02*
X511897D01*
X483069Y287599D02*
X511348D01*
X493661Y143599D02*
X511339D01*
X483069Y293899D02*
X511300D01*
X483051Y292999D02*
X511300D01*
X482690Y292099D02*
X511300D01*
X481710Y291199D02*
X511300D01*
X481715Y290299D02*
X511300D01*
X482692Y289399D02*
X511300D01*
X483052Y288499D02*
X511300D01*
X482752Y294799D02*
X511284D01*
X482807Y300199D02*
X511280D01*
X459103Y313699D02*
X511084D01*
X484035Y305599D02*
X511003D01*
X454603Y309199D02*
X510728D01*
X455503Y310099D02*
X510674D01*
X458203Y312799D02*
X510533D01*
X390500Y306499D02*
X510495D01*
X452210Y308299D02*
X510377D01*
X456403Y310999D02*
X510357D01*
X481888Y295699D02*
X510355D01*
X483083Y299299D02*
X510353D01*
X457303Y311899D02*
X510314D01*
X451364Y307399D02*
X510306D01*
X481497Y296599D02*
X509930D01*
X483030Y298399D02*
X509929D01*
X482623Y297499D02*
X509800D01*
X505666Y130999D02*
X509521D01*
X505531Y122899D02*
X509323D01*
X495852Y111199D02*
X509148D01*
X496024Y142699D02*
X508976D01*
X503919Y131899D02*
X508156D01*
X503499Y121999D02*
X508039D01*
X497068Y112099D02*
X507932D01*
X497176Y141799D02*
X507824D01*
X497719Y132799D02*
X507281D01*
X497800Y121099D02*
X507200D01*
X497874Y112999D02*
X507126D01*
X497949Y140899D02*
X507051D01*
X498330Y133699D02*
X506670D01*
X498387Y120199D02*
X506613D01*
X498439Y113899D02*
X506561D01*
X498492Y139999D02*
X506508D01*
X498755Y134599D02*
X506245D01*
X498793Y119299D02*
X506207D01*
X498828Y114799D02*
X506172D01*
X498863Y139099D02*
X506137D01*
X499030Y135499D02*
X505970D01*
X499052Y118399D02*
X505948D01*
X499072Y115699D02*
X505928D01*
X499092Y138199D02*
X505908D01*
X499173Y136399D02*
X505827D01*
X499181Y117499D02*
X505819D01*
X499188Y116599D02*
X505812D01*
X499193Y137299D02*
X505807D01*
X496961Y121999D02*
X501501D01*
X496844Y131899D02*
X501081D01*
X495677Y122899D02*
X499469D01*
X495479Y130999D02*
X499334D01*
X455819Y435199D02*
X499181D01*
X440970Y123799D02*
X498530D01*
X441051Y130099D02*
X498449D01*
X456760Y430699D02*
X498240D01*
X441551Y124699D02*
X497949D01*
X441602Y129199D02*
X497898D01*
X457150Y434299D02*
X497850D01*
X441904Y125599D02*
X497596D01*
X441932Y128299D02*
X497568D01*
X457455Y431599D02*
X497545D01*
X442075Y126499D02*
X497425D01*
X442084Y127399D02*
X497416D01*
X457604Y433399D02*
X497396D01*
X457692Y432499D02*
X497308D01*
X390500Y416299D02*
X495285D01*
X390500Y411799D02*
X495116D01*
X494620Y322699D02*
X495020D01*
X390500Y415399D02*
X494308D01*
X390500Y412699D02*
X494249D01*
X390500Y414499D02*
X493948D01*
X390500Y413599D02*
X493931D01*
X493720Y323599D02*
X493888D01*
X492820Y324499D02*
X492988D01*
X419210Y214699D02*
X492829D01*
X462703Y317299D02*
X492437D01*
X491920Y325399D02*
X492088D01*
X458115Y215599D02*
X491697D01*
X463603Y318199D02*
X491483D01*
X448161Y143599D02*
X491339D01*
X491020Y326299D02*
X491188D01*
X458826Y216499D02*
X490797D01*
X464503Y319099D02*
X490583D01*
X489085Y327199D02*
X490288D01*
X459143Y217399D02*
X489897D01*
X465403Y319999D02*
X489683D01*
X449979Y130999D02*
X489521D01*
X473503Y328099D02*
X489388D01*
X450177Y122899D02*
X489323D01*
X450352Y111199D02*
X489148D01*
X459186Y218299D02*
X488997D01*
X450524Y142699D02*
X488976D01*
X466303Y320899D02*
X488783D01*
X451344Y131899D02*
X488156D01*
X458967Y219199D02*
X488097D01*
X451461Y121999D02*
X488039D01*
X451568Y112099D02*
X487932D01*
X487216Y321799D02*
X487883D01*
X451676Y141799D02*
X487824D01*
X452219Y132799D02*
X487281D01*
X452300Y121099D02*
X487200D01*
X458416Y220099D02*
X487197D01*
X452374Y112999D02*
X487126D01*
X452449Y140899D02*
X487051D01*
X452830Y133699D02*
X486670D01*
X452887Y120199D02*
X486613D01*
X452939Y113899D02*
X486561D01*
X452992Y139999D02*
X486508D01*
X468661Y494599D02*
X486339D01*
X457700Y220999D02*
X486297D01*
X453255Y134599D02*
X486245D01*
X453293Y119299D02*
X486207D01*
X453328Y114799D02*
X486172D01*
X453363Y139099D02*
X486137D01*
X453530Y135499D02*
X485970D01*
X453552Y118399D02*
X485948D01*
X453572Y115699D02*
X485928D01*
X453592Y138199D02*
X485908D01*
X453673Y136399D02*
X485827D01*
X453681Y117499D02*
X485819D01*
X453688Y116599D02*
X485812D01*
X453693Y137299D02*
X485807D01*
X457700Y221899D02*
X485397D01*
X480666Y481999D02*
X484521D01*
X457700Y222799D02*
X484497D01*
X480531Y473899D02*
X484323D01*
X470852Y462199D02*
X484148D01*
X471024Y493699D02*
X483976D01*
X467203Y321799D02*
X483784D01*
X472603Y327199D02*
X483780D01*
X457700Y223699D02*
X483597D01*
X478919Y482899D02*
X483156D01*
X478499Y472999D02*
X483039D01*
X472068Y463099D02*
X482932D01*
X468103Y322699D02*
X482855D01*
X471703Y326299D02*
X482853D01*
X472176Y492799D02*
X482824D01*
X457700Y224599D02*
X482697D01*
X469003Y323599D02*
X482430D01*
X470803Y325399D02*
X482429D01*
X469903Y324499D02*
X482300D01*
X472719Y483799D02*
X482281D01*
X472800Y472099D02*
X482200D01*
X472874Y463999D02*
X482126D01*
X472949Y491899D02*
X482051D01*
X457700Y225499D02*
X481797D01*
X473330Y484699D02*
X481670D01*
X473387Y471199D02*
X481613D01*
X473439Y464899D02*
X481561D01*
X473492Y490999D02*
X481508D01*
X473755Y485599D02*
X481245D01*
X473793Y470299D02*
X481207D01*
X473828Y465799D02*
X481172D01*
X473863Y490099D02*
X481137D01*
X474030Y486499D02*
X480970D01*
X390500Y305599D02*
X480965D01*
X474052Y469399D02*
X480948D01*
X474072Y466699D02*
X480928D01*
X474092Y489199D02*
X480908D01*
X457700Y226399D02*
X480897D01*
X474173Y487399D02*
X480827D01*
X474181Y468499D02*
X480819D01*
X474188Y467599D02*
X480812D01*
X474193Y488299D02*
X480807D01*
X390500Y301999D02*
X480377D01*
X390500Y304699D02*
X480193D01*
X390500Y302899D02*
X479970D01*
X390500Y303799D02*
X479917D01*
X390500Y296599D02*
X479503D01*
X390500Y291199D02*
X479290D01*
X390500Y290299D02*
X479285D01*
X390500Y285799D02*
X479116D01*
X390500Y295699D02*
X479112D01*
X390500Y301099D02*
X478965D01*
X390500Y297499D02*
X478377D01*
X390500Y292099D02*
X478310D01*
X390500Y289399D02*
X478308D01*
X390500Y286699D02*
X478249D01*
X390500Y294799D02*
X478248D01*
X390500Y300199D02*
X478193D01*
X457700Y227299D02*
X478150D01*
X390500Y298399D02*
X477970D01*
X390500Y292999D02*
X477949D01*
X390500Y288499D02*
X477948D01*
X390500Y287599D02*
X477931D01*
X390500Y293899D02*
X477931D01*
X390500Y299299D02*
X477917D01*
X457700Y232699D02*
X477501D01*
X457700Y228199D02*
X477003D01*
X457700Y231799D02*
X476728D01*
X471961Y472999D02*
X476501D01*
X457700Y229099D02*
X476495D01*
X457700Y230899D02*
X476377D01*
X457700Y229999D02*
X476306D01*
X471844Y482899D02*
X476081D01*
X390500Y277699D02*
X475601D01*
X390500Y273199D02*
X475103D01*
X390500Y276799D02*
X474828D01*
X390500Y272299D02*
X474676D01*
X390500Y274099D02*
X474595D01*
X390500Y275899D02*
X474477D01*
X470677Y473899D02*
X474469D01*
X390500Y274999D02*
X474406D01*
X470479Y481999D02*
X474334D01*
X390500Y271399D02*
X473776D01*
X390500Y474799D02*
X473530D01*
X390500Y481099D02*
X473449D01*
X390500Y475699D02*
X472949D01*
X390500Y331699D02*
X472933D01*
X390500Y480199D02*
X472898D01*
X390500Y270499D02*
X472876D01*
X390500Y476599D02*
X472596D01*
X390500Y479299D02*
X472568D01*
X390500Y477499D02*
X472425D01*
X390500Y478399D02*
X472416D01*
X390500Y269599D02*
X471976D01*
X390500Y330799D02*
X471394D01*
X390500Y268699D02*
X471076D01*
X390500Y329899D02*
X470494D01*
X390500Y267799D02*
X470176D01*
X390500Y328999D02*
X469594D01*
X390500Y266899D02*
X469276D01*
X390500Y328099D02*
X468694D01*
X390500Y265999D02*
X468376D01*
X390500Y327199D02*
X467794D01*
X390500Y265099D02*
X467476D01*
X390500Y326299D02*
X466894D01*
X390500Y264199D02*
X466576D01*
X390500Y494599D02*
X466339D01*
X390500Y325399D02*
X465994D01*
X390500Y263299D02*
X465676D01*
X390500Y324499D02*
X465094D01*
X390500Y262399D02*
X464776D01*
X390500Y481999D02*
X464521D01*
X390500Y473899D02*
X464323D01*
X390500Y323599D02*
X464194D01*
X390500Y462199D02*
X464148D01*
X390500Y493699D02*
X463976D01*
X390500Y261499D02*
X463876D01*
X390500Y322699D02*
X463294D01*
X390500Y482899D02*
X463156D01*
X390500Y472999D02*
X463039D01*
X390500Y260599D02*
X462976D01*
X390500Y463099D02*
X462932D01*
X390500Y492799D02*
X462824D01*
X390500Y321799D02*
X462394D01*
X390500Y483799D02*
X462281D01*
X390500Y472099D02*
X462200D01*
X390500Y463999D02*
X462126D01*
X390500Y259699D02*
X462076D01*
X390500Y491899D02*
X462051D01*
X390500Y484699D02*
X461670D01*
X390500Y471199D02*
X461613D01*
X390500Y464899D02*
X461561D01*
X390500Y490999D02*
X461508D01*
X390500Y320899D02*
X461494D01*
X390500Y485599D02*
X461245D01*
X390500Y470299D02*
X461207D01*
X390500Y258799D02*
X461176D01*
X390500Y465799D02*
X461172D01*
X390500Y490099D02*
X461137D01*
X390500Y486499D02*
X460970D01*
X390500Y469399D02*
X460948D01*
X390500Y466699D02*
X460928D01*
X390500Y489199D02*
X460908D01*
X390500Y487399D02*
X460827D01*
X390500Y468499D02*
X460819D01*
X390500Y467599D02*
X460812D01*
X390500Y488299D02*
X460807D01*
X390500Y319999D02*
X460594D01*
X390500Y257899D02*
X460276D01*
X390500Y319099D02*
X459694D01*
X390500Y256999D02*
X459376D01*
X390500Y318199D02*
X458794D01*
X390500Y256099D02*
X458476D01*
X390500Y317299D02*
X457894D01*
X390500Y255199D02*
X457576D01*
X390500Y316399D02*
X456994D01*
X390500Y254299D02*
X456676D01*
X390500Y315499D02*
X456094D01*
X390500Y253399D02*
X455776D01*
X390500Y314599D02*
X455194D01*
X390500Y252499D02*
X454876D01*
X390500Y435199D02*
X454381D01*
X390500Y251599D02*
X454343D01*
X390500Y250699D02*
X454300D01*
X390500Y249799D02*
X454300D01*
X390500Y248899D02*
X454300D01*
X390500Y247999D02*
X454300D01*
X390500Y247099D02*
X454300D01*
X390500Y246199D02*
X454300D01*
X390500Y245299D02*
X454300D01*
X390500Y244399D02*
X454300D01*
X390500Y243499D02*
X454300D01*
X390500Y242599D02*
X454300D01*
X390500Y241699D02*
X454300D01*
X390500Y240799D02*
X454300D01*
X390500Y239899D02*
X454300D01*
X390500Y238999D02*
X454300D01*
X390500Y238099D02*
X454300D01*
X390500Y237199D02*
X454300D01*
X390500Y236299D02*
X454300D01*
X390500Y235399D02*
X454300D01*
X390500Y234499D02*
X454300D01*
X390500Y233599D02*
X454300D01*
X390500Y232699D02*
X454300D01*
X390500Y231799D02*
X454300D01*
X390500Y230899D02*
X454300D01*
X390500Y229999D02*
X454300D01*
X390500Y229099D02*
X454300D01*
X390500Y228199D02*
X454300D01*
X390500Y227299D02*
X454300D01*
X390500Y226399D02*
X454300D01*
X390500Y225499D02*
X454300D01*
X390500Y224599D02*
X454300D01*
X390500Y223699D02*
X454300D01*
X390500Y222799D02*
X454300D01*
X390500Y221899D02*
X454300D01*
X390500Y220999D02*
X454300D01*
X390500Y313699D02*
X454294D01*
X420190Y215599D02*
X453885D01*
X390500Y220099D02*
X453584D01*
X390500Y430699D02*
X453440D01*
X451052Y312799D02*
X453394D01*
X420551Y216499D02*
X453174D01*
X390500Y434299D02*
X453050D01*
X419388Y219199D02*
X453033D01*
X420569Y217399D02*
X452857D01*
X420252Y218299D02*
X452814D01*
X390500Y431599D02*
X452745D01*
X390500Y433399D02*
X452596D01*
X390500Y432499D02*
X452508D01*
X452076Y311899D02*
X452494D01*
X390500Y312799D02*
X447948D01*
X390500Y307399D02*
X447636D01*
X390500Y311899D02*
X446924D01*
X390500Y308299D02*
X446790D01*
X390500Y310999D02*
X446460D01*
X390500Y309199D02*
X446402D01*
X390500Y310099D02*
X446302D01*
X428161Y143599D02*
X445839D01*
X440166Y130999D02*
X444021D01*
X440031Y122899D02*
X443823D01*
X430352Y111199D02*
X443648D01*
X430524Y142699D02*
X443476D01*
X438419Y131899D02*
X442656D01*
X437999Y121999D02*
X442539D01*
X431568Y112099D02*
X442432D01*
X431676Y141799D02*
X442324D01*
X432219Y132799D02*
X441781D01*
X432300Y121099D02*
X441700D01*
X432374Y112999D02*
X441626D01*
X432449Y140899D02*
X441551D01*
X432830Y133699D02*
X441170D01*
X432887Y120199D02*
X441113D01*
X432939Y113899D02*
X441061D01*
X432992Y139999D02*
X441008D01*
X433255Y134599D02*
X440745D01*
X433293Y119299D02*
X440707D01*
X433328Y114799D02*
X440672D01*
X433363Y139099D02*
X440637D01*
X433530Y135499D02*
X440470D01*
X433552Y118399D02*
X440448D01*
X433572Y115699D02*
X440428D01*
X433592Y138199D02*
X440408D01*
X433673Y136399D02*
X440327D01*
X433681Y117499D02*
X440319D01*
X433688Y116599D02*
X440312D01*
X433693Y137299D02*
X440307D01*
X431461Y121999D02*
X436001D01*
X431344Y131899D02*
X435581D01*
X430177Y122899D02*
X433969D01*
X429979Y130999D02*
X433834D01*
X390500Y123799D02*
X433030D01*
X390500Y130099D02*
X432949D01*
X390500Y124699D02*
X432449D01*
X390500Y129199D02*
X432398D01*
X390500Y125599D02*
X432096D01*
X390500Y128299D02*
X432068D01*
X390500Y126499D02*
X431925D01*
X390500Y127399D02*
X431916D01*
X390500Y143599D02*
X425839D01*
X390500Y130999D02*
X424021D01*
X390500Y122899D02*
X423823D01*
X390500Y111199D02*
X423648D01*
X390500Y142699D02*
X423476D01*
X390500Y131899D02*
X422656D01*
X390500Y121999D02*
X422539D01*
X390500Y112099D02*
X422432D01*
X390500Y141799D02*
X422324D01*
X390500Y132799D02*
X421781D01*
X390500Y121099D02*
X421700D01*
X390500Y112999D02*
X421626D01*
X390500Y140899D02*
X421551D01*
X390500Y133699D02*
X421170D01*
X390500Y120199D02*
X421113D01*
X390500Y113899D02*
X421061D01*
X390500Y139999D02*
X421008D01*
X390500Y134599D02*
X420745D01*
X390500Y119299D02*
X420707D01*
X390500Y114799D02*
X420672D01*
X390500Y139099D02*
X420637D01*
X390500Y135499D02*
X420470D01*
X390500Y118399D02*
X420448D01*
X390500Y115699D02*
X420428D01*
X390500Y138199D02*
X420408D01*
X390500Y136399D02*
X420327D01*
X390500Y117499D02*
X420319D01*
X390500Y116599D02*
X420312D01*
X390500Y137299D02*
X420307D01*
X390500Y214699D02*
X416790D01*
X390500Y219199D02*
X416612D01*
X390500Y215599D02*
X415810D01*
X390500Y218299D02*
X415748D01*
X390500Y216499D02*
X415449D01*
X390500Y217399D02*
X415431D01*
X104000Y500899D02*
X373000D01*
X104000Y499999D02*
X373000D01*
X104000Y499099D02*
X373000D01*
X104000Y498199D02*
X373000D01*
X104000Y497299D02*
X373000D01*
X104000Y496399D02*
X373000D01*
X104000Y495499D02*
X373000D01*
X202161Y494599D02*
X373000D01*
X319161Y493699D02*
X373000D01*
X320338Y492799D02*
X373000D01*
X321056Y491899D02*
X373000D01*
X321517Y490999D02*
X373000D01*
X321787Y490099D02*
X373000D01*
X321896Y489199D02*
X373000D01*
X321854Y488299D02*
X373000D01*
X321657Y487399D02*
X373000D01*
X321286Y486499D02*
X373000D01*
X320694Y485599D02*
X373000D01*
X319765Y484699D02*
X373000D01*
X317951Y483799D02*
X373000D01*
X205344Y482899D02*
X373000D01*
X203979Y481999D02*
X373000D01*
X195051Y481099D02*
X373000D01*
X195602Y480199D02*
X373000D01*
X195932Y479299D02*
X373000D01*
X196084Y478399D02*
X373000D01*
X196075Y477499D02*
X373000D01*
X195904Y476599D02*
X373000D01*
X195551Y475699D02*
X373000D01*
X194970Y474799D02*
X373000D01*
X204177Y473899D02*
X373000D01*
X319607Y472999D02*
X373000D01*
X320861Y472099D02*
X373000D01*
X321673Y471199D02*
X373000D01*
X322235Y470299D02*
X373000D01*
X322615Y469399D02*
X373000D01*
X322846Y468499D02*
X373000D01*
X322945Y467599D02*
X373000D01*
X322917Y466699D02*
X373000D01*
X322762Y465799D02*
X373000D01*
X322468Y464899D02*
X373000D01*
X322013Y463999D02*
X373000D01*
X321354Y463099D02*
X373000D01*
X320386Y462199D02*
X373000D01*
X318742Y461299D02*
X373000D01*
X104000Y460399D02*
X373000D01*
X104000Y459499D02*
X373000D01*
X104000Y458599D02*
X373000D01*
X104000Y457699D02*
X373000D01*
X104000Y456799D02*
X373000D01*
X104000Y455899D02*
X373000D01*
X104000Y454999D02*
X373000D01*
X104000Y454099D02*
X373000D01*
X104000Y453199D02*
X373000D01*
X104000Y452299D02*
X373000D01*
X104000Y451399D02*
X373000D01*
X104000Y450499D02*
X373000D01*
X104000Y449599D02*
X373000D01*
X104000Y448699D02*
X373000D01*
X104000Y447799D02*
X373000D01*
X104000Y446899D02*
X373000D01*
X104000Y445999D02*
X373000D01*
X104000Y445099D02*
X373000D01*
X104000Y444199D02*
X373000D01*
X104000Y443299D02*
X373000D01*
X104000Y442399D02*
X373000D01*
X104000Y441499D02*
X373000D01*
X104000Y440599D02*
X373000D01*
X104000Y439699D02*
X373000D01*
X104000Y438799D02*
X373000D01*
X104000Y437899D02*
X373000D01*
X104000Y436999D02*
X373000D01*
X104000Y436099D02*
X373000D01*
X214119Y435199D02*
X373000D01*
X215450Y434299D02*
X373000D01*
X215904Y433399D02*
X373000D01*
X215992Y432499D02*
X373000D01*
X265470Y431599D02*
X373000D01*
X266561Y430699D02*
X373000D01*
X267138Y429799D02*
X373000D01*
X267435Y428899D02*
X373000D01*
X267514Y427999D02*
X373000D01*
X267389Y427099D02*
X373000D01*
X282852Y426199D02*
X373000D01*
X283624Y425299D02*
X373000D01*
X283921Y424399D02*
X373000D01*
X283904Y423499D02*
X373000D01*
X283566Y422599D02*
X373000D01*
X282706Y421699D02*
X373000D01*
X104000Y420799D02*
X373000D01*
X104000Y419899D02*
X373000D01*
X104000Y418999D02*
X373000D01*
X104000Y418099D02*
X373000D01*
X104000Y417199D02*
X373000D01*
X211215Y416299D02*
X373000D01*
X212192Y415399D02*
X373000D01*
X212552Y414499D02*
X373000D01*
X212569Y413599D02*
X373000D01*
X212251Y412699D02*
X373000D01*
X211384Y411799D02*
X373000D01*
X104000Y410899D02*
X373000D01*
X292663Y409999D02*
X373000D01*
X293356Y409099D02*
X373000D01*
X293592Y408199D02*
X373000D01*
X293504Y407299D02*
X373000D01*
X293048Y406399D02*
X373000D01*
X291710Y405499D02*
X373000D01*
X104000Y404599D02*
X373000D01*
X104000Y403699D02*
X373000D01*
X104000Y402799D02*
X373000D01*
X104000Y401899D02*
X373000D01*
X104000Y400999D02*
X373000D01*
X104000Y400099D02*
X373000D01*
X317652Y399199D02*
X373000D01*
X318424Y398299D02*
X373000D01*
X318721Y397399D02*
X373000D01*
X318704Y396499D02*
X373000D01*
X318366Y395599D02*
X373000D01*
X317506Y394699D02*
X373000D01*
X104000Y393799D02*
X373000D01*
X104000Y392899D02*
X373000D01*
X104000Y391999D02*
X373000D01*
X104000Y391099D02*
X373000D01*
X104000Y390199D02*
X373000D01*
X104000Y389299D02*
X373000D01*
X104000Y388399D02*
X373000D01*
X104000Y387499D02*
X373000D01*
X104000Y386599D02*
X373000D01*
X104000Y385699D02*
X373000D01*
X104000Y384799D02*
X373000D01*
X104000Y383899D02*
X373000D01*
X104000Y382999D02*
X373000D01*
X104000Y382099D02*
X373000D01*
X104000Y381199D02*
X373000D01*
X104000Y380299D02*
X373000D01*
X104000Y379399D02*
X373000D01*
X104000Y378499D02*
X373000D01*
X104000Y377599D02*
X373000D01*
X104000Y376699D02*
X373000D01*
X104000Y375799D02*
X373000D01*
X282910Y374899D02*
X373000D01*
X283768Y373999D02*
X373000D01*
X284104Y373099D02*
X373000D01*
X284121Y372199D02*
X373000D01*
X283823Y371299D02*
X373000D01*
X283048Y370399D02*
X373000D01*
X104000Y369499D02*
X373000D01*
X104000Y368599D02*
X373000D01*
X104000Y367699D02*
X373000D01*
X104000Y366799D02*
X373000D01*
X104000Y365899D02*
X373000D01*
X104000Y364999D02*
X373000D01*
X104000Y364099D02*
X373000D01*
X104000Y363199D02*
X373000D01*
X104000Y362299D02*
X373000D01*
X104000Y361399D02*
X373000D01*
X104000Y360499D02*
X373000D01*
X294899Y359599D02*
X373000D01*
X296425Y358699D02*
X373000D01*
X297025Y357799D02*
X373000D01*
X297275Y356899D02*
X373000D01*
X297261Y355999D02*
X373000D01*
X296977Y355099D02*
X373000D01*
X296324Y354199D02*
X373000D01*
X253703Y353299D02*
X373000D01*
X252803Y352399D02*
X373000D01*
X251903Y351499D02*
X373000D01*
X251003Y350599D02*
X373000D01*
X250103Y349699D02*
X373000D01*
X249203Y348799D02*
X373000D01*
X317345Y347899D02*
X373000D01*
X318306Y346999D02*
X373000D01*
X318684Y346099D02*
X373000D01*
X318733Y345199D02*
X373000D01*
X318474Y344299D02*
X373000D01*
X317774Y343399D02*
X373000D01*
X242903Y342499D02*
X373000D01*
X242698Y341599D02*
X373000D01*
X242598Y340699D02*
X373000D01*
X242210Y339799D02*
X373000D01*
X241364Y338899D02*
X373000D01*
X104000Y337999D02*
X373000D01*
X104000Y337099D02*
X373000D01*
X104000Y336199D02*
X373000D01*
X104000Y335299D02*
X373000D01*
X265775Y334399D02*
X373000D01*
X267088Y333499D02*
X373000D01*
X267852Y332599D02*
X373000D01*
X268337Y331699D02*
X373000D01*
X268621Y330799D02*
X373000D01*
X268739Y329899D02*
X373000D01*
X268700Y328999D02*
X373000D01*
X268501Y328099D02*
X373000D01*
X288720Y327199D02*
X373000D01*
X289647Y326299D02*
X373000D01*
X290071Y325399D02*
X373000D01*
X290200Y324499D02*
X373000D01*
X290070Y323599D02*
X373000D01*
X289645Y322699D02*
X373000D01*
X288716Y321799D02*
X373000D01*
X240520Y320899D02*
X373000D01*
X241420Y319999D02*
X373000D01*
X242320Y319099D02*
X373000D01*
X243220Y318199D02*
X373000D01*
X244120Y317299D02*
X373000D01*
X245020Y316399D02*
X373000D01*
X247852Y315499D02*
X373000D01*
X248876Y314599D02*
X373000D01*
X249340Y313699D02*
X373000D01*
X249498Y312799D02*
X373000D01*
X249398Y311899D02*
X373000D01*
X249010Y310999D02*
X373000D01*
X248164Y310099D02*
X373000D01*
X238475Y309199D02*
X373000D01*
X238734Y308299D02*
X373000D01*
X238683Y307399D02*
X373000D01*
X291719Y306499D02*
X373000D01*
X293050Y305599D02*
X373000D01*
X293504Y304699D02*
X373000D01*
X293592Y303799D02*
X373000D01*
X293355Y302899D02*
X373000D01*
X292660Y301999D02*
X373000D01*
X239424Y301099D02*
X373000D01*
X236806Y300199D02*
X373000D01*
X237706Y299299D02*
X373000D01*
X238606Y298399D02*
X373000D01*
X239506Y297499D02*
X373000D01*
X240406Y296599D02*
X373000D01*
X316529Y295699D02*
X373000D01*
X318080Y294799D02*
X373000D01*
X318599Y293899D02*
X373000D01*
X318750Y292999D02*
X373000D01*
X318598Y292099D02*
X373000D01*
X318078Y291199D02*
X373000D01*
X316515Y290299D02*
X373000D01*
X252325Y289399D02*
X373000D01*
X252925Y288499D02*
X373000D01*
X253175Y287599D02*
X373000D01*
X253161Y286699D02*
X373000D01*
X252877Y285799D02*
X373000D01*
X252224Y284899D02*
X373000D01*
X240499Y283999D02*
X373000D01*
X241272Y283099D02*
X373000D01*
X241623Y282199D02*
X373000D01*
X241694Y281299D02*
X373000D01*
X242006Y280399D02*
X373000D01*
X354204Y279499D02*
X373000D01*
X355634Y278599D02*
X373000D01*
X356287Y277699D02*
X373000D01*
X356613Y276799D02*
X373000D01*
X356699Y275899D02*
X373000D01*
X356562Y274999D02*
X373000D01*
X356174Y274099D02*
X373000D01*
X355417Y273199D02*
X373000D01*
X250106Y272299D02*
X373000D01*
X251006Y271399D02*
X373000D01*
X251906Y270499D02*
X373000D01*
X252806Y269599D02*
X373000D01*
X253706Y268699D02*
X373000D01*
X254606Y267799D02*
X373000D01*
X255506Y266899D02*
X373000D01*
X256406Y265999D02*
X373000D01*
X257306Y265099D02*
X373000D01*
X258206Y264199D02*
X373000D01*
X259106Y263299D02*
X373000D01*
X260006Y262399D02*
X373000D01*
X260906Y261499D02*
X373000D01*
X261806Y260599D02*
X373000D01*
X310092Y259699D02*
X373000D01*
X312226Y258799D02*
X373000D01*
X312878Y257899D02*
X373000D01*
X313161Y256999D02*
X373000D01*
X313175Y256099D02*
X373000D01*
X312923Y255199D02*
X373000D01*
X312323Y254299D02*
X373000D01*
X311700Y253399D02*
X373000D01*
X311624Y252499D02*
X373000D01*
X311003Y251599D02*
X373000D01*
X310103Y250699D02*
X373000D01*
X309203Y249799D02*
X373000D01*
X308303Y248899D02*
X373000D01*
X351204Y247999D02*
X373000D01*
X352634Y247099D02*
X373000D01*
X353287Y246199D02*
X373000D01*
X353613Y245299D02*
X373000D01*
X353699Y244399D02*
X373000D01*
X353562Y243499D02*
X373000D01*
X353174Y242599D02*
X373000D01*
X352417Y241699D02*
X373000D01*
X336592Y240799D02*
X373000D01*
X336355Y239899D02*
X373000D01*
X335660Y238999D02*
X373000D01*
X299700Y238099D02*
X373000D01*
X309388Y237199D02*
X373000D01*
X310252Y236299D02*
X373000D01*
X310569Y235399D02*
X373000D01*
X310551Y234499D02*
X373000D01*
X310190Y233599D02*
X373000D01*
X309210Y232699D02*
X373000D01*
X272200Y231799D02*
X373000D01*
X272200Y230899D02*
X373000D01*
X272200Y229999D02*
X373000D01*
X272200Y229099D02*
X373000D01*
X337720Y228199D02*
X373000D01*
X338647Y227299D02*
X373000D01*
X339071Y226399D02*
X373000D01*
X339200Y225499D02*
X373000D01*
X339070Y224599D02*
X373000D01*
X338645Y223699D02*
X373000D01*
X349377Y222799D02*
X373000D01*
X349940Y221899D02*
X373000D01*
X350100Y220999D02*
X373000D01*
X349939Y220099D02*
X373000D01*
X349375Y219199D02*
X373000D01*
X340752Y218299D02*
X373000D01*
X341069Y217399D02*
X373000D01*
X341051Y216499D02*
X373000D01*
X340690Y215599D02*
X373000D01*
X339710Y214699D02*
X373000D01*
X328700Y213799D02*
X373000D01*
X328700Y212899D02*
X373000D01*
X328700Y211999D02*
X373000D01*
X328700Y211099D02*
X373000D01*
X328700Y210199D02*
X373000D01*
X328700Y209299D02*
X373000D01*
X328700Y208399D02*
X373000D01*
X328700Y207499D02*
X373000D01*
X328700Y206599D02*
X373000D01*
X328700Y205699D02*
X373000D01*
X328700Y204799D02*
X373000D01*
X328700Y203899D02*
X373000D01*
X328700Y202999D02*
X373000D01*
X328700Y202099D02*
X373000D01*
X328700Y201199D02*
X373000D01*
X328700Y200299D02*
X373000D01*
X328700Y199399D02*
X373000D01*
X328700Y198499D02*
X373000D01*
X328700Y197599D02*
X373000D01*
X328700Y196699D02*
X373000D01*
X328700Y195799D02*
X373000D01*
X328700Y194899D02*
X373000D01*
X328700Y193999D02*
X373000D01*
X328700Y193099D02*
X373000D01*
X328700Y192199D02*
X373000D01*
X328700Y191299D02*
X373000D01*
X328697Y190399D02*
X373000D01*
X328374Y189499D02*
X373000D01*
X327503Y188599D02*
X373000D01*
X326603Y187699D02*
X373000D01*
X325703Y186799D02*
X373000D01*
X324803Y185899D02*
X373000D01*
X323903Y184999D02*
X373000D01*
X323003Y184099D02*
X373000D01*
X322694Y183199D02*
X373000D01*
X322622Y182299D02*
X373000D01*
X322271Y181399D02*
X373000D01*
X321496Y180499D02*
X373000D01*
X312200Y179599D02*
X373000D01*
X312200Y178699D02*
X373000D01*
X312200Y177799D02*
X373000D01*
X312200Y176899D02*
X373000D01*
X312200Y175999D02*
X373000D01*
X312200Y175099D02*
X373000D01*
X312200Y174199D02*
X373000D01*
X312200Y173299D02*
X373000D01*
X312200Y172399D02*
X373000D01*
X312200Y171499D02*
X373000D01*
X312200Y170599D02*
X373000D01*
X312200Y169699D02*
X373000D01*
X312200Y168799D02*
X373000D01*
X312200Y167899D02*
X373000D01*
X312200Y166999D02*
X373000D01*
X312200Y166099D02*
X373000D01*
X312200Y165199D02*
X373000D01*
X312200Y164299D02*
X373000D01*
X312200Y163399D02*
X373000D01*
X312200Y162499D02*
X373000D01*
X312200Y161599D02*
X373000D01*
X312200Y160699D02*
X373000D01*
X312200Y159799D02*
X373000D01*
X312200Y158899D02*
X373000D01*
X312200Y157999D02*
X373000D01*
X312200Y157099D02*
X373000D01*
X312200Y156199D02*
X373000D01*
X344715Y155299D02*
X373000D01*
X345692Y154399D02*
X373000D01*
X346052Y153499D02*
X373000D01*
X346069Y152599D02*
X373000D01*
X345751Y151699D02*
X373000D01*
X344884Y150799D02*
X373000D01*
X311289Y149899D02*
X373000D01*
X299300Y148999D02*
X373000D01*
X299300Y148099D02*
X373000D01*
X299300Y147199D02*
X373000D01*
X299300Y146299D02*
X373000D01*
X299300Y145399D02*
X373000D01*
X299300Y144499D02*
X373000D01*
X299300Y143599D02*
X373000D01*
X299300Y142699D02*
X373000D01*
X299300Y141799D02*
X373000D01*
X299300Y140899D02*
X373000D01*
X299300Y139999D02*
X373000D01*
X299300Y139099D02*
X373000D01*
X299300Y138199D02*
X373000D01*
X299300Y137299D02*
X373000D01*
X299300Y136399D02*
X373000D01*
X299300Y135499D02*
X373000D01*
X299300Y134599D02*
X373000D01*
X299300Y133699D02*
X373000D01*
X299300Y132799D02*
X373000D01*
X299300Y131899D02*
X373000D01*
X299300Y130999D02*
X373000D01*
X299300Y130099D02*
X373000D01*
X299300Y129199D02*
X373000D01*
X299300Y128299D02*
X373000D01*
X299300Y127399D02*
X373000D01*
X299300Y126499D02*
X373000D01*
X299300Y125599D02*
X373000D01*
X299706Y124699D02*
X373000D01*
X300606Y123799D02*
X373000D01*
X301506Y122899D02*
X373000D01*
X302406Y121999D02*
X373000D01*
X315076Y121099D02*
X373000D01*
X316253Y120199D02*
X373000D01*
X316919Y119299D02*
X373000D01*
X317312Y118399D02*
X373000D01*
X317500Y117499D02*
X373000D01*
X317509Y116599D02*
X373000D01*
X317341Y115699D02*
X373000D01*
X316973Y114799D02*
X373000D01*
X316342Y113899D02*
X373000D01*
X315248Y112999D02*
X373000D01*
X230568Y112099D02*
X373000D01*
X229352Y111199D02*
X373000D01*
X104000Y110299D02*
X373000D01*
X104000Y109399D02*
X373000D01*
X104000Y108499D02*
X373000D01*
X104000Y107599D02*
X373000D01*
X104000Y106699D02*
X373000D01*
X104000Y105799D02*
X373000D01*
X104000Y104899D02*
X373000D01*
X327204Y279499D02*
X351796D01*
X328417Y273199D02*
X350583D01*
X328634Y278599D02*
X350366D01*
X329174Y274099D02*
X349826D01*
X329287Y277699D02*
X349713D01*
X329562Y274999D02*
X349438D01*
X329613Y276799D02*
X349387D01*
X329699Y275899D02*
X349301D01*
X307403Y247999D02*
X348796D01*
X336504Y241699D02*
X347583D01*
X328035Y247099D02*
X347366D01*
X336050Y242599D02*
X346826D01*
X328807Y246199D02*
X346713D01*
X334719Y243499D02*
X346438D01*
X329083Y245299D02*
X346387D01*
X329030Y244399D02*
X346301D01*
X339888Y219199D02*
X345625D01*
X337716Y222799D02*
X345623D01*
X337356Y220099D02*
X345061D01*
X334803Y221899D02*
X345060D01*
X336663Y220999D02*
X344900D01*
X312726Y155299D02*
X342285D01*
X312823Y150799D02*
X342116D01*
X313378Y154399D02*
X341308D01*
X313423Y151699D02*
X341249D01*
X313661Y153499D02*
X340948D01*
X313675Y152599D02*
X340931D01*
X328700Y214699D02*
X337290D01*
X328700Y215599D02*
X336310D01*
X335710Y216499D02*
X335949D01*
X329403D02*
X334290D01*
X272200Y228199D02*
X334280D01*
X272200Y227299D02*
X333353D01*
X328623Y243499D02*
X333281D01*
X330303Y217399D02*
X332952D01*
X288663Y226399D02*
X332929D01*
X289356Y225499D02*
X332800D01*
X289592Y224599D02*
X332694D01*
X331203Y218299D02*
X332496D01*
X332103Y219199D02*
X332408D01*
X299700Y238999D02*
X332340D01*
X327497Y242599D02*
X331950D01*
X289504Y223699D02*
X331794D01*
X299700Y239899D02*
X331645D01*
X301103Y241699D02*
X331496D01*
X300203Y240799D02*
X331408D01*
X289048Y222799D02*
X330894D01*
X287710Y221899D02*
X329994D01*
X272200Y220999D02*
X329094D01*
X272200Y220099D02*
X328194D01*
X319888Y219199D02*
X327294D01*
X320752Y218299D02*
X326394D01*
X321069Y217399D02*
X325557D01*
X302003Y242599D02*
X325503D01*
X321051Y216499D02*
X325300D01*
X320690Y215599D02*
X325300D01*
X319710Y214699D02*
X325300D01*
X272200Y213799D02*
X325300D01*
X273076Y212899D02*
X325300D01*
X273540Y211999D02*
X325300D01*
X273698Y211099D02*
X325300D01*
X273598Y210199D02*
X325300D01*
X273210Y209299D02*
X325300D01*
X272364Y208399D02*
X325300D01*
X269403Y207499D02*
X325300D01*
X268503Y206599D02*
X325300D01*
X267603Y205699D02*
X325300D01*
X266703Y204799D02*
X325300D01*
X265803Y203899D02*
X325300D01*
X264903Y202999D02*
X325300D01*
X264003Y202099D02*
X325300D01*
X263103Y201199D02*
X325300D01*
X262203Y200299D02*
X325300D01*
X257913Y199399D02*
X325300D01*
X256610Y198499D02*
X325300D01*
X255306Y197599D02*
X325300D01*
X256206Y196699D02*
X325300D01*
X321052Y195799D02*
X325300D01*
X322076Y194899D02*
X325300D01*
X322540Y193999D02*
X325300D01*
X322698Y193099D02*
X325300D01*
X322598Y192199D02*
X325300D01*
X322210Y191299D02*
X325300D01*
X306503Y247099D02*
X324965D01*
X291704Y279499D02*
X324796D01*
X321364Y190399D02*
X324494D01*
X302903Y243499D02*
X324377D01*
X305603Y246199D02*
X324193D01*
X303803Y244399D02*
X323970D01*
X304703Y245299D02*
X323917D01*
X321625Y189499D02*
X323594D01*
X292917Y273199D02*
X323583D01*
X293134Y278599D02*
X323366D01*
X293674Y274099D02*
X322826D01*
X293787Y277699D02*
X322713D01*
X322030Y188599D02*
X322694D01*
X294062Y274999D02*
X322438D01*
X294113Y276799D02*
X322387D01*
X294199Y275899D02*
X322301D01*
X314803Y185899D02*
X317969D01*
X257106Y195799D02*
X317948D01*
X312200Y180499D02*
X317504D01*
X305810Y214699D02*
X317290D01*
X315703Y186799D02*
X317194D01*
X305988Y219199D02*
X317112D01*
X313903Y184999D02*
X317001D01*
X258006Y194899D02*
X316924D01*
X316603Y187699D02*
X316917D01*
X312200Y181399D02*
X316729D01*
X313003Y184099D02*
X316495D01*
X258906Y193999D02*
X316460D01*
X312200Y182299D02*
X316378D01*
X306790Y215599D02*
X316310D01*
X312200Y183199D02*
X316306D01*
X259806Y193099D02*
X316302D01*
X297692Y192199D02*
X316294D01*
X306852Y218299D02*
X316248D01*
X307151Y216499D02*
X315949D01*
X307169Y217399D02*
X315931D01*
X250799Y290299D02*
X315485D01*
X243906Y295699D02*
X315471D01*
X299826Y191299D02*
X315394D01*
X206219Y483799D02*
X315049D01*
X248303Y347899D02*
X314655D01*
X300478Y190399D02*
X314494D01*
X104000Y394699D02*
X314494D01*
X104000Y399199D02*
X314348D01*
X104000Y461299D02*
X314258D01*
X243803Y343399D02*
X314226D01*
X248406Y291199D02*
X313922D01*
X244806Y294799D02*
X313920D01*
X204524Y493699D02*
X313839D01*
X247403Y346999D02*
X313694D01*
X104000Y395599D02*
X313634D01*
X300761Y189499D02*
X313594D01*
X104000Y398299D02*
X313576D01*
X244703Y344299D02*
X313526D01*
X247506Y292099D02*
X313402D01*
X245706Y293899D02*
X313401D01*
X205461Y472999D02*
X313393D01*
X246503Y346099D02*
X313316D01*
X104000Y396499D02*
X313296D01*
X104000Y397399D02*
X313279D01*
X245603Y345199D02*
X313267D01*
X246606Y292999D02*
X313250D01*
X206830Y484699D02*
X313235D01*
X304360Y188599D02*
X312694D01*
X205676Y492799D02*
X312662D01*
X204352Y462199D02*
X312614D01*
X207255Y485599D02*
X312306D01*
X206300Y472099D02*
X312139D01*
X206449Y491899D02*
X311944D01*
X306031Y187699D02*
X311794D01*
X207530Y486499D02*
X311714D01*
X205568Y463099D02*
X311646D01*
X206992Y490999D02*
X311483D01*
X207673Y487399D02*
X311343D01*
X206887Y471199D02*
X311327D01*
X207363Y490099D02*
X311213D01*
X207693Y488299D02*
X311146D01*
X207592Y489199D02*
X311104D01*
X206374Y463999D02*
X310987D01*
X306733Y186799D02*
X310894D01*
X207293Y470299D02*
X310765D01*
X307202Y121099D02*
X310672D01*
X206939Y464899D02*
X310532D01*
X307374Y112999D02*
X310500D01*
X207552Y469399D02*
X310385D01*
X207328Y465799D02*
X310238D01*
X207681Y468499D02*
X310154D01*
X207572Y466699D02*
X310083D01*
X207688Y467599D02*
X310055D01*
X307089Y185899D02*
X309994D01*
X262706Y259699D02*
X309908D01*
X299300Y149899D02*
X309711D01*
X308379Y120199D02*
X309495D01*
X308468Y113899D02*
X309406D01*
X307200Y184999D02*
X309124D01*
X307089Y184099D02*
X308803D01*
X306732Y183199D02*
X308800D01*
X306028Y182299D02*
X308800D01*
X304349Y181399D02*
X308800D01*
X299300Y180499D02*
X308800D01*
X299300Y179599D02*
X308800D01*
X299300Y178699D02*
X308800D01*
X299300Y177799D02*
X308800D01*
X299300Y176899D02*
X308800D01*
X299300Y175999D02*
X308800D01*
X299300Y175099D02*
X308800D01*
X299300Y174199D02*
X308800D01*
X299300Y173299D02*
X308800D01*
X299300Y172399D02*
X308800D01*
X299300Y171499D02*
X308800D01*
X299300Y170599D02*
X308800D01*
X299300Y169699D02*
X308800D01*
X299300Y168799D02*
X308800D01*
X299300Y167899D02*
X308800D01*
X299300Y166999D02*
X308800D01*
X299300Y166099D02*
X308800D01*
X299300Y165199D02*
X308800D01*
X299300Y164299D02*
X308800D01*
X299300Y163399D02*
X308800D01*
X299300Y162499D02*
X308800D01*
X299300Y161599D02*
X308800D01*
X299300Y160699D02*
X308800D01*
X299300Y159799D02*
X308800D01*
X299300Y158899D02*
X308800D01*
X299300Y157999D02*
X308800D01*
X299300Y157099D02*
X308800D01*
X299300Y156199D02*
X308800D01*
X299300Y155299D02*
X308274D01*
X299300Y150799D02*
X308177D01*
X288863Y253399D02*
X307994D01*
X263606Y258799D02*
X307774D01*
X268106Y254299D02*
X307677D01*
X299300Y154399D02*
X307622D01*
X299300Y151699D02*
X307577D01*
X299300Y153499D02*
X307339D01*
X299300Y152599D02*
X307325D01*
X264506Y257899D02*
X307122D01*
X289556Y252499D02*
X307094D01*
X267206Y255199D02*
X307077D01*
X265406Y256999D02*
X306839D01*
X266306Y256099D02*
X306825D01*
X300224Y232699D02*
X306790D01*
X300325Y237199D02*
X306612D01*
X289792Y251599D02*
X306194D01*
X300877Y233599D02*
X305810D01*
X300925Y236299D02*
X305748D01*
X301161Y234499D02*
X305449D01*
X301175Y235399D02*
X305431D01*
X289704Y250699D02*
X305294D01*
X289248Y249799D02*
X304394D01*
X287910Y248899D02*
X303494D01*
X272200Y214699D02*
X303390D01*
X272200Y219199D02*
X303212D01*
X299300Y181399D02*
X302651D01*
X300775Y188599D02*
X302640D01*
X280496Y112999D02*
X302626D01*
X272200Y247999D02*
X302594D01*
X272200Y215599D02*
X302410D01*
X272200Y218299D02*
X302348D01*
X272200Y216499D02*
X302049D01*
X272200Y217399D02*
X302031D01*
X272200Y247099D02*
X301694D01*
X281591Y113899D02*
X301532D01*
X299300Y182299D02*
X300972D01*
X300523Y187699D02*
X300969D01*
X282221Y114799D02*
X300901D01*
X272200Y246199D02*
X300794D01*
X282560Y118399D02*
X300562D01*
X282589Y115699D02*
X300533D01*
X282748Y117499D02*
X300374D01*
X282757Y116599D02*
X300365D01*
X282167Y119299D02*
X300297D01*
X299300Y183199D02*
X300268D01*
X299923Y186799D02*
X300267D01*
X299300Y184099D02*
X299911D01*
X299300Y185899D02*
X299911D01*
X272200Y245299D02*
X299894D01*
X299300Y184999D02*
X299800D01*
X281501Y120199D02*
X299397D01*
X272200Y244399D02*
X298994D01*
X280324Y121099D02*
X298497D01*
X272200Y243499D02*
X298094D01*
X230461Y121999D02*
X297597D01*
X260706Y192199D02*
X297508D01*
X272200Y242599D02*
X297194D01*
X229177Y122899D02*
X296697D01*
X272200Y241699D02*
X296450D01*
X272200Y240799D02*
X296300D01*
X272200Y239899D02*
X296300D01*
X272200Y238999D02*
X296300D01*
X272200Y238099D02*
X296300D01*
X219970Y123799D02*
X296010D01*
X267006Y185899D02*
X295900D01*
X267906Y184999D02*
X295900D01*
X268806Y184099D02*
X295900D01*
X269706Y183199D02*
X295900D01*
X270606Y182299D02*
X295900D01*
X271506Y181399D02*
X295900D01*
X272406Y180499D02*
X295900D01*
X273306Y179599D02*
X295900D01*
X274206Y178699D02*
X295900D01*
X275106Y177799D02*
X295900D01*
X276006Y176899D02*
X295900D01*
X276906Y175999D02*
X295900D01*
X277806Y175099D02*
X295900D01*
X278705Y174199D02*
X295900D01*
X279174Y173299D02*
X295900D01*
X279200Y172399D02*
X295900D01*
X279200Y171499D02*
X295900D01*
X279200Y170599D02*
X295900D01*
X279200Y169699D02*
X295900D01*
X279200Y168799D02*
X295900D01*
X279200Y167899D02*
X295900D01*
X279200Y166999D02*
X295900D01*
X279200Y166099D02*
X295900D01*
X279200Y165199D02*
X295900D01*
X279200Y164299D02*
X295900D01*
X279200Y163399D02*
X295900D01*
X279200Y162499D02*
X295900D01*
X279200Y161599D02*
X295900D01*
X279200Y160699D02*
X295900D01*
X279200Y159799D02*
X295900D01*
X279200Y158899D02*
X295900D01*
X279200Y157999D02*
X295900D01*
X279200Y157099D02*
X295900D01*
X279200Y156199D02*
X295900D01*
X280076Y155299D02*
X295900D01*
X280540Y154399D02*
X295900D01*
X280698Y153499D02*
X295900D01*
X280598Y152599D02*
X295900D01*
X280210Y151699D02*
X295900D01*
X279364Y150799D02*
X295900D01*
X104000Y149899D02*
X295900D01*
X104000Y148999D02*
X295900D01*
X104000Y148099D02*
X295900D01*
X104000Y147199D02*
X295900D01*
X104000Y146299D02*
X295900D01*
X104000Y145399D02*
X295900D01*
X104000Y144499D02*
X295900D01*
X227161Y143599D02*
X295900D01*
X229524Y142699D02*
X295900D01*
X230676Y141799D02*
X295900D01*
X231449Y140899D02*
X295900D01*
X231992Y139999D02*
X295900D01*
X232363Y139099D02*
X295900D01*
X232592Y138199D02*
X295900D01*
X232693Y137299D02*
X295900D01*
X232673Y136399D02*
X295900D01*
X232530Y135499D02*
X295900D01*
X232255Y134599D02*
X295900D01*
X231830Y133699D02*
X295900D01*
X231219Y132799D02*
X295900D01*
X230344Y131899D02*
X295900D01*
X228979Y130999D02*
X295900D01*
X220051Y130099D02*
X295900D01*
X220602Y129199D02*
X295900D01*
X220932Y128299D02*
X295900D01*
X221084Y127399D02*
X295900D01*
X221075Y126499D02*
X295900D01*
X220904Y125599D02*
X295900D01*
X220551Y124699D02*
X295900D01*
X272200Y232699D02*
X295776D01*
X272200Y237199D02*
X295675D01*
X261606Y191299D02*
X295374D01*
X266106Y186799D02*
X295277D01*
X272200Y233599D02*
X295123D01*
X272200Y236299D02*
X295075D01*
X272200Y234499D02*
X294839D01*
X272200Y235399D02*
X294825D01*
X262506Y190399D02*
X294722D01*
X265206Y187699D02*
X294677D01*
X263406Y189499D02*
X294439D01*
X264306Y188599D02*
X294425D01*
X104000Y359599D02*
X293301D01*
X254603Y354199D02*
X291876D01*
X104000Y358699D02*
X291775D01*
X104000Y405499D02*
X290290D01*
X238304Y306499D02*
X290281D01*
X240077Y301999D02*
X289340D01*
X104000Y409999D02*
X289337D01*
X266204Y279499D02*
X289296D01*
X104000Y406399D02*
X288952D01*
X239525Y305599D02*
X288950D01*
X240361Y302899D02*
X288645D01*
X104000Y409099D02*
X288644D01*
X104000Y407299D02*
X288496D01*
X240125Y304699D02*
X288496D01*
X240375Y303799D02*
X288408D01*
X104000Y408199D02*
X288408D01*
X267417Y273199D02*
X288083D01*
X267634Y278599D02*
X287866D01*
X268174Y274099D02*
X287326D01*
X268287Y277699D02*
X287213D01*
X268562Y274999D02*
X286938D01*
X268613Y276799D02*
X286887D01*
X268699Y275899D02*
X286801D01*
X272200Y248899D02*
X286490D01*
X272200Y221899D02*
X286290D01*
X269006Y253399D02*
X285537D01*
X272200Y226399D02*
X285337D01*
X239516Y321799D02*
X285284D01*
X268122Y327199D02*
X285280D01*
X272174Y249799D02*
X285152D01*
X272200Y222799D02*
X284952D01*
X269906Y252499D02*
X284844D01*
X271705Y250699D02*
X284696D01*
X272200Y225499D02*
X284644D01*
X270806Y251599D02*
X284608D01*
X272200Y223699D02*
X284496D01*
X272200Y224599D02*
X284408D01*
X267512Y326299D02*
X284353D01*
X104000Y374899D02*
X279890D01*
X104000Y370399D02*
X279752D01*
X104000Y421699D02*
X279694D01*
X267037Y426199D02*
X279548D01*
X104000Y373999D02*
X279032D01*
X104000Y371299D02*
X278977D01*
X104000Y422599D02*
X278834D01*
X266377Y425299D02*
X278776D01*
X104000Y373099D02*
X278696D01*
X104000Y372199D02*
X278679D01*
X104000Y423499D02*
X278496D01*
X265057Y424399D02*
X278479D01*
X264576Y121099D02*
X275920D01*
X246100Y171499D02*
X275800D01*
X246100Y170599D02*
X275800D01*
X246100Y169699D02*
X275800D01*
X246100Y168799D02*
X275800D01*
X246100Y167899D02*
X275800D01*
X246100Y166999D02*
X275800D01*
X246100Y166099D02*
X275800D01*
X246100Y165199D02*
X275800D01*
X246100Y164299D02*
X275800D01*
X246100Y163399D02*
X275800D01*
X246100Y162499D02*
X275800D01*
X246100Y161599D02*
X275800D01*
X246100Y160699D02*
X275800D01*
X246100Y159799D02*
X275800D01*
X246100Y158899D02*
X275800D01*
X246100Y157999D02*
X275800D01*
X246100Y157099D02*
X275800D01*
X246100Y156199D02*
X275800D01*
X264748Y112999D02*
X275748D01*
X246100Y172399D02*
X275697D01*
X246264Y150799D02*
X275636D01*
X246976Y155299D02*
X274924D01*
X246100Y173299D02*
X274797D01*
X247110Y151699D02*
X274790D01*
X271472Y120199D02*
X274743D01*
X271701Y113899D02*
X274654D01*
X247440Y154399D02*
X274460D01*
X247498Y152599D02*
X274402D01*
X247598Y153499D02*
X274302D01*
X272787Y119299D02*
X274077D01*
X272872Y114799D02*
X274023D01*
X246100Y174199D02*
X273897D01*
X273374Y118399D02*
X273684D01*
X273416Y115699D02*
X273655D01*
X246100Y175099D02*
X272997D01*
X246100Y175999D02*
X272097D01*
X246100Y176899D02*
X271197D01*
X246100Y177799D02*
X270297D01*
X246100Y178699D02*
X269397D01*
X265753Y120199D02*
X269024D01*
X171200Y247999D02*
X268800D01*
X171200Y247099D02*
X268800D01*
X171200Y246199D02*
X268800D01*
X171200Y245299D02*
X268800D01*
X171200Y244399D02*
X268800D01*
X171200Y243499D02*
X268800D01*
X171200Y242599D02*
X268800D01*
X171200Y241699D02*
X268800D01*
X171200Y240799D02*
X268800D01*
X171200Y239899D02*
X268800D01*
X171200Y238999D02*
X268800D01*
X250471Y238099D02*
X268800D01*
X252400Y237199D02*
X268800D01*
X253276Y236299D02*
X268800D01*
X253799Y235399D02*
X268800D01*
X254093Y234499D02*
X268800D01*
X254199Y233599D02*
X268800D01*
X254131Y232699D02*
X268800D01*
X253881Y231799D02*
X268800D01*
X253415Y230899D02*
X268800D01*
X252635Y229999D02*
X268800D01*
X251149Y229099D02*
X268800D01*
X197406Y228199D02*
X268800D01*
X198306Y227299D02*
X268800D01*
X199206Y226399D02*
X268800D01*
X200106Y225499D02*
X268800D01*
X201006Y224599D02*
X268800D01*
X201906Y223699D02*
X268800D01*
X202806Y222799D02*
X268800D01*
X203706Y221899D02*
X268800D01*
X204606Y220999D02*
X268800D01*
X205506Y220099D02*
X268800D01*
X206406Y219199D02*
X268800D01*
X207306Y218299D02*
X268800D01*
X240706Y217399D02*
X268800D01*
X243552Y216499D02*
X268800D01*
X244576Y215599D02*
X268800D01*
X245040Y214699D02*
X268800D01*
X245198Y213799D02*
X268800D01*
X265842Y113899D02*
X268795D01*
X171200Y248899D02*
X268697D01*
X246100Y179599D02*
X268497D01*
X245206Y212899D02*
X267924D01*
X171200Y249799D02*
X267797D01*
X266419Y119299D02*
X267709D01*
X266473Y114799D02*
X267624D01*
X246100Y180499D02*
X267597D01*
X246106Y211999D02*
X267460D01*
X247006Y211099D02*
X267302D01*
X247906Y210199D02*
X267294D01*
X266812Y118399D02*
X267122D01*
X266841Y115699D02*
X267080D01*
X171385Y250699D02*
X266897D01*
X246100Y181399D02*
X266697D01*
X248806Y209299D02*
X266394D01*
X172285Y251599D02*
X265997D01*
X246100Y182299D02*
X265797D01*
X258003Y208399D02*
X265494D01*
X173185Y252499D02*
X265097D01*
X246100Y183199D02*
X264897D01*
X259125Y207499D02*
X264594D01*
X174085Y253399D02*
X264197D01*
X246100Y184099D02*
X263997D01*
X242906Y279499D02*
X263796D01*
X259530Y206599D02*
X263694D01*
X174985Y254299D02*
X263297D01*
X246100Y184999D02*
X263097D01*
X259583Y205699D02*
X262794D01*
X249206Y273199D02*
X262583D01*
X175885Y255199D02*
X262397D01*
X243806Y278599D02*
X262366D01*
X246100Y185899D02*
X262197D01*
X104000Y424399D02*
X261943D01*
X259306Y204799D02*
X261894D01*
X248306Y274099D02*
X261826D01*
X244706Y277699D02*
X261713D01*
X215755Y431599D02*
X261530D01*
X176785Y256099D02*
X261497D01*
X247406Y274999D02*
X261438D01*
X245606Y276799D02*
X261387D01*
X246506Y275899D02*
X261301D01*
X246100Y186799D02*
X261297D01*
X104000Y334399D02*
X261225D01*
X258531Y203899D02*
X260994D01*
X104000Y425299D02*
X260623D01*
X177685Y256999D02*
X260597D01*
X215060Y430699D02*
X260439D01*
X246100Y187699D02*
X260397D01*
X231300Y121099D02*
X260172D01*
X231374Y112999D02*
X260000D01*
X104000Y426199D02*
X259963D01*
X104000Y333499D02*
X259912D01*
X104000Y429799D02*
X259862D01*
X178585Y257899D02*
X259697D01*
X104000Y427099D02*
X259611D01*
X104000Y428899D02*
X259565D01*
X246100Y188599D02*
X259497D01*
X209496Y326299D02*
X259488D01*
X104000Y427999D02*
X259486D01*
X104000Y332599D02*
X259148D01*
X255724Y120199D02*
X258995D01*
X255953Y113899D02*
X258906D01*
X208596Y327199D02*
X258878D01*
X179485Y258799D02*
X258797D01*
X203458Y331699D02*
X258663D01*
X246100Y189499D02*
X258597D01*
X207696Y328099D02*
X258499D01*
X204996Y330799D02*
X258379D01*
X257039Y119299D02*
X258329D01*
X206796Y328999D02*
X258300D01*
X257124Y114799D02*
X258275D01*
X205896Y329899D02*
X258261D01*
X257626Y118399D02*
X257936D01*
X257668Y115699D02*
X257907D01*
X180385Y259699D02*
X257897D01*
X246100Y190399D02*
X257697D01*
X181285Y260599D02*
X256997D01*
X246100Y191299D02*
X256797D01*
X182185Y261499D02*
X256097D01*
X249706Y208399D02*
X255997D01*
X246100Y192199D02*
X255897D01*
X183085Y262399D02*
X255197D01*
X246100Y193099D02*
X254997D01*
X250606Y207499D02*
X254875D01*
X251200Y204799D02*
X254694D01*
X251153Y206599D02*
X254470D01*
X251200Y205699D02*
X254417D01*
X240375Y263299D02*
X254297D01*
X246100Y193999D02*
X254097D01*
X104000Y357799D02*
X253403D01*
X240939Y264199D02*
X253397D01*
X251200Y203899D02*
X253382D01*
X231887Y120199D02*
X253276D01*
X246100Y194899D02*
X253197D01*
X231939Y113899D02*
X253047D01*
X251200Y202999D02*
X252673D01*
X241100Y265099D02*
X252497D01*
X104000Y356899D02*
X252494D01*
X251200Y202099D02*
X252356D01*
X251706Y201199D02*
X252314D01*
X246100Y195799D02*
X252297D01*
X232293Y119299D02*
X251961D01*
X232328Y114799D02*
X251876D01*
X240940Y265999D02*
X251597D01*
X104000Y355999D02*
X251594D01*
X246100Y196699D02*
X251397D01*
X232552Y118399D02*
X251374D01*
X232572Y115699D02*
X251332D01*
X232681Y117499D02*
X251112D01*
X232688Y116599D02*
X251099D01*
X240377Y266899D02*
X250697D01*
X104000Y355099D02*
X250694D01*
X246100Y197599D02*
X250497D01*
X188485Y267799D02*
X249797D01*
X104000Y354199D02*
X249794D01*
X246100Y198499D02*
X249597D01*
X189385Y268699D02*
X248897D01*
X104000Y353299D02*
X248894D01*
X246100Y199399D02*
X248697D01*
X171200Y238099D02*
X248529D01*
X190285Y269599D02*
X247997D01*
X104000Y352399D02*
X247994D01*
X246100Y200299D02*
X247951D01*
X196506Y229099D02*
X247851D01*
X246100Y204799D02*
X247800D01*
X246100Y203899D02*
X247800D01*
X246100Y202999D02*
X247800D01*
X246100Y202099D02*
X247800D01*
X246100Y201199D02*
X247800D01*
X232006Y284899D02*
X247776D01*
X246100Y205699D02*
X247597D01*
X231106Y285799D02*
X247123D01*
X191185Y270499D02*
X247097D01*
X104000Y351499D02*
X247094D01*
X230206Y286699D02*
X246839D01*
X229306Y287599D02*
X246825D01*
X246100Y206599D02*
X246697D01*
X171200Y237199D02*
X246600D01*
X196194Y229999D02*
X246365D01*
X228406Y288499D02*
X246297D01*
X192303Y271399D02*
X246197D01*
X104000Y350599D02*
X246194D01*
X171200Y236299D02*
X245724D01*
X196123Y230899D02*
X245585D01*
X228200Y289399D02*
X245397D01*
X192773Y272299D02*
X245297D01*
X104000Y349699D02*
X245294D01*
X171200Y235399D02*
X245201D01*
X195772Y231799D02*
X245119D01*
X171200Y234499D02*
X244907D01*
X194999Y232699D02*
X244869D01*
X171200Y233599D02*
X244801D01*
X228200Y290299D02*
X244497D01*
X240047Y273199D02*
X244397D01*
X104000Y348799D02*
X244394D01*
X237777Y310099D02*
X244177D01*
X228200Y291199D02*
X243597D01*
X241074Y274099D02*
X243497D01*
X104000Y347899D02*
X243494D01*
X230143Y310999D02*
X242783D01*
X104000Y205699D02*
X242700D01*
X104000Y204799D02*
X242700D01*
X104000Y203899D02*
X242700D01*
X104000Y202999D02*
X242700D01*
X104000Y202099D02*
X242700D01*
X104000Y201199D02*
X242700D01*
X104000Y200299D02*
X242700D01*
X104000Y199399D02*
X242700D01*
X104000Y198499D02*
X242700D01*
X104000Y197599D02*
X242700D01*
X104000Y196699D02*
X242700D01*
X104000Y195799D02*
X242700D01*
X104000Y194899D02*
X242700D01*
X104000Y193999D02*
X242700D01*
X104000Y193099D02*
X242700D01*
X104000Y192199D02*
X242700D01*
X104000Y191299D02*
X242700D01*
X104000Y190399D02*
X242700D01*
X104000Y189499D02*
X242700D01*
X104000Y188599D02*
X242700D01*
X104000Y187699D02*
X242700D01*
X104000Y186799D02*
X242700D01*
X104000Y185899D02*
X242700D01*
X104000Y184999D02*
X242700D01*
X104000Y184099D02*
X242700D01*
X104000Y183199D02*
X242700D01*
X104000Y182299D02*
X242700D01*
X104000Y181399D02*
X242700D01*
X104000Y180499D02*
X242700D01*
X104000Y179599D02*
X242700D01*
X104000Y178699D02*
X242700D01*
X104000Y177799D02*
X242700D01*
X104000Y176899D02*
X242700D01*
X104000Y175999D02*
X242700D01*
X104000Y175099D02*
X242700D01*
X104000Y174199D02*
X242700D01*
X104000Y173299D02*
X242700D01*
X104000Y172399D02*
X242700D01*
X104000Y171499D02*
X242700D01*
X104000Y170599D02*
X242700D01*
X104000Y169699D02*
X242700D01*
X104000Y168799D02*
X242700D01*
X104000Y167899D02*
X242700D01*
X104000Y166999D02*
X242700D01*
X104000Y166099D02*
X242700D01*
X104000Y165199D02*
X242700D01*
X104000Y164299D02*
X242700D01*
X104000Y163399D02*
X242700D01*
X104000Y162499D02*
X242700D01*
X104000Y161599D02*
X242700D01*
X104000Y160699D02*
X242700D01*
X104000Y159799D02*
X242700D01*
X104000Y158899D02*
X242700D01*
X104000Y157999D02*
X242700D01*
X104000Y157099D02*
X242700D01*
X104000Y156199D02*
X242700D01*
X228200Y292099D02*
X242697D01*
X241539Y274999D02*
X242597D01*
X104000Y346999D02*
X242594D01*
X104000Y150799D02*
X242536D01*
X104000Y206599D02*
X242097D01*
X230186Y311899D02*
X241883D01*
X104000Y155299D02*
X241824D01*
X228200Y292999D02*
X241797D01*
X104000Y346099D02*
X241694D01*
X104000Y151699D02*
X241690D01*
X104000Y154399D02*
X241360D01*
X104000Y152599D02*
X241302D01*
X104000Y153499D02*
X241202D01*
X104000Y207499D02*
X241197D01*
X229967Y312799D02*
X240983D01*
X104000Y345199D02*
X240794D01*
X104000Y208399D02*
X240297D01*
X229416Y313699D02*
X240083D01*
X104000Y209299D02*
X239397D01*
X228117Y314599D02*
X239183D01*
X104000Y210199D02*
X238497D01*
X228200Y293899D02*
X238297D01*
X174403Y315499D02*
X238283D01*
X104000Y344299D02*
X237948D01*
X104000Y338899D02*
X237636D01*
X228216Y294799D02*
X237397D01*
X175303Y316399D02*
X237383D01*
X193597Y273199D02*
X236953D01*
X104000Y343399D02*
X236924D01*
X104000Y339799D02*
X236790D01*
X183985Y263299D02*
X236625D01*
X187585Y266899D02*
X236623D01*
X232906Y283999D02*
X236501D01*
X229145Y295699D02*
X236497D01*
X104000Y342499D02*
X236460D01*
X104000Y340699D02*
X236402D01*
X104000Y341599D02*
X236302D01*
X184885Y264199D02*
X236061D01*
X186685Y265999D02*
X236060D01*
X194105Y274099D02*
X235926D01*
X185785Y265099D02*
X235900D01*
X233806Y283099D02*
X235728D01*
X229570Y296599D02*
X235597D01*
X104000Y211099D02*
X235584D01*
X194294Y274999D02*
X235461D01*
X234706Y282199D02*
X235377D01*
X194223Y275899D02*
X235302D01*
X193872Y276799D02*
X235297D01*
X229700Y297499D02*
X234697D01*
X104000Y211999D02*
X234655D01*
X193099Y277699D02*
X234397D01*
X104000Y212899D02*
X234230D01*
X230871Y214699D02*
X234229D01*
X230906Y310099D02*
X234223D01*
X104000Y213799D02*
X234100D01*
X229571Y298399D02*
X233797D01*
X231806Y309199D02*
X233525D01*
X104000Y278599D02*
X233497D01*
X232706Y308299D02*
X233266D01*
X229147Y299299D02*
X232897D01*
X104000Y279499D02*
X232597D01*
X228220Y300199D02*
X231997D01*
X104000Y280399D02*
X231697D01*
X196997Y301099D02*
X231097D01*
X104000Y281299D02*
X230797D01*
X198123Y301999D02*
X230197D01*
X104000Y282199D02*
X229897D01*
X198530Y302899D02*
X229297D01*
X104000Y283099D02*
X228997D01*
X198583Y303799D02*
X228397D01*
X104000Y283999D02*
X228097D01*
X104000Y284899D02*
X227197D01*
X195384Y285799D02*
X226297D01*
X173503Y314599D02*
X225883D01*
X198307Y304699D02*
X225650D01*
X196251Y286699D02*
X225397D01*
X196569Y287599D02*
X224848D01*
X207161Y143599D02*
X224839D01*
X196569Y293899D02*
X224800D01*
X196551Y292999D02*
X224800D01*
X196190Y292099D02*
X224800D01*
X195210Y291199D02*
X224800D01*
X195215Y290299D02*
X224800D01*
X196192Y289399D02*
X224800D01*
X196552Y288499D02*
X224800D01*
X196252Y294799D02*
X224784D01*
X196307Y300199D02*
X224780D01*
X172603Y313699D02*
X224584D01*
X197535Y305599D02*
X224503D01*
X168103Y309199D02*
X224228D01*
X169003Y310099D02*
X224174D01*
X171703Y312799D02*
X224033D01*
X104000Y306499D02*
X223995D01*
X165710Y308299D02*
X223877D01*
X169903Y310999D02*
X223857D01*
X195388Y295699D02*
X223855D01*
X196583Y299299D02*
X223853D01*
X170803Y311899D02*
X223814D01*
X164864Y307399D02*
X223806D01*
X194997Y296599D02*
X223430D01*
X196530Y298399D02*
X223429D01*
X196123Y297499D02*
X223300D01*
X219166Y130999D02*
X223021D01*
X219031Y122899D02*
X222823D01*
X209352Y111199D02*
X222648D01*
X209524Y142699D02*
X222476D01*
X217419Y131899D02*
X221656D01*
X216999Y121999D02*
X221539D01*
X210568Y112099D02*
X221432D01*
X210676Y141799D02*
X221324D01*
X211219Y132799D02*
X220781D01*
X211300Y121099D02*
X220700D01*
X211374Y112999D02*
X220626D01*
X211449Y140899D02*
X220551D01*
X211830Y133699D02*
X220170D01*
X211887Y120199D02*
X220113D01*
X211939Y113899D02*
X220061D01*
X211992Y139999D02*
X220008D01*
X212255Y134599D02*
X219745D01*
X212293Y119299D02*
X219707D01*
X212328Y114799D02*
X219672D01*
X212363Y139099D02*
X219637D01*
X212530Y135499D02*
X219470D01*
X212552Y118399D02*
X219448D01*
X212572Y115699D02*
X219428D01*
X212592Y138199D02*
X219408D01*
X212673Y136399D02*
X219327D01*
X212681Y117499D02*
X219319D01*
X212688Y116599D02*
X219312D01*
X212693Y137299D02*
X219307D01*
X210461Y121999D02*
X215001D01*
X210344Y131899D02*
X214581D01*
X209177Y122899D02*
X212969D01*
X208979Y130999D02*
X212834D01*
X169319Y435199D02*
X212681D01*
X154470Y123799D02*
X212030D01*
X154551Y130099D02*
X211949D01*
X170260Y430699D02*
X211740D01*
X155051Y124699D02*
X211449D01*
X155102Y129199D02*
X211398D01*
X170650Y434299D02*
X211350D01*
X155404Y125599D02*
X211096D01*
X155432Y128299D02*
X211068D01*
X170955Y431599D02*
X211045D01*
X155575Y126499D02*
X210925D01*
X155584Y127399D02*
X210916D01*
X171104Y433399D02*
X210896D01*
X171192Y432499D02*
X210808D01*
X104000Y416299D02*
X208785D01*
X104000Y411799D02*
X208616D01*
X208120Y322699D02*
X208520D01*
X104000Y415399D02*
X207808D01*
X104000Y412699D02*
X207749D01*
X104000Y414499D02*
X207448D01*
X104000Y413599D02*
X207431D01*
X207220Y323599D02*
X207388D01*
X206320Y324499D02*
X206488D01*
X132710Y214699D02*
X206329D01*
X176203Y317299D02*
X205937D01*
X205420Y325399D02*
X205588D01*
X171615Y215599D02*
X205197D01*
X177103Y318199D02*
X204983D01*
X161661Y143599D02*
X204839D01*
X204520Y326299D02*
X204688D01*
X172326Y216499D02*
X204297D01*
X178003Y319099D02*
X204083D01*
X202585Y327199D02*
X203788D01*
X172643Y217399D02*
X203397D01*
X178903Y319999D02*
X203183D01*
X163479Y130999D02*
X203021D01*
X187003Y328099D02*
X202888D01*
X163677Y122899D02*
X202823D01*
X163852Y111199D02*
X202648D01*
X172686Y218299D02*
X202497D01*
X164024Y142699D02*
X202476D01*
X179803Y320899D02*
X202283D01*
X164844Y131899D02*
X201656D01*
X172467Y219199D02*
X201597D01*
X164961Y121999D02*
X201539D01*
X165068Y112099D02*
X201432D01*
X200716Y321799D02*
X201383D01*
X165176Y141799D02*
X201324D01*
X165719Y132799D02*
X200781D01*
X165800Y121099D02*
X200700D01*
X171916Y220099D02*
X200697D01*
X165874Y112999D02*
X200626D01*
X165949Y140899D02*
X200551D01*
X166330Y133699D02*
X200170D01*
X166387Y120199D02*
X200113D01*
X166439Y113899D02*
X200061D01*
X166492Y139999D02*
X200008D01*
X182161Y494599D02*
X199839D01*
X171200Y220999D02*
X199797D01*
X166755Y134599D02*
X199745D01*
X166793Y119299D02*
X199707D01*
X166828Y114799D02*
X199672D01*
X166863Y139099D02*
X199637D01*
X167030Y135499D02*
X199470D01*
X167052Y118399D02*
X199448D01*
X167072Y115699D02*
X199428D01*
X167092Y138199D02*
X199408D01*
X167173Y136399D02*
X199327D01*
X167181Y117499D02*
X199319D01*
X167188Y116599D02*
X199312D01*
X167193Y137299D02*
X199307D01*
X171200Y221899D02*
X198897D01*
X194166Y481999D02*
X198021D01*
X171200Y222799D02*
X197997D01*
X194031Y473899D02*
X197823D01*
X184352Y462199D02*
X197648D01*
X184524Y493699D02*
X197476D01*
X180703Y321799D02*
X197284D01*
X186103Y327199D02*
X197280D01*
X171200Y223699D02*
X197097D01*
X192419Y482899D02*
X196656D01*
X191999Y472999D02*
X196539D01*
X185568Y463099D02*
X196432D01*
X181603Y322699D02*
X196355D01*
X185203Y326299D02*
X196353D01*
X185676Y492799D02*
X196324D01*
X171200Y224599D02*
X196197D01*
X182503Y323599D02*
X195930D01*
X184303Y325399D02*
X195929D01*
X183403Y324499D02*
X195800D01*
X186219Y483799D02*
X195781D01*
X186300Y472099D02*
X195700D01*
X186374Y463999D02*
X195626D01*
X186449Y491899D02*
X195551D01*
X171200Y225499D02*
X195297D01*
X186830Y484699D02*
X195170D01*
X186887Y471199D02*
X195113D01*
X186939Y464899D02*
X195061D01*
X186992Y490999D02*
X195008D01*
X187255Y485599D02*
X194745D01*
X187293Y470299D02*
X194707D01*
X187328Y465799D02*
X194672D01*
X187363Y490099D02*
X194637D01*
X187530Y486499D02*
X194470D01*
X104000Y305599D02*
X194465D01*
X187552Y469399D02*
X194448D01*
X187572Y466699D02*
X194428D01*
X187592Y489199D02*
X194408D01*
X171200Y226399D02*
X194397D01*
X187673Y487399D02*
X194327D01*
X187681Y468499D02*
X194319D01*
X187688Y467599D02*
X194312D01*
X187693Y488299D02*
X194307D01*
X104000Y301999D02*
X193877D01*
X104000Y304699D02*
X193693D01*
X104000Y302899D02*
X193470D01*
X104000Y303799D02*
X193417D01*
X104000Y296599D02*
X193003D01*
X104000Y291199D02*
X192790D01*
X104000Y290299D02*
X192785D01*
X104000Y285799D02*
X192616D01*
X104000Y295699D02*
X192612D01*
X104000Y301099D02*
X192465D01*
X104000Y297499D02*
X191877D01*
X104000Y292099D02*
X191810D01*
X104000Y289399D02*
X191808D01*
X104000Y286699D02*
X191749D01*
X104000Y294799D02*
X191748D01*
X104000Y300199D02*
X191693D01*
X171200Y227299D02*
X191650D01*
X104000Y298399D02*
X191470D01*
X104000Y292999D02*
X191449D01*
X104000Y288499D02*
X191448D01*
X104000Y287599D02*
X191431D01*
X104000Y293899D02*
X191431D01*
X104000Y299299D02*
X191417D01*
X171200Y232699D02*
X191001D01*
X171200Y228199D02*
X190503D01*
X171200Y231799D02*
X190228D01*
X185461Y472999D02*
X190001D01*
X171200Y229099D02*
X189995D01*
X171200Y230899D02*
X189877D01*
X171200Y229999D02*
X189806D01*
X185344Y482899D02*
X189581D01*
X104000Y277699D02*
X189101D01*
X104000Y273199D02*
X188603D01*
X104000Y276799D02*
X188328D01*
X104000Y272299D02*
X188176D01*
X104000Y274099D02*
X188095D01*
X104000Y275899D02*
X187977D01*
X184177Y473899D02*
X187969D01*
X104000Y274999D02*
X187906D01*
X183979Y481999D02*
X187834D01*
X104000Y271399D02*
X187276D01*
X104000Y474799D02*
X187030D01*
X104000Y481099D02*
X186949D01*
X104000Y475699D02*
X186449D01*
X104000Y331699D02*
X186433D01*
X104000Y480199D02*
X186398D01*
X104000Y270499D02*
X186376D01*
X104000Y476599D02*
X186096D01*
X104000Y479299D02*
X186068D01*
X104000Y477499D02*
X185925D01*
X104000Y478399D02*
X185916D01*
X104000Y269599D02*
X185476D01*
X104000Y330799D02*
X184894D01*
X104000Y268699D02*
X184576D01*
X104000Y329899D02*
X183994D01*
X104000Y267799D02*
X183676D01*
X104000Y328999D02*
X183094D01*
X104000Y266899D02*
X182776D01*
X104000Y328099D02*
X182194D01*
X104000Y265999D02*
X181876D01*
X104000Y327199D02*
X181294D01*
X104000Y265099D02*
X180976D01*
X104000Y326299D02*
X180394D01*
X104000Y264199D02*
X180076D01*
X104000Y494599D02*
X179839D01*
X104000Y325399D02*
X179494D01*
X104000Y263299D02*
X179176D01*
X104000Y324499D02*
X178594D01*
X104000Y262399D02*
X178276D01*
X104000Y481999D02*
X178021D01*
X104000Y473899D02*
X177823D01*
X104000Y323599D02*
X177694D01*
X104000Y462199D02*
X177648D01*
X104000Y493699D02*
X177476D01*
X104000Y261499D02*
X177376D01*
X104000Y322699D02*
X176794D01*
X104000Y482899D02*
X176656D01*
X104000Y472999D02*
X176539D01*
X104000Y260599D02*
X176476D01*
X104000Y463099D02*
X176432D01*
X104000Y492799D02*
X176324D01*
X104000Y321799D02*
X175894D01*
X104000Y483799D02*
X175781D01*
X104000Y472099D02*
X175700D01*
X104000Y463999D02*
X175626D01*
X104000Y259699D02*
X175576D01*
X104000Y491899D02*
X175551D01*
X104000Y484699D02*
X175170D01*
X104000Y471199D02*
X175113D01*
X104000Y464899D02*
X175061D01*
X104000Y490999D02*
X175008D01*
X104000Y320899D02*
X174994D01*
X104000Y485599D02*
X174745D01*
X104000Y470299D02*
X174707D01*
X104000Y258799D02*
X174676D01*
X104000Y465799D02*
X174672D01*
X104000Y490099D02*
X174637D01*
X104000Y486499D02*
X174470D01*
X104000Y469399D02*
X174448D01*
X104000Y466699D02*
X174428D01*
X104000Y489199D02*
X174408D01*
X104000Y487399D02*
X174327D01*
X104000Y468499D02*
X174319D01*
X104000Y467599D02*
X174312D01*
X104000Y488299D02*
X174307D01*
X104000Y319999D02*
X174094D01*
X104000Y257899D02*
X173776D01*
X104000Y319099D02*
X173194D01*
X104000Y256999D02*
X172876D01*
X104000Y318199D02*
X172294D01*
X104000Y256099D02*
X171976D01*
X104000Y317299D02*
X171394D01*
X104000Y255199D02*
X171076D01*
X104000Y316399D02*
X170494D01*
X104000Y254299D02*
X170176D01*
X104000Y315499D02*
X169594D01*
X104000Y253399D02*
X169276D01*
X104000Y314599D02*
X168694D01*
X104000Y252499D02*
X168376D01*
X104000Y435199D02*
X167881D01*
X104000Y251599D02*
X167843D01*
X104000Y250699D02*
X167800D01*
X104000Y249799D02*
X167800D01*
X104000Y248899D02*
X167800D01*
X104000Y247999D02*
X167800D01*
X104000Y247099D02*
X167800D01*
X104000Y246199D02*
X167800D01*
X104000Y245299D02*
X167800D01*
X104000Y244399D02*
X167800D01*
X104000Y243499D02*
X167800D01*
X104000Y242599D02*
X167800D01*
X104000Y241699D02*
X167800D01*
X104000Y240799D02*
X167800D01*
X104000Y239899D02*
X167800D01*
X104000Y238999D02*
X167800D01*
X104000Y238099D02*
X167800D01*
X104000Y237199D02*
X167800D01*
X104000Y236299D02*
X167800D01*
X104000Y235399D02*
X167800D01*
X104000Y234499D02*
X167800D01*
X104000Y233599D02*
X167800D01*
X104000Y232699D02*
X167800D01*
X104000Y231799D02*
X167800D01*
X104000Y230899D02*
X167800D01*
X104000Y229999D02*
X167800D01*
X104000Y229099D02*
X167800D01*
X104000Y228199D02*
X167800D01*
X104000Y227299D02*
X167800D01*
X104000Y226399D02*
X167800D01*
X104000Y225499D02*
X167800D01*
X104000Y224599D02*
X167800D01*
X104000Y223699D02*
X167800D01*
X104000Y222799D02*
X167800D01*
X104000Y221899D02*
X167800D01*
X104000Y220999D02*
X167800D01*
X104000Y313699D02*
X167794D01*
X133690Y215599D02*
X167385D01*
X104000Y220099D02*
X167084D01*
X104000Y430699D02*
X166940D01*
X164552Y312799D02*
X166894D01*
X134051Y216499D02*
X166674D01*
X104000Y434299D02*
X166550D01*
X132888Y219199D02*
X166533D01*
X134069Y217399D02*
X166357D01*
X133752Y218299D02*
X166314D01*
X104000Y431599D02*
X166245D01*
X104000Y433399D02*
X166096D01*
X104000Y432499D02*
X166008D01*
X165576Y311899D02*
X165994D01*
X104000Y312799D02*
X161448D01*
X104000Y307399D02*
X161136D01*
X104000Y311899D02*
X160424D01*
X104000Y308299D02*
X160290D01*
X104000Y310999D02*
X159960D01*
X104000Y309199D02*
X159902D01*
X104000Y310099D02*
X159802D01*
X141661Y143599D02*
X159339D01*
X153666Y130999D02*
X157521D01*
X153531Y122899D02*
X157323D01*
X143852Y111199D02*
X157148D01*
X144024Y142699D02*
X156976D01*
X151919Y131899D02*
X156156D01*
X151499Y121999D02*
X156039D01*
X145068Y112099D02*
X155932D01*
X145176Y141799D02*
X155824D01*
X145719Y132799D02*
X155281D01*
X145800Y121099D02*
X155200D01*
X145874Y112999D02*
X155126D01*
X145949Y140899D02*
X155051D01*
X146330Y133699D02*
X154670D01*
X146387Y120199D02*
X154613D01*
X146439Y113899D02*
X154561D01*
X146492Y139999D02*
X154508D01*
X146755Y134599D02*
X154245D01*
X146793Y119299D02*
X154207D01*
X146828Y114799D02*
X154172D01*
X146863Y139099D02*
X154137D01*
X147030Y135499D02*
X153970D01*
X147052Y118399D02*
X153948D01*
X147072Y115699D02*
X153928D01*
X147092Y138199D02*
X153908D01*
X147173Y136399D02*
X153827D01*
X147181Y117499D02*
X153819D01*
X147188Y116599D02*
X153812D01*
X147193Y137299D02*
X153807D01*
X144961Y121999D02*
X149501D01*
X144844Y131899D02*
X149081D01*
X143677Y122899D02*
X147469D01*
X143479Y130999D02*
X147334D01*
X104000Y123799D02*
X146530D01*
X104000Y130099D02*
X146449D01*
X104000Y124699D02*
X145949D01*
X104000Y129199D02*
X145898D01*
X104000Y125599D02*
X145596D01*
X104000Y128299D02*
X145568D01*
X104000Y126499D02*
X145425D01*
X104000Y127399D02*
X145416D01*
X104000Y143599D02*
X139339D01*
X104000Y130999D02*
X137521D01*
X104000Y122899D02*
X137323D01*
X104000Y111199D02*
X137148D01*
X104000Y142699D02*
X136976D01*
X104000Y131899D02*
X136156D01*
X104000Y121999D02*
X136039D01*
X104000Y112099D02*
X135932D01*
X104000Y141799D02*
X135824D01*
X104000Y132799D02*
X135281D01*
X104000Y121099D02*
X135200D01*
X104000Y112999D02*
X135126D01*
X104000Y140899D02*
X135051D01*
X104000Y133699D02*
X134670D01*
X104000Y120199D02*
X134613D01*
X104000Y113899D02*
X134561D01*
X104000Y139999D02*
X134508D01*
X104000Y134599D02*
X134245D01*
X104000Y119299D02*
X134207D01*
X104000Y114799D02*
X134172D01*
X104000Y139099D02*
X134137D01*
X104000Y135499D02*
X133970D01*
X104000Y118399D02*
X133948D01*
X104000Y115699D02*
X133928D01*
X104000Y138199D02*
X133908D01*
X104000Y136399D02*
X133827D01*
X104000Y117499D02*
X133819D01*
X104000Y116599D02*
X133812D01*
X104000Y137299D02*
X133807D01*
X104000Y214699D02*
X130290D01*
X104000Y219199D02*
X130112D01*
X104000Y215599D02*
X129310D01*
X104000Y218299D02*
X129248D01*
X104000Y216499D02*
X128949D01*
X104000Y217399D02*
X128931D01*
G54D18*
X316500Y467346D03*
X603000D03*
G54D19*
X160500Y117000D03*
X140500D03*
Y137000D03*
X160500D03*
X201000Y468000D03*
X181000D03*
Y488000D03*
X201000D03*
X206000Y137000D03*
X226000D03*
Y117000D03*
X206000D03*
X447000D03*
X427000D03*
Y137000D03*
X447000D03*
X487500Y468000D03*
X467500D03*
Y488000D03*
X487500D03*
X492500Y137000D03*
X512500D03*
Y117000D03*
X492500D03*
G54D24*
X262374D03*
X278122D03*
X305000D03*
X312874D03*
X548874D03*
X564622D03*
X591500D03*
X599374D03*
G54D27*
X115000Y115000D03*
Y490000D03*
X362000D03*
Y115000D03*
X178500Y350000D03*
X401500Y115000D03*
Y490000D03*
X648500D03*
Y115000D03*
X465000Y350000D03*
G54D32*
X199000Y324500D02*
X202500D01*
X207500Y319500*
X238100*
X244900Y312700*
X246300*
X485500Y324500D02*
X489000D01*
X494000Y319500*
X524600*
X531400Y312700*
X532800*
X109500Y105600D03*
X152300D03*
X130900D03*
X195100D03*
X184400Y116300D03*
X173700Y105600D03*
X237900D03*
X216500D03*
X280700D03*
X259300D03*
X248600Y116300D03*
X323500Y105600D03*
X302100D03*
X291400Y116300D03*
X366300Y105600D03*
X344900D03*
X334200Y116300D03*
X396000Y105600D03*
X438800D03*
X417400D03*
X481600D03*
X470900Y116300D03*
X460200Y105600D03*
X524400D03*
X503000D03*
X545800D03*
X535100Y116300D03*
X567200Y105600D03*
X588600D03*
X577900Y116300D03*
X610000Y105600D03*
X631400D03*
X620700Y116300D03*
X652800Y105600D03*
X120200Y137700D03*
X109500Y148400D03*
Y127000D03*
X163000Y159100D03*
X130900Y148400D03*
Y127000D03*
X158000Y144500D03*
Y159500D03*
Y154500D03*
Y149500D03*
X143000Y159500D03*
Y154500D03*
Y149500D03*
Y144500D03*
X195100Y148400D03*
Y127000D03*
X184400Y159100D03*
Y137700D03*
X173700Y148400D03*
Y127000D03*
X244400Y153400D03*
X223500Y144500D03*
X237900Y148400D03*
Y127000D03*
X208500Y144500D03*
Y149500D03*
Y159500D03*
Y154500D03*
X223500Y159000D03*
Y154000D03*
Y149000D03*
X277500Y153400D03*
X267000Y158000D03*
X270000Y137700D03*
X248600D03*
X310500Y153000D03*
X323500Y127000D03*
X312800Y137700D03*
X302100Y148400D03*
X291400Y137700D03*
X366000Y158000D03*
X355600Y137700D03*
X344900Y127000D03*
X334200Y137700D03*
X396000Y148400D03*
Y127000D03*
X429500Y144500D03*
Y149500D03*
Y154500D03*
Y159500D03*
X444500Y149500D03*
Y154500D03*
Y159500D03*
Y144500D03*
X417400Y127000D03*
Y148400D03*
X406700Y137700D03*
X460200Y127000D03*
Y148400D03*
X470900Y137700D03*
Y159100D03*
X481600Y127000D03*
Y148400D03*
X449500Y159100D03*
X510000Y149000D03*
Y154000D03*
Y159000D03*
X495000Y154500D03*
Y159500D03*
Y149500D03*
Y144500D03*
X524400Y127000D03*
Y148400D03*
X510000Y144500D03*
X564000Y153400D03*
X530900D03*
X535100Y137700D03*
X556500D03*
X553500Y158000D03*
X597000Y153000D03*
X577900Y137700D03*
X588600Y148400D03*
X599300Y137700D03*
X620700D03*
X631400Y127000D03*
X642100Y137700D03*
X610000Y127000D03*
X652500Y158000D03*
X120200Y180500D03*
X163000D03*
X130900Y191200D03*
Y169800D03*
X158000Y169500D03*
Y164500D03*
Y189500D03*
Y184500D03*
Y179500D03*
Y174500D03*
Y199500D03*
Y194500D03*
X143000Y174500D03*
Y169500D03*
Y164500D03*
Y199500D03*
Y194500D03*
Y189500D03*
Y184500D03*
Y179500D03*
X195100Y191200D03*
Y169800D03*
X184400Y180500D03*
X173700Y191200D03*
Y169800D03*
X237900D03*
X236800Y197800D03*
X208500Y174500D03*
Y169500D03*
Y164500D03*
Y199500D03*
Y194500D03*
Y189500D03*
Y184500D03*
Y179500D03*
X223500Y189000D03*
Y184000D03*
Y179000D03*
Y174000D03*
Y169000D03*
Y164000D03*
Y199000D03*
Y194000D03*
X280700Y191200D03*
Y169800D03*
X250000Y194000D03*
Y182000D03*
X254500D03*
X255500Y201500D03*
X319500Y193000D03*
Y183000D03*
X297600Y189000D03*
X324000Y197500D03*
X323500Y169800D03*
X302100D03*
X324000Y201500D03*
X342500Y199500D03*
X355600Y180500D03*
X344900Y169800D03*
X338500Y199500D03*
X429500Y179500D03*
Y184500D03*
Y189500D03*
Y194500D03*
Y199500D03*
Y164500D03*
Y169500D03*
Y174500D03*
X444500Y194500D03*
Y199500D03*
Y174500D03*
Y179500D03*
Y184500D03*
Y189500D03*
Y164500D03*
Y169500D03*
X417400Y169800D03*
Y191200D03*
X406700Y180500D03*
X460200Y169800D03*
Y191200D03*
X470900Y180500D03*
X481600Y169800D03*
Y191200D03*
X449500Y180500D03*
X510000Y194000D03*
Y199000D03*
Y164000D03*
Y169000D03*
Y174000D03*
Y179000D03*
Y184000D03*
Y189000D03*
X495000Y179500D03*
Y184500D03*
Y189500D03*
Y194500D03*
Y199500D03*
Y164500D03*
Y169500D03*
Y174500D03*
X523300Y197800D03*
X524400Y169800D03*
X542000Y201500D03*
X541000Y182000D03*
X536500D03*
Y194000D03*
X606000Y193000D03*
Y183000D03*
X584100Y189000D03*
X588600Y169800D03*
X567200D03*
Y191200D03*
X625000Y199500D03*
X631400Y169800D03*
X642100Y180500D03*
X629000Y199500D03*
X610500Y201500D03*
X610000Y169800D03*
X610500Y197500D03*
X120200Y201900D03*
X125500Y227500D03*
X120000Y222500D03*
X125500Y217500D03*
X163000Y201900D03*
X130900Y234000D03*
Y212600D03*
X164500Y237500D03*
X159500D03*
X158000Y219500D03*
Y214500D03*
Y209500D03*
Y204500D03*
Y224500D03*
X143000Y204500D03*
Y224500D03*
Y219500D03*
Y214500D03*
X140500Y237500D03*
X143000Y209500D03*
X169500Y218000D03*
X193000Y230200D03*
X184400Y201900D03*
X189500Y237500D03*
X184500D03*
X179500D03*
X174500D03*
X175500Y217500D03*
X181000Y222500D03*
X175500Y227500D03*
X204500Y237500D03*
X199500D03*
X194500D03*
X237300Y213800D03*
X242000Y213700D03*
X237900Y234000D03*
X208500Y204500D03*
Y224500D03*
Y219500D03*
Y209500D03*
Y234500D03*
Y229500D03*
X223500Y204000D03*
Y234000D03*
Y229000D03*
Y224000D03*
Y219000D03*
Y209000D03*
Y239000D03*
X267000Y224000D03*
X248600Y223300D03*
X270500Y211000D03*
X298000Y235000D03*
X294000Y210000D03*
X298000Y206000D03*
X294000D03*
X324000Y205500D03*
X320000D03*
X298000Y210000D03*
X336000Y225500D03*
X339500Y222500D03*
X344900Y212600D03*
X406500Y222500D03*
X429500Y209500D03*
X427000Y237500D03*
X429500Y214500D03*
Y219500D03*
Y224500D03*
Y204500D03*
X444500Y224500D03*
Y204500D03*
Y209500D03*
Y214500D03*
Y219500D03*
X446000Y237500D03*
X417400Y212600D03*
Y234000D03*
X412000Y217500D03*
Y227500D03*
X406700Y201900D03*
X479500Y230200D03*
X456000Y218000D03*
X481000Y237500D03*
X486000D03*
X462000Y227500D03*
X467500Y222500D03*
X462000Y217500D03*
X461000Y237500D03*
X466000D03*
X471000D03*
X476000D03*
X470900Y201900D03*
X451000Y237500D03*
X449500Y201900D03*
X523800Y213800D03*
X510000Y239000D03*
Y209000D03*
Y219000D03*
Y224000D03*
Y229000D03*
Y234000D03*
Y204000D03*
X495000Y229500D03*
Y234500D03*
Y209500D03*
Y219500D03*
Y224500D03*
Y204500D03*
X524400Y234000D03*
X491000Y237500D03*
X528500Y213700D03*
X557000Y211000D03*
X535100Y223300D03*
X553500Y224000D03*
X584500Y235000D03*
Y210000D03*
X606500Y205500D03*
X580500Y206000D03*
X584500D03*
X580500Y210000D03*
X622500Y225500D03*
X631400Y212600D03*
X626000Y222500D03*
X610500Y205500D03*
X120200Y266100D03*
Y244700D03*
X130900Y276800D03*
Y255400D03*
X160500Y252500D03*
X155500D03*
X165500D03*
X155500Y279000D03*
Y274000D03*
Y269000D03*
Y264000D03*
Y259000D03*
X165000D03*
Y266500D03*
X140500Y272500D03*
Y267500D03*
Y262500D03*
Y257500D03*
Y252500D03*
Y247500D03*
Y242500D03*
X165000Y274500D03*
X140500Y277500D03*
X191100Y275200D03*
X189000Y266500D03*
X181000Y274500D03*
X200500Y252500D03*
X195500D03*
X190500D03*
X185500D03*
X180500D03*
X175500D03*
X173000Y259000D03*
Y274500D03*
Y266500D03*
X197000Y259000D03*
X189000D03*
X205500Y262500D03*
Y267500D03*
Y272500D03*
Y277500D03*
X238500Y276000D03*
X227200Y266100D03*
X221000Y254500D03*
X223500Y244000D03*
X221000Y259500D03*
Y264500D03*
Y269500D03*
Y274500D03*
Y279500D03*
X238500Y281500D03*
X267000Y246000D03*
X280700Y276800D03*
X270000Y266100D03*
X259300Y276800D03*
X248600Y244700D03*
X310000Y256500D03*
X316500Y248500D03*
X320500D03*
X312800Y266100D03*
X302100Y276800D03*
Y255400D03*
X344900Y276800D03*
Y255400D03*
X427000Y277500D03*
Y242500D03*
Y247500D03*
Y252500D03*
Y257500D03*
Y262500D03*
Y267500D03*
Y272500D03*
X442000Y259000D03*
Y264000D03*
Y269000D03*
Y274000D03*
Y279000D03*
Y252500D03*
X417400Y255400D03*
Y276800D03*
X406700Y244700D03*
Y266100D03*
X477600Y275200D03*
X475500Y259000D03*
X483500D03*
X459500Y266500D03*
Y274500D03*
Y259000D03*
X462000Y252500D03*
X467000D03*
X472000D03*
X477000D03*
X482000D03*
X467500Y274500D03*
X475500Y266500D03*
X451500Y274500D03*
Y266500D03*
Y259000D03*
X452000Y252500D03*
X447000D03*
X525000Y276000D03*
Y281500D03*
X507500Y279500D03*
Y274500D03*
Y269500D03*
Y264500D03*
Y259500D03*
X510000Y244000D03*
X507500Y254500D03*
X513700Y266100D03*
X492000Y277500D03*
Y272500D03*
Y267500D03*
Y262500D03*
X487000Y252500D03*
X535100Y244700D03*
X545800Y276800D03*
X556500Y266100D03*
X553500Y246000D03*
X596500Y256500D03*
X588600Y255400D03*
Y276800D03*
X599300Y266100D03*
X603000Y248500D03*
X567200Y276800D03*
X631400Y255400D03*
Y276800D03*
X607000Y248500D03*
X120200Y308900D03*
Y287500D03*
X163000Y310000D03*
Y293500D03*
Y299000D03*
X130900Y319600D03*
Y298200D03*
X155500Y294000D03*
Y289000D03*
Y284000D03*
Y319000D03*
Y314000D03*
Y309000D03*
Y304000D03*
Y299000D03*
X140500Y282500D03*
Y312500D03*
Y307500D03*
Y302500D03*
Y297500D03*
Y292500D03*
Y287500D03*
Y317500D03*
X205118Y309252D03*
X178000Y315000D03*
X170500Y284500D03*
X178000Y310500D03*
Y284500D03*
X205118Y313386D03*
Y300591D03*
Y304921D03*
X196500Y308500D03*
Y312500D03*
Y316500D03*
X200500Y320500D03*
X205500Y287500D03*
Y282500D03*
X227000Y307600D03*
X226500Y297500D03*
X237200Y303400D03*
X227000Y311600D03*
X209252Y309252D03*
X213583D03*
X217717Y304921D03*
X209252Y300591D03*
X241500Y291000D03*
X246000Y295500D03*
X213583Y300591D03*
Y304921D03*
X217900Y300600D03*
X217717Y313386D03*
X209252D03*
X213583D03*
X217717Y309252D03*
X209252Y304921D03*
X221000Y284500D03*
X246300Y312700D03*
X250000Y287200D03*
X285500Y306500D03*
X280700Y319600D03*
Y298200D03*
X270000Y308900D03*
Y287500D03*
X259300Y319600D03*
X312800Y287500D03*
X427000Y317500D03*
Y287500D03*
Y292500D03*
Y297500D03*
Y302500D03*
Y307500D03*
Y312500D03*
Y282500D03*
X442000Y299000D03*
Y304000D03*
Y309000D03*
Y314000D03*
Y319000D03*
Y284000D03*
Y289000D03*
Y294000D03*
X417400Y298200D03*
Y319600D03*
X406700Y287500D03*
Y308900D03*
X449500Y310000D03*
X483000Y316500D03*
Y312500D03*
Y308500D03*
X464500Y284500D03*
Y310500D03*
X457000Y284500D03*
X464500Y315000D03*
X449500Y299000D03*
Y293500D03*
X513000Y297500D03*
X513500Y307600D03*
Y311600D03*
X523700Y303400D03*
X507500Y284500D03*
X495752Y304921D03*
X504217Y309252D03*
X500083Y313386D03*
X495752D03*
X504217D03*
X504400Y300600D03*
X500083Y304921D03*
Y300591D03*
X495752D03*
X504217Y304921D03*
X500083Y309252D03*
X495752D03*
X492000Y282500D03*
Y287500D03*
X487000Y320500D03*
X491618Y304921D03*
Y300591D03*
Y313386D03*
Y309252D03*
X536500Y287200D03*
X532800Y312700D03*
X545800Y319600D03*
X556500Y287500D03*
Y308900D03*
X532500Y295500D03*
X528000Y291000D03*
X599300Y287500D03*
X567200Y298200D03*
Y319600D03*
X572000Y306500D03*
X120200Y351700D03*
Y330300D03*
X130900Y341000D03*
X162500Y326000D03*
Y334000D03*
Y342000D03*
Y350000D03*
Y358000D03*
X155500Y324000D03*
X140500Y322500D03*
X155500Y359000D03*
Y354000D03*
Y349000D03*
Y344000D03*
Y339000D03*
Y334000D03*
Y329000D03*
X140500Y357500D03*
Y352500D03*
Y347500D03*
Y342500D03*
Y337500D03*
Y332500D03*
Y327500D03*
X194500Y358000D03*
Y350000D03*
Y342000D03*
Y334000D03*
Y326000D03*
X186500Y358000D03*
Y342000D03*
Y334000D03*
Y326000D03*
X178500Y334000D03*
Y326000D03*
X170500Y358000D03*
Y342000D03*
X206000Y332000D03*
Y337000D03*
Y342000D03*
Y347000D03*
Y352000D03*
Y357000D03*
X170500Y326000D03*
Y334000D03*
X199000Y324500D03*
X243000Y328000D03*
X224500Y354500D03*
X227200Y330300D03*
X224500Y349500D03*
X221000Y347000D03*
Y327000D03*
Y332000D03*
Y337000D03*
Y357000D03*
Y342000D03*
X239500Y341500D03*
X280700Y341000D03*
X270000Y351700D03*
Y330300D03*
X259300Y341000D03*
X257000Y334500D03*
X287000Y324500D03*
X302100Y341000D03*
X294100Y356500D03*
X355600Y330300D03*
X334200D03*
X427000Y327500D03*
Y332500D03*
Y337500D03*
Y342500D03*
Y347500D03*
Y352500D03*
Y357500D03*
X442000Y329000D03*
Y334000D03*
Y339000D03*
Y344000D03*
Y349000D03*
Y354000D03*
Y359000D03*
X427000Y322500D03*
X442000Y324000D03*
X417400Y341000D03*
X406700Y330300D03*
Y351700D03*
X485500Y324500D03*
X457000Y334000D03*
Y326000D03*
Y342000D03*
Y358000D03*
X465000Y326000D03*
Y334000D03*
X473000Y326000D03*
Y334000D03*
Y342000D03*
Y358000D03*
X481000Y326000D03*
Y334000D03*
Y342000D03*
Y350000D03*
Y358000D03*
X449000D03*
Y350000D03*
Y342000D03*
Y334000D03*
Y326000D03*
X526000Y341500D03*
X507500Y342000D03*
Y357000D03*
Y337000D03*
Y332000D03*
Y327000D03*
Y347000D03*
X511000Y349500D03*
X513700Y330300D03*
X511000Y354500D03*
X492500Y357000D03*
Y352000D03*
Y347000D03*
Y342000D03*
Y337000D03*
Y332000D03*
X543500Y334500D03*
X545800Y341000D03*
X556500Y330300D03*
Y351700D03*
X529500Y328000D03*
X580600Y356500D03*
X573500Y324500D03*
X588600Y341000D03*
X567200D03*
X620700Y330300D03*
X642100D03*
X120200Y394500D03*
Y373100D03*
X141600Y394500D03*
X130900Y383800D03*
Y362400D03*
X157700Y375400D03*
X161500Y401500D03*
X157500Y398500D03*
X153500Y395500D03*
X150500Y392000D03*
X162500Y366000D03*
X156000Y370500D03*
X140500Y362500D03*
X142000Y374000D03*
X141000Y369000D03*
X160500Y379500D03*
X163500Y383500D03*
X148000Y388500D03*
X145500Y383900D03*
X143500Y379000D03*
X155500Y365500D03*
X194500Y382000D03*
Y374000D03*
Y366000D03*
X186500Y382000D03*
Y374000D03*
Y366000D03*
X178500Y382000D03*
Y374000D03*
Y366000D03*
X170500Y374000D03*
Y366000D03*
X206000Y362000D03*
Y373500D03*
X181500Y394000D03*
X198500Y392000D03*
X202500Y388000D03*
X186500Y394500D03*
X206000Y368500D03*
X171500Y390500D03*
X176500Y392500D03*
X194000Y394500D03*
X167500Y387500D03*
X206000Y378500D03*
X205000Y383500D03*
X234000Y394000D03*
Y362500D03*
Y373000D03*
Y383500D03*
X227200Y373100D03*
X221000Y366500D03*
Y380500D03*
Y375500D03*
X216000Y395000D03*
X221000Y362000D03*
X213000Y398500D03*
X221000Y371000D03*
X220000Y385500D03*
X218000Y390500D03*
X280700Y383800D03*
X270000Y394500D03*
Y373100D03*
X259300Y383800D03*
Y362400D03*
X323500Y383800D03*
X302100D03*
X344900D03*
X442000Y365500D03*
X430000Y379000D03*
X432000Y383900D03*
X434500Y388500D03*
X427500Y369000D03*
X428500Y374000D03*
X427000Y362500D03*
X442500Y370500D03*
X437000Y392000D03*
X440000Y395500D03*
X444000Y398500D03*
X444200Y375400D03*
X417400Y362400D03*
Y383800D03*
X428100Y394500D03*
X406700Y373100D03*
Y394500D03*
X454000Y387500D03*
X480500Y394500D03*
X463000Y392500D03*
X458000Y390500D03*
X473000Y394500D03*
X485000Y392000D03*
X468000Y394000D03*
X457000Y366000D03*
Y374000D03*
X465000Y366000D03*
Y374000D03*
Y382000D03*
X473000Y366000D03*
Y374000D03*
Y382000D03*
X481000Y366000D03*
Y374000D03*
Y382000D03*
X450000Y383500D03*
X447000Y379500D03*
X449000Y366000D03*
X448000Y401500D03*
X504500Y390500D03*
X506500Y385500D03*
X507500Y371000D03*
X499500Y398500D03*
X507500Y362000D03*
X502500Y395000D03*
X507500Y375500D03*
Y380500D03*
Y366500D03*
X513700Y373100D03*
X520500Y383500D03*
Y373000D03*
Y362500D03*
Y394000D03*
X491500Y383500D03*
X492500Y378500D03*
Y368500D03*
X489000Y388000D03*
X492500Y373500D03*
Y362000D03*
X545800Y362400D03*
Y383800D03*
X556500Y373100D03*
Y394500D03*
X588600Y383800D03*
X567200D03*
X631400D03*
X610000D03*
X120200Y415900D03*
X163000D03*
X152300Y405200D03*
X141600Y415900D03*
X130900Y426600D03*
Y405200D03*
X166000Y404000D03*
X162500Y423500D03*
Y433500D03*
X157000Y428500D03*
X183500Y431000D03*
Y426000D03*
Y421000D03*
X198500Y431000D03*
X170500Y406500D03*
X198500Y426000D03*
Y421000D03*
Y441000D03*
X181000Y409000D03*
X175500Y408000D03*
X198500Y436000D03*
X204500Y405500D03*
X199500Y408000D03*
X183500Y441000D03*
Y436000D03*
X237900Y426600D03*
X234000Y404500D03*
X219500Y423500D03*
Y433500D03*
X209000Y402500D03*
X225000Y428500D03*
X267000Y422000D03*
X280700Y405200D03*
X248600Y415900D03*
X300000Y433000D03*
X443500Y428500D03*
X417400Y405200D03*
Y426600D03*
X428100Y415900D03*
X438800Y405200D03*
X406700Y415900D03*
X470000Y436000D03*
Y441000D03*
X486000Y408000D03*
X485000Y436000D03*
X462000Y408000D03*
X467500Y409000D03*
X485000Y441000D03*
Y421000D03*
Y426000D03*
X457000Y406500D03*
X485000Y431000D03*
X470000Y421000D03*
Y426000D03*
Y431000D03*
X449000Y433500D03*
Y423500D03*
X452500Y404000D03*
X449500Y415900D03*
X511500Y428500D03*
X495500Y402500D03*
X506000Y433500D03*
Y423500D03*
X520500Y404500D03*
X524400Y426600D03*
X491000Y405500D03*
X535100Y415900D03*
X553500Y422000D03*
X586500Y433000D03*
X567200Y405200D03*
X120200Y480100D03*
Y458700D03*
X109500Y469400D03*
Y448000D03*
X163000Y458700D03*
X152300Y448000D03*
X141600Y480100D03*
Y458700D03*
X130900Y469400D03*
Y448000D03*
X205800Y480100D03*
Y458700D03*
X173700Y448000D03*
X183500Y461000D03*
X198500Y456000D03*
Y451000D03*
Y446000D03*
Y461000D03*
X183500Y451000D03*
Y446000D03*
Y456000D03*
X237900Y469400D03*
Y448000D03*
X227200Y480100D03*
Y458700D03*
X216500Y469400D03*
Y448000D03*
X278000Y477000D03*
X256000D03*
X280700Y448000D03*
X270000Y458700D03*
X259300Y448000D03*
X248600Y458700D03*
X300000Y477000D03*
Y455000D03*
X289000Y466000D03*
X323500Y448000D03*
X366300Y469400D03*
Y448000D03*
X355600Y480100D03*
Y458700D03*
X344900Y469400D03*
Y448000D03*
X334200Y480100D03*
Y458700D03*
X396000Y448000D03*
Y469400D03*
X417400Y448000D03*
Y469400D03*
X428100Y458700D03*
Y480100D03*
X438800Y448000D03*
X406700Y458700D03*
Y480100D03*
X470000Y456000D03*
Y446000D03*
Y451000D03*
X485000Y461000D03*
Y446000D03*
Y451000D03*
Y456000D03*
X470000Y461000D03*
X460200Y448000D03*
X449500Y458700D03*
X503000Y448000D03*
Y469400D03*
X513700Y458700D03*
Y480100D03*
X524400Y448000D03*
Y469400D03*
X492300Y458700D03*
Y480100D03*
X535100Y458700D03*
X545800Y448000D03*
X556500Y458700D03*
X542500Y477000D03*
X564500D03*
X575500Y466000D03*
X586500Y455000D03*
Y477000D03*
X567200Y448000D03*
X620700Y458700D03*
Y480100D03*
X631400Y448000D03*
Y469400D03*
X642100Y458700D03*
Y480100D03*
X610000Y448000D03*
X652800D03*
Y469400D03*
X157000Y488000D03*
X146000Y499000D03*
X130900Y490800D03*
X190000Y499000D03*
X173700Y490800D03*
X237900D03*
X216500D03*
X278000Y499000D03*
X267000Y488000D03*
X256000Y499000D03*
X322000D03*
X300000D03*
X289000Y488000D03*
X344900Y490800D03*
X417400D03*
X432500Y499000D03*
X443500Y488000D03*
X460200Y490800D03*
X476500Y499000D03*
X503000Y490800D03*
X524400D03*
X542500Y499000D03*
X553500Y488000D03*
X564500Y499000D03*
X575500Y488000D03*
X586500Y499000D03*
X631400Y490800D03*
X608500Y499000D03*
G54D33*
X252823Y236823D02*
X251621Y235621D01*
X246177Y236823D02*
X247379Y235621D01*
X246177Y230177D02*
X247379Y231379D01*
X252823Y230177D02*
X251621Y231379D01*
X210738Y121738D02*
X209536Y120536D01*
X201262Y121738D02*
X202464Y120536D01*
X201262Y112262D02*
X202464Y113464D01*
X210738Y112262D02*
X209536Y113464D01*
X230738Y121738D02*
X229536Y120536D01*
X221262Y121738D02*
X222464Y120536D01*
X221262Y112262D02*
X222464Y113464D01*
X230738Y112262D02*
X229536Y113464D01*
X210738Y141738D02*
X209536Y140536D01*
X201262Y141738D02*
X202464Y140536D01*
X201262Y132262D02*
X202464Y133464D01*
X210738Y132262D02*
X209536Y133464D01*
X155762Y132262D02*
X156964Y133464D01*
X165238Y132262D02*
X164036Y133464D01*
X165238Y141738D02*
X164036Y140536D01*
X155762Y141738D02*
X156964Y140536D01*
X135762Y132262D02*
X136964Y133464D01*
X145238Y132262D02*
X144036Y133464D01*
X145238Y141738D02*
X144036Y140536D01*
X135762Y141738D02*
X136964Y140536D01*
X135762Y112262D02*
X136964Y113464D01*
X145238Y112262D02*
X144036Y113464D01*
X145238Y121738D02*
X144036Y120536D01*
X135762Y121738D02*
X136964Y120536D01*
X311939Y462786D02*
X313141Y463988D01*
X321061Y462786D02*
X319859Y463988D01*
X321061Y471907D02*
X319859Y470705D01*
X311939Y471907D02*
X313141Y470705D01*
X196262Y483262D02*
X197464Y484464D01*
X205738Y483262D02*
X204536Y484464D01*
X205738Y492738D02*
X204536Y491536D01*
X196262Y492738D02*
X197464Y491536D01*
X176262Y483262D02*
X177464Y484464D01*
X185738Y483262D02*
X184536Y484464D01*
X185738Y492738D02*
X184536Y491536D01*
X176262Y492738D02*
X177464Y491536D01*
X176262Y463262D02*
X177464Y464464D01*
X185738Y463262D02*
X184536Y464464D01*
X185738Y472738D02*
X184536Y471536D01*
X176262Y472738D02*
X177464Y471536D01*
X196262Y463262D02*
X197464Y464464D01*
X205738Y463262D02*
X204536Y464464D01*
X205738Y472738D02*
X204536Y471536D01*
X196262Y472738D02*
X197464Y471536D01*
X316164Y120290D02*
X314962Y119088D01*
X309584Y120290D02*
X310786Y119088D01*
X309584Y113710D02*
X310786Y114912D01*
X316164Y113710D02*
X314962Y114912D01*
X281412Y120290D02*
X280210Y119088D01*
X274832Y120290D02*
X276034Y119088D01*
X274832Y113710D02*
X276034Y114912D01*
X281412Y113710D02*
X280210Y114912D01*
X265664Y120290D02*
X264462Y119088D01*
X259084Y120290D02*
X260286Y119088D01*
X259084Y113710D02*
X260286Y114912D01*
X265664Y113710D02*
X264462Y114912D01*
X230738Y141738D02*
X229536Y140536D01*
X221262Y141738D02*
X222464Y140536D01*
X221262Y132262D02*
X222464Y133464D01*
X230738Y132262D02*
X229536Y133464D01*
X155762Y112262D02*
X156964Y113464D01*
X165238Y112262D02*
X164036Y113464D01*
X165238Y121738D02*
X164036Y120536D01*
X155762Y121738D02*
X156964Y120536D01*
X539323Y236823D02*
X538121Y235621D01*
X532677Y236823D02*
X533879Y235621D01*
X532677Y230177D02*
X533879Y231379D01*
X539323Y230177D02*
X538121Y231379D01*
X497238Y121738D02*
X496036Y120536D01*
X487762Y121738D02*
X488964Y120536D01*
X487762Y112262D02*
X488964Y113464D01*
X497238Y112262D02*
X496036Y113464D01*
X517238Y121738D02*
X516036Y120536D01*
X507762Y121738D02*
X508964Y120536D01*
X507762Y112262D02*
X508964Y113464D01*
X517238Y112262D02*
X516036Y113464D01*
X517238Y141738D02*
X516036Y140536D01*
X507762Y141738D02*
X508964Y140536D01*
X507762Y132262D02*
X508964Y133464D01*
X517238Y132262D02*
X516036Y133464D01*
X497238Y141738D02*
X496036Y140536D01*
X487762Y141738D02*
X488964Y140536D01*
X487762Y132262D02*
X488964Y133464D01*
X497238Y132262D02*
X496036Y133464D01*
X442262Y132262D02*
X443464Y133464D01*
X451738Y132262D02*
X450536Y133464D01*
X451738Y141738D02*
X450536Y140536D01*
X442262Y141738D02*
X443464Y140536D01*
X422262Y132262D02*
X423464Y133464D01*
X431738Y132262D02*
X430536Y133464D01*
X431738Y141738D02*
X430536Y140536D01*
X422262Y141738D02*
X423464Y140536D01*
X422262Y112262D02*
X423464Y113464D01*
X431738Y112262D02*
X430536Y113464D01*
X431738Y121738D02*
X430536Y120536D01*
X422262Y121738D02*
X423464Y120536D01*
X598439Y462786D02*
X599641Y463988D01*
X607561Y462786D02*
X606359Y463988D01*
X607561Y471907D02*
X606359Y470705D01*
X598439Y471907D02*
X599641Y470705D01*
X482762Y483262D02*
X483964Y484464D01*
X492238Y483262D02*
X491036Y484464D01*
X492238Y492738D02*
X491036Y491536D01*
X482762Y492738D02*
X483964Y491536D01*
X462762Y483262D02*
X463964Y484464D01*
X472238Y483262D02*
X471036Y484464D01*
X472238Y492738D02*
X471036Y491536D01*
X462762Y492738D02*
X463964Y491536D01*
X462762Y463262D02*
X463964Y464464D01*
X472238Y463262D02*
X471036Y464464D01*
X472238Y472738D02*
X471036Y471536D01*
X462762Y472738D02*
X463964Y471536D01*
X482762Y463262D02*
X483964Y464464D01*
X492238Y463262D02*
X491036Y464464D01*
X492238Y472738D02*
X491036Y471536D01*
X482762Y472738D02*
X483964Y471536D01*
X602664Y120290D02*
X601462Y119088D01*
X596084Y120290D02*
X597286Y119088D01*
X596084Y113710D02*
X597286Y114912D01*
X602664Y113710D02*
X601462Y114912D01*
X567912Y120290D02*
X566710Y119088D01*
X561332Y120290D02*
X562534Y119088D01*
X561332Y113710D02*
X562534Y114912D01*
X567912Y113710D02*
X566710Y114912D01*
X552164Y120290D02*
X550962Y119088D01*
X545584Y120290D02*
X546786Y119088D01*
X545584Y113710D02*
X546786Y114912D01*
X552164Y113710D02*
X550962Y114912D01*
X442262Y112262D02*
X443464Y113464D01*
X451738Y112262D02*
X450536Y113464D01*
X451738Y121738D02*
X450536Y120536D01*
X442262Y121738D02*
X443464Y120536D01*
X553708Y333382D02*
X552505Y332180D01*
X546292Y333382D02*
X547495Y332180D01*
X267208Y333382D02*
X266005Y332180D01*
X259792Y333382D02*
X260995Y332180D01*
G54D43*
X263500Y329675D03*
X550000D03*
G54D47*
X200673Y316843D03*
Y312906D03*
Y308969D03*
X487173Y316843D03*
Y312906D03*
Y308969D03*
G74*
X0Y0D02*
M02*
