*
*
G04 PADS 9.2 Build Number: 406656 generated Gerber (RS-274-X) file*
G04 PC Version=2.1*
*
%IN "2.4GHzAmp(PNL).pcb"*%
*
%MOIN*%
*
%FSLAX35Y35*%
*
*
*
*
G04 PC Standard Apertures*
*
*
G04 Thermal Relief Aperture macro.*
%AMTER*
1,1,$1,0,0*
1,0,$1-$2,0,0*
21,0,$3,$4,0,0,45*
21,0,$3,$4,0,0,135*
%
*
*
G04 Annular Aperture macro.*
%AMANN*
1,1,$1,0,0*
1,0,$2,0,0*
%
*
*
G04 Odd Aperture macro.*
%AMODD*
1,1,$1,0,0*
1,0,$1-0.005,0,0*
%
*
*
G04 PC Custom Aperture Macros*
*
*
*
*
*
*
G04 PC Aperture Table*
*
%ADD010C,0.001*%
%ADD011C,0.004*%
%ADD014C,0.06*%
%ADD015C,0.01*%
%ADD016C,0.008*%
%ADD018C,0.095*%
%ADD019C,0.1*%
%ADD024C,0.05906*%
%ADD027C,0.15*%
%ADD043C,0.07087*%
%ADD047R,0.02165X0.02165*%
%ADD048O,0.05906X0.01417*%
%ADD049O,0.05906X0.01378*%
%ADD050R,0.06688X0.022*%
%ADD052O,0.05827X0.01299*%
*
*
*
*
G04 PC Circuitry*
G04 Layer Name 2.4GHzAmp(PNL).pcb - circuitry*
%LPD*%
*
*
G04 PC Custom Flashes*
G04 Layer Name 2.4GHzAmp(PNL).pcb - flashes*
%LPD*%
*
*
G04 PC Circuitry*
G04 Layer Name 2.4GHzAmp(PNL).pcb - circuitry*
%LPD*%
*
G54D10*
G54D11*
G01X180700Y297700D02*
Y300300D01*
X184100*
Y297700*
X180700*
Y298000D02*
X184100D01*
X180700Y298400D02*
X184100D01*
X180700Y298800D02*
X184100D01*
X180700Y299200D02*
X184100D01*
X180700Y299600D02*
X184100D01*
X180700Y300000D02*
X184100D01*
X180800Y297700D02*
Y300300D01*
X181200Y297700D02*
Y300300D01*
X181600Y297700D02*
Y300300D01*
X182000Y297700D02*
Y300300D01*
X182400Y297700D02*
Y300300D01*
X182800Y297700D02*
Y300300D01*
X183200Y297700D02*
Y300300D01*
X183600Y297700D02*
Y300300D01*
X184000Y297700D02*
Y300300D01*
X186900Y297700D02*
Y300300D01*
X190300*
Y297700*
X186900*
Y298000D02*
X190300D01*
X186900Y298400D02*
X190300D01*
X186900Y298800D02*
X190300D01*
X186900Y299200D02*
X190300D01*
X186900Y299600D02*
X190300D01*
X186900Y300000D02*
X190300D01*
X187200Y297700D02*
Y300300D01*
X187600Y297700D02*
Y300300D01*
X188000Y297700D02*
Y300300D01*
X188400Y297700D02*
Y300300D01*
X188800Y297700D02*
Y300300D01*
X189200Y297700D02*
Y300300D01*
X189600Y297700D02*
Y300300D01*
X190000Y297700D02*
Y300300D01*
X180700Y292177D02*
Y294777D01*
X184100*
Y292177*
X180700*
Y292400D02*
X184100D01*
X180700Y292800D02*
X184100D01*
X180700Y293200D02*
X184100D01*
X180700Y293600D02*
X184100D01*
X180700Y294000D02*
X184100D01*
X180700Y294400D02*
X184100D01*
X180800Y292177D02*
Y294777D01*
X181200Y292177D02*
Y294777D01*
X181600Y292177D02*
Y294777D01*
X182000Y292177D02*
Y294777D01*
X182400Y292177D02*
Y294777D01*
X182800Y292177D02*
Y294777D01*
X183200Y292177D02*
Y294777D01*
X183600Y292177D02*
Y294777D01*
X184000Y292177D02*
Y294777D01*
X186900Y292177D02*
Y294777D01*
X190300*
Y292177*
X186900*
Y292400D02*
X190300D01*
X186900Y292800D02*
X190300D01*
X186900Y293200D02*
X190300D01*
X186900Y293600D02*
X190300D01*
X186900Y294000D02*
X190300D01*
X186900Y294400D02*
X190300D01*
X187200Y292177D02*
Y294777D01*
X187600Y292177D02*
Y294777D01*
X188000Y292177D02*
Y294777D01*
X188400Y292177D02*
Y294777D01*
X188800Y292177D02*
Y294777D01*
X189200Y292177D02*
Y294777D01*
X189600Y292177D02*
Y294777D01*
X190000Y292177D02*
Y294777D01*
X180700Y286641D02*
Y289241D01*
X184100*
Y286641*
X180700*
Y286800D02*
X184100D01*
X180700Y287200D02*
X184100D01*
X180700Y287600D02*
X184100D01*
X180700Y288000D02*
X184100D01*
X180700Y288400D02*
X184100D01*
X180700Y288800D02*
X184100D01*
X180700Y289200D02*
X184100D01*
X180800Y286641D02*
Y289241D01*
X181200Y286641D02*
Y289241D01*
X181600Y286641D02*
Y289241D01*
X182000Y286641D02*
Y289241D01*
X182400Y286641D02*
Y289241D01*
X182800Y286641D02*
Y289241D01*
X183200Y286641D02*
Y289241D01*
X183600Y286641D02*
Y289241D01*
X184000Y286641D02*
Y289241D01*
X186900Y286641D02*
Y289241D01*
X190300*
Y286641*
X186900*
Y286800D02*
X190300D01*
X186900Y287200D02*
X190300D01*
X186900Y287600D02*
X190300D01*
X186900Y288000D02*
X190300D01*
X186900Y288400D02*
X190300D01*
X186900Y288800D02*
X190300D01*
X186900Y289200D02*
X190300D01*
X187200Y286641D02*
Y289241D01*
X187600Y286641D02*
Y289241D01*
X188000Y286641D02*
Y289241D01*
X188400Y286641D02*
Y289241D01*
X188800Y286641D02*
Y289241D01*
X189200Y286641D02*
Y289241D01*
X189600Y286641D02*
Y289241D01*
X190000Y286641D02*
Y289241D01*
X190300Y311300D02*
Y308700D01*
X186900*
Y311300*
X190300*
X186900Y308800D02*
X190300D01*
X186900Y309200D02*
X190300D01*
X186900Y309600D02*
X190300D01*
X186900Y310000D02*
X190300D01*
X186900Y310400D02*
X190300D01*
X186900Y310800D02*
X190300D01*
X186900Y311200D02*
X190300D01*
X187200Y308700D02*
Y311300D01*
X187600Y308700D02*
Y311300D01*
X188000Y308700D02*
Y311300D01*
X188400Y308700D02*
Y311300D01*
X188800Y308700D02*
Y311300D01*
X189200Y308700D02*
Y311300D01*
X189600Y308700D02*
Y311300D01*
X190000Y308700D02*
Y311300D01*
X184100D02*
Y308700D01*
X180700*
Y311300*
X184100*
X180700Y308800D02*
X184100D01*
X180700Y309200D02*
X184100D01*
X180700Y309600D02*
X184100D01*
X180700Y310000D02*
X184100D01*
X180700Y310400D02*
X184100D01*
X180700Y310800D02*
X184100D01*
X180700Y311200D02*
X184100D01*
X180800Y308700D02*
Y311300D01*
X181200Y308700D02*
Y311300D01*
X181600Y308700D02*
Y311300D01*
X182000Y308700D02*
Y311300D01*
X182400Y308700D02*
Y311300D01*
X182800Y308700D02*
Y311300D01*
X183200Y308700D02*
Y311300D01*
X183600Y308700D02*
Y311300D01*
X184000Y308700D02*
Y311300D01*
X175300Y300300D02*
Y297700D01*
X171900*
Y300300*
X175300*
X171900Y298000D02*
X175300D01*
X171900Y298400D02*
X175300D01*
X171900Y298800D02*
X175300D01*
X171900Y299200D02*
X175300D01*
X171900Y299600D02*
X175300D01*
X171900Y300000D02*
X175300D01*
X172000Y297700D02*
Y300300D01*
X172400Y297700D02*
Y300300D01*
X172800Y297700D02*
Y300300D01*
X173200Y297700D02*
Y300300D01*
X173600Y297700D02*
Y300300D01*
X174000Y297700D02*
Y300300D01*
X174400Y297700D02*
Y300300D01*
X174800Y297700D02*
Y300300D01*
X175200Y297700D02*
Y300300D01*
X169100D02*
Y297700D01*
X165700*
Y300300*
X169100*
X165700Y298000D02*
X169100D01*
X165700Y298400D02*
X169100D01*
X165700Y298800D02*
X169100D01*
X165700Y299200D02*
X169100D01*
X165700Y299600D02*
X169100D01*
X165700Y300000D02*
X169100D01*
X166000Y297700D02*
Y300300D01*
X166400Y297700D02*
Y300300D01*
X166800Y297700D02*
Y300300D01*
X167200Y297700D02*
Y300300D01*
X167600Y297700D02*
Y300300D01*
X168000Y297700D02*
Y300300D01*
X168400Y297700D02*
Y300300D01*
X168800Y297700D02*
Y300300D01*
X175300Y289300D02*
Y286700D01*
X171900*
Y289300*
X175300*
X171900Y286800D02*
X175300D01*
X171900Y287200D02*
X175300D01*
X171900Y287600D02*
X175300D01*
X171900Y288000D02*
X175300D01*
X171900Y288400D02*
X175300D01*
X171900Y288800D02*
X175300D01*
X171900Y289200D02*
X175300D01*
X172000Y286700D02*
Y289300D01*
X172400Y286700D02*
Y289300D01*
X172800Y286700D02*
Y289300D01*
X173200Y286700D02*
Y289300D01*
X173600Y286700D02*
Y289300D01*
X174000Y286700D02*
Y289300D01*
X174400Y286700D02*
Y289300D01*
X174800Y286700D02*
Y289300D01*
X175200Y286700D02*
Y289300D01*
X169100D02*
Y286700D01*
X165700*
Y289300*
X169100*
X165700Y286800D02*
X169100D01*
X165700Y287200D02*
X169100D01*
X165700Y287600D02*
X169100D01*
X165700Y288000D02*
X169100D01*
X165700Y288400D02*
X169100D01*
X165700Y288800D02*
X169100D01*
X165700Y289200D02*
X169100D01*
X166000Y286700D02*
Y289300D01*
X166400Y286700D02*
Y289300D01*
X166800Y286700D02*
Y289300D01*
X167200Y286700D02*
Y289300D01*
X167600Y286700D02*
Y289300D01*
X168000Y286700D02*
Y289300D01*
X168400Y286700D02*
Y289300D01*
X168800Y286700D02*
Y289300D01*
X165700Y314200D02*
Y316800D01*
X169100*
Y314200*
X165700*
Y314400D02*
X169100D01*
X165700Y314800D02*
X169100D01*
X165700Y315200D02*
X169100D01*
X165700Y315600D02*
X169100D01*
X165700Y316000D02*
X169100D01*
X165700Y316400D02*
X169100D01*
X165700Y316800D02*
X169100D01*
X166000Y314200D02*
Y316800D01*
X166400Y314200D02*
Y316800D01*
X166800Y314200D02*
Y316800D01*
X167200Y314200D02*
Y316800D01*
X167600Y314200D02*
Y316800D01*
X168000Y314200D02*
Y316800D01*
X168400Y314200D02*
Y316800D01*
X168800Y314200D02*
Y316800D01*
X171900Y314200D02*
Y316800D01*
X175300*
Y314200*
X171900*
Y314400D02*
X175300D01*
X171900Y314800D02*
X175300D01*
X171900Y315200D02*
X175300D01*
X171900Y315600D02*
X175300D01*
X171900Y316000D02*
X175300D01*
X171900Y316400D02*
X175300D01*
X171900Y316800D02*
X175300D01*
X172000Y314200D02*
Y316800D01*
X172400Y314200D02*
Y316800D01*
X172800Y314200D02*
Y316800D01*
X173200Y314200D02*
Y316800D01*
X173600Y314200D02*
Y316800D01*
X174000Y314200D02*
Y316800D01*
X174400Y314200D02*
Y316800D01*
X174800Y314200D02*
Y316800D01*
X175200Y314200D02*
Y316800D01*
X165700Y308700D02*
Y311300D01*
X169100*
Y308700*
X165700*
Y308800D02*
X169100D01*
X165700Y309200D02*
X169100D01*
X165700Y309600D02*
X169100D01*
X165700Y310000D02*
X169100D01*
X165700Y310400D02*
X169100D01*
X165700Y310800D02*
X169100D01*
X165700Y311200D02*
X169100D01*
X166000Y308700D02*
Y311300D01*
X166400Y308700D02*
Y311300D01*
X166800Y308700D02*
Y311300D01*
X167200Y308700D02*
Y311300D01*
X167600Y308700D02*
Y311300D01*
X168000Y308700D02*
Y311300D01*
X168400Y308700D02*
Y311300D01*
X168800Y308700D02*
Y311300D01*
X171900Y308700D02*
Y311300D01*
X175300*
Y308700*
X171900*
Y308800D02*
X175300D01*
X171900Y309200D02*
X175300D01*
X171900Y309600D02*
X175300D01*
X171900Y310000D02*
X175300D01*
X171900Y310400D02*
X175300D01*
X171900Y310800D02*
X175300D01*
X171900Y311200D02*
X175300D01*
X172000Y308700D02*
Y311300D01*
X172400Y308700D02*
Y311300D01*
X172800Y308700D02*
Y311300D01*
X173200Y308700D02*
Y311300D01*
X173600Y308700D02*
Y311300D01*
X174000Y308700D02*
Y311300D01*
X174400Y308700D02*
Y311300D01*
X174800Y308700D02*
Y311300D01*
X175200Y308700D02*
Y311300D01*
X175300Y322300D02*
Y319700D01*
X171900*
Y322300*
X175300*
X171900Y320000D02*
X175300D01*
X171900Y320400D02*
X175300D01*
X171900Y320800D02*
X175300D01*
X171900Y321200D02*
X175300D01*
X171900Y321600D02*
X175300D01*
X171900Y322000D02*
X175300D01*
X172000Y319700D02*
Y322300D01*
X172400Y319700D02*
Y322300D01*
X172800Y319700D02*
Y322300D01*
X173200Y319700D02*
Y322300D01*
X173600Y319700D02*
Y322300D01*
X174000Y319700D02*
Y322300D01*
X174400Y319700D02*
Y322300D01*
X174800Y319700D02*
Y322300D01*
X175200Y319700D02*
Y322300D01*
X169100D02*
Y319700D01*
X165700*
Y322300*
X169100*
X165700Y320000D02*
X169100D01*
X165700Y320400D02*
X169100D01*
X165700Y320800D02*
X169100D01*
X165700Y321200D02*
X169100D01*
X165700Y321600D02*
X169100D01*
X165700Y322000D02*
X169100D01*
X166000Y319700D02*
Y322300D01*
X166400Y319700D02*
Y322300D01*
X166800Y319700D02*
Y322300D01*
X167200Y319700D02*
Y322300D01*
X167600Y319700D02*
Y322300D01*
X168000Y319700D02*
Y322300D01*
X168400Y319700D02*
Y322300D01*
X168800Y319700D02*
Y322300D01*
X175300Y305800D02*
Y303200D01*
X171900*
Y305800*
X175300*
X171900Y303200D02*
X175300D01*
X171900Y303600D02*
X175300D01*
X171900Y304000D02*
X175300D01*
X171900Y304400D02*
X175300D01*
X171900Y304800D02*
X175300D01*
X171900Y305200D02*
X175300D01*
X171900Y305600D02*
X175300D01*
X172000Y303200D02*
Y305800D01*
X172400Y303200D02*
Y305800D01*
X172800Y303200D02*
Y305800D01*
X173200Y303200D02*
Y305800D01*
X173600Y303200D02*
Y305800D01*
X174000Y303200D02*
Y305800D01*
X174400Y303200D02*
Y305800D01*
X174800Y303200D02*
Y305800D01*
X175200Y303200D02*
Y305800D01*
X169100D02*
Y303200D01*
X165700*
Y305800*
X169100*
X165700Y303200D02*
X169100D01*
X165700Y303600D02*
X169100D01*
X165700Y304000D02*
X169100D01*
X165700Y304400D02*
X169100D01*
X165700Y304800D02*
X169100D01*
X165700Y305200D02*
X169100D01*
X165700Y305600D02*
X169100D01*
X166000Y303200D02*
Y305800D01*
X166400Y303200D02*
Y305800D01*
X166800Y303200D02*
Y305800D01*
X167200Y303200D02*
Y305800D01*
X167600Y303200D02*
Y305800D01*
X168000Y303200D02*
Y305800D01*
X168400Y303200D02*
Y305800D01*
X168800Y303200D02*
Y305800D01*
X190412Y305851D02*
Y303251D01*
X187012*
Y305851*
X190412*
X187012Y303600D02*
X190412D01*
X187012Y304000D02*
X190412D01*
X187012Y304400D02*
X190412D01*
X187012Y304800D02*
X190412D01*
X187012Y305200D02*
X190412D01*
X187012Y305600D02*
X190412D01*
X187200Y303251D02*
Y305851D01*
X187600Y303251D02*
Y305851D01*
X188000Y303251D02*
Y305851D01*
X188400Y303251D02*
Y305851D01*
X188800Y303251D02*
Y305851D01*
X189200Y303251D02*
Y305851D01*
X189600Y303251D02*
Y305851D01*
X190000Y303251D02*
Y305851D01*
X190400Y303251D02*
Y305851D01*
X184212D02*
Y303251D01*
X180812*
Y305851*
X184212*
X180812Y303600D02*
X184212D01*
X180812Y304000D02*
X184212D01*
X180812Y304400D02*
X184212D01*
X180812Y304800D02*
X184212D01*
X180812Y305200D02*
X184212D01*
X180812Y305600D02*
X184212D01*
X181200Y303251D02*
Y305851D01*
X181600Y303251D02*
Y305851D01*
X182000Y303251D02*
Y305851D01*
X182400Y303251D02*
Y305851D01*
X182800Y303251D02*
Y305851D01*
X183200Y303251D02*
Y305851D01*
X183600Y303251D02*
Y305851D01*
X184000Y303251D02*
Y305851D01*
X165700Y292200D02*
Y294800D01*
X169100*
Y292200*
X165700*
Y292400D02*
X169100D01*
X165700Y292800D02*
X169100D01*
X165700Y293200D02*
X169100D01*
X165700Y293600D02*
X169100D01*
X165700Y294000D02*
X169100D01*
X165700Y294400D02*
X169100D01*
X165700Y294800D02*
X169100D01*
X166000Y292200D02*
Y294800D01*
X166400Y292200D02*
Y294800D01*
X166800Y292200D02*
Y294800D01*
X167200Y292200D02*
Y294800D01*
X167600Y292200D02*
Y294800D01*
X168000Y292200D02*
Y294800D01*
X168400Y292200D02*
Y294800D01*
X168800Y292200D02*
Y294800D01*
X171900Y292200D02*
Y294800D01*
X175300*
Y292200*
X171900*
Y292400D02*
X175300D01*
X171900Y292800D02*
X175300D01*
X171900Y293200D02*
X175300D01*
X171900Y293600D02*
X175300D01*
X171900Y294000D02*
X175300D01*
X171900Y294400D02*
X175300D01*
X171900Y294800D02*
X175300D01*
X172000Y292200D02*
Y294800D01*
X172400Y292200D02*
Y294800D01*
X172800Y292200D02*
Y294800D01*
X173200Y292200D02*
Y294800D01*
X173600Y292200D02*
Y294800D01*
X174000Y292200D02*
Y294800D01*
X174400Y292200D02*
Y294800D01*
X174800Y292200D02*
Y294800D01*
X175200Y292200D02*
Y294800D01*
X190300Y322300D02*
Y319700D01*
X186900*
Y322300*
X190300*
X186900Y320000D02*
X190300D01*
X186900Y320400D02*
X190300D01*
X186900Y320800D02*
X190300D01*
X186900Y321200D02*
X190300D01*
X186900Y321600D02*
X190300D01*
X186900Y322000D02*
X190300D01*
X187200Y319700D02*
Y322300D01*
X187600Y319700D02*
Y322300D01*
X188000Y319700D02*
Y322300D01*
X188400Y319700D02*
Y322300D01*
X188800Y319700D02*
Y322300D01*
X189200Y319700D02*
Y322300D01*
X189600Y319700D02*
Y322300D01*
X190000Y319700D02*
Y322300D01*
X184100D02*
Y319700D01*
X180700*
Y322300*
X184100*
X180700Y320000D02*
X184100D01*
X180700Y320400D02*
X184100D01*
X180700Y320800D02*
X184100D01*
X180700Y321200D02*
X184100D01*
X180700Y321600D02*
X184100D01*
X180700Y322000D02*
X184100D01*
X180800Y319700D02*
Y322300D01*
X181200Y319700D02*
Y322300D01*
X181600Y319700D02*
Y322300D01*
X182000Y319700D02*
Y322300D01*
X182400Y319700D02*
Y322300D01*
X182800Y319700D02*
Y322300D01*
X183200Y319700D02*
Y322300D01*
X183600Y319700D02*
Y322300D01*
X184000Y319700D02*
Y322300D01*
X190300Y316800D02*
Y314200D01*
X186900*
Y316800*
X190300*
X186900Y314400D02*
X190300D01*
X186900Y314800D02*
X190300D01*
X186900Y315200D02*
X190300D01*
X186900Y315600D02*
X190300D01*
X186900Y316000D02*
X190300D01*
X186900Y316400D02*
X190300D01*
X186900Y316800D02*
X190300D01*
X187200Y314200D02*
Y316800D01*
X187600Y314200D02*
Y316800D01*
X188000Y314200D02*
Y316800D01*
X188400Y314200D02*
Y316800D01*
X188800Y314200D02*
Y316800D01*
X189200Y314200D02*
Y316800D01*
X189600Y314200D02*
Y316800D01*
X190000Y314200D02*
Y316800D01*
X184100D02*
Y314200D01*
X180700*
Y316800*
X184100*
X180700Y314400D02*
X184100D01*
X180700Y314800D02*
X184100D01*
X180700Y315200D02*
X184100D01*
X180700Y315600D02*
X184100D01*
X180700Y316000D02*
X184100D01*
X180700Y316400D02*
X184100D01*
X180700Y316800D02*
X184100D01*
X180800Y314200D02*
Y316800D01*
X181200Y314200D02*
Y316800D01*
X181600Y314200D02*
Y316800D01*
X182000Y314200D02*
Y316800D01*
X182400Y314200D02*
Y316800D01*
X182800Y314200D02*
Y316800D01*
X183200Y314200D02*
Y316800D01*
X183600Y314200D02*
Y316800D01*
X184000Y314200D02*
Y316800D01*
X240000Y203100D02*
Y200500D01*
X236600*
Y203100*
X240000*
X236600Y200800D02*
X240000D01*
X236600Y201200D02*
X240000D01*
X236600Y201600D02*
X240000D01*
X236600Y202000D02*
X240000D01*
X236600Y202400D02*
X240000D01*
X236600Y202800D02*
X240000D01*
X236800Y200500D02*
Y203100D01*
X237200Y200500D02*
Y203100D01*
X237600Y200500D02*
Y203100D01*
X238000Y200500D02*
Y203100D01*
X238400Y200500D02*
Y203100D01*
X238800Y200500D02*
Y203100D01*
X239200Y200500D02*
Y203100D01*
X239600Y200500D02*
Y203100D01*
X240000Y200500D02*
Y203100D01*
X233800D02*
Y200500D01*
X230400*
Y203100*
X233800*
X230400Y200800D02*
X233800D01*
X230400Y201200D02*
X233800D01*
X230400Y201600D02*
X233800D01*
X230400Y202000D02*
X233800D01*
X230400Y202400D02*
X233800D01*
X230400Y202800D02*
X233800D01*
X230400Y200500D02*
Y203100D01*
X230800Y200500D02*
Y203100D01*
X231200Y200500D02*
Y203100D01*
X231600Y200500D02*
Y203100D01*
X232000Y200500D02*
Y203100D01*
X232400Y200500D02*
Y203100D01*
X232800Y200500D02*
Y203100D01*
X233200Y200500D02*
Y203100D01*
X233600Y200500D02*
Y203100D01*
X257200Y209900D02*
Y212500D01*
X260600*
Y209900*
X257200*
Y210000D02*
X260600D01*
X257200Y210400D02*
X260600D01*
X257200Y210800D02*
X260600D01*
X257200Y211200D02*
X260600D01*
X257200Y211600D02*
X260600D01*
X257200Y212000D02*
X260600D01*
X257200Y212400D02*
X260600D01*
X257200Y209900D02*
Y212500D01*
X257600Y209900D02*
Y212500D01*
X258000Y209900D02*
Y212500D01*
X258400Y209900D02*
Y212500D01*
X258800Y209900D02*
Y212500D01*
X259200Y209900D02*
Y212500D01*
X259600Y209900D02*
Y212500D01*
X260000Y209900D02*
Y212500D01*
X260400Y209900D02*
Y212500D01*
X263400Y209900D02*
Y212500D01*
X266800*
Y209900*
X263400*
Y210000D02*
X266800D01*
X263400Y210400D02*
X266800D01*
X263400Y210800D02*
X266800D01*
X263400Y211200D02*
X266800D01*
X263400Y211600D02*
X266800D01*
X263400Y212000D02*
X266800D01*
X263400Y212400D02*
X266800D01*
X263600Y209900D02*
Y212500D01*
X264000Y209900D02*
Y212500D01*
X264400Y209900D02*
Y212500D01*
X264800Y209900D02*
Y212500D01*
X265200Y209900D02*
Y212500D01*
X265600Y209900D02*
Y212500D01*
X266000Y209900D02*
Y212500D01*
X266400Y209900D02*
Y212500D01*
X266800Y209900D02*
Y212500D01*
X467200Y297700D02*
Y300300D01*
X470600*
Y297700*
X467200*
Y298000D02*
X470600D01*
X467200Y298400D02*
X470600D01*
X467200Y298800D02*
X470600D01*
X467200Y299200D02*
X470600D01*
X467200Y299600D02*
X470600D01*
X467200Y300000D02*
X470600D01*
X467200Y297700D02*
Y300300D01*
X467600Y297700D02*
Y300300D01*
X468000Y297700D02*
Y300300D01*
X468400Y297700D02*
Y300300D01*
X468800Y297700D02*
Y300300D01*
X469200Y297700D02*
Y300300D01*
X469600Y297700D02*
Y300300D01*
X470000Y297700D02*
Y300300D01*
X470400Y297700D02*
Y300300D01*
X473400Y297700D02*
Y300300D01*
X476800*
Y297700*
X473400*
Y298000D02*
X476800D01*
X473400Y298400D02*
X476800D01*
X473400Y298800D02*
X476800D01*
X473400Y299200D02*
X476800D01*
X473400Y299600D02*
X476800D01*
X473400Y300000D02*
X476800D01*
X473600Y297700D02*
Y300300D01*
X474000Y297700D02*
Y300300D01*
X474400Y297700D02*
Y300300D01*
X474800Y297700D02*
Y300300D01*
X475200Y297700D02*
Y300300D01*
X475600Y297700D02*
Y300300D01*
X476000Y297700D02*
Y300300D01*
X476400Y297700D02*
Y300300D01*
X476800Y297700D02*
Y300300D01*
X467200Y292177D02*
Y294777D01*
X470600*
Y292177*
X467200*
Y292400D02*
X470600D01*
X467200Y292800D02*
X470600D01*
X467200Y293200D02*
X470600D01*
X467200Y293600D02*
X470600D01*
X467200Y294000D02*
X470600D01*
X467200Y294400D02*
X470600D01*
X467200Y292177D02*
Y294777D01*
X467600Y292177D02*
Y294777D01*
X468000Y292177D02*
Y294777D01*
X468400Y292177D02*
Y294777D01*
X468800Y292177D02*
Y294777D01*
X469200Y292177D02*
Y294777D01*
X469600Y292177D02*
Y294777D01*
X470000Y292177D02*
Y294777D01*
X470400Y292177D02*
Y294777D01*
X473400Y292177D02*
Y294777D01*
X476800*
Y292177*
X473400*
Y292400D02*
X476800D01*
X473400Y292800D02*
X476800D01*
X473400Y293200D02*
X476800D01*
X473400Y293600D02*
X476800D01*
X473400Y294000D02*
X476800D01*
X473400Y294400D02*
X476800D01*
X473600Y292177D02*
Y294777D01*
X474000Y292177D02*
Y294777D01*
X474400Y292177D02*
Y294777D01*
X474800Y292177D02*
Y294777D01*
X475200Y292177D02*
Y294777D01*
X475600Y292177D02*
Y294777D01*
X476000Y292177D02*
Y294777D01*
X476400Y292177D02*
Y294777D01*
X476800Y292177D02*
Y294777D01*
X467200Y286641D02*
Y289241D01*
X470600*
Y286641*
X467200*
Y286800D02*
X470600D01*
X467200Y287200D02*
X470600D01*
X467200Y287600D02*
X470600D01*
X467200Y288000D02*
X470600D01*
X467200Y288400D02*
X470600D01*
X467200Y288800D02*
X470600D01*
X467200Y289200D02*
X470600D01*
X467200Y286641D02*
Y289241D01*
X467600Y286641D02*
Y289241D01*
X468000Y286641D02*
Y289241D01*
X468400Y286641D02*
Y289241D01*
X468800Y286641D02*
Y289241D01*
X469200Y286641D02*
Y289241D01*
X469600Y286641D02*
Y289241D01*
X470000Y286641D02*
Y289241D01*
X470400Y286641D02*
Y289241D01*
X473400Y286641D02*
Y289241D01*
X476800*
Y286641*
X473400*
Y286800D02*
X476800D01*
X473400Y287200D02*
X476800D01*
X473400Y287600D02*
X476800D01*
X473400Y288000D02*
X476800D01*
X473400Y288400D02*
X476800D01*
X473400Y288800D02*
X476800D01*
X473400Y289200D02*
X476800D01*
X473600Y286641D02*
Y289241D01*
X474000Y286641D02*
Y289241D01*
X474400Y286641D02*
Y289241D01*
X474800Y286641D02*
Y289241D01*
X475200Y286641D02*
Y289241D01*
X475600Y286641D02*
Y289241D01*
X476000Y286641D02*
Y289241D01*
X476400Y286641D02*
Y289241D01*
X476800Y286641D02*
Y289241D01*
Y311300D02*
Y308700D01*
X473400*
Y311300*
X476800*
X473400Y308800D02*
X476800D01*
X473400Y309200D02*
X476800D01*
X473400Y309600D02*
X476800D01*
X473400Y310000D02*
X476800D01*
X473400Y310400D02*
X476800D01*
X473400Y310800D02*
X476800D01*
X473400Y311200D02*
X476800D01*
X473600Y308700D02*
Y311300D01*
X474000Y308700D02*
Y311300D01*
X474400Y308700D02*
Y311300D01*
X474800Y308700D02*
Y311300D01*
X475200Y308700D02*
Y311300D01*
X475600Y308700D02*
Y311300D01*
X476000Y308700D02*
Y311300D01*
X476400Y308700D02*
Y311300D01*
X476800Y308700D02*
Y311300D01*
X470600D02*
Y308700D01*
X467200*
Y311300*
X470600*
X467200Y308800D02*
X470600D01*
X467200Y309200D02*
X470600D01*
X467200Y309600D02*
X470600D01*
X467200Y310000D02*
X470600D01*
X467200Y310400D02*
X470600D01*
X467200Y310800D02*
X470600D01*
X467200Y311200D02*
X470600D01*
X467200Y308700D02*
Y311300D01*
X467600Y308700D02*
Y311300D01*
X468000Y308700D02*
Y311300D01*
X468400Y308700D02*
Y311300D01*
X468800Y308700D02*
Y311300D01*
X469200Y308700D02*
Y311300D01*
X469600Y308700D02*
Y311300D01*
X470000Y308700D02*
Y311300D01*
X470400Y308700D02*
Y311300D01*
X461800Y300300D02*
Y297700D01*
X458400*
Y300300*
X461800*
X458400Y298000D02*
X461800D01*
X458400Y298400D02*
X461800D01*
X458400Y298800D02*
X461800D01*
X458400Y299200D02*
X461800D01*
X458400Y299600D02*
X461800D01*
X458400Y300000D02*
X461800D01*
X458400Y297700D02*
Y300300D01*
X458800Y297700D02*
Y300300D01*
X459200Y297700D02*
Y300300D01*
X459600Y297700D02*
Y300300D01*
X460000Y297700D02*
Y300300D01*
X460400Y297700D02*
Y300300D01*
X460800Y297700D02*
Y300300D01*
X461200Y297700D02*
Y300300D01*
X461600Y297700D02*
Y300300D01*
X455600D02*
Y297700D01*
X452200*
Y300300*
X455600*
X452200Y298000D02*
X455600D01*
X452200Y298400D02*
X455600D01*
X452200Y298800D02*
X455600D01*
X452200Y299200D02*
X455600D01*
X452200Y299600D02*
X455600D01*
X452200Y300000D02*
X455600D01*
X452400Y297700D02*
Y300300D01*
X452800Y297700D02*
Y300300D01*
X453200Y297700D02*
Y300300D01*
X453600Y297700D02*
Y300300D01*
X454000Y297700D02*
Y300300D01*
X454400Y297700D02*
Y300300D01*
X454800Y297700D02*
Y300300D01*
X455200Y297700D02*
Y300300D01*
X455600Y297700D02*
Y300300D01*
X461800Y289300D02*
Y286700D01*
X458400*
Y289300*
X461800*
X458400Y286800D02*
X461800D01*
X458400Y287200D02*
X461800D01*
X458400Y287600D02*
X461800D01*
X458400Y288000D02*
X461800D01*
X458400Y288400D02*
X461800D01*
X458400Y288800D02*
X461800D01*
X458400Y289200D02*
X461800D01*
X458400Y286700D02*
Y289300D01*
X458800Y286700D02*
Y289300D01*
X459200Y286700D02*
Y289300D01*
X459600Y286700D02*
Y289300D01*
X460000Y286700D02*
Y289300D01*
X460400Y286700D02*
Y289300D01*
X460800Y286700D02*
Y289300D01*
X461200Y286700D02*
Y289300D01*
X461600Y286700D02*
Y289300D01*
X455600D02*
Y286700D01*
X452200*
Y289300*
X455600*
X452200Y286800D02*
X455600D01*
X452200Y287200D02*
X455600D01*
X452200Y287600D02*
X455600D01*
X452200Y288000D02*
X455600D01*
X452200Y288400D02*
X455600D01*
X452200Y288800D02*
X455600D01*
X452200Y289200D02*
X455600D01*
X452400Y286700D02*
Y289300D01*
X452800Y286700D02*
Y289300D01*
X453200Y286700D02*
Y289300D01*
X453600Y286700D02*
Y289300D01*
X454000Y286700D02*
Y289300D01*
X454400Y286700D02*
Y289300D01*
X454800Y286700D02*
Y289300D01*
X455200Y286700D02*
Y289300D01*
X455600Y286700D02*
Y289300D01*
X452200Y314200D02*
Y316800D01*
X455600*
Y314200*
X452200*
Y314400D02*
X455600D01*
X452200Y314800D02*
X455600D01*
X452200Y315200D02*
X455600D01*
X452200Y315600D02*
X455600D01*
X452200Y316000D02*
X455600D01*
X452200Y316400D02*
X455600D01*
X452200Y316800D02*
X455600D01*
X452400Y314200D02*
Y316800D01*
X452800Y314200D02*
Y316800D01*
X453200Y314200D02*
Y316800D01*
X453600Y314200D02*
Y316800D01*
X454000Y314200D02*
Y316800D01*
X454400Y314200D02*
Y316800D01*
X454800Y314200D02*
Y316800D01*
X455200Y314200D02*
Y316800D01*
X455600Y314200D02*
Y316800D01*
X458400Y314200D02*
Y316800D01*
X461800*
Y314200*
X458400*
Y314400D02*
X461800D01*
X458400Y314800D02*
X461800D01*
X458400Y315200D02*
X461800D01*
X458400Y315600D02*
X461800D01*
X458400Y316000D02*
X461800D01*
X458400Y316400D02*
X461800D01*
X458400Y316800D02*
X461800D01*
X458400Y314200D02*
Y316800D01*
X458800Y314200D02*
Y316800D01*
X459200Y314200D02*
Y316800D01*
X459600Y314200D02*
Y316800D01*
X460000Y314200D02*
Y316800D01*
X460400Y314200D02*
Y316800D01*
X460800Y314200D02*
Y316800D01*
X461200Y314200D02*
Y316800D01*
X461600Y314200D02*
Y316800D01*
X452200Y308700D02*
Y311300D01*
X455600*
Y308700*
X452200*
Y308800D02*
X455600D01*
X452200Y309200D02*
X455600D01*
X452200Y309600D02*
X455600D01*
X452200Y310000D02*
X455600D01*
X452200Y310400D02*
X455600D01*
X452200Y310800D02*
X455600D01*
X452200Y311200D02*
X455600D01*
X452400Y308700D02*
Y311300D01*
X452800Y308700D02*
Y311300D01*
X453200Y308700D02*
Y311300D01*
X453600Y308700D02*
Y311300D01*
X454000Y308700D02*
Y311300D01*
X454400Y308700D02*
Y311300D01*
X454800Y308700D02*
Y311300D01*
X455200Y308700D02*
Y311300D01*
X455600Y308700D02*
Y311300D01*
X458400Y308700D02*
Y311300D01*
X461800*
Y308700*
X458400*
Y308800D02*
X461800D01*
X458400Y309200D02*
X461800D01*
X458400Y309600D02*
X461800D01*
X458400Y310000D02*
X461800D01*
X458400Y310400D02*
X461800D01*
X458400Y310800D02*
X461800D01*
X458400Y311200D02*
X461800D01*
X458400Y308700D02*
Y311300D01*
X458800Y308700D02*
Y311300D01*
X459200Y308700D02*
Y311300D01*
X459600Y308700D02*
Y311300D01*
X460000Y308700D02*
Y311300D01*
X460400Y308700D02*
Y311300D01*
X460800Y308700D02*
Y311300D01*
X461200Y308700D02*
Y311300D01*
X461600Y308700D02*
Y311300D01*
X461800Y322300D02*
Y319700D01*
X458400*
Y322300*
X461800*
X458400Y320000D02*
X461800D01*
X458400Y320400D02*
X461800D01*
X458400Y320800D02*
X461800D01*
X458400Y321200D02*
X461800D01*
X458400Y321600D02*
X461800D01*
X458400Y322000D02*
X461800D01*
X458400Y319700D02*
Y322300D01*
X458800Y319700D02*
Y322300D01*
X459200Y319700D02*
Y322300D01*
X459600Y319700D02*
Y322300D01*
X460000Y319700D02*
Y322300D01*
X460400Y319700D02*
Y322300D01*
X460800Y319700D02*
Y322300D01*
X461200Y319700D02*
Y322300D01*
X461600Y319700D02*
Y322300D01*
X455600D02*
Y319700D01*
X452200*
Y322300*
X455600*
X452200Y320000D02*
X455600D01*
X452200Y320400D02*
X455600D01*
X452200Y320800D02*
X455600D01*
X452200Y321200D02*
X455600D01*
X452200Y321600D02*
X455600D01*
X452200Y322000D02*
X455600D01*
X452400Y319700D02*
Y322300D01*
X452800Y319700D02*
Y322300D01*
X453200Y319700D02*
Y322300D01*
X453600Y319700D02*
Y322300D01*
X454000Y319700D02*
Y322300D01*
X454400Y319700D02*
Y322300D01*
X454800Y319700D02*
Y322300D01*
X455200Y319700D02*
Y322300D01*
X455600Y319700D02*
Y322300D01*
X461800Y305800D02*
Y303200D01*
X458400*
Y305800*
X461800*
X458400Y303200D02*
X461800D01*
X458400Y303600D02*
X461800D01*
X458400Y304000D02*
X461800D01*
X458400Y304400D02*
X461800D01*
X458400Y304800D02*
X461800D01*
X458400Y305200D02*
X461800D01*
X458400Y305600D02*
X461800D01*
X458400Y303200D02*
Y305800D01*
X458800Y303200D02*
Y305800D01*
X459200Y303200D02*
Y305800D01*
X459600Y303200D02*
Y305800D01*
X460000Y303200D02*
Y305800D01*
X460400Y303200D02*
Y305800D01*
X460800Y303200D02*
Y305800D01*
X461200Y303200D02*
Y305800D01*
X461600Y303200D02*
Y305800D01*
X455600D02*
Y303200D01*
X452200*
Y305800*
X455600*
X452200Y303200D02*
X455600D01*
X452200Y303600D02*
X455600D01*
X452200Y304000D02*
X455600D01*
X452200Y304400D02*
X455600D01*
X452200Y304800D02*
X455600D01*
X452200Y305200D02*
X455600D01*
X452200Y305600D02*
X455600D01*
X452400Y303200D02*
Y305800D01*
X452800Y303200D02*
Y305800D01*
X453200Y303200D02*
Y305800D01*
X453600Y303200D02*
Y305800D01*
X454000Y303200D02*
Y305800D01*
X454400Y303200D02*
Y305800D01*
X454800Y303200D02*
Y305800D01*
X455200Y303200D02*
Y305800D01*
X455600Y303200D02*
Y305800D01*
X476912Y305851D02*
Y303251D01*
X473512*
Y305851*
X476912*
X473512Y303600D02*
X476912D01*
X473512Y304000D02*
X476912D01*
X473512Y304400D02*
X476912D01*
X473512Y304800D02*
X476912D01*
X473512Y305200D02*
X476912D01*
X473512Y305600D02*
X476912D01*
X473600Y303251D02*
Y305851D01*
X474000Y303251D02*
Y305851D01*
X474400Y303251D02*
Y305851D01*
X474800Y303251D02*
Y305851D01*
X475200Y303251D02*
Y305851D01*
X475600Y303251D02*
Y305851D01*
X476000Y303251D02*
Y305851D01*
X476400Y303251D02*
Y305851D01*
X476800Y303251D02*
Y305851D01*
X470712D02*
Y303251D01*
X467312*
Y305851*
X470712*
X467312Y303600D02*
X470712D01*
X467312Y304000D02*
X470712D01*
X467312Y304400D02*
X470712D01*
X467312Y304800D02*
X470712D01*
X467312Y305200D02*
X470712D01*
X467312Y305600D02*
X470712D01*
X467600Y303251D02*
Y305851D01*
X468000Y303251D02*
Y305851D01*
X468400Y303251D02*
Y305851D01*
X468800Y303251D02*
Y305851D01*
X469200Y303251D02*
Y305851D01*
X469600Y303251D02*
Y305851D01*
X470000Y303251D02*
Y305851D01*
X470400Y303251D02*
Y305851D01*
X452200Y292200D02*
Y294800D01*
X455600*
Y292200*
X452200*
Y292400D02*
X455600D01*
X452200Y292800D02*
X455600D01*
X452200Y293200D02*
X455600D01*
X452200Y293600D02*
X455600D01*
X452200Y294000D02*
X455600D01*
X452200Y294400D02*
X455600D01*
X452200Y294800D02*
X455600D01*
X452400Y292200D02*
Y294800D01*
X452800Y292200D02*
Y294800D01*
X453200Y292200D02*
Y294800D01*
X453600Y292200D02*
Y294800D01*
X454000Y292200D02*
Y294800D01*
X454400Y292200D02*
Y294800D01*
X454800Y292200D02*
Y294800D01*
X455200Y292200D02*
Y294800D01*
X455600Y292200D02*
Y294800D01*
X458400Y292200D02*
Y294800D01*
X461800*
Y292200*
X458400*
Y292400D02*
X461800D01*
X458400Y292800D02*
X461800D01*
X458400Y293200D02*
X461800D01*
X458400Y293600D02*
X461800D01*
X458400Y294000D02*
X461800D01*
X458400Y294400D02*
X461800D01*
X458400Y294800D02*
X461800D01*
X458400Y292200D02*
Y294800D01*
X458800Y292200D02*
Y294800D01*
X459200Y292200D02*
Y294800D01*
X459600Y292200D02*
Y294800D01*
X460000Y292200D02*
Y294800D01*
X460400Y292200D02*
Y294800D01*
X460800Y292200D02*
Y294800D01*
X461200Y292200D02*
Y294800D01*
X461600Y292200D02*
Y294800D01*
X476800Y322300D02*
Y319700D01*
X473400*
Y322300*
X476800*
X473400Y320000D02*
X476800D01*
X473400Y320400D02*
X476800D01*
X473400Y320800D02*
X476800D01*
X473400Y321200D02*
X476800D01*
X473400Y321600D02*
X476800D01*
X473400Y322000D02*
X476800D01*
X473600Y319700D02*
Y322300D01*
X474000Y319700D02*
Y322300D01*
X474400Y319700D02*
Y322300D01*
X474800Y319700D02*
Y322300D01*
X475200Y319700D02*
Y322300D01*
X475600Y319700D02*
Y322300D01*
X476000Y319700D02*
Y322300D01*
X476400Y319700D02*
Y322300D01*
X476800Y319700D02*
Y322300D01*
X470600D02*
Y319700D01*
X467200*
Y322300*
X470600*
X467200Y320000D02*
X470600D01*
X467200Y320400D02*
X470600D01*
X467200Y320800D02*
X470600D01*
X467200Y321200D02*
X470600D01*
X467200Y321600D02*
X470600D01*
X467200Y322000D02*
X470600D01*
X467200Y319700D02*
Y322300D01*
X467600Y319700D02*
Y322300D01*
X468000Y319700D02*
Y322300D01*
X468400Y319700D02*
Y322300D01*
X468800Y319700D02*
Y322300D01*
X469200Y319700D02*
Y322300D01*
X469600Y319700D02*
Y322300D01*
X470000Y319700D02*
Y322300D01*
X470400Y319700D02*
Y322300D01*
X476800Y316800D02*
Y314200D01*
X473400*
Y316800*
X476800*
X473400Y314400D02*
X476800D01*
X473400Y314800D02*
X476800D01*
X473400Y315200D02*
X476800D01*
X473400Y315600D02*
X476800D01*
X473400Y316000D02*
X476800D01*
X473400Y316400D02*
X476800D01*
X473400Y316800D02*
X476800D01*
X473600Y314200D02*
Y316800D01*
X474000Y314200D02*
Y316800D01*
X474400Y314200D02*
Y316800D01*
X474800Y314200D02*
Y316800D01*
X475200Y314200D02*
Y316800D01*
X475600Y314200D02*
Y316800D01*
X476000Y314200D02*
Y316800D01*
X476400Y314200D02*
Y316800D01*
X476800Y314200D02*
Y316800D01*
X470600D02*
Y314200D01*
X467200*
Y316800*
X470600*
X467200Y314400D02*
X470600D01*
X467200Y314800D02*
X470600D01*
X467200Y315200D02*
X470600D01*
X467200Y315600D02*
X470600D01*
X467200Y316000D02*
X470600D01*
X467200Y316400D02*
X470600D01*
X467200Y316800D02*
X470600D01*
X467200Y314200D02*
Y316800D01*
X467600Y314200D02*
Y316800D01*
X468000Y314200D02*
Y316800D01*
X468400Y314200D02*
Y316800D01*
X468800Y314200D02*
Y316800D01*
X469200Y314200D02*
Y316800D01*
X469600Y314200D02*
Y316800D01*
X470000Y314200D02*
Y316800D01*
X470400Y314200D02*
Y316800D01*
X526500Y203100D02*
Y200500D01*
X523100*
Y203100*
X526500*
X523100Y200800D02*
X526500D01*
X523100Y201200D02*
X526500D01*
X523100Y201600D02*
X526500D01*
X523100Y202000D02*
X526500D01*
X523100Y202400D02*
X526500D01*
X523100Y202800D02*
X526500D01*
X523200Y200500D02*
Y203100D01*
X523600Y200500D02*
Y203100D01*
X524000Y200500D02*
Y203100D01*
X524400Y200500D02*
Y203100D01*
X524800Y200500D02*
Y203100D01*
X525200Y200500D02*
Y203100D01*
X525600Y200500D02*
Y203100D01*
X526000Y200500D02*
Y203100D01*
X526400Y200500D02*
Y203100D01*
X520300D02*
Y200500D01*
X516900*
Y203100*
X520300*
X516900Y200800D02*
X520300D01*
X516900Y201200D02*
X520300D01*
X516900Y201600D02*
X520300D01*
X516900Y202000D02*
X520300D01*
X516900Y202400D02*
X520300D01*
X516900Y202800D02*
X520300D01*
X517200Y200500D02*
Y203100D01*
X517600Y200500D02*
Y203100D01*
X518000Y200500D02*
Y203100D01*
X518400Y200500D02*
Y203100D01*
X518800Y200500D02*
Y203100D01*
X519200Y200500D02*
Y203100D01*
X519600Y200500D02*
Y203100D01*
X520000Y200500D02*
Y203100D01*
X543700Y209900D02*
Y212500D01*
X547100*
Y209900*
X543700*
Y210000D02*
X547100D01*
X543700Y210400D02*
X547100D01*
X543700Y210800D02*
X547100D01*
X543700Y211200D02*
X547100D01*
X543700Y211600D02*
X547100D01*
X543700Y212000D02*
X547100D01*
X543700Y212400D02*
X547100D01*
X544000Y209900D02*
Y212500D01*
X544400Y209900D02*
Y212500D01*
X544800Y209900D02*
Y212500D01*
X545200Y209900D02*
Y212500D01*
X545600Y209900D02*
Y212500D01*
X546000Y209900D02*
Y212500D01*
X546400Y209900D02*
Y212500D01*
X546800Y209900D02*
Y212500D01*
X549900Y209900D02*
Y212500D01*
X553300*
Y209900*
X549900*
Y210000D02*
X553300D01*
X549900Y210400D02*
X553300D01*
X549900Y210800D02*
X553300D01*
X549900Y211200D02*
X553300D01*
X549900Y211600D02*
X553300D01*
X549900Y212000D02*
X553300D01*
X549900Y212400D02*
X553300D01*
X550000Y209900D02*
Y212500D01*
X550400Y209900D02*
Y212500D01*
X550800Y209900D02*
Y212500D01*
X551200Y209900D02*
Y212500D01*
X551600Y209900D02*
Y212500D01*
X552000Y209900D02*
Y212500D01*
X552400Y209900D02*
Y212500D01*
X552800Y209900D02*
Y212500D01*
X553200Y209900D02*
Y212500D01*
X180800Y297800D02*
Y300200D01*
X184000*
Y297800*
X180800*
Y298000D02*
X184000D01*
X180800Y298400D02*
X184000D01*
X180800Y298800D02*
X184000D01*
X180800Y299200D02*
X184000D01*
X180800Y299600D02*
X184000D01*
X180800Y300000D02*
X184000D01*
X180800Y297800D02*
Y300200D01*
X181200Y297800D02*
Y300200D01*
X181600Y297800D02*
Y300200D01*
X182000Y297800D02*
Y300200D01*
X182400Y297800D02*
Y300200D01*
X182800Y297800D02*
Y300200D01*
X183200Y297800D02*
Y300200D01*
X183600Y297800D02*
Y300200D01*
X184000Y297800D02*
Y300200D01*
X187000Y297800D02*
Y300200D01*
X190200*
Y297800*
X187000*
Y298000D02*
X190200D01*
X187000Y298400D02*
X190200D01*
X187000Y298800D02*
X190200D01*
X187000Y299200D02*
X190200D01*
X187000Y299600D02*
X190200D01*
X187000Y300000D02*
X190200D01*
X187200Y297800D02*
Y300200D01*
X187600Y297800D02*
Y300200D01*
X188000Y297800D02*
Y300200D01*
X188400Y297800D02*
Y300200D01*
X188800Y297800D02*
Y300200D01*
X189200Y297800D02*
Y300200D01*
X189600Y297800D02*
Y300200D01*
X190000Y297800D02*
Y300200D01*
X180800Y292277D02*
Y294677D01*
X184000*
Y292277*
X180800*
Y292400D02*
X184000D01*
X180800Y292800D02*
X184000D01*
X180800Y293200D02*
X184000D01*
X180800Y293600D02*
X184000D01*
X180800Y294000D02*
X184000D01*
X180800Y294400D02*
X184000D01*
X180800Y292277D02*
Y294677D01*
X181200Y292277D02*
Y294677D01*
X181600Y292277D02*
Y294677D01*
X182000Y292277D02*
Y294677D01*
X182400Y292277D02*
Y294677D01*
X182800Y292277D02*
Y294677D01*
X183200Y292277D02*
Y294677D01*
X183600Y292277D02*
Y294677D01*
X184000Y292277D02*
Y294677D01*
X187000Y292277D02*
Y294677D01*
X190200*
Y292277*
X187000*
Y292400D02*
X190200D01*
X187000Y292800D02*
X190200D01*
X187000Y293200D02*
X190200D01*
X187000Y293600D02*
X190200D01*
X187000Y294000D02*
X190200D01*
X187000Y294400D02*
X190200D01*
X187200Y292277D02*
Y294677D01*
X187600Y292277D02*
Y294677D01*
X188000Y292277D02*
Y294677D01*
X188400Y292277D02*
Y294677D01*
X188800Y292277D02*
Y294677D01*
X189200Y292277D02*
Y294677D01*
X189600Y292277D02*
Y294677D01*
X190000Y292277D02*
Y294677D01*
X180800Y286741D02*
Y289141D01*
X184000*
Y286741*
X180800*
Y286800D02*
X184000D01*
X180800Y287200D02*
X184000D01*
X180800Y287600D02*
X184000D01*
X180800Y288000D02*
X184000D01*
X180800Y288400D02*
X184000D01*
X180800Y288800D02*
X184000D01*
X180800Y286741D02*
Y289141D01*
X181200Y286741D02*
Y289141D01*
X181600Y286741D02*
Y289141D01*
X182000Y286741D02*
Y289141D01*
X182400Y286741D02*
Y289141D01*
X182800Y286741D02*
Y289141D01*
X183200Y286741D02*
Y289141D01*
X183600Y286741D02*
Y289141D01*
X184000Y286741D02*
Y289141D01*
X187000Y286741D02*
Y289141D01*
X190200*
Y286741*
X187000*
Y286800D02*
X190200D01*
X187000Y287200D02*
X190200D01*
X187000Y287600D02*
X190200D01*
X187000Y288000D02*
X190200D01*
X187000Y288400D02*
X190200D01*
X187000Y288800D02*
X190200D01*
X187200Y286741D02*
Y289141D01*
X187600Y286741D02*
Y289141D01*
X188000Y286741D02*
Y289141D01*
X188400Y286741D02*
Y289141D01*
X188800Y286741D02*
Y289141D01*
X189200Y286741D02*
Y289141D01*
X189600Y286741D02*
Y289141D01*
X190000Y286741D02*
Y289141D01*
X175200Y300200D02*
Y297800D01*
X172000*
Y300200*
X175200*
X172000Y298000D02*
X175200D01*
X172000Y298400D02*
X175200D01*
X172000Y298800D02*
X175200D01*
X172000Y299200D02*
X175200D01*
X172000Y299600D02*
X175200D01*
X172000Y300000D02*
X175200D01*
X172000Y297800D02*
Y300200D01*
X172400Y297800D02*
Y300200D01*
X172800Y297800D02*
Y300200D01*
X173200Y297800D02*
Y300200D01*
X173600Y297800D02*
Y300200D01*
X174000Y297800D02*
Y300200D01*
X174400Y297800D02*
Y300200D01*
X174800Y297800D02*
Y300200D01*
X175200Y297800D02*
Y300200D01*
X169000D02*
Y297800D01*
X165800*
Y300200*
X169000*
X165800Y298000D02*
X169000D01*
X165800Y298400D02*
X169000D01*
X165800Y298800D02*
X169000D01*
X165800Y299200D02*
X169000D01*
X165800Y299600D02*
X169000D01*
X165800Y300000D02*
X169000D01*
X166000Y297800D02*
Y300200D01*
X166400Y297800D02*
Y300200D01*
X166800Y297800D02*
Y300200D01*
X167200Y297800D02*
Y300200D01*
X167600Y297800D02*
Y300200D01*
X168000Y297800D02*
Y300200D01*
X168400Y297800D02*
Y300200D01*
X168800Y297800D02*
Y300200D01*
X165800Y314300D02*
Y316700D01*
X169000*
Y314300*
X165800*
Y314400D02*
X169000D01*
X165800Y314800D02*
X169000D01*
X165800Y315200D02*
X169000D01*
X165800Y315600D02*
X169000D01*
X165800Y316000D02*
X169000D01*
X165800Y316400D02*
X169000D01*
X166000Y314300D02*
Y316700D01*
X166400Y314300D02*
Y316700D01*
X166800Y314300D02*
Y316700D01*
X167200Y314300D02*
Y316700D01*
X167600Y314300D02*
Y316700D01*
X168000Y314300D02*
Y316700D01*
X168400Y314300D02*
Y316700D01*
X168800Y314300D02*
Y316700D01*
X172000Y314300D02*
Y316700D01*
X175200*
Y314300*
X172000*
Y314400D02*
X175200D01*
X172000Y314800D02*
X175200D01*
X172000Y315200D02*
X175200D01*
X172000Y315600D02*
X175200D01*
X172000Y316000D02*
X175200D01*
X172000Y316400D02*
X175200D01*
X172000Y314300D02*
Y316700D01*
X172400Y314300D02*
Y316700D01*
X172800Y314300D02*
Y316700D01*
X173200Y314300D02*
Y316700D01*
X173600Y314300D02*
Y316700D01*
X174000Y314300D02*
Y316700D01*
X174400Y314300D02*
Y316700D01*
X174800Y314300D02*
Y316700D01*
X175200Y314300D02*
Y316700D01*
X165800Y308800D02*
Y311200D01*
X169000*
Y308800*
X165800*
X169000*
X165800Y309200D02*
X169000D01*
X165800Y309600D02*
X169000D01*
X165800Y310000D02*
X169000D01*
X165800Y310400D02*
X169000D01*
X165800Y310800D02*
X169000D01*
X165800Y311200D02*
X169000D01*
X166000Y308800D02*
Y311200D01*
X166400Y308800D02*
Y311200D01*
X166800Y308800D02*
Y311200D01*
X167200Y308800D02*
Y311200D01*
X167600Y308800D02*
Y311200D01*
X168000Y308800D02*
Y311200D01*
X168400Y308800D02*
Y311200D01*
X168800Y308800D02*
Y311200D01*
X172000Y308800D02*
Y311200D01*
X175200*
Y308800*
X172000*
X175200*
X172000Y309200D02*
X175200D01*
X172000Y309600D02*
X175200D01*
X172000Y310000D02*
X175200D01*
X172000Y310400D02*
X175200D01*
X172000Y310800D02*
X175200D01*
X172000Y311200D02*
X175200D01*
X172000Y308800D02*
Y311200D01*
X172400Y308800D02*
Y311200D01*
X172800Y308800D02*
Y311200D01*
X173200Y308800D02*
Y311200D01*
X173600Y308800D02*
Y311200D01*
X174000Y308800D02*
Y311200D01*
X174400Y308800D02*
Y311200D01*
X174800Y308800D02*
Y311200D01*
X175200Y308800D02*
Y311200D01*
Y322200D02*
Y319800D01*
X172000*
Y322200*
X175200*
X172000Y320000D02*
X175200D01*
X172000Y320400D02*
X175200D01*
X172000Y320800D02*
X175200D01*
X172000Y321200D02*
X175200D01*
X172000Y321600D02*
X175200D01*
X172000Y322000D02*
X175200D01*
X172000Y319800D02*
Y322200D01*
X172400Y319800D02*
Y322200D01*
X172800Y319800D02*
Y322200D01*
X173200Y319800D02*
Y322200D01*
X173600Y319800D02*
Y322200D01*
X174000Y319800D02*
Y322200D01*
X174400Y319800D02*
Y322200D01*
X174800Y319800D02*
Y322200D01*
X175200Y319800D02*
Y322200D01*
X169000D02*
Y319800D01*
X165800*
Y322200*
X169000*
X165800Y320000D02*
X169000D01*
X165800Y320400D02*
X169000D01*
X165800Y320800D02*
X169000D01*
X165800Y321200D02*
X169000D01*
X165800Y321600D02*
X169000D01*
X165800Y322000D02*
X169000D01*
X166000Y319800D02*
Y322200D01*
X166400Y319800D02*
Y322200D01*
X166800Y319800D02*
Y322200D01*
X167200Y319800D02*
Y322200D01*
X167600Y319800D02*
Y322200D01*
X168000Y319800D02*
Y322200D01*
X168400Y319800D02*
Y322200D01*
X168800Y319800D02*
Y322200D01*
X175200Y305700D02*
Y303300D01*
X172000*
Y305700*
X175200*
X172000Y303600D02*
X175200D01*
X172000Y304000D02*
X175200D01*
X172000Y304400D02*
X175200D01*
X172000Y304800D02*
X175200D01*
X172000Y305200D02*
X175200D01*
X172000Y305600D02*
X175200D01*
X172000Y303300D02*
Y305700D01*
X172400Y303300D02*
Y305700D01*
X172800Y303300D02*
Y305700D01*
X173200Y303300D02*
Y305700D01*
X173600Y303300D02*
Y305700D01*
X174000Y303300D02*
Y305700D01*
X174400Y303300D02*
Y305700D01*
X174800Y303300D02*
Y305700D01*
X175200Y303300D02*
Y305700D01*
X169000D02*
Y303300D01*
X165800*
Y305700*
X169000*
X165800Y303600D02*
X169000D01*
X165800Y304000D02*
X169000D01*
X165800Y304400D02*
X169000D01*
X165800Y304800D02*
X169000D01*
X165800Y305200D02*
X169000D01*
X165800Y305600D02*
X169000D01*
X166000Y303300D02*
Y305700D01*
X166400Y303300D02*
Y305700D01*
X166800Y303300D02*
Y305700D01*
X167200Y303300D02*
Y305700D01*
X167600Y303300D02*
Y305700D01*
X168000Y303300D02*
Y305700D01*
X168400Y303300D02*
Y305700D01*
X168800Y303300D02*
Y305700D01*
X190312Y305751D02*
Y303351D01*
X187112*
Y305751*
X190312*
X187112Y303600D02*
X190312D01*
X187112Y304000D02*
X190312D01*
X187112Y304400D02*
X190312D01*
X187112Y304800D02*
X190312D01*
X187112Y305200D02*
X190312D01*
X187112Y305600D02*
X190312D01*
X187200Y303351D02*
Y305751D01*
X187600Y303351D02*
Y305751D01*
X188000Y303351D02*
Y305751D01*
X188400Y303351D02*
Y305751D01*
X188800Y303351D02*
Y305751D01*
X189200Y303351D02*
Y305751D01*
X189600Y303351D02*
Y305751D01*
X190000Y303351D02*
Y305751D01*
X184112D02*
Y303351D01*
X180912*
Y305751*
X184112*
X180912Y303600D02*
X184112D01*
X180912Y304000D02*
X184112D01*
X180912Y304400D02*
X184112D01*
X180912Y304800D02*
X184112D01*
X180912Y305200D02*
X184112D01*
X180912Y305600D02*
X184112D01*
X181200Y303351D02*
Y305751D01*
X181600Y303351D02*
Y305751D01*
X182000Y303351D02*
Y305751D01*
X182400Y303351D02*
Y305751D01*
X182800Y303351D02*
Y305751D01*
X183200Y303351D02*
Y305751D01*
X183600Y303351D02*
Y305751D01*
X184000Y303351D02*
Y305751D01*
X165800Y292300D02*
Y294700D01*
X169000*
Y292300*
X165800*
Y292400D02*
X169000D01*
X165800Y292800D02*
X169000D01*
X165800Y293200D02*
X169000D01*
X165800Y293600D02*
X169000D01*
X165800Y294000D02*
X169000D01*
X165800Y294400D02*
X169000D01*
X166000Y292300D02*
Y294700D01*
X166400Y292300D02*
Y294700D01*
X166800Y292300D02*
Y294700D01*
X167200Y292300D02*
Y294700D01*
X167600Y292300D02*
Y294700D01*
X168000Y292300D02*
Y294700D01*
X168400Y292300D02*
Y294700D01*
X168800Y292300D02*
Y294700D01*
X172000Y292300D02*
Y294700D01*
X175200*
Y292300*
X172000*
Y292400D02*
X175200D01*
X172000Y292800D02*
X175200D01*
X172000Y293200D02*
X175200D01*
X172000Y293600D02*
X175200D01*
X172000Y294000D02*
X175200D01*
X172000Y294400D02*
X175200D01*
X172000Y292300D02*
Y294700D01*
X172400Y292300D02*
Y294700D01*
X172800Y292300D02*
Y294700D01*
X173200Y292300D02*
Y294700D01*
X173600Y292300D02*
Y294700D01*
X174000Y292300D02*
Y294700D01*
X174400Y292300D02*
Y294700D01*
X174800Y292300D02*
Y294700D01*
X175200Y292300D02*
Y294700D01*
X190200Y322200D02*
Y319800D01*
X187000*
Y322200*
X190200*
X187000Y320000D02*
X190200D01*
X187000Y320400D02*
X190200D01*
X187000Y320800D02*
X190200D01*
X187000Y321200D02*
X190200D01*
X187000Y321600D02*
X190200D01*
X187000Y322000D02*
X190200D01*
X187200Y319800D02*
Y322200D01*
X187600Y319800D02*
Y322200D01*
X188000Y319800D02*
Y322200D01*
X188400Y319800D02*
Y322200D01*
X188800Y319800D02*
Y322200D01*
X189200Y319800D02*
Y322200D01*
X189600Y319800D02*
Y322200D01*
X190000Y319800D02*
Y322200D01*
X184000D02*
Y319800D01*
X180800*
Y322200*
X184000*
X180800Y320000D02*
X184000D01*
X180800Y320400D02*
X184000D01*
X180800Y320800D02*
X184000D01*
X180800Y321200D02*
X184000D01*
X180800Y321600D02*
X184000D01*
X180800Y322000D02*
X184000D01*
X180800Y319800D02*
Y322200D01*
X181200Y319800D02*
Y322200D01*
X181600Y319800D02*
Y322200D01*
X182000Y319800D02*
Y322200D01*
X182400Y319800D02*
Y322200D01*
X182800Y319800D02*
Y322200D01*
X183200Y319800D02*
Y322200D01*
X183600Y319800D02*
Y322200D01*
X184000Y319800D02*
Y322200D01*
X247100Y185350D02*
Y190750D01*
X252500*
Y185350*
X247100*
Y185600D02*
X252500D01*
X247100Y186000D02*
X252500D01*
X247100Y186400D02*
X252500D01*
X247100Y186800D02*
X252500D01*
X247100Y187200D02*
X252500D01*
X247100Y187600D02*
X252500D01*
X247100Y188000D02*
X252500D01*
X247100Y188400D02*
X252500D01*
X247100Y188800D02*
X252500D01*
X247100Y189200D02*
X252500D01*
X247100Y189600D02*
X252500D01*
X247100Y190000D02*
X252500D01*
X247100Y190400D02*
X252500D01*
X247200Y185350D02*
Y190750D01*
X247600Y185350D02*
Y190750D01*
X248000Y185350D02*
Y190750D01*
X248400Y185350D02*
Y190750D01*
X248800Y185350D02*
Y190750D01*
X249200Y185350D02*
Y190750D01*
X249600Y185350D02*
Y190750D01*
X250000Y185350D02*
Y190750D01*
X250400Y185350D02*
Y190750D01*
X250800Y185350D02*
Y190750D01*
X251200Y185350D02*
Y190750D01*
X251600Y185350D02*
Y190750D01*
X252000Y185350D02*
Y190750D01*
X252400Y185350D02*
Y190750D01*
X247100Y198850D02*
Y204250D01*
X252500*
Y198850*
X247100*
Y199200D02*
X252500D01*
X247100Y199600D02*
X252500D01*
X247100Y200000D02*
X252500D01*
X247100Y200400D02*
X252500D01*
X247100Y200800D02*
X252500D01*
X247100Y201200D02*
X252500D01*
X247100Y201600D02*
X252500D01*
X247100Y202000D02*
X252500D01*
X247100Y202400D02*
X252500D01*
X247100Y202800D02*
X252500D01*
X247100Y203200D02*
X252500D01*
X247100Y203600D02*
X252500D01*
X247100Y204000D02*
X252500D01*
X247200Y198850D02*
Y204250D01*
X247600Y198850D02*
Y204250D01*
X248000Y198850D02*
Y204250D01*
X248400Y198850D02*
Y204250D01*
X248800Y198850D02*
Y204250D01*
X249200Y198850D02*
Y204250D01*
X249600Y198850D02*
Y204250D01*
X250000Y198850D02*
Y204250D01*
X250400Y198850D02*
Y204250D01*
X250800Y198850D02*
Y204250D01*
X251200Y198850D02*
Y204250D01*
X251600Y198850D02*
Y204250D01*
X252000Y198850D02*
Y204250D01*
X252400Y198850D02*
Y204250D01*
X239900Y203000D02*
Y200600D01*
X236700*
Y203000*
X239900*
X236700Y200800D02*
X239900D01*
X236700Y201200D02*
X239900D01*
X236700Y201600D02*
X239900D01*
X236700Y202000D02*
X239900D01*
X236700Y202400D02*
X239900D01*
X236700Y202800D02*
X239900D01*
X236800Y200600D02*
Y203000D01*
X237200Y200600D02*
Y203000D01*
X237600Y200600D02*
Y203000D01*
X238000Y200600D02*
Y203000D01*
X238400Y200600D02*
Y203000D01*
X238800Y200600D02*
Y203000D01*
X239200Y200600D02*
Y203000D01*
X239600Y200600D02*
Y203000D01*
X233700D02*
Y200600D01*
X230500*
Y203000*
X233700*
X230500Y200800D02*
X233700D01*
X230500Y201200D02*
X233700D01*
X230500Y201600D02*
X233700D01*
X230500Y202000D02*
X233700D01*
X230500Y202400D02*
X233700D01*
X230500Y202800D02*
X233700D01*
X230800Y200600D02*
Y203000D01*
X231200Y200600D02*
Y203000D01*
X231600Y200600D02*
Y203000D01*
X232000Y200600D02*
Y203000D01*
X232400Y200600D02*
Y203000D01*
X232800Y200600D02*
Y203000D01*
X233200Y200600D02*
Y203000D01*
X233600Y200600D02*
Y203000D01*
X257300Y210000D02*
Y212400D01*
X260500*
Y210000*
X257300*
X260500*
X257300Y210400D02*
X260500D01*
X257300Y210800D02*
X260500D01*
X257300Y211200D02*
X260500D01*
X257300Y211600D02*
X260500D01*
X257300Y212000D02*
X260500D01*
X257300Y212400D02*
X260500D01*
X257600Y210000D02*
Y212400D01*
X258000Y210000D02*
Y212400D01*
X258400Y210000D02*
Y212400D01*
X258800Y210000D02*
Y212400D01*
X259200Y210000D02*
Y212400D01*
X259600Y210000D02*
Y212400D01*
X260000Y210000D02*
Y212400D01*
X260400Y210000D02*
Y212400D01*
X263500Y210000D02*
Y212400D01*
X266700*
Y210000*
X263500*
X266700*
X263500Y210400D02*
X266700D01*
X263500Y210800D02*
X266700D01*
X263500Y211200D02*
X266700D01*
X263500Y211600D02*
X266700D01*
X263500Y212000D02*
X266700D01*
X263500Y212400D02*
X266700D01*
X263600Y210000D02*
Y212400D01*
X264000Y210000D02*
Y212400D01*
X264400Y210000D02*
Y212400D01*
X264800Y210000D02*
Y212400D01*
X265200Y210000D02*
Y212400D01*
X265600Y210000D02*
Y212400D01*
X266000Y210000D02*
Y212400D01*
X266400Y210000D02*
Y212400D01*
X467300Y297800D02*
Y300200D01*
X470500*
Y297800*
X467300*
Y298000D02*
X470500D01*
X467300Y298400D02*
X470500D01*
X467300Y298800D02*
X470500D01*
X467300Y299200D02*
X470500D01*
X467300Y299600D02*
X470500D01*
X467300Y300000D02*
X470500D01*
X467600Y297800D02*
Y300200D01*
X468000Y297800D02*
Y300200D01*
X468400Y297800D02*
Y300200D01*
X468800Y297800D02*
Y300200D01*
X469200Y297800D02*
Y300200D01*
X469600Y297800D02*
Y300200D01*
X470000Y297800D02*
Y300200D01*
X470400Y297800D02*
Y300200D01*
X473500Y297800D02*
Y300200D01*
X476700*
Y297800*
X473500*
Y298000D02*
X476700D01*
X473500Y298400D02*
X476700D01*
X473500Y298800D02*
X476700D01*
X473500Y299200D02*
X476700D01*
X473500Y299600D02*
X476700D01*
X473500Y300000D02*
X476700D01*
X473600Y297800D02*
Y300200D01*
X474000Y297800D02*
Y300200D01*
X474400Y297800D02*
Y300200D01*
X474800Y297800D02*
Y300200D01*
X475200Y297800D02*
Y300200D01*
X475600Y297800D02*
Y300200D01*
X476000Y297800D02*
Y300200D01*
X476400Y297800D02*
Y300200D01*
X467300Y292277D02*
Y294677D01*
X470500*
Y292277*
X467300*
Y292400D02*
X470500D01*
X467300Y292800D02*
X470500D01*
X467300Y293200D02*
X470500D01*
X467300Y293600D02*
X470500D01*
X467300Y294000D02*
X470500D01*
X467300Y294400D02*
X470500D01*
X467600Y292277D02*
Y294677D01*
X468000Y292277D02*
Y294677D01*
X468400Y292277D02*
Y294677D01*
X468800Y292277D02*
Y294677D01*
X469200Y292277D02*
Y294677D01*
X469600Y292277D02*
Y294677D01*
X470000Y292277D02*
Y294677D01*
X470400Y292277D02*
Y294677D01*
X473500Y292277D02*
Y294677D01*
X476700*
Y292277*
X473500*
Y292400D02*
X476700D01*
X473500Y292800D02*
X476700D01*
X473500Y293200D02*
X476700D01*
X473500Y293600D02*
X476700D01*
X473500Y294000D02*
X476700D01*
X473500Y294400D02*
X476700D01*
X473600Y292277D02*
Y294677D01*
X474000Y292277D02*
Y294677D01*
X474400Y292277D02*
Y294677D01*
X474800Y292277D02*
Y294677D01*
X475200Y292277D02*
Y294677D01*
X475600Y292277D02*
Y294677D01*
X476000Y292277D02*
Y294677D01*
X476400Y292277D02*
Y294677D01*
X467300Y286741D02*
Y289141D01*
X470500*
Y286741*
X467300*
Y286800D02*
X470500D01*
X467300Y287200D02*
X470500D01*
X467300Y287600D02*
X470500D01*
X467300Y288000D02*
X470500D01*
X467300Y288400D02*
X470500D01*
X467300Y288800D02*
X470500D01*
X467600Y286741D02*
Y289141D01*
X468000Y286741D02*
Y289141D01*
X468400Y286741D02*
Y289141D01*
X468800Y286741D02*
Y289141D01*
X469200Y286741D02*
Y289141D01*
X469600Y286741D02*
Y289141D01*
X470000Y286741D02*
Y289141D01*
X470400Y286741D02*
Y289141D01*
X473500Y286741D02*
Y289141D01*
X476700*
Y286741*
X473500*
Y286800D02*
X476700D01*
X473500Y287200D02*
X476700D01*
X473500Y287600D02*
X476700D01*
X473500Y288000D02*
X476700D01*
X473500Y288400D02*
X476700D01*
X473500Y288800D02*
X476700D01*
X473600Y286741D02*
Y289141D01*
X474000Y286741D02*
Y289141D01*
X474400Y286741D02*
Y289141D01*
X474800Y286741D02*
Y289141D01*
X475200Y286741D02*
Y289141D01*
X475600Y286741D02*
Y289141D01*
X476000Y286741D02*
Y289141D01*
X476400Y286741D02*
Y289141D01*
X461700Y300200D02*
Y297800D01*
X458500*
Y300200*
X461700*
X458500Y298000D02*
X461700D01*
X458500Y298400D02*
X461700D01*
X458500Y298800D02*
X461700D01*
X458500Y299200D02*
X461700D01*
X458500Y299600D02*
X461700D01*
X458500Y300000D02*
X461700D01*
X458800Y297800D02*
Y300200D01*
X459200Y297800D02*
Y300200D01*
X459600Y297800D02*
Y300200D01*
X460000Y297800D02*
Y300200D01*
X460400Y297800D02*
Y300200D01*
X460800Y297800D02*
Y300200D01*
X461200Y297800D02*
Y300200D01*
X461600Y297800D02*
Y300200D01*
X455500D02*
Y297800D01*
X452300*
Y300200*
X455500*
X452300Y298000D02*
X455500D01*
X452300Y298400D02*
X455500D01*
X452300Y298800D02*
X455500D01*
X452300Y299200D02*
X455500D01*
X452300Y299600D02*
X455500D01*
X452300Y300000D02*
X455500D01*
X452400Y297800D02*
Y300200D01*
X452800Y297800D02*
Y300200D01*
X453200Y297800D02*
Y300200D01*
X453600Y297800D02*
Y300200D01*
X454000Y297800D02*
Y300200D01*
X454400Y297800D02*
Y300200D01*
X454800Y297800D02*
Y300200D01*
X455200Y297800D02*
Y300200D01*
X452300Y314300D02*
Y316700D01*
X455500*
Y314300*
X452300*
Y314400D02*
X455500D01*
X452300Y314800D02*
X455500D01*
X452300Y315200D02*
X455500D01*
X452300Y315600D02*
X455500D01*
X452300Y316000D02*
X455500D01*
X452300Y316400D02*
X455500D01*
X452400Y314300D02*
Y316700D01*
X452800Y314300D02*
Y316700D01*
X453200Y314300D02*
Y316700D01*
X453600Y314300D02*
Y316700D01*
X454000Y314300D02*
Y316700D01*
X454400Y314300D02*
Y316700D01*
X454800Y314300D02*
Y316700D01*
X455200Y314300D02*
Y316700D01*
X458500Y314300D02*
Y316700D01*
X461700*
Y314300*
X458500*
Y314400D02*
X461700D01*
X458500Y314800D02*
X461700D01*
X458500Y315200D02*
X461700D01*
X458500Y315600D02*
X461700D01*
X458500Y316000D02*
X461700D01*
X458500Y316400D02*
X461700D01*
X458800Y314300D02*
Y316700D01*
X459200Y314300D02*
Y316700D01*
X459600Y314300D02*
Y316700D01*
X460000Y314300D02*
Y316700D01*
X460400Y314300D02*
Y316700D01*
X460800Y314300D02*
Y316700D01*
X461200Y314300D02*
Y316700D01*
X461600Y314300D02*
Y316700D01*
X452300Y308800D02*
Y311200D01*
X455500*
Y308800*
X452300*
X455500*
X452300Y309200D02*
X455500D01*
X452300Y309600D02*
X455500D01*
X452300Y310000D02*
X455500D01*
X452300Y310400D02*
X455500D01*
X452300Y310800D02*
X455500D01*
X452300Y311200D02*
X455500D01*
X452400Y308800D02*
Y311200D01*
X452800Y308800D02*
Y311200D01*
X453200Y308800D02*
Y311200D01*
X453600Y308800D02*
Y311200D01*
X454000Y308800D02*
Y311200D01*
X454400Y308800D02*
Y311200D01*
X454800Y308800D02*
Y311200D01*
X455200Y308800D02*
Y311200D01*
X458500Y308800D02*
Y311200D01*
X461700*
Y308800*
X458500*
X461700*
X458500Y309200D02*
X461700D01*
X458500Y309600D02*
X461700D01*
X458500Y310000D02*
X461700D01*
X458500Y310400D02*
X461700D01*
X458500Y310800D02*
X461700D01*
X458500Y311200D02*
X461700D01*
X458800Y308800D02*
Y311200D01*
X459200Y308800D02*
Y311200D01*
X459600Y308800D02*
Y311200D01*
X460000Y308800D02*
Y311200D01*
X460400Y308800D02*
Y311200D01*
X460800Y308800D02*
Y311200D01*
X461200Y308800D02*
Y311200D01*
X461600Y308800D02*
Y311200D01*
X461700Y322200D02*
Y319800D01*
X458500*
Y322200*
X461700*
X458500Y320000D02*
X461700D01*
X458500Y320400D02*
X461700D01*
X458500Y320800D02*
X461700D01*
X458500Y321200D02*
X461700D01*
X458500Y321600D02*
X461700D01*
X458500Y322000D02*
X461700D01*
X458800Y319800D02*
Y322200D01*
X459200Y319800D02*
Y322200D01*
X459600Y319800D02*
Y322200D01*
X460000Y319800D02*
Y322200D01*
X460400Y319800D02*
Y322200D01*
X460800Y319800D02*
Y322200D01*
X461200Y319800D02*
Y322200D01*
X461600Y319800D02*
Y322200D01*
X455500D02*
Y319800D01*
X452300*
Y322200*
X455500*
X452300Y320000D02*
X455500D01*
X452300Y320400D02*
X455500D01*
X452300Y320800D02*
X455500D01*
X452300Y321200D02*
X455500D01*
X452300Y321600D02*
X455500D01*
X452300Y322000D02*
X455500D01*
X452400Y319800D02*
Y322200D01*
X452800Y319800D02*
Y322200D01*
X453200Y319800D02*
Y322200D01*
X453600Y319800D02*
Y322200D01*
X454000Y319800D02*
Y322200D01*
X454400Y319800D02*
Y322200D01*
X454800Y319800D02*
Y322200D01*
X455200Y319800D02*
Y322200D01*
X461700Y305700D02*
Y303300D01*
X458500*
Y305700*
X461700*
X458500Y303600D02*
X461700D01*
X458500Y304000D02*
X461700D01*
X458500Y304400D02*
X461700D01*
X458500Y304800D02*
X461700D01*
X458500Y305200D02*
X461700D01*
X458500Y305600D02*
X461700D01*
X458800Y303300D02*
Y305700D01*
X459200Y303300D02*
Y305700D01*
X459600Y303300D02*
Y305700D01*
X460000Y303300D02*
Y305700D01*
X460400Y303300D02*
Y305700D01*
X460800Y303300D02*
Y305700D01*
X461200Y303300D02*
Y305700D01*
X461600Y303300D02*
Y305700D01*
X455500D02*
Y303300D01*
X452300*
Y305700*
X455500*
X452300Y303600D02*
X455500D01*
X452300Y304000D02*
X455500D01*
X452300Y304400D02*
X455500D01*
X452300Y304800D02*
X455500D01*
X452300Y305200D02*
X455500D01*
X452300Y305600D02*
X455500D01*
X452400Y303300D02*
Y305700D01*
X452800Y303300D02*
Y305700D01*
X453200Y303300D02*
Y305700D01*
X453600Y303300D02*
Y305700D01*
X454000Y303300D02*
Y305700D01*
X454400Y303300D02*
Y305700D01*
X454800Y303300D02*
Y305700D01*
X455200Y303300D02*
Y305700D01*
X476812Y305751D02*
Y303351D01*
X473612*
Y305751*
X476812*
X473612Y303600D02*
X476812D01*
X473612Y304000D02*
X476812D01*
X473612Y304400D02*
X476812D01*
X473612Y304800D02*
X476812D01*
X473612Y305200D02*
X476812D01*
X473612Y305600D02*
X476812D01*
X474000Y303351D02*
Y305751D01*
X474400Y303351D02*
Y305751D01*
X474800Y303351D02*
Y305751D01*
X475200Y303351D02*
Y305751D01*
X475600Y303351D02*
Y305751D01*
X476000Y303351D02*
Y305751D01*
X476400Y303351D02*
Y305751D01*
X476800Y303351D02*
Y305751D01*
X470612D02*
Y303351D01*
X467412*
Y305751*
X470612*
X467412Y303600D02*
X470612D01*
X467412Y304000D02*
X470612D01*
X467412Y304400D02*
X470612D01*
X467412Y304800D02*
X470612D01*
X467412Y305200D02*
X470612D01*
X467412Y305600D02*
X470612D01*
X467600Y303351D02*
Y305751D01*
X468000Y303351D02*
Y305751D01*
X468400Y303351D02*
Y305751D01*
X468800Y303351D02*
Y305751D01*
X469200Y303351D02*
Y305751D01*
X469600Y303351D02*
Y305751D01*
X470000Y303351D02*
Y305751D01*
X470400Y303351D02*
Y305751D01*
X452300Y292300D02*
Y294700D01*
X455500*
Y292300*
X452300*
Y292400D02*
X455500D01*
X452300Y292800D02*
X455500D01*
X452300Y293200D02*
X455500D01*
X452300Y293600D02*
X455500D01*
X452300Y294000D02*
X455500D01*
X452300Y294400D02*
X455500D01*
X452400Y292300D02*
Y294700D01*
X452800Y292300D02*
Y294700D01*
X453200Y292300D02*
Y294700D01*
X453600Y292300D02*
Y294700D01*
X454000Y292300D02*
Y294700D01*
X454400Y292300D02*
Y294700D01*
X454800Y292300D02*
Y294700D01*
X455200Y292300D02*
Y294700D01*
X458500Y292300D02*
Y294700D01*
X461700*
Y292300*
X458500*
Y292400D02*
X461700D01*
X458500Y292800D02*
X461700D01*
X458500Y293200D02*
X461700D01*
X458500Y293600D02*
X461700D01*
X458500Y294000D02*
X461700D01*
X458500Y294400D02*
X461700D01*
X458800Y292300D02*
Y294700D01*
X459200Y292300D02*
Y294700D01*
X459600Y292300D02*
Y294700D01*
X460000Y292300D02*
Y294700D01*
X460400Y292300D02*
Y294700D01*
X460800Y292300D02*
Y294700D01*
X461200Y292300D02*
Y294700D01*
X461600Y292300D02*
Y294700D01*
X476700Y322200D02*
Y319800D01*
X473500*
Y322200*
X476700*
X473500Y320000D02*
X476700D01*
X473500Y320400D02*
X476700D01*
X473500Y320800D02*
X476700D01*
X473500Y321200D02*
X476700D01*
X473500Y321600D02*
X476700D01*
X473500Y322000D02*
X476700D01*
X473600Y319800D02*
Y322200D01*
X474000Y319800D02*
Y322200D01*
X474400Y319800D02*
Y322200D01*
X474800Y319800D02*
Y322200D01*
X475200Y319800D02*
Y322200D01*
X475600Y319800D02*
Y322200D01*
X476000Y319800D02*
Y322200D01*
X476400Y319800D02*
Y322200D01*
X470500D02*
Y319800D01*
X467300*
Y322200*
X470500*
X467300Y320000D02*
X470500D01*
X467300Y320400D02*
X470500D01*
X467300Y320800D02*
X470500D01*
X467300Y321200D02*
X470500D01*
X467300Y321600D02*
X470500D01*
X467300Y322000D02*
X470500D01*
X467600Y319800D02*
Y322200D01*
X468000Y319800D02*
Y322200D01*
X468400Y319800D02*
Y322200D01*
X468800Y319800D02*
Y322200D01*
X469200Y319800D02*
Y322200D01*
X469600Y319800D02*
Y322200D01*
X470000Y319800D02*
Y322200D01*
X470400Y319800D02*
Y322200D01*
X533600Y185350D02*
Y190750D01*
X539000*
Y185350*
X533600*
Y185600D02*
X539000D01*
X533600Y186000D02*
X539000D01*
X533600Y186400D02*
X539000D01*
X533600Y186800D02*
X539000D01*
X533600Y187200D02*
X539000D01*
X533600Y187600D02*
X539000D01*
X533600Y188000D02*
X539000D01*
X533600Y188400D02*
X539000D01*
X533600Y188800D02*
X539000D01*
X533600Y189200D02*
X539000D01*
X533600Y189600D02*
X539000D01*
X533600Y190000D02*
X539000D01*
X533600Y190400D02*
X539000D01*
X533600Y185350D02*
Y190750D01*
X534000Y185350D02*
Y190750D01*
X534400Y185350D02*
Y190750D01*
X534800Y185350D02*
Y190750D01*
X535200Y185350D02*
Y190750D01*
X535600Y185350D02*
Y190750D01*
X536000Y185350D02*
Y190750D01*
X536400Y185350D02*
Y190750D01*
X536800Y185350D02*
Y190750D01*
X537200Y185350D02*
Y190750D01*
X537600Y185350D02*
Y190750D01*
X538000Y185350D02*
Y190750D01*
X538400Y185350D02*
Y190750D01*
X538800Y185350D02*
Y190750D01*
X533600Y198850D02*
Y204250D01*
X539000*
Y198850*
X533600*
Y199200D02*
X539000D01*
X533600Y199600D02*
X539000D01*
X533600Y200000D02*
X539000D01*
X533600Y200400D02*
X539000D01*
X533600Y200800D02*
X539000D01*
X533600Y201200D02*
X539000D01*
X533600Y201600D02*
X539000D01*
X533600Y202000D02*
X539000D01*
X533600Y202400D02*
X539000D01*
X533600Y202800D02*
X539000D01*
X533600Y203200D02*
X539000D01*
X533600Y203600D02*
X539000D01*
X533600Y204000D02*
X539000D01*
X533600Y198850D02*
Y204250D01*
X534000Y198850D02*
Y204250D01*
X534400Y198850D02*
Y204250D01*
X534800Y198850D02*
Y204250D01*
X535200Y198850D02*
Y204250D01*
X535600Y198850D02*
Y204250D01*
X536000Y198850D02*
Y204250D01*
X536400Y198850D02*
Y204250D01*
X536800Y198850D02*
Y204250D01*
X537200Y198850D02*
Y204250D01*
X537600Y198850D02*
Y204250D01*
X538000Y198850D02*
Y204250D01*
X538400Y198850D02*
Y204250D01*
X538800Y198850D02*
Y204250D01*
X526400Y203000D02*
Y200600D01*
X523200*
Y203000*
X526400*
X523200Y200800D02*
X526400D01*
X523200Y201200D02*
X526400D01*
X523200Y201600D02*
X526400D01*
X523200Y202000D02*
X526400D01*
X523200Y202400D02*
X526400D01*
X523200Y202800D02*
X526400D01*
X523200Y200600D02*
Y203000D01*
X523600Y200600D02*
Y203000D01*
X524000Y200600D02*
Y203000D01*
X524400Y200600D02*
Y203000D01*
X524800Y200600D02*
Y203000D01*
X525200Y200600D02*
Y203000D01*
X525600Y200600D02*
Y203000D01*
X526000Y200600D02*
Y203000D01*
X526400Y200600D02*
Y203000D01*
X520200D02*
Y200600D01*
X517000*
Y203000*
X520200*
X517000Y200800D02*
X520200D01*
X517000Y201200D02*
X520200D01*
X517000Y201600D02*
X520200D01*
X517000Y202000D02*
X520200D01*
X517000Y202400D02*
X520200D01*
X517000Y202800D02*
X520200D01*
X517200Y200600D02*
Y203000D01*
X517600Y200600D02*
Y203000D01*
X518000Y200600D02*
Y203000D01*
X518400Y200600D02*
Y203000D01*
X518800Y200600D02*
Y203000D01*
X519200Y200600D02*
Y203000D01*
X519600Y200600D02*
Y203000D01*
X520000Y200600D02*
Y203000D01*
X543800Y210000D02*
Y212400D01*
X547000*
Y210000*
X543800*
X547000*
X543800Y210400D02*
X547000D01*
X543800Y210800D02*
X547000D01*
X543800Y211200D02*
X547000D01*
X543800Y211600D02*
X547000D01*
X543800Y212000D02*
X547000D01*
X543800Y212400D02*
X547000D01*
X544000Y210000D02*
Y212400D01*
X544400Y210000D02*
Y212400D01*
X544800Y210000D02*
Y212400D01*
X545200Y210000D02*
Y212400D01*
X545600Y210000D02*
Y212400D01*
X546000Y210000D02*
Y212400D01*
X546400Y210000D02*
Y212400D01*
X546800Y210000D02*
Y212400D01*
X550000Y210000D02*
Y212400D01*
X553200*
Y210000*
X550000*
X553200*
X550000Y210400D02*
X553200D01*
X550000Y210800D02*
X553200D01*
X550000Y211200D02*
X553200D01*
X550000Y211600D02*
X553200D01*
X550000Y212000D02*
X553200D01*
X550000Y212400D02*
X553200D01*
X550000Y210000D02*
Y212400D01*
X550400Y210000D02*
Y212400D01*
X550800Y210000D02*
Y212400D01*
X551200Y210000D02*
Y212400D01*
X551600Y210000D02*
Y212400D01*
X552000Y210000D02*
Y212400D01*
X552400Y210000D02*
Y212400D01*
X552800Y210000D02*
Y212400D01*
X553200Y210000D02*
Y212400D01*
G54D14*
X326000Y276000D03*
X350000Y244500D03*
X303500Y185000D03*
X290500Y276000D03*
X249500Y233500D03*
X353000Y276000D03*
X265000D03*
X612500D03*
X636500Y244500D03*
X590000Y185000D03*
X577000Y276000D03*
X536000Y233500D03*
X639500Y276000D03*
X551500D03*
G54D15*
X204500Y314500D02*
X218500D01*
Y299500*
X204500*
Y314500*
X491000D02*
X505000D01*
Y299500*
X491000*
Y314500*
X204500Y313899D02*
X218500D01*
X204500Y312999D02*
X218500D01*
X204500Y312099D02*
X218500D01*
X204500Y311199D02*
X218500D01*
X204500Y310299D02*
X218500D01*
X204500Y309399D02*
X218500D01*
X204500Y308499D02*
X218500D01*
X204500Y307599D02*
X218500D01*
X204500Y306699D02*
X218500D01*
X204500Y305799D02*
X218500D01*
X204500Y304899D02*
X218500D01*
X204500Y303999D02*
X218500D01*
X204500Y303099D02*
X218500D01*
X204500Y302199D02*
X218500D01*
X204500Y301299D02*
X218500D01*
X204500Y300399D02*
X218500D01*
X491000Y313899D02*
X505000D01*
X491000Y312999D02*
X505000D01*
X491000Y312099D02*
X505000D01*
X491000Y311199D02*
X505000D01*
X491000Y310299D02*
X505000D01*
X491000Y309399D02*
X505000D01*
X491000Y308499D02*
X505000D01*
X491000Y307599D02*
X505000D01*
X491000Y306699D02*
X505000D01*
X491000Y305799D02*
X505000D01*
X491000Y304899D02*
X505000D01*
X491000Y303999D02*
X505000D01*
X491000Y303099D02*
X505000D01*
X491000Y302199D02*
X505000D01*
X491000Y301299D02*
X505000D01*
X491000Y300399D02*
X505000D01*
G54D16*
X247200Y185450D02*
Y190650D01*
X252400*
Y185450*
X247200*
Y185600D02*
X252400D01*
X247200Y186400D02*
X252400D01*
X247200Y187200D02*
X252400D01*
X247200Y188000D02*
X252400D01*
X247200Y188800D02*
X252400D01*
X247200Y189600D02*
X252400D01*
X247200Y190400D02*
X252400D01*
X247200Y185450D02*
Y190650D01*
X248000Y185450D02*
Y190650D01*
X248800Y185450D02*
Y190650D01*
X249600Y185450D02*
Y190650D01*
X250400Y185450D02*
Y190650D01*
X251200Y185450D02*
Y190650D01*
X252000Y185450D02*
Y190650D01*
X247200Y198950D02*
Y204150D01*
X252400*
Y198950*
X247200*
Y199200D02*
X252400D01*
X247200Y200000D02*
X252400D01*
X247200Y200800D02*
X252400D01*
X247200Y201600D02*
X252400D01*
X247200Y202400D02*
X252400D01*
X247200Y203200D02*
X252400D01*
X247200Y204000D02*
X252400D01*
X247200Y198950D02*
Y204150D01*
X248000Y198950D02*
Y204150D01*
X248800Y198950D02*
Y204150D01*
X249600Y198950D02*
Y204150D01*
X250400Y198950D02*
Y204150D01*
X251200Y198950D02*
Y204150D01*
X252000Y198950D02*
Y204150D01*
X533700Y185450D02*
Y190650D01*
X538900*
Y185450*
X533700*
Y185600D02*
X538900D01*
X533700Y186400D02*
X538900D01*
X533700Y187200D02*
X538900D01*
X533700Y188000D02*
X538900D01*
X533700Y188800D02*
X538900D01*
X533700Y189600D02*
X538900D01*
X533700Y190400D02*
X538900D01*
X534400Y185450D02*
Y190650D01*
X535200Y185450D02*
Y190650D01*
X536000Y185450D02*
Y190650D01*
X536800Y185450D02*
Y190650D01*
X537600Y185450D02*
Y190650D01*
X538400Y185450D02*
Y190650D01*
X533700Y198950D02*
Y204150D01*
X538900*
Y198950*
X533700*
Y199200D02*
X538900D01*
X533700Y200000D02*
X538900D01*
X533700Y200800D02*
X538900D01*
X533700Y201600D02*
X538900D01*
X533700Y202400D02*
X538900D01*
X533700Y203200D02*
X538900D01*
X533700Y204000D02*
X538900D01*
X534400Y198950D02*
Y204150D01*
X535200Y198950D02*
Y204150D01*
X536000Y198950D02*
Y204150D01*
X536800Y198950D02*
Y204150D01*
X537600Y198950D02*
Y204150D01*
X538400Y198950D02*
Y204150D01*
G54D18*
X150500Y127000D03*
X191000Y478000D03*
X216000Y127000D03*
X316500Y489000D03*
Y467346D03*
X437000Y127000D03*
X477500Y478000D03*
X502500Y127000D03*
X603000Y489000D03*
Y467346D03*
G54D19*
X160500Y117000D03*
X140500D03*
Y137000D03*
X160500D03*
X201000Y468000D03*
X181000D03*
Y488000D03*
X201000D03*
X206000Y137000D03*
X226000D03*
Y117000D03*
X206000D03*
X447000D03*
X427000D03*
Y137000D03*
X447000D03*
X487500Y468000D03*
X467500D03*
Y488000D03*
X487500D03*
X492500Y137000D03*
X512500D03*
Y117000D03*
X492500D03*
X121500Y490000D02*
G75*
G03X121500I-6500J0D01*
G01X121511Y115000D02*
G03X121511I-6511J0D01*
G01X368500D02*
G03X368500I-6500J0D01*
G01Y490000D02*
G03X368500I-6500J0D01*
G01X184500Y350000D02*
G03X184500I-6000J0D01*
G01X408011Y490000D02*
G03X408011I-6511J0D01*
G01X655000D02*
G03X655000I-6500J0D01*
G01X408000Y115000D02*
G03X408000I-6500J0D01*
G01X655000D02*
G03X655000I-6500J0D01*
G01X471500Y350000D02*
G03X471500I-6500J0D01*
G01X121500Y490000D02*
G03X121500I-6500J0D01*
G01X121511Y115000D02*
G03X121511I-6511J0D01*
G01X368500D02*
G03X368500I-6500J0D01*
G01Y490000D02*
G03X368500I-6500J0D01*
G01X184500Y350000D02*
G03X184500I-6000J0D01*
G01X408011Y490000D02*
G03X408011I-6511J0D01*
G01X655000D02*
G03X655000I-6500J0D01*
G01X408000Y115000D02*
G03X408000I-6500J0D01*
G01X655000D02*
G03X655000I-6500J0D01*
G01X471500Y350000D02*
G03X471500I-6500J0D01*
G01X108999Y492499D02*
X121001D01*
X108983Y117488D02*
X121017D01*
X355999Y117499D02*
X368001D01*
X355999Y492499D02*
X368001D01*
X173303Y352999D02*
X183697D01*
X395483Y492488D02*
X407517D01*
X642499Y492499D02*
X654501D01*
X395499Y117499D02*
X407501D01*
X642499D02*
X654501D01*
X458999Y352499D02*
X471001D01*
G54D24*
X254500Y117000D03*
X262374D03*
X270248D03*
X278122D03*
X305000D03*
X312874D03*
X541000D03*
X548874D03*
X556748D03*
X564622D03*
X591500D03*
X599374D03*
G54D27*
X115000Y115000D03*
Y490000D03*
X362000D03*
Y115000D03*
X178500Y350000D03*
X401500Y115000D03*
Y490000D03*
X648500D03*
Y115000D03*
X465000Y350000D03*
G54D43*
X263500Y428100D03*
Y329675D03*
X550000Y428100D03*
Y329675D03*
G54D47*
X200673Y316843D03*
Y312906D03*
Y308969D03*
X487173Y316843D03*
Y312906D03*
Y308969D03*
G54D48*
X232142Y208661D03*
Y213780D03*
X249858Y216339D03*
Y213780D03*
Y211220D03*
Y208661D03*
X518642D03*
Y213780D03*
X536358Y216339D03*
Y213780D03*
Y211220D03*
Y208661D03*
G54D49*
X232142Y211220D03*
X518642D03*
G54D50*
X232142Y216339D03*
X518642D03*
G54D52*
X232142Y208661D03*
Y211220D03*
Y213780D03*
Y216339D03*
X249858D03*
Y213780D03*
Y211220D03*
Y208661D03*
X518642D03*
Y211220D03*
Y213780D03*
Y216339D03*
X536358D03*
Y213780D03*
Y211220D03*
Y208661D03*
G74*
X0Y0D02*
M02*
